<?xml version="1.0" encoding="UTF-8" standalone="no"?><svg xmlns="http://www.w3.org/2000/svg" xmlns:xlink="http://www.w3.org/1999/xlink" contentScriptType="application/ecmascript" contentStyleType="text/css" height="339px" preserveAspectRatio="none" style="width:435px;height:339px;background:#FFFFFF;" version="1.1" viewBox="0 0 435 339" width="435px" zoomAndPan="magnify"><defs><filter height="300%" id="f1wi1wpg42crb8" width="300%" x="-1" y="-1"><feGaussianBlur result="blurOut" stdDeviation="2.0"/><feColorMatrix in="blurOut" result="blurOut2" type="matrix" values="0 0 0 0 0 0 0 0 0 0 0 0 0 0 0 0 0 0 .4 0"/><feOffset dx="4.0" dy="4.0" in="blurOut2" result="blurOut3"/><feBlend in="SourceGraphic" in2="blurOut3" mode="normal"/></filter></defs><g><text fill="#000000" font-family="sans-serif" font-size="18" lengthAdjust="spacing" textLength="141" x="140.75" y="16.708">Mapping engine</text><!--MD5=[6c87a04b3cc13de0abd9b1cd63fee2fd]
class ast::MapperEngine--><rect codeLine="190" fill="#FEFECE" filter="url(#f1wi1wpg42crb8)" height="48" id="ast::MapperEngine" style="stroke:#A80036;stroke-width:1.5;" width="150" x="154" y="152.9531"/><ellipse cx="169" cy="168.9531" fill="#ADD1B2" rx="11" ry="11" style="stroke:#A80036;stroke-width:1.0;"/><path d="M171.9688,174.5938 Q171.3906,174.8906 170.75,175.0313 Q170.1094,175.1875 169.4063,175.1875 Q166.9063,175.1875 165.5781,173.5469 Q164.2656,171.8906 164.2656,168.7656 Q164.2656,165.6406 165.5781,163.9844 Q166.9063,162.3281 169.4063,162.3281 Q170.1094,162.3281 170.75,162.4844 Q171.4063,162.6406 171.9688,162.9375 L171.9688,165.6563 Q171.3438,165.0781 170.75,164.8125 Q170.1563,164.5313 169.5313,164.5313 Q168.1875,164.5313 167.5,165.6094 Q166.8125,166.6719 166.8125,168.7656 Q166.8125,170.8594 167.5,171.9375 Q168.1875,173 169.5313,173 Q170.1563,173 170.75,172.7344 Q171.3438,172.4531 171.9688,171.875 L171.9688,174.5938 Z " fill="#000000"/><text fill="#000000" font-family="sans-serif" font-size="12" lengthAdjust="spacing" textLength="118" x="183" y="173.1074">ast::MapperEngine</text><line style="stroke:#A80036;stroke-width:1.5;" x1="155" x2="303" y1="184.9531" y2="184.9531"/><line style="stroke:#A80036;stroke-width:1.5;" x1="155" x2="303" y1="192.9531" y2="192.9531"/><!--MD5=[f52e2ecdf0079dcc96389dc27593ca05]
class ast::UAMGrammer--><rect codeLine="191" fill="#FEFECE" filter="url(#f1wi1wpg42crb8)" height="48" id="ast::UAMGrammer" style="stroke:#A80036;stroke-width:1.5;" width="144" x="7" y="277.9531"/><ellipse cx="22" cy="293.9531" fill="#ADD1B2" rx="11" ry="11" style="stroke:#A80036;stroke-width:1.0;"/><path d="M24.9688,299.5938 Q24.3906,299.8906 23.75,300.0313 Q23.1094,300.1875 22.4063,300.1875 Q19.9063,300.1875 18.5781,298.5469 Q17.2656,296.8906 17.2656,293.7656 Q17.2656,290.6406 18.5781,288.9844 Q19.9063,287.3281 22.4063,287.3281 Q23.1094,287.3281 23.75,287.4844 Q24.4063,287.6406 24.9688,287.9375 L24.9688,290.6563 Q24.3438,290.0781 23.75,289.8125 Q23.1563,289.5313 22.5313,289.5313 Q21.1875,289.5313 20.5,290.6094 Q19.8125,291.6719 19.8125,293.7656 Q19.8125,295.8594 20.5,296.9375 Q21.1875,298 22.5313,298 Q23.1563,298 23.75,297.7344 Q24.3438,297.4531 24.9688,296.875 L24.9688,299.5938 Z " fill="#000000"/><text fill="#000000" font-family="sans-serif" font-size="12" lengthAdjust="spacing" textLength="112" x="36" y="298.1074">ast::UAMGrammer</text><line style="stroke:#A80036;stroke-width:1.5;" x1="8" x2="150" y1="309.9531" y2="309.9531"/><line style="stroke:#A80036;stroke-width:1.5;" x1="8" x2="150" y1="317.9531" y2="317.9531"/><!--MD5=[6b80bb4ae39d58fc6017d732a8f04c8f]
class ast::eval--><rect codeLine="192" fill="#FEFECE" filter="url(#f1wi1wpg42crb8)" height="48" id="ast::eval" style="stroke:#A80036;stroke-width:1.5;" width="85" x="186.5" y="277.9531"/><ellipse cx="201.5" cy="293.9531" fill="#ADD1B2" rx="11" ry="11" style="stroke:#A80036;stroke-width:1.0;"/><path d="M204.4688,299.5938 Q203.8906,299.8906 203.25,300.0313 Q202.6094,300.1875 201.9063,300.1875 Q199.4063,300.1875 198.0781,298.5469 Q196.7656,296.8906 196.7656,293.7656 Q196.7656,290.6406 198.0781,288.9844 Q199.4063,287.3281 201.9063,287.3281 Q202.6094,287.3281 203.25,287.4844 Q203.9063,287.6406 204.4688,287.9375 L204.4688,290.6563 Q203.8438,290.0781 203.25,289.8125 Q202.6563,289.5313 202.0313,289.5313 Q200.6875,289.5313 200,290.6094 Q199.3125,291.6719 199.3125,293.7656 Q199.3125,295.8594 200,296.9375 Q200.6875,298 202.0313,298 Q202.6563,298 203.25,297.7344 Q203.8438,297.4531 204.4688,296.875 L204.4688,299.5938 Z " fill="#000000"/><text fill="#000000" font-family="sans-serif" font-size="12" lengthAdjust="spacing" textLength="53" x="215.5" y="298.1074">ast::eval</text><line style="stroke:#A80036;stroke-width:1.5;" x1="187.5" x2="270.5" y1="309.9531" y2="309.9531"/><line style="stroke:#A80036;stroke-width:1.5;" x1="187.5" x2="270.5" y1="317.9531" y2="317.9531"/><!--MD5=[6f256cbe1750f98aa4d83d0e299c34ec]
class ast::dep_eval--><rect codeLine="193" fill="#FEFECE" filter="url(#f1wi1wpg42crb8)" height="48" id="ast::dep_eval" style="stroke:#A80036;stroke-width:1.5;" width="115" x="306.5" y="277.9531"/><ellipse cx="321.5" cy="293.9531" fill="#ADD1B2" rx="11" ry="11" style="stroke:#A80036;stroke-width:1.0;"/><path d="M324.4688,299.5938 Q323.8906,299.8906 323.25,300.0313 Q322.6094,300.1875 321.9063,300.1875 Q319.4063,300.1875 318.0781,298.5469 Q316.7656,296.8906 316.7656,293.7656 Q316.7656,290.6406 318.0781,288.9844 Q319.4063,287.3281 321.9063,287.3281 Q322.6094,287.3281 323.25,287.4844 Q323.9063,287.6406 324.4688,287.9375 L324.4688,290.6563 Q323.8438,290.0781 323.25,289.8125 Q322.6563,289.5313 322.0313,289.5313 Q320.6875,289.5313 320,290.6094 Q319.3125,291.6719 319.3125,293.7656 Q319.3125,295.8594 320,296.9375 Q320.6875,298 322.0313,298 Q322.6563,298 323.25,297.7344 Q323.8438,297.4531 324.4688,296.875 L324.4688,299.5938 Z " fill="#000000"/><text fill="#000000" font-family="sans-serif" font-size="12" lengthAdjust="spacing" textLength="83" x="335.5" y="298.1074">ast::dep_eval</text><line style="stroke:#A80036;stroke-width:1.5;" x1="307.5" x2="420.5" y1="309.9531" y2="309.9531"/><line style="stroke:#A80036;stroke-width:1.5;" x1="307.5" x2="420.5" y1="317.9531" y2="317.9531"/><!--MD5=[d9a9ef0d97f910e9ce2a035af3295237]
class attribute_store--><rect codeLine="194" fill="#FEFECE" filter="url(#f1wi1wpg42crb8)" height="48" id="attribute_store" style="stroke:#A80036;stroke-width:1.5;" width="126" x="166" y="27.9531"/><ellipse cx="181" cy="43.9531" fill="#ADD1B2" rx="11" ry="11" style="stroke:#A80036;stroke-width:1.0;"/><path d="M183.9688,49.5938 Q183.3906,49.8906 182.75,50.0313 Q182.1094,50.1875 181.4063,50.1875 Q178.9063,50.1875 177.5781,48.5469 Q176.2656,46.8906 176.2656,43.7656 Q176.2656,40.6406 177.5781,38.9844 Q178.9063,37.3281 181.4063,37.3281 Q182.1094,37.3281 182.75,37.4844 Q183.4063,37.6406 183.9688,37.9375 L183.9688,40.6563 Q183.3438,40.0781 182.75,39.8125 Q182.1563,39.5313 181.5313,39.5313 Q180.1875,39.5313 179.5,40.6094 Q178.8125,41.6719 178.8125,43.7656 Q178.8125,45.8594 179.5,46.9375 Q180.1875,48 181.5313,48 Q182.1563,48 182.75,47.7344 Q183.3438,47.4531 183.9688,46.875 L183.9688,49.5938 Z " fill="#000000"/><text fill="#000000" font-family="sans-serif" font-size="12" lengthAdjust="spacing" textLength="94" x="195" y="48.1074">attribute_store</text><line style="stroke:#A80036;stroke-width:1.5;" x1="167" x2="291" y1="59.9531" y2="59.9531"/><line style="stroke:#A80036;stroke-width:1.5;" x1="167" x2="291" y1="67.9531" y2="67.9531"/><!--MD5=[7171e165f37fc7eaadbee39d21697efa]
reverse link ast::MapperEngine to ast::UAMGrammer--><path codeLine="196" d="M184.687,213.8806 C159.8545,234.5744 129.5985,259.7877 107.8327,277.9258 " fill="none" id="ast::MapperEngine-backto-ast::UAMGrammer" style="stroke:#A80036;stroke-width:1.0;"/><polygon fill="none" points="180.2327,208.4805,200.0785,201.0544,189.1953,219.2356,180.2327,208.4805" style="stroke:#A80036;stroke-width:1.0;"/><text fill="#000000" font-family="sans-serif" font-size="13" lengthAdjust="spacing" textLength="25" x="164" y="244.02">AST</text><!--MD5=[3ddef8f292b70a6d8a2acd914718bc64]
reverse link ast::MapperEngine to ast::eval--><path codeLine="197" d="M229,221.1354 C229,240.245 229,261.8606 229,277.9258 " fill="none" id="ast::MapperEngine-backto-ast::eval" style="stroke:#A80036;stroke-width:1.0;"/><polygon fill="none" points="222.0001,221.0544,229,201.0544,236.0001,221.0543,222.0001,221.0544" style="stroke:#A80036;stroke-width:1.0;"/><text fill="#000000" font-family="sans-serif" font-size="13" lengthAdjust="spacing" textLength="89" x="230" y="244.02">optional value</text><!--MD5=[954928cac6b8cfcbd682f817d8f14c1b]
reverse link ast::MapperEngine to ast::dep_eval--><path codeLine="198" d="M301.2347,211.6007 C309.7848,217.3797 317.9591,223.8408 325,230.9531 C338.1592,244.2458 348.1718,262.8903 354.7554,277.738 " fill="none" id="ast::MapperEngine-backto-ast::dep_eval" style="stroke:#A80036;stroke-width:1.0;"/><polygon fill="none" points="297.3686,217.4414,283.9713,201.0245,304.6822,205.5035,297.3686,217.4414" style="stroke:#A80036;stroke-width:1.0;"/><text fill="#000000" font-family="sans-serif" font-size="13" lengthAdjust="spacing" textLength="89" x="338" y="244.02">dependencies</text><!--MD5=[4adf6ec12c9aa765e7a157e73e3164db]
link attribute_store to ast::MapperEngine--><path codeLine="199" d="M229,76.0544 C229,92.1366 229,113.7569 229,132.8587 " fill="none" id="attribute_store-to-ast::MapperEngine" style="stroke:#A80036;stroke-width:1.0;"/><polygon fill="none" points="236.0001,132.9259,229,152.9258,222.0001,132.9258,236.0001,132.9259" style="stroke:#A80036;stroke-width:1.0;"/><text fill="#000000" font-family="sans-serif" font-size="13" lengthAdjust="spacing" textLength="148" x="230" y="119.02">on_attribute_updated()</text><!--MD5=[a4c36baad7a169a3a93b81afc56c04c6]
@startuml inline_umlgraph_3.svg
title Relationships - Class Diagram

title Mapping engine

class ast::MapperEngine
class ast::UAMGrammer
class ast::eval
class ast::dep_eval
class attribute_store

ast::MapperEngine <|-down- ast::UAMGrammer : AST
ast::MapperEngine <|-down- ast::eval : optional value
ast::MapperEngine <|-down- ast::dep_eval : dependencies
ast::MapperEngine <|-up-   attribute_store:  on_attribute_updated()
@enduml

PlantUML version 1.2022.0(Tue Jan 11 16:16:42 UTC 2022)
(GPL source distribution)
Java Runtime: OpenJDK Runtime Environment
JVM: OpenJDK 64-Bit Server VM
Default Encoding: ANSI_X3.4-1968
Language: en
Country: US
--></g></svg>