<?xml version="1.0" encoding="UTF-8" standalone="no"?><svg xmlns="http://www.w3.org/2000/svg" xmlns:xlink="http://www.w3.org/1999/xlink" contentScriptType="application/ecmascript" contentStyleType="text/css" height="256px" preserveAspectRatio="none" style="width:600px;height:256px;background:#FFFFFF;" version="1.1" viewBox="0 0 600 256" width="600px" zoomAndPan="magnify"><defs><filter height="300%" id="ftgae122084i8" width="300%" x="-1" y="-1"><feGaussianBlur result="blurOut" stdDeviation="2.0"/><feColorMatrix in="blurOut" result="blurOut2" type="matrix" values="0 0 0 0 0 0 0 0 0 0 0 0 0 0 0 0 0 0 .4 0"/><feOffset dx="4.0" dy="4.0" in="blurOut2" result="blurOut3"/><feBlend in="SourceGraphic" in2="blurOut3" mode="normal"/></filter></defs><g><ellipse cx="319.2079" cy="128.6416" fill="#FEFECE" filter="url(#ftgae122084i8)" rx="76.2079" ry="17.6416" style="stroke:#A80036;stroke-width:1.5;"/><text fill="#000000" font-family="sans-serif" font-size="14" lengthAdjust="spacing" textLength="109" x="264.7079" y="131.9326">Mosquito MQTT</text><ellipse cx="509.1259" cy="128.7252" fill="#FEFECE" filter="url(#ftgae122084i8)" rx="79.1259" ry="18.2252" style="stroke:#A80036;stroke-width:1.5;"/><text fill="#000000" font-family="sans-serif" font-size="14" lengthAdjust="spacing" textLength="116" x="451.1259" y="132.0162">Smartstart - upvl</text><ellipse cx="231.069" cy="228.2138" fill="#FEFECE" filter="url(#ftgae122084i8)" rx="69.069" ry="16.2138" style="stroke:#A80036;stroke-width:1.5;"/><text fill="#000000" font-family="sans-serif" font-size="14" lengthAdjust="spacing" textLength="91" x="183.255" y="232.083">Z-Wave - zpc</text><ellipse cx="407.1429" cy="227.8286" fill="#FEFECE" filter="url(#ftgae122084i8)" rx="72.1429" ry="16.8286" style="stroke:#A80036;stroke-width:1.5;"/><text fill="#000000" font-family="sans-serif" font-size="14" lengthAdjust="spacing" textLength="99" x="356.9529" y="231.3054">Zigbee - zigpc</text><ellipse cx="319.1434" cy="26.0287" fill="#FEFECE" filter="url(#ftgae122084i8)" rx="88.1434" ry="20.0287" style="stroke:#A80036;stroke-width:1.5;"/><text fill="#000000" font-family="sans-serif" font-size="14" lengthAdjust="spacing" textLength="137" x="250.6434" y="29.3197">OTA Image Provider</text><ellipse cx="107.0823" cy="128.6165" fill="#FEFECE" filter="url(#ftgae122084i8)" rx="101.0823" ry="22.6165" style="stroke:#A80036;stroke-width:1.5;"/><text fill="#000000" font-family="sans-serif" font-size="14" lengthAdjust="spacing" textLength="166" x="24.0823" y="131.9075">Developer GUI - dev_gui</text><!--MD5=[6c131ba2f044637997eddb20d7f80c9f]
reverse link mqtt to zpc--><path d="M300.39,150.12 C283.56,168.76 259.2,195.75 244.27,212.3 " fill="none" id="mqtt-backto-zpc" style="stroke:#A80036;stroke-width:1.0;"/><polygon fill="#A80036" points="304.07,146.04,295.0761,150.0538,300.7252,149.7565,301.0225,155.4055,304.07,146.04" style="stroke:#A80036;stroke-width:1.0;"/><!--MD5=[2c5bccde04e0349a9bb4944bebaf76c0]
reverse link mqtt to zigpc--><path d="M337.52,150.02 C353.93,168.2 377.55,194.37 392.58,211.03 " fill="none" id="mqtt-backto-zigpc" style="stroke:#A80036;stroke-width:1.0;"/><polygon fill="#A80036" points="333.93,146.04,336.9775,155.4055,337.2748,149.7565,342.9239,150.0538,333.93,146.04" style="stroke:#A80036;stroke-width:1.0;"/><!--MD5=[078ded5cea3da428960ec2f74822bafe]
link image_provider to mqtt--><path d="M319,46.38 C319,63.33 319,87.94 319,105.61 " fill="none" id="image_provider-to-mqtt" style="stroke:#A80036;stroke-width:1.0;"/><polygon fill="#A80036" points="319,110.85,323,101.85,319,105.85,315,101.85,319,110.85" style="stroke:#A80036;stroke-width:1.0;"/><!--MD5=[f999025f6e61c3c8fcc2c1ef7179b6a3]
reverse link mqtt to upvl--><path d="M400.23,128.5 C410.08,128.5 419.93,128.5 429.79,128.5 " fill="none" id="mqtt-backto-upvl" style="stroke:#A80036;stroke-width:1.0;"/><polygon fill="#A80036" points="395.07,128.5,404.07,132.5,400.07,128.5,404.07,124.5,395.07,128.5" style="stroke:#A80036;stroke-width:1.0;"/><!--MD5=[8fb510c8561b6739c8efaca7aa109b05]
link Developer GUI - dev_gui to mqtt--><path d="M208.03,128.5 C217.87,128.5 227.72,128.5 237.56,128.5 " fill="none" id="Developer GUI - dev_gui-to-mqtt" style="stroke:#A80036;stroke-width:1.0;"/><polygon fill="#A80036" points="242.71,128.5,233.71,124.5,237.71,128.5,233.71,132.5,242.71,128.5" style="stroke:#A80036;stroke-width:1.0;"/><!--MD5=[3466c53418c751e1e8be8eebfae46396]
@startuml SDKOverview
(Mosquito MQTT) as mqtt
(Smartstart - upvl) as upvl
(Z-Wave - zpc) as zpc
(Zigbee - zigpc) as zigpc
(OTA Image Provider) as image_provider

(zpc) -u-> (mqtt)
(zigpc) -u-> (mqtt)
(image_provider) -d-> (mqtt)

(upvl) -l-> (mqtt)
(Developer GUI - dev_gui) -r-> (mqtt)

@enduml

PlantUML version 1.2021.7(Sun May 23 14:40:07 CEST 2021)
(GPL source distribution)
Java Runtime: OpenJDK Runtime Environment
JVM: OpenJDK 64-Bit Server VM
Default Encoding: UTF-8
Language: en
Country: GB
--></g></svg>