<?xml version="1.0" encoding="UTF-8" standalone="no"?><svg xmlns="http://www.w3.org/2000/svg" xmlns:xlink="http://www.w3.org/1999/xlink" contentScriptType="application/ecmascript" contentStyleType="text/css" height="640px" preserveAspectRatio="none" style="width:1378px;height:640px;" version="1.1" viewBox="0 0 1378 640" width="1378px" zoomAndPan="magnify"><defs><filter height="300%" id="f1psngixv77gb8" width="300%" x="-1" y="-1"><feGaussianBlur result="blurOut" stdDeviation="2.0"/><feColorMatrix in="blurOut" result="blurOut2" type="matrix" values="0 0 0 0 0 0 0 0 0 0 0 0 0 0 0 0 0 0 .4 0"/><feOffset dx="4.0" dy="4.0" in="blurOut2" result="blurOut3"/><feBlend in="SourceGraphic" in2="blurOut3" mode="normal"/></filter></defs><g><!--MD5=[f2e3e05f1cd67ac9bd3fa4f68fc5e177]
class AttributeStoreRoot--><rect codeLine="111" fill="#FEFECE" filter="url(#f1psngixv77gb8)" height="48" id="AttributeStoreRoot" style="stroke:#A80036;stroke-width:1.5;" width="150" x="494.5" y="7"/><ellipse cx="509.5" cy="23" fill="#ADD1B2" rx="11" ry="11" style="stroke:#A80036;stroke-width:1.0;"/><path d="M512.4688,28.6406 Q511.8906,28.9375 511.25,29.0781 Q510.6094,29.2344 509.9063,29.2344 Q507.4063,29.2344 506.0781,27.5938 Q504.7656,25.9375 504.7656,22.8125 Q504.7656,19.6875 506.0781,18.0313 Q507.4063,16.375 509.9063,16.375 Q510.6094,16.375 511.25,16.5313 Q511.9063,16.6875 512.4688,16.9844 L512.4688,19.7031 Q511.8438,19.125 511.25,18.8594 Q510.6563,18.5781 510.0313,18.5781 Q508.6875,18.5781 508,19.6563 Q507.3125,20.7188 507.3125,22.8125 Q507.3125,24.9063 508,25.9844 Q508.6875,27.0469 510.0313,27.0469 Q510.6563,27.0469 511.25,26.7813 Q511.8438,26.5 512.4688,25.9219 L512.4688,28.6406 Z " fill="#000000"/><text fill="#000000" font-family="sans-serif" font-size="12" lengthAdjust="spacing" textLength="118" x="523.5" y="27.1543">AttributeStoreRoot</text><line style="stroke:#A80036;stroke-width:1.5;" x1="495.5" x2="643.5" y1="39" y2="39"/><line style="stroke:#A80036;stroke-width:1.5;" x1="495.5" x2="643.5" y1="47" y2="47"/><!--MD5=[ec81f511f4d20a18ef555a8be4cd58b8]
class Network--><rect codeLine="112" fill="#FEFECE" filter="url(#f1psngixv77gb8)" height="77.9492" id="Network" style="stroke:#A80036;stroke-width:1.5;" width="118" x="510.5" y="132"/><ellipse cx="535.4" cy="150.9688" fill="#ADD1B2" rx="11" ry="11" style="stroke:#A80036;stroke-width:1.0;"/><path d="M539.5094,156.9688 L531.7906,156.9688 L531.7906,144.5781 L539.5094,144.5781 L539.5094,146.7344 L534.2438,146.7344 L534.2438,149.4063 L539.0094,149.4063 L539.0094,151.5625 L534.2438,151.5625 L534.2438,154.8125 L539.5094,154.8125 L539.5094,156.9688 Z " fill="#000000"/><text fill="#000000" font-family="sans-serif" font-size="12" font-style="italic" lengthAdjust="spacing" textLength="68" x="549.6" y="148.1387">«instance»</text><text fill="#000000" font-family="sans-serif" font-size="12" lengthAdjust="spacing" textLength="51" x="558.1" y="162.1074">Network</text><line style="stroke:#A80036;stroke-width:1.5;" x1="511.5" x2="627.5" y1="169.9375" y2="169.9375"/><text fill="#000000" font-family="sans-serif" font-size="11" lengthAdjust="spacing" textLength="106" x="516.5" y="184.1479">uint8_t search_key</text><line style="stroke:#A80036;stroke-width:1.0;stroke-dasharray:1.0,2.0;" x1="511.5" x2="528.5" y1="197.1445" y2="197.1445"/><text fill="#000000" font-family="sans-serif" font-size="11" lengthAdjust="spacing" textLength="82" x="528.5" y="200.4526">.network data.</text><line style="stroke:#A80036;stroke-width:1.0;stroke-dasharray:1.0,2.0;" x1="610.5" x2="627.5" y1="197.1445" y2="197.1445"/><!--MD5=[473bf179a3ddcb8f3a1737de73d410bd]
class Device_1--><rect codeLine="116" fill="#FEFECE" filter="url(#f1psngixv77gb8)" height="77.9492" id="Device_1" style="stroke:#A80036;stroke-width:1.5;" width="163" x="256" y="271"/><ellipse cx="301.25" cy="289.9688" fill="#ADD1B2" rx="11" ry="11" style="stroke:#A80036;stroke-width:1.0;"/><path d="M305.3594,295.9688 L297.6406,295.9688 L297.6406,283.5781 L305.3594,283.5781 L305.3594,285.7344 L300.0938,285.7344 L300.0938,288.4063 L304.8594,288.4063 L304.8594,290.5625 L300.0938,290.5625 L300.0938,293.8125 L305.3594,293.8125 L305.3594,295.9688 Z " fill="#000000"/><text fill="#000000" font-family="sans-serif" font-size="12" font-style="italic" lengthAdjust="spacing" textLength="68" x="319.75" y="287.1387">«instance»</text><text fill="#000000" font-family="sans-serif" font-size="12" lengthAdjust="spacing" textLength="55" x="326.25" y="301.1074">Device_1</text><line style="stroke:#A80036;stroke-width:1.5;" x1="257" x2="418" y1="308.9375" y2="308.9375"/><text fill="#000000" font-family="sans-serif" font-size="11" lengthAdjust="spacing" textLength="151" x="262" y="323.1479">zigbee_eui64_t search_key</text><line style="stroke:#A80036;stroke-width:1.0;stroke-dasharray:1.0,2.0;" x1="257" x2="301" y1="336.1445" y2="336.1445"/><text fill="#000000" font-family="sans-serif" font-size="11" lengthAdjust="spacing" textLength="73" x="301" y="339.4526">.device data.</text><line style="stroke:#A80036;stroke-width:1.0;stroke-dasharray:1.0,2.0;" x1="374" x2="418" y1="336.1445" y2="336.1445"/><!--MD5=[ee087e50cea9ae90f445cb025459ddda]
class Device_2--><rect codeLine="120" fill="#FEFECE" filter="url(#f1psngixv77gb8)" height="77.9492" id="Device_2" style="stroke:#A80036;stroke-width:1.5;" width="163" x="488" y="271"/><ellipse cx="533.25" cy="289.9688" fill="#ADD1B2" rx="11" ry="11" style="stroke:#A80036;stroke-width:1.0;"/><path d="M537.3594,295.9688 L529.6406,295.9688 L529.6406,283.5781 L537.3594,283.5781 L537.3594,285.7344 L532.0938,285.7344 L532.0938,288.4063 L536.8594,288.4063 L536.8594,290.5625 L532.0938,290.5625 L532.0938,293.8125 L537.3594,293.8125 L537.3594,295.9688 Z " fill="#000000"/><text fill="#000000" font-family="sans-serif" font-size="12" font-style="italic" lengthAdjust="spacing" textLength="68" x="551.75" y="287.1387">«instance»</text><text fill="#000000" font-family="sans-serif" font-size="12" lengthAdjust="spacing" textLength="55" x="558.25" y="301.1074">Device_2</text><line style="stroke:#A80036;stroke-width:1.5;" x1="489" x2="650" y1="308.9375" y2="308.9375"/><text fill="#000000" font-family="sans-serif" font-size="11" lengthAdjust="spacing" textLength="151" x="494" y="323.1479">zigbee_eui64_t search_key</text><line style="stroke:#A80036;stroke-width:1.0;stroke-dasharray:1.0,2.0;" x1="489" x2="533" y1="336.1445" y2="336.1445"/><text fill="#000000" font-family="sans-serif" font-size="11" lengthAdjust="spacing" textLength="73" x="533" y="339.4526">.device data.</text><line style="stroke:#A80036;stroke-width:1.0;stroke-dasharray:1.0,2.0;" x1="606" x2="650" y1="336.1445" y2="336.1445"/><!--MD5=[c19ac7e0c4a836e0b21bf9042ad5d402]
class Device_3--><rect codeLine="124" fill="#FEFECE" filter="url(#f1psngixv77gb8)" height="77.9492" id="Device_3" style="stroke:#A80036;stroke-width:1.5;" width="163" x="860" y="271"/><ellipse cx="905.25" cy="289.9688" fill="#ADD1B2" rx="11" ry="11" style="stroke:#A80036;stroke-width:1.0;"/><path d="M909.3594,295.9688 L901.6406,295.9688 L901.6406,283.5781 L909.3594,283.5781 L909.3594,285.7344 L904.0938,285.7344 L904.0938,288.4063 L908.8594,288.4063 L908.8594,290.5625 L904.0938,290.5625 L904.0938,293.8125 L909.3594,293.8125 L909.3594,295.9688 Z " fill="#000000"/><text fill="#000000" font-family="sans-serif" font-size="12" font-style="italic" lengthAdjust="spacing" textLength="68" x="923.75" y="287.1387">«instance»</text><text fill="#000000" font-family="sans-serif" font-size="12" lengthAdjust="spacing" textLength="55" x="930.25" y="301.1074">Device_3</text><line style="stroke:#A80036;stroke-width:1.5;" x1="861" x2="1022" y1="308.9375" y2="308.9375"/><text fill="#000000" font-family="sans-serif" font-size="11" lengthAdjust="spacing" textLength="151" x="866" y="323.1479">zigbee_eui64_t search_key</text><line style="stroke:#A80036;stroke-width:1.0;stroke-dasharray:1.0,2.0;" x1="861" x2="905" y1="336.1445" y2="336.1445"/><text fill="#000000" font-family="sans-serif" font-size="11" lengthAdjust="spacing" textLength="73" x="905" y="339.4526">.device data.</text><line style="stroke:#A80036;stroke-width:1.0;stroke-dasharray:1.0,2.0;" x1="978" x2="1022" y1="336.1445" y2="336.1445"/><!--MD5=[78187d4f6b92f56226e9b58dd541f4a0]
class Endpoint_1_1--><rect codeLine="128" fill="#FEFECE" filter="url(#f1psngixv77gb8)" height="77.9492" id="Endpoint_1_1" style="stroke:#A80036;stroke-width:1.5;" width="197" x="7" y="410"/><ellipse cx="59.25" cy="428.9688" fill="#ADD1B2" rx="11" ry="11" style="stroke:#A80036;stroke-width:1.0;"/><path d="M63.3594,434.9688 L55.6406,434.9688 L55.6406,422.5781 L63.3594,422.5781 L63.3594,424.7344 L58.0938,424.7344 L58.0938,427.4063 L62.8594,427.4063 L62.8594,429.5625 L58.0938,429.5625 L58.0938,432.8125 L63.3594,432.8125 L63.3594,434.9688 Z " fill="#000000"/><text fill="#000000" font-family="sans-serif" font-size="12" font-style="italic" lengthAdjust="spacing" textLength="68" x="87.75" y="426.1387">«instance»</text><text fill="#000000" font-family="sans-serif" font-size="12" lengthAdjust="spacing" textLength="84" x="79.75" y="440.1074">Endpoint_1_1</text><line style="stroke:#A80036;stroke-width:1.5;" x1="8" x2="203" y1="447.9375" y2="447.9375"/><text fill="#000000" font-family="sans-serif" font-size="11" lengthAdjust="spacing" textLength="185" x="13" y="462.1479">zigbee_endpoint_id_t search_key</text><line style="stroke:#A80036;stroke-width:1.0;stroke-dasharray:1.0,2.0;" x1="8" x2="62.5" y1="475.1445" y2="475.1445"/><text fill="#000000" font-family="sans-serif" font-size="11" lengthAdjust="spacing" textLength="86" x="62.5" y="478.4526">.endpoint data.</text><line style="stroke:#A80036;stroke-width:1.0;stroke-dasharray:1.0,2.0;" x1="148.5" x2="203" y1="475.1445" y2="475.1445"/><!--MD5=[7580494746872b6435953b94fc996e49]
class Endpoint_1_2--><rect codeLine="132" fill="#FEFECE" filter="url(#f1psngixv77gb8)" height="77.9492" id="Endpoint_1_2" style="stroke:#A80036;stroke-width:1.5;" width="197" x="239" y="410"/><ellipse cx="291.25" cy="428.9688" fill="#ADD1B2" rx="11" ry="11" style="stroke:#A80036;stroke-width:1.0;"/><path d="M295.3594,434.9688 L287.6406,434.9688 L287.6406,422.5781 L295.3594,422.5781 L295.3594,424.7344 L290.0938,424.7344 L290.0938,427.4063 L294.8594,427.4063 L294.8594,429.5625 L290.0938,429.5625 L290.0938,432.8125 L295.3594,432.8125 L295.3594,434.9688 Z " fill="#000000"/><text fill="#000000" font-family="sans-serif" font-size="12" font-style="italic" lengthAdjust="spacing" textLength="68" x="319.75" y="426.1387">«instance»</text><text fill="#000000" font-family="sans-serif" font-size="12" lengthAdjust="spacing" textLength="84" x="311.75" y="440.1074">Endpoint_1_2</text><line style="stroke:#A80036;stroke-width:1.5;" x1="240" x2="435" y1="447.9375" y2="447.9375"/><text fill="#000000" font-family="sans-serif" font-size="11" lengthAdjust="spacing" textLength="185" x="245" y="462.1479">zigbee_endpoint_id_t search_key</text><line style="stroke:#A80036;stroke-width:1.0;stroke-dasharray:1.0,2.0;" x1="240" x2="294.5" y1="475.1445" y2="475.1445"/><text fill="#000000" font-family="sans-serif" font-size="11" lengthAdjust="spacing" textLength="86" x="294.5" y="478.4526">.endpoint data.</text><line style="stroke:#A80036;stroke-width:1.0;stroke-dasharray:1.0,2.0;" x1="380.5" x2="435" y1="475.1445" y2="475.1445"/><!--MD5=[4cd29f9591bbe4fc2c1a295e508ba2db]
class Endpoint_2_1--><rect codeLine="136" fill="#FEFECE" filter="url(#f1psngixv77gb8)" height="77.9492" id="Endpoint_2_1" style="stroke:#A80036;stroke-width:1.5;" width="197" x="471" y="410"/><ellipse cx="523.25" cy="428.9688" fill="#ADD1B2" rx="11" ry="11" style="stroke:#A80036;stroke-width:1.0;"/><path d="M527.3594,434.9688 L519.6406,434.9688 L519.6406,422.5781 L527.3594,422.5781 L527.3594,424.7344 L522.0938,424.7344 L522.0938,427.4063 L526.8594,427.4063 L526.8594,429.5625 L522.0938,429.5625 L522.0938,432.8125 L527.3594,432.8125 L527.3594,434.9688 Z " fill="#000000"/><text fill="#000000" font-family="sans-serif" font-size="12" font-style="italic" lengthAdjust="spacing" textLength="68" x="551.75" y="426.1387">«instance»</text><text fill="#000000" font-family="sans-serif" font-size="12" lengthAdjust="spacing" textLength="84" x="543.75" y="440.1074">Endpoint_2_1</text><line style="stroke:#A80036;stroke-width:1.5;" x1="472" x2="667" y1="447.9375" y2="447.9375"/><text fill="#000000" font-family="sans-serif" font-size="11" lengthAdjust="spacing" textLength="185" x="477" y="462.1479">zigbee_endpoint_id_t search_key</text><line style="stroke:#A80036;stroke-width:1.0;stroke-dasharray:1.0,2.0;" x1="472" x2="526.5" y1="475.1445" y2="475.1445"/><text fill="#000000" font-family="sans-serif" font-size="11" lengthAdjust="spacing" textLength="86" x="526.5" y="478.4526">.endpoint data.</text><line style="stroke:#A80036;stroke-width:1.0;stroke-dasharray:1.0,2.0;" x1="612.5" x2="667" y1="475.1445" y2="475.1445"/><!--MD5=[ba090b03b1bfe91a65e516ffa99414f8]
class Endpoint_3_1--><rect codeLine="140" fill="#FEFECE" filter="url(#f1psngixv77gb8)" height="77.9492" id="Endpoint_3_1" style="stroke:#A80036;stroke-width:1.5;" width="197" x="703" y="410"/><ellipse cx="755.25" cy="428.9688" fill="#ADD1B2" rx="11" ry="11" style="stroke:#A80036;stroke-width:1.0;"/><path d="M759.3594,434.9688 L751.6406,434.9688 L751.6406,422.5781 L759.3594,422.5781 L759.3594,424.7344 L754.0938,424.7344 L754.0938,427.4063 L758.8594,427.4063 L758.8594,429.5625 L754.0938,429.5625 L754.0938,432.8125 L759.3594,432.8125 L759.3594,434.9688 Z " fill="#000000"/><text fill="#000000" font-family="sans-serif" font-size="12" font-style="italic" lengthAdjust="spacing" textLength="68" x="783.75" y="426.1387">«instance»</text><text fill="#000000" font-family="sans-serif" font-size="12" lengthAdjust="spacing" textLength="84" x="775.75" y="440.1074">Endpoint_3_1</text><line style="stroke:#A80036;stroke-width:1.5;" x1="704" x2="899" y1="447.9375" y2="447.9375"/><text fill="#000000" font-family="sans-serif" font-size="11" lengthAdjust="spacing" textLength="185" x="709" y="462.1479">zigbee_endpoint_id_t search_key</text><line style="stroke:#A80036;stroke-width:1.0;stroke-dasharray:1.0,2.0;" x1="704" x2="758.5" y1="475.1445" y2="475.1445"/><text fill="#000000" font-family="sans-serif" font-size="11" lengthAdjust="spacing" textLength="86" x="758.5" y="478.4526">.endpoint data.</text><line style="stroke:#A80036;stroke-width:1.0;stroke-dasharray:1.0,2.0;" x1="844.5" x2="899" y1="475.1445" y2="475.1445"/><!--MD5=[f37b0ffdb3aa5498d553a7a5c7d6f3fd]
class Endpoint_3_2--><rect codeLine="144" fill="#FEFECE" filter="url(#f1psngixv77gb8)" height="77.9492" id="Endpoint_3_2" style="stroke:#A80036;stroke-width:1.5;" width="197" x="935" y="410"/><ellipse cx="987.25" cy="428.9688" fill="#ADD1B2" rx="11" ry="11" style="stroke:#A80036;stroke-width:1.0;"/><path d="M991.3594,434.9688 L983.6406,434.9688 L983.6406,422.5781 L991.3594,422.5781 L991.3594,424.7344 L986.0938,424.7344 L986.0938,427.4063 L990.8594,427.4063 L990.8594,429.5625 L986.0938,429.5625 L986.0938,432.8125 L991.3594,432.8125 L991.3594,434.9688 Z " fill="#000000"/><text fill="#000000" font-family="sans-serif" font-size="12" font-style="italic" lengthAdjust="spacing" textLength="68" x="1015.75" y="426.1387">«instance»</text><text fill="#000000" font-family="sans-serif" font-size="12" lengthAdjust="spacing" textLength="84" x="1007.75" y="440.1074">Endpoint_3_2</text><line style="stroke:#A80036;stroke-width:1.5;" x1="936" x2="1131" y1="447.9375" y2="447.9375"/><text fill="#000000" font-family="sans-serif" font-size="11" lengthAdjust="spacing" textLength="185" x="941" y="462.1479">zigbee_endpoint_id_t search_key</text><line style="stroke:#A80036;stroke-width:1.0;stroke-dasharray:1.0,2.0;" x1="936" x2="990.5" y1="475.1445" y2="475.1445"/><text fill="#000000" font-family="sans-serif" font-size="11" lengthAdjust="spacing" textLength="86" x="990.5" y="478.4526">.endpoint data.</text><line style="stroke:#A80036;stroke-width:1.0;stroke-dasharray:1.0,2.0;" x1="1076.5" x2="1131" y1="475.1445" y2="475.1445"/><!--MD5=[305c0e0881aaac55b27c44350cf2cf96]
class Endpoint_3_3--><rect codeLine="148" fill="#FEFECE" filter="url(#f1psngixv77gb8)" height="77.9492" id="Endpoint_3_3" style="stroke:#A80036;stroke-width:1.5;" width="197" x="1167" y="410"/><ellipse cx="1219.25" cy="428.9688" fill="#ADD1B2" rx="11" ry="11" style="stroke:#A80036;stroke-width:1.0;"/><path d="M1223.3594,434.9688 L1215.6406,434.9688 L1215.6406,422.5781 L1223.3594,422.5781 L1223.3594,424.7344 L1218.0938,424.7344 L1218.0938,427.4063 L1222.8594,427.4063 L1222.8594,429.5625 L1218.0938,429.5625 L1218.0938,432.8125 L1223.3594,432.8125 L1223.3594,434.9688 Z " fill="#000000"/><text fill="#000000" font-family="sans-serif" font-size="12" font-style="italic" lengthAdjust="spacing" textLength="68" x="1247.75" y="426.1387">«instance»</text><text fill="#000000" font-family="sans-serif" font-size="12" lengthAdjust="spacing" textLength="84" x="1239.75" y="440.1074">Endpoint_3_3</text><line style="stroke:#A80036;stroke-width:1.5;" x1="1168" x2="1363" y1="447.9375" y2="447.9375"/><text fill="#000000" font-family="sans-serif" font-size="11" lengthAdjust="spacing" textLength="185" x="1173" y="462.1479">zigbee_endpoint_id_t search_key</text><line style="stroke:#A80036;stroke-width:1.0;stroke-dasharray:1.0,2.0;" x1="1168" x2="1222.5" y1="475.1445" y2="475.1445"/><text fill="#000000" font-family="sans-serif" font-size="11" lengthAdjust="spacing" textLength="86" x="1222.5" y="478.4526">.endpoint data.</text><line style="stroke:#A80036;stroke-width:1.0;stroke-dasharray:1.0,2.0;" x1="1308.5" x2="1363" y1="475.1445" y2="475.1445"/><!--MD5=[e1102a29ade4f5bac5ab9cc04e8860f0]
class Cluster_1_1_x--><rect codeLine="152" fill="#FEFECE" filter="url(#f1psngixv77gb8)" height="77.9492" id="Cluster_1_1_x" style="stroke:#A80036;stroke-width:1.5;" width="165" x="23" y="549"/><ellipse cx="60.05" cy="567.9688" fill="#ADD1B2" rx="11" ry="11" style="stroke:#A80036;stroke-width:1.0;"/><path d="M64.1594,573.9688 L56.4406,573.9688 L56.4406,561.5781 L64.1594,561.5781 L64.1594,563.7344 L58.8938,563.7344 L58.8938,566.4063 L63.6594,566.4063 L63.6594,568.5625 L58.8938,568.5625 L58.8938,571.8125 L64.1594,571.8125 L64.1594,573.9688 Z " fill="#000000"/><text fill="#000000" font-family="sans-serif" font-size="12" font-style="italic" lengthAdjust="spacing" textLength="68" x="86.95" y="565.1387">«instance»</text><text fill="#000000" font-family="sans-serif" font-size="12" lengthAdjust="spacing" textLength="84" x="78.95" y="579.1074">Cluster_1_1_x</text><line style="stroke:#A80036;stroke-width:1.5;" x1="24" x2="187" y1="586.9375" y2="586.9375"/><text fill="#000000" font-family="sans-serif" font-size="11" lengthAdjust="spacing" textLength="153" x="29" y="601.1479">zcl_cluster_id_t search_key</text><line style="stroke:#A80036;stroke-width:1.0;stroke-dasharray:1.0,2.0;" x1="24" x2="67.5" y1="614.1445" y2="614.1445"/><text fill="#000000" font-family="sans-serif" font-size="11" lengthAdjust="spacing" textLength="76" x="67.5" y="617.4526">.cluster data.</text><line style="stroke:#A80036;stroke-width:1.0;stroke-dasharray:1.0,2.0;" x1="143.5" x2="187" y1="614.1445" y2="614.1445"/><!--MD5=[f7a3cd2dddb3f3c20ff493c2f2131906]
class Cluster_1_2_x--><rect codeLine="156" fill="#FEFECE" filter="url(#f1psngixv77gb8)" height="77.9492" id="Cluster_1_2_x" style="stroke:#A80036;stroke-width:1.5;" width="165" x="255" y="549"/><ellipse cx="292.05" cy="567.9688" fill="#ADD1B2" rx="11" ry="11" style="stroke:#A80036;stroke-width:1.0;"/><path d="M296.1594,573.9688 L288.4406,573.9688 L288.4406,561.5781 L296.1594,561.5781 L296.1594,563.7344 L290.8938,563.7344 L290.8938,566.4063 L295.6594,566.4063 L295.6594,568.5625 L290.8938,568.5625 L290.8938,571.8125 L296.1594,571.8125 L296.1594,573.9688 Z " fill="#000000"/><text fill="#000000" font-family="sans-serif" font-size="12" font-style="italic" lengthAdjust="spacing" textLength="68" x="318.95" y="565.1387">«instance»</text><text fill="#000000" font-family="sans-serif" font-size="12" lengthAdjust="spacing" textLength="84" x="310.95" y="579.1074">Cluster_1_2_x</text><line style="stroke:#A80036;stroke-width:1.5;" x1="256" x2="419" y1="586.9375" y2="586.9375"/><text fill="#000000" font-family="sans-serif" font-size="11" lengthAdjust="spacing" textLength="153" x="261" y="601.1479">zcl_cluster_id_t search_key</text><line style="stroke:#A80036;stroke-width:1.0;stroke-dasharray:1.0,2.0;" x1="256" x2="299.5" y1="614.1445" y2="614.1445"/><text fill="#000000" font-family="sans-serif" font-size="11" lengthAdjust="spacing" textLength="76" x="299.5" y="617.4526">.cluster data.</text><line style="stroke:#A80036;stroke-width:1.0;stroke-dasharray:1.0,2.0;" x1="375.5" x2="419" y1="614.1445" y2="614.1445"/><!--MD5=[556ba9323a8c4242a507981e6623453c]
class Cluster_2_1_x--><rect codeLine="160" fill="#FEFECE" filter="url(#f1psngixv77gb8)" height="77.9492" id="Cluster_2_1_x" style="stroke:#A80036;stroke-width:1.5;" width="165" x="487" y="549"/><ellipse cx="524.05" cy="567.9688" fill="#ADD1B2" rx="11" ry="11" style="stroke:#A80036;stroke-width:1.0;"/><path d="M528.1594,573.9688 L520.4406,573.9688 L520.4406,561.5781 L528.1594,561.5781 L528.1594,563.7344 L522.8938,563.7344 L522.8938,566.4063 L527.6594,566.4063 L527.6594,568.5625 L522.8938,568.5625 L522.8938,571.8125 L528.1594,571.8125 L528.1594,573.9688 Z " fill="#000000"/><text fill="#000000" font-family="sans-serif" font-size="12" font-style="italic" lengthAdjust="spacing" textLength="68" x="550.95" y="565.1387">«instance»</text><text fill="#000000" font-family="sans-serif" font-size="12" lengthAdjust="spacing" textLength="84" x="542.95" y="579.1074">Cluster_2_1_x</text><line style="stroke:#A80036;stroke-width:1.5;" x1="488" x2="651" y1="586.9375" y2="586.9375"/><text fill="#000000" font-family="sans-serif" font-size="11" lengthAdjust="spacing" textLength="153" x="493" y="601.1479">zcl_cluster_id_t search_key</text><line style="stroke:#A80036;stroke-width:1.0;stroke-dasharray:1.0,2.0;" x1="488" x2="531.5" y1="614.1445" y2="614.1445"/><text fill="#000000" font-family="sans-serif" font-size="11" lengthAdjust="spacing" textLength="76" x="531.5" y="617.4526">.cluster data.</text><line style="stroke:#A80036;stroke-width:1.0;stroke-dasharray:1.0,2.0;" x1="607.5" x2="651" y1="614.1445" y2="614.1445"/><!--MD5=[60b2dd97a4742c1844bd09bd21b5b400]
class Cluster_3_1_x--><rect codeLine="164" fill="#FEFECE" filter="url(#f1psngixv77gb8)" height="77.9492" id="Cluster_3_1_x" style="stroke:#A80036;stroke-width:1.5;" width="165" x="719" y="549"/><ellipse cx="756.05" cy="567.9688" fill="#ADD1B2" rx="11" ry="11" style="stroke:#A80036;stroke-width:1.0;"/><path d="M760.1594,573.9688 L752.4406,573.9688 L752.4406,561.5781 L760.1594,561.5781 L760.1594,563.7344 L754.8938,563.7344 L754.8938,566.4063 L759.6594,566.4063 L759.6594,568.5625 L754.8938,568.5625 L754.8938,571.8125 L760.1594,571.8125 L760.1594,573.9688 Z " fill="#000000"/><text fill="#000000" font-family="sans-serif" font-size="12" font-style="italic" lengthAdjust="spacing" textLength="68" x="782.95" y="565.1387">«instance»</text><text fill="#000000" font-family="sans-serif" font-size="12" lengthAdjust="spacing" textLength="84" x="774.95" y="579.1074">Cluster_3_1_x</text><line style="stroke:#A80036;stroke-width:1.5;" x1="720" x2="883" y1="586.9375" y2="586.9375"/><text fill="#000000" font-family="sans-serif" font-size="11" lengthAdjust="spacing" textLength="153" x="725" y="601.1479">zcl_cluster_id_t search_key</text><line style="stroke:#A80036;stroke-width:1.0;stroke-dasharray:1.0,2.0;" x1="720" x2="763.5" y1="614.1445" y2="614.1445"/><text fill="#000000" font-family="sans-serif" font-size="11" lengthAdjust="spacing" textLength="76" x="763.5" y="617.4526">.cluster data.</text><line style="stroke:#A80036;stroke-width:1.0;stroke-dasharray:1.0,2.0;" x1="839.5" x2="883" y1="614.1445" y2="614.1445"/><!--MD5=[e56380bd207a97f1a1d75b00865af34d]
class Cluster_3_2_x--><rect codeLine="168" fill="#FEFECE" filter="url(#f1psngixv77gb8)" height="77.9492" id="Cluster_3_2_x" style="stroke:#A80036;stroke-width:1.5;" width="165" x="951" y="549"/><ellipse cx="988.05" cy="567.9688" fill="#ADD1B2" rx="11" ry="11" style="stroke:#A80036;stroke-width:1.0;"/><path d="M992.1594,573.9688 L984.4406,573.9688 L984.4406,561.5781 L992.1594,561.5781 L992.1594,563.7344 L986.8938,563.7344 L986.8938,566.4063 L991.6594,566.4063 L991.6594,568.5625 L986.8938,568.5625 L986.8938,571.8125 L992.1594,571.8125 L992.1594,573.9688 Z " fill="#000000"/><text fill="#000000" font-family="sans-serif" font-size="12" font-style="italic" lengthAdjust="spacing" textLength="68" x="1014.95" y="565.1387">«instance»</text><text fill="#000000" font-family="sans-serif" font-size="12" lengthAdjust="spacing" textLength="84" x="1006.95" y="579.1074">Cluster_3_2_x</text><line style="stroke:#A80036;stroke-width:1.5;" x1="952" x2="1115" y1="586.9375" y2="586.9375"/><text fill="#000000" font-family="sans-serif" font-size="11" lengthAdjust="spacing" textLength="153" x="957" y="601.1479">zcl_cluster_id_t search_key</text><line style="stroke:#A80036;stroke-width:1.0;stroke-dasharray:1.0,2.0;" x1="952" x2="995.5" y1="614.1445" y2="614.1445"/><text fill="#000000" font-family="sans-serif" font-size="11" lengthAdjust="spacing" textLength="76" x="995.5" y="617.4526">.cluster data.</text><line style="stroke:#A80036;stroke-width:1.0;stroke-dasharray:1.0,2.0;" x1="1071.5" x2="1115" y1="614.1445" y2="614.1445"/><!--MD5=[9e7cdadaee8ddd7ca9cdeb93cf0ac46f]
class Cluster_3_3_x--><rect codeLine="172" fill="#FEFECE" filter="url(#f1psngixv77gb8)" height="77.9492" id="Cluster_3_3_x" style="stroke:#A80036;stroke-width:1.5;" width="165" x="1183" y="549"/><ellipse cx="1220.05" cy="567.9688" fill="#ADD1B2" rx="11" ry="11" style="stroke:#A80036;stroke-width:1.0;"/><path d="M1224.1594,573.9688 L1216.4406,573.9688 L1216.4406,561.5781 L1224.1594,561.5781 L1224.1594,563.7344 L1218.8938,563.7344 L1218.8938,566.4063 L1223.6594,566.4063 L1223.6594,568.5625 L1218.8938,568.5625 L1218.8938,571.8125 L1224.1594,571.8125 L1224.1594,573.9688 Z " fill="#000000"/><text fill="#000000" font-family="sans-serif" font-size="12" font-style="italic" lengthAdjust="spacing" textLength="68" x="1246.95" y="565.1387">«instance»</text><text fill="#000000" font-family="sans-serif" font-size="12" lengthAdjust="spacing" textLength="84" x="1238.95" y="579.1074">Cluster_3_3_x</text><line style="stroke:#A80036;stroke-width:1.5;" x1="1184" x2="1347" y1="586.9375" y2="586.9375"/><text fill="#000000" font-family="sans-serif" font-size="11" lengthAdjust="spacing" textLength="153" x="1189" y="601.1479">zcl_cluster_id_t search_key</text><line style="stroke:#A80036;stroke-width:1.0;stroke-dasharray:1.0,2.0;" x1="1184" x2="1227.5" y1="614.1445" y2="614.1445"/><text fill="#000000" font-family="sans-serif" font-size="11" lengthAdjust="spacing" textLength="76" x="1227.5" y="617.4526">.cluster data.</text><line style="stroke:#A80036;stroke-width:1.0;stroke-dasharray:1.0,2.0;" x1="1303.5" x2="1347" y1="614.1445" y2="614.1445"/><!--MD5=[c6749e31d4553acaaa5dc8fbe264526e]
reverse link AttributeStoreRoot to Network--><path codeLine="177" d="M569.5,68.1694 C569.5,87.8403 569.5,111.983 569.5,131.931 " fill="none" id="AttributeStoreRoot-backto-Network" style="stroke:#A80036;stroke-width:1.0;"/><polygon fill="#FFFFFF" points="569.5,55.0669,565.5,61.0669,569.5,67.0669,573.5,61.0669,569.5,55.0669" style="stroke:#A80036;stroke-width:1.0;"/><text fill="#000000" font-family="sans-serif" font-size="13" lengthAdjust="spacing" textLength="24" x="570.5" y="98.0669">1..1</text><!--MD5=[dbbf5e30c508f7b16b3d7c19039262e8]
reverse link Network to Device_1--><path codeLine="178" d="M498.8888,213.3059 C468.2698,231.6509 432.6416,252.997 402.6614,270.9593 " fill="none" id="Network-backto-Device_1" style="stroke:#A80036;stroke-width:1.0;"/><polygon fill="#FFFFFF" points="510.3563,206.4352,503.1536,206.0877,500.0625,212.6027,507.2652,212.9502,510.3563,206.4352" style="stroke:#A80036;stroke-width:1.0;"/><!--MD5=[7a8c9b74feddc8f8ece329b4b8e3b634]
reverse link Network to Device_2--><path codeLine="179" d="M569.5,223.461 C569.5,239.1375 569.5,256.0465 569.5,270.7226 " fill="none" id="Network-backto-Device_2" style="stroke:#A80036;stroke-width:1.0;"/><polygon fill="#FFFFFF" points="569.5,210.0892,565.5,216.0892,569.5,222.0892,573.5,216.0892,569.5,210.0892" style="stroke:#A80036;stroke-width:1.0;"/><!--MD5=[9b2056af392de5f985d5eb58201431c1]
reverse link Network to Device_3--><path codeLine="180" d="M641.3681,197.854 C703.9264,221.2292 794.5637,255.0964 859.8473,279.49 " fill="none" id="Network-backto-Device_3" style="stroke:#A80036;stroke-width:1.0;"/><polygon fill="#FFFFFF" points="628.8558,193.1787,633.0762,199.0258,640.0967,197.3789,635.8763,191.5319,628.8558,193.1787" style="stroke:#A80036;stroke-width:1.0;"/><!--MD5=[d4d3ccba1e33684996541f85a9788d8a]
reverse link Device_1 to Endpoint_1_1--><path codeLine="181" d="M260.8506,355.9235 C231.6543,373.4162 198.6851,393.1693 170.6542,409.9636 " fill="none" id="Device_1-backto-Endpoint_1_1" style="stroke:#A80036;stroke-width:1.0;"/><polygon fill="#FFFFFF" points="272.2577,349.0892,265.055,348.7416,261.9639,355.2566,269.1666,355.6042,272.2577,349.0892" style="stroke:#A80036;stroke-width:1.0;"/><!--MD5=[6be2c1ffe47c04447809f41758ed5439]
reverse link Device_1 to Endpoint_1_2--><path codeLine="182" d="M337.5,362.461 C337.5,378.1375 337.5,395.0465 337.5,409.7226 " fill="none" id="Device_1-backto-Endpoint_1_2" style="stroke:#A80036;stroke-width:1.0;"/><polygon fill="#FFFFFF" points="337.5,349.0892,333.5,355.0892,337.5,361.0892,341.5,355.0892,337.5,349.0892" style="stroke:#A80036;stroke-width:1.0;"/><!--MD5=[4acd866f425f5a2e6f59b12d6a180734]
reverse link Device_2 to Endpoint_2_1--><path codeLine="183" d="M569.5,362.461 C569.5,378.1375 569.5,395.0465 569.5,409.7226 " fill="none" id="Device_2-backto-Endpoint_2_1" style="stroke:#A80036;stroke-width:1.0;"/><polygon fill="#FFFFFF" points="569.5,349.0892,565.5,355.0892,569.5,361.0892,573.5,355.0892,569.5,349.0892" style="stroke:#A80036;stroke-width:1.0;"/><!--MD5=[6540d262b11b76c84cd62840168a42b2]
reverse link Device_3 to Endpoint_3_1--><path codeLine="184" d="M892.4631,358.6866 C875.6395,375.3901 857.0361,393.8606 841.0599,409.7226 " fill="none" id="Device_3-backto-Endpoint_3_1" style="stroke:#A80036;stroke-width:1.0;"/><polygon fill="#FFFFFF" points="902.1296,349.0892,895.0535,350.4781,893.614,357.544,900.6901,356.1552,902.1296,349.0892" style="stroke:#A80036;stroke-width:1.0;"/><!--MD5=[85b1586418b11d5d091611f22cbdddf3]
reverse link Device_3 to Endpoint_3_2--><path codeLine="185" d="M974.6569,360.0957 C985.4639,376.4238 997.2992,394.3053 1007.5035,409.7226 " fill="none" id="Device_3-backto-Endpoint_3_2" style="stroke:#A80036;stroke-width:1.0;"/><polygon fill="#FFFFFF" points="967.372,349.0892,967.348,356.3003,973.9952,359.0959,974.0192,351.8848,967.372,349.0892" style="stroke:#A80036;stroke-width:1.0;"/><!--MD5=[51b7aec60a2e282b856cb68206b0565e]
reverse link Device_3 to Endpoint_3_3--><path codeLine="186" d="M1035.3665,350.2699 C1079.1039,369.0338 1130.9435,391.2736 1174.3385,409.8906 " fill="none" id="Device_3-backto-Endpoint_3_3" style="stroke:#A80036;stroke-width:1.0;"/><polygon fill="#FFFFFF" points="1023.2589,345.0756,1027.1958,351.1172,1034.2869,349.8068,1030.3499,343.7652,1023.2589,345.0756" style="stroke:#A80036;stroke-width:1.0;"/><!--MD5=[1c7d6497ba10ad97f704412b70bc5c4b]
reverse link Endpoint_1_1 to Cluster_1_1_x--><path codeLine="187" d="M105.5,501.461 C105.5,517.1375 105.5,534.0465 105.5,548.7226 " fill="none" id="Endpoint_1_1-backto-Cluster_1_1_x" style="stroke:#A80036;stroke-width:1.0;"/><polygon fill="#FFFFFF" points="105.5,488.0892,101.5,494.0892,105.5,500.0892,109.5,494.0892,105.5,488.0892" style="stroke:#A80036;stroke-width:1.0;"/><!--MD5=[2529e3befb393b2233967a45ef74d65b]
reverse link Endpoint_1_2 to Cluster_1_2_x--><path codeLine="188" d="M337.5,501.461 C337.5,517.1375 337.5,534.0465 337.5,548.7226 " fill="none" id="Endpoint_1_2-backto-Cluster_1_2_x" style="stroke:#A80036;stroke-width:1.0;"/><polygon fill="#FFFFFF" points="337.5,488.0892,333.5,494.0892,337.5,500.0892,341.5,494.0892,337.5,488.0892" style="stroke:#A80036;stroke-width:1.0;"/><!--MD5=[3f06c63aa3823d1497db102fb277d2a6]
reverse link Endpoint_2_1 to Cluster_2_1_x--><path codeLine="189" d="M569.5,501.461 C569.5,517.1375 569.5,534.0465 569.5,548.7226 " fill="none" id="Endpoint_2_1-backto-Cluster_2_1_x" style="stroke:#A80036;stroke-width:1.0;"/><polygon fill="#FFFFFF" points="569.5,488.0892,565.5,494.0892,569.5,500.0892,573.5,494.0892,569.5,488.0892" style="stroke:#A80036;stroke-width:1.0;"/><!--MD5=[7b0e1afe309ed9e8d8a73159d054d54b]
reverse link Endpoint_3_1 to Cluster_3_1_x--><path codeLine="190" d="M801.5,501.461 C801.5,517.1375 801.5,534.0465 801.5,548.7226 " fill="none" id="Endpoint_3_1-backto-Cluster_3_1_x" style="stroke:#A80036;stroke-width:1.0;"/><polygon fill="#FFFFFF" points="801.5,488.0892,797.5,494.0892,801.5,500.0892,805.5,494.0892,801.5,488.0892" style="stroke:#A80036;stroke-width:1.0;"/><!--MD5=[4b294a62121558d6b17856a9440ebb87]
reverse link Endpoint_3_2 to Cluster_3_2_x--><path codeLine="191" d="M1033.5,501.461 C1033.5,517.1375 1033.5,534.0465 1033.5,548.7226 " fill="none" id="Endpoint_3_2-backto-Cluster_3_2_x" style="stroke:#A80036;stroke-width:1.0;"/><polygon fill="#FFFFFF" points="1033.5,488.0892,1029.5,494.0892,1033.5,500.0892,1037.5,494.0892,1033.5,488.0892" style="stroke:#A80036;stroke-width:1.0;"/><!--MD5=[63e8dea6022eb8d0a3c189c798602217]
reverse link Endpoint_3_3 to Cluster_3_3_x--><path codeLine="192" d="M1265.5,501.461 C1265.5,517.1375 1265.5,534.0465 1265.5,548.7226 " fill="none" id="Endpoint_3_3-backto-Cluster_3_3_x" style="stroke:#A80036;stroke-width:1.0;"/><polygon fill="#FFFFFF" points="1265.5,488.0892,1261.5,494.0892,1265.5,500.0892,1269.5,494.0892,1265.5,488.0892" style="stroke:#A80036;stroke-width:1.0;"/><!--MD5=[5e1397da4275a764b3d26f5da0b7666c]
@startuml inline_umlgraph_1.svg
class AttributeStoreRoot
entity Network <<instance>> {
  uint8_t search_key
  ...network data...
}
entity Device_1 <<instance>> {
  zigbee_eui64_t search_key
  ...device data...
}
entity Device_2 <<instance>> {
  zigbee_eui64_t search_key
  ...device data...
}
entity Device_3 <<instance>> {
  zigbee_eui64_t search_key
  ...device data...
}
entity Endpoint_1_1 <<instance>> {
  zigbee_endpoint_id_t search_key
  ...endpoint data...
}
entity Endpoint_1_2 <<instance>> {
  zigbee_endpoint_id_t search_key
  ...endpoint data...
}
entity Endpoint_2_1 <<instance>> {
  zigbee_endpoint_id_t search_key
  ...endpoint data...
}
entity Endpoint_3_1 <<instance>> {
  zigbee_endpoint_id_t search_key
  ...endpoint data...
}
entity Endpoint_3_2 <<instance>> {
  zigbee_endpoint_id_t search_key
  ...endpoint data...
}
entity Endpoint_3_3 <<instance>> {
  zigbee_endpoint_id_t search_key
  ...endpoint data...
}
entity Cluster_1_1_x <<instance>> {
  zcl_cluster_id_t search_key
  ...cluster data...
}
entity Cluster_1_2_x <<instance>> {
  zcl_cluster_id_t search_key
  ...cluster data...
}
entity Cluster_2_1_x <<instance>> {
  zcl_cluster_id_t search_key
  ...cluster data...
}
entity Cluster_3_1_x <<instance>> {
  zcl_cluster_id_t search_key
  ...cluster data...
}
entity Cluster_3_2_x <<instance>> {
  zcl_cluster_id_t search_key
  ...cluster data...
}
entity Cluster_3_3_x <<instance>> {
  zcl_cluster_id_t search_key
  ...cluster data...
}

AttributeStoreRoot o-down- Network: 1..1
Network o-down- Device_1
Network o-down- Device_2
Network o-down- Device_3
Device_1 o-down- Endpoint_1_1
Device_1 o-down- Endpoint_1_2
Device_2 o-down- Endpoint_2_1
Device_3 o-down- Endpoint_3_1
Device_3 o-down- Endpoint_3_2
Device_3 o-down- Endpoint_3_3
Endpoint_1_1 o-down- Cluster_1_1_x
Endpoint_1_2 o-down- Cluster_1_2_x
Endpoint_2_1 o-down- Cluster_2_1_x
Endpoint_3_1 o-down- Cluster_3_1_x
Endpoint_3_2 o-down- Cluster_3_2_x
Endpoint_3_3 o-down- Cluster_3_3_x
@enduml

PlantUML version 1.2021.00(Sun Jan 10 10:25:05 UTC 2021)
(GPL source distribution)
Java Runtime: OpenJDK Runtime Environment
JVM: OpenJDK 64-Bit Server VM
Default Encoding: ANSI_X3.4-1968
Language: en
Country: US
--></g></svg>