<?xml version="1.0" encoding="UTF-8" standalone="no"?><svg xmlns="http://www.w3.org/2000/svg" xmlns:xlink="http://www.w3.org/1999/xlink" contentScriptType="application/ecmascript" contentStyleType="text/css" height="406px" preserveAspectRatio="none" style="width:1129px;height:406px;" version="1.1" viewBox="0 0 1129 406" width="1129px" zoomAndPan="magnify"><defs><filter height="300%" id="foapzfth26tjv" width="300%" x="-1" y="-1"><feGaussianBlur result="blurOut" stdDeviation="2.0"/><feColorMatrix in="blurOut" result="blurOut2" type="matrix" values="0 0 0 0 0 0 0 0 0 0 0 0 0 0 0 0 0 0 .4 0"/><feOffset dx="4.0" dy="4.0" in="blurOut2" result="blurOut3"/><feBlend in="SourceGraphic" in2="blurOut3" mode="normal"/></filter></defs><g><text fill="#000000" font-family="sans-serif" font-size="18" lengthAdjust="spacing" textLength="245" x="435.5" y="16.708">Unify Platform Components</text><!--MD5=[54614e149dd72e7b0d000be15153d2fc]
entity main_loop--><rect fill="#FEFECE" filter="url(#foapzfth26tjv)" height="46.2969" style="stroke:#A80036;stroke-width:1.5;" width="110" x="184.5" y="27.9531"/><rect fill="#FEFECE" height="10" style="stroke:#A80036;stroke-width:1.5;" width="15" x="274.5" y="32.9531"/><rect fill="#FEFECE" height="2" style="stroke:#A80036;stroke-width:1.5;" width="4" x="272.5" y="34.9531"/><rect fill="#FEFECE" height="2" style="stroke:#A80036;stroke-width:1.5;" width="4" x="272.5" y="38.9531"/><text fill="#000000" font-family="sans-serif" font-size="14" lengthAdjust="spacing" textLength="70" x="199.5" y="60.9482">Main Loop</text><!--MD5=[9a685ad4922fe5c10cfb549fd52f88b8]
entity config_system--><rect fill="#FEFECE" filter="url(#foapzfth26tjv)" height="46.2969" style="stroke:#A80036;stroke-width:1.5;" width="139" x="526" y="27.9531"/><rect fill="#FEFECE" height="10" style="stroke:#A80036;stroke-width:1.5;" width="15" x="645" y="32.9531"/><rect fill="#FEFECE" height="2" style="stroke:#A80036;stroke-width:1.5;" width="4" x="643" y="34.9531"/><rect fill="#FEFECE" height="2" style="stroke:#A80036;stroke-width:1.5;" width="4" x="643" y="38.9531"/><text fill="#000000" font-family="sans-serif" font-size="14" lengthAdjust="spacing" textLength="99" x="541" y="60.9482">Config System</text><!--MD5=[016949a95956bd1a1728cda56384716b]
entity log_system--><rect fill="#FEFECE" filter="url(#foapzfth26tjv)" height="46.2969" style="stroke:#A80036;stroke-width:1.5;" width="150" x="700.5" y="27.9531"/><rect fill="#FEFECE" height="10" style="stroke:#A80036;stroke-width:1.5;" width="15" x="830.5" y="32.9531"/><rect fill="#FEFECE" height="2" style="stroke:#A80036;stroke-width:1.5;" width="4" x="828.5" y="34.9531"/><rect fill="#FEFECE" height="2" style="stroke:#A80036;stroke-width:1.5;" width="4" x="828.5" y="38.9531"/><text fill="#000000" font-family="sans-serif" font-size="14" lengthAdjust="spacing" textLength="110" x="715.5" y="60.9482">Logging System</text><!--MD5=[3a2baec630d66fc6339837be9e4c2392]
entity mqtt_client--><rect fill="#FEFECE" filter="url(#foapzfth26tjv)" height="46.2969" style="stroke:#A80036;stroke-width:1.5;" width="124" x="25.5" y="27.9531"/><rect fill="#FEFECE" height="10" style="stroke:#A80036;stroke-width:1.5;" width="15" x="129.5" y="32.9531"/><rect fill="#FEFECE" height="2" style="stroke:#A80036;stroke-width:1.5;" width="4" x="127.5" y="34.9531"/><rect fill="#FEFECE" height="2" style="stroke:#A80036;stroke-width:1.5;" width="4" x="127.5" y="38.9531"/><text fill="#000000" font-family="sans-serif" font-size="14" lengthAdjust="spacing" textLength="84" x="40.5" y="60.9482">MQTT Client</text><!--MD5=[6c960bbc8ff583eb96d8e18e56f562c1]
entity dotdot_serializer--><rect fill="#FEFECE" filter="url(#foapzfth26tjv)" height="46.2969" style="stroke:#A80036;stroke-width:1.5;" width="156" x="9.5" y="133.9531"/><rect fill="#FEFECE" height="10" style="stroke:#A80036;stroke-width:1.5;" width="15" x="145.5" y="138.9531"/><rect fill="#FEFECE" height="2" style="stroke:#A80036;stroke-width:1.5;" width="4" x="143.5" y="140.9531"/><rect fill="#FEFECE" height="2" style="stroke:#A80036;stroke-width:1.5;" width="4" x="143.5" y="144.9531"/><text fill="#000000" font-family="sans-serif" font-size="14" lengthAdjust="spacing" textLength="116" x="24.5" y="166.9482">DotDot Serializer</text><!--MD5=[e8d58481680914b68d1e428c7eaa315c]
entity dotdot_attributes--><rect fill="#FEFECE" filter="url(#foapzfth26tjv)" height="46.2969" style="stroke:#A80036;stroke-width:1.5;" width="161" x="7" y="239.9531"/><rect fill="#FEFECE" height="10" style="stroke:#A80036;stroke-width:1.5;" width="15" x="148" y="244.9531"/><rect fill="#FEFECE" height="2" style="stroke:#A80036;stroke-width:1.5;" width="4" x="146" y="246.9531"/><rect fill="#FEFECE" height="2" style="stroke:#A80036;stroke-width:1.5;" width="4" x="146" y="250.9531"/><text fill="#000000" font-family="sans-serif" font-size="14" lengthAdjust="spacing" textLength="121" x="22" y="272.9482">DotDot Attributes</text><!--MD5=[b7296774922c72bb4374e109b7f6dc67]
entity datastore--><rect fill="#FEFECE" filter="url(#foapzfth26tjv)" height="46.2969" style="stroke:#A80036;stroke-width:1.5;" width="108" x="378.5" y="239.9531"/><rect fill="#FEFECE" height="10" style="stroke:#A80036;stroke-width:1.5;" width="15" x="466.5" y="244.9531"/><rect fill="#FEFECE" height="2" style="stroke:#A80036;stroke-width:1.5;" width="4" x="464.5" y="246.9531"/><rect fill="#FEFECE" height="2" style="stroke:#A80036;stroke-width:1.5;" width="4" x="464.5" y="250.9531"/><text fill="#000000" font-family="sans-serif" font-size="14" lengthAdjust="spacing" textLength="68" x="393.5" y="272.9482">Datastore</text><!--MD5=[a57505c66e4df957f1875a3757d5a2fe]
entity attribute_store--><rect fill="#FEFECE" filter="url(#foapzfth26tjv)" height="46.2969" style="stroke:#A80036;stroke-width:1.5;" width="140" x="203.5" y="239.9531"/><rect fill="#FEFECE" height="10" style="stroke:#A80036;stroke-width:1.5;" width="15" x="323.5" y="244.9531"/><rect fill="#FEFECE" height="2" style="stroke:#A80036;stroke-width:1.5;" width="4" x="321.5" y="246.9531"/><rect fill="#FEFECE" height="2" style="stroke:#A80036;stroke-width:1.5;" width="4" x="321.5" y="250.9531"/><text fill="#000000" font-family="sans-serif" font-size="14" lengthAdjust="spacing" textLength="100" x="218.5" y="272.9482">Attribute Store</text><!--MD5=[a4452329e32eeb75e4fff36e402c50c5]
entity attribute_mapper--><rect fill="#FEFECE" filter="url(#foapzfth26tjv)" height="46.2969" style="stroke:#A80036;stroke-width:1.5;" width="155" x="196" y="345.9531"/><rect fill="#FEFECE" height="10" style="stroke:#A80036;stroke-width:1.5;" width="15" x="331" y="350.9531"/><rect fill="#FEFECE" height="2" style="stroke:#A80036;stroke-width:1.5;" width="4" x="329" y="352.9531"/><rect fill="#FEFECE" height="2" style="stroke:#A80036;stroke-width:1.5;" width="4" x="329" y="356.9531"/><text fill="#000000" font-family="sans-serif" font-size="14" lengthAdjust="spacing" textLength="115" x="211" y="378.9482">Attribute Mapper</text><!--MD5=[fc1eef0a61530955ec57844c512a163e]
entity console_interface--><rect fill="#FEFECE" filter="url(#foapzfth26tjv)" height="46.2969" style="stroke:#A80036;stroke-width:1.5;" width="161" x="330" y="27.9531"/><rect fill="#FEFECE" height="10" style="stroke:#A80036;stroke-width:1.5;" width="15" x="471" y="32.9531"/><rect fill="#FEFECE" height="2" style="stroke:#A80036;stroke-width:1.5;" width="4" x="469" y="34.9531"/><rect fill="#FEFECE" height="2" style="stroke:#A80036;stroke-width:1.5;" width="4" x="469" y="38.9531"/><text fill="#000000" font-family="sans-serif" font-size="14" lengthAdjust="spacing" textLength="121" x="345" y="60.9482">Console Interface</text><!--MD5=[fbcf46e762145e13ecff1128f588074d]
entity SmartStart--><rect fill="#FEFECE" filter="url(#foapzfth26tjv)" height="46.2969" style="stroke:#A80036;stroke-width:1.5;" width="112" x="885.5" y="27.9531"/><rect fill="#FEFECE" height="10" style="stroke:#A80036;stroke-width:1.5;" width="15" x="977.5" y="32.9531"/><rect fill="#FEFECE" height="2" style="stroke:#A80036;stroke-width:1.5;" width="4" x="975.5" y="34.9531"/><rect fill="#FEFECE" height="2" style="stroke:#A80036;stroke-width:1.5;" width="4" x="975.5" y="38.9531"/><text fill="#000000" font-family="sans-serif" font-size="14" lengthAdjust="spacing" textLength="72" x="900.5" y="60.9482">SmartStart</text><!--MD5=[e5d11e46f4002ddb0e0d18df7d3fa45b]
entity Node State Topic--><rect fill="#FEFECE" filter="url(#foapzfth26tjv)" height="46.2969" style="stroke:#A80036;stroke-width:1.5;" width="159" x="516" y="133.9531"/><rect fill="#FEFECE" height="10" style="stroke:#A80036;stroke-width:1.5;" width="15" x="655" y="138.9531"/><rect fill="#FEFECE" height="2" style="stroke:#A80036;stroke-width:1.5;" width="4" x="653" y="140.9531"/><rect fill="#FEFECE" height="2" style="stroke:#A80036;stroke-width:1.5;" width="4" x="653" y="144.9531"/><text fill="#000000" font-family="sans-serif" font-size="14" lengthAdjust="spacing" textLength="119" x="531" y="166.9482">Node State Topic</text><!--MD5=[82261bacb5bcae4165eb843b4b06a046]
entity Protocol Controller MQTT--><rect fill="#FEFECE" filter="url(#foapzfth26tjv)" height="46.2969" style="stroke:#A80036;stroke-width:1.5;" width="213" x="710" y="133.9531"/><rect fill="#FEFECE" height="10" style="stroke:#A80036;stroke-width:1.5;" width="15" x="903" y="138.9531"/><rect fill="#FEFECE" height="2" style="stroke:#A80036;stroke-width:1.5;" width="4" x="901" y="140.9531"/><rect fill="#FEFECE" height="2" style="stroke:#A80036;stroke-width:1.5;" width="4" x="901" y="144.9531"/><text fill="#000000" font-family="sans-serif" font-size="14" lengthAdjust="spacing" textLength="173" x="725" y="166.9482">Protocol Controller MQTT</text><!--MD5=[85b938e7f25ff0deea5c35d9fe64a36d]
entity OTA MQTT Client--><rect fill="#FEFECE" filter="url(#foapzfth26tjv)" height="46.2969" style="stroke:#A80036;stroke-width:1.5;" width="157" x="958" y="133.9531"/><rect fill="#FEFECE" height="10" style="stroke:#A80036;stroke-width:1.5;" width="15" x="1095" y="138.9531"/><rect fill="#FEFECE" height="2" style="stroke:#A80036;stroke-width:1.5;" width="4" x="1093" y="140.9531"/><rect fill="#FEFECE" height="2" style="stroke:#A80036;stroke-width:1.5;" width="4" x="1093" y="144.9531"/><text fill="#000000" font-family="sans-serif" font-size="14" lengthAdjust="spacing" textLength="117" x="973" y="166.9482">OTA MQTT Client</text><!--MD5=[228060c35b9c152915ba34aac10cb773]
reverse link main_loop to console_interface--><path d="M299.8489,50.9531 C309.8721,50.9531 319.8953,50.9531 329.9184,50.9531 " fill="none" id="main_loop-backto-console_interface" style="stroke:#A80036;stroke-width:1.0;"/><polygon fill="#A80036" points="294.6074,50.9531,303.6074,54.9531,299.6074,50.9531,303.6074,46.9531,294.6074,50.9531" style="stroke:#A80036;stroke-width:1.0;"/><!--MD5=[18b1db4e22ab0483a1c6fe4993779a81]
link mqtt_client to main_loop--><path d="M149.5469,50.9531 C159.4212,50.9531 169.2955,50.9531 179.1698,50.9531 " fill="none" id="mqtt_client-to-main_loop" style="stroke:#A80036;stroke-width:1.0;"/><polygon fill="#A80036" points="184.3334,50.9531,175.3334,46.9531,179.3334,50.9531,175.3334,54.9531,184.3334,50.9531" style="stroke:#A80036;stroke-width:1.0;"/><!--MD5=[c218634b4447bf75e1440b20e40919ab]
reverse link mqtt_client to dotdot_serializer--><path d="M87.5,79.0836 C87.5,96.1069 87.5,117.5568 87.5,133.6315 " fill="none" id="mqtt_client-backto-dotdot_serializer" style="stroke:#A80036;stroke-width:1.0;"/><polygon fill="#A80036" points="87.5,73.9535,83.5,82.9535,87.5,78.9535,91.5,82.9535,87.5,73.9535" style="stroke:#A80036;stroke-width:1.0;"/><!--MD5=[593d2db4fc1b4c3ae1c3ddd1789a167c]
reverse link dotdot_serializer to dotdot_attributes--><path d="M87.5,185.0836 C87.5,202.1069 87.5,223.5568 87.5,239.6315 " fill="none" id="dotdot_serializer-backto-dotdot_attributes" style="stroke:#A80036;stroke-width:1.0;"/><polygon fill="#A80036" points="87.5,179.9535,83.5,188.9535,87.5,184.9535,91.5,188.9535,87.5,179.9535" style="stroke:#A80036;stroke-width:1.0;"/><!--MD5=[613599ade8855397e081f86d80abc69f]
link dotdot_attributes to attribute_store--><path d="M168.1484,262.9531 C178.0777,262.9531 188.0069,262.9531 197.9361,262.9531 " fill="none" id="dotdot_attributes-to-attribute_store" style="stroke:#A80036;stroke-width:1.0;"/><polygon fill="#A80036" points="203.1284,262.9531,194.1284,258.9531,198.1284,262.9531,194.1284,266.9531,203.1284,262.9531" style="stroke:#A80036;stroke-width:1.0;"/><!--MD5=[70fef29cd44835332d74ef7123a06bb3]
link attribute_store to datastore--><path d="M343.6836,262.9531 C353.5316,262.9531 363.3796,262.9531 373.2276,262.9531 " fill="none" id="attribute_store-to-datastore" style="stroke:#A80036;stroke-width:1.0;"/><polygon fill="#A80036" points="378.3775,262.9531,369.3775,258.9531,373.3775,262.9531,369.3775,266.9531,378.3775,262.9531" style="stroke:#A80036;stroke-width:1.0;"/><!--MD5=[2d8dc7c248885329f7d1c8913137db56]
reverse link attribute_store to attribute_mapper--><path d="M273.5,291.0836 C273.5,308.1069 273.5,329.5568 273.5,345.6315 " fill="none" id="attribute_store-backto-attribute_mapper" style="stroke:#A80036;stroke-width:1.0;"/><polygon fill="#A80036" points="273.5,285.9535,269.5,294.9535,273.5,290.9535,277.5,294.9535,273.5,285.9535" style="stroke:#A80036;stroke-width:1.0;"/><!--MD5=[4d1baa4d3cba9e0515ecab8bbf1d976a]
link config_system to log_system--><!--MD5=[b69c700e07ad0004ed42f1938cc31192]
link log_system to SmartStart--><!--MD5=[337a98439c6bcfd366830c9b7388636e]
link config_system to Node State Topic--><!--MD5=[6b87cad7ab08f375427f3101781d3979]
link Node State Topic to Protocol Controller MQTT--><!--MD5=[6858a151f230aee0fb9524be7c4c1be3]
link Protocol Controller MQTT to OTA MQTT Client--><!--MD5=[f9b3aac949aa8d9e03297b7968405053]
@startuml platform_components.svg
title Unify Platform Components

component "Main Loop" as main_loop
component "Config System" as config_system
component "Logging System" as log_system
component "MQTT Client" as mqtt_client
component "DotDot Serializer" as dotdot_serializer
component "DotDot Attributes" as dotdot_attributes
component "Datastore" as datastore
component "Attribute Store" as attribute_store
component "Attribute Mapper" as attribute_mapper
component "Console Interface"  as console_interface
component "SmartStart" 
component "Node State Topic" 
component "Protocol Controller MQTT"
component "OTA MQTT Client"

main_loop <- console_interface
mqtt_client -> main_loop
dotdot_serializer -u-> mqtt_client
dotdot_attributes -u-> dotdot_serializer
dotdot_attributes -> attribute_store
attribute_store -> datastore
attribute_mapper -u-> attribute_store
@enduml

PlantUML version 1.2021.00(Sun Jan 10 10:25:05 UTC 2021)
(GPL source distribution)
Java Runtime: OpenJDK Runtime Environment
JVM: OpenJDK 64-Bit Server VM
Default Encoding: ANSI_X3.4-1968
Language: en
Country: US
--></g></svg>