<?xml version="1.0" encoding="UTF-8" standalone="no"?><svg xmlns="http://www.w3.org/2000/svg" xmlns:xlink="http://www.w3.org/1999/xlink" contentScriptType="application/ecmascript" contentStyleType="text/css" height="172px" preserveAspectRatio="none" style="width:741px;height:172px;" version="1.1" viewBox="0 0 741 172" width="741px" zoomAndPan="magnify"><defs><filter height="300%" id="fw6w37qsgvqug" width="300%" x="-1" y="-1"><feGaussianBlur result="blurOut" stdDeviation="2.0"/><feColorMatrix in="blurOut" result="blurOut2" type="matrix" values="0 0 0 0 0 0 0 0 0 0 0 0 0 0 0 0 0 0 .4 0"/><feOffset dx="4.0" dy="4.0" in="blurOut2" result="blurOut3"/><feBlend in="SourceGraphic" in2="blurOut3" mode="normal"/></filter></defs><g><text fill="#000000" font-family="sans-serif" font-size="18" lengthAdjust="spacing" textLength="240" x="244.25" y="16.708">Unify Framework packages</text><!--MD5=[309f709e2d2bf5fb8d267021f2710a26]
entity Base Platform--><polygon fill="#FEFECE" filter="url(#fw6w37qsgvqug)" points="66.5,26.9531,193.5,26.9531,200.5,49.25,217.5,49.25,217.5,66.25,66.5,66.25,66.5,26.9531" style="stroke:#000000;stroke-width:1.5;"/><line style="stroke:#000000;stroke-width:1.5;" x1="66.5" x2="200.5" y1="49.25" y2="49.25"/><text fill="#000000" font-family="sans-serif" font-size="14" font-weight="bold" lengthAdjust="spacing" textLength="109" x="76.5" y="42.9482">Base Platform</text><!--MD5=[d55813839f5a04b106a4c075f8fc4689]
entity Build System--><polygon fill="#FEFECE" filter="url(#fw6w37qsgvqug)" points="252.5,26.9531,371.5,26.9531,378.5,49.25,395.5,49.25,395.5,66.25,252.5,66.25,252.5,26.9531" style="stroke:#000000;stroke-width:1.5;"/><line style="stroke:#000000;stroke-width:1.5;" x1="252.5" x2="378.5" y1="49.25" y2="49.25"/><text fill="#000000" font-family="sans-serif" font-size="14" font-weight="bold" lengthAdjust="spacing" textLength="101" x="262.5" y="42.9482">Build System</text><!--MD5=[966774578de3ad87886c0fb295ac8ae4]
entity Test System--><polygon fill="#FEFECE" filter="url(#fw6w37qsgvqug)" points="431,26.9531,547,26.9531,554,49.25,571,49.25,571,66.25,431,66.25,431,26.9531" style="stroke:#000000;stroke-width:1.5;"/><line style="stroke:#000000;stroke-width:1.5;" x1="431" x2="554" y1="49.25" y2="49.25"/><text fill="#000000" font-family="sans-serif" font-size="14" font-weight="bold" lengthAdjust="spacing" textLength="98" x="441" y="42.9482">Test System</text><!--MD5=[199cec5ff8102c525212e3f352c5c0cc]
entity Documentation framework--><polygon fill="#FEFECE" filter="url(#fw6w37qsgvqug)" points="16,125.9531,244,125.9531,251,148.25,268,148.25,268,165.25,16,165.25,16,125.9531" style="stroke:#000000;stroke-width:1.5;"/><line style="stroke:#000000;stroke-width:1.5;" x1="16" x2="251" y1="148.25" y2="148.25"/><text fill="#000000" font-family="sans-serif" font-size="14" font-weight="bold" lengthAdjust="spacing" textLength="210" x="26" y="141.9482">Documentation framework</text><!--MD5=[6573dbcf4cf8e539afacaf5cb29f5a09]
entity Packaging framework--><polygon fill="#FEFECE" filter="url(#fw6w37qsgvqug)" points="303.5,125.9531,492.5,125.9531,499.5,148.25,516.5,148.25,516.5,165.25,303.5,165.25,303.5,125.9531" style="stroke:#000000;stroke-width:1.5;"/><line style="stroke:#000000;stroke-width:1.5;" x1="303.5" x2="499.5" y1="148.25" y2="148.25"/><text fill="#000000" font-family="sans-serif" font-size="14" font-weight="bold" lengthAdjust="spacing" textLength="171" x="313.5" y="141.9482">Packaging framework</text><!--MD5=[20cd70c6d37d5ed17e3a467e674e6c3e]
entity Coding Standard--><polygon fill="#FEFECE" filter="url(#fw6w37qsgvqug)" points="551.5,125.9531,700.5,125.9531,707.5,148.25,724.5,148.25,724.5,165.25,551.5,165.25,551.5,125.9531" style="stroke:#000000;stroke-width:1.5;"/><line style="stroke:#000000;stroke-width:1.5;" x1="551.5" x2="707.5" y1="148.25" y2="148.25"/><text fill="#000000" font-family="sans-serif" font-size="14" font-weight="bold" lengthAdjust="spacing" textLength="131" x="561.5" y="141.9482">Coding Standard</text><!--MD5=[069aea5044fc24a4ea606f93843f1912]
link Base Platform to Build System--><!--MD5=[3543fb6d61b8612fed6a0f3fa2e4b665]
link Build System to Test System--><!--MD5=[edb321b62ce189e75d978632a2147f00]
link Base Platform to Documentation framework--><!--MD5=[abf348e946f8b851a6bbdaf661853acd]
link Documentation framework to Packaging framework--><!--MD5=[7964c23fd57e274d8441c1332a0df2c2]
link Packaging framework to Coding Standard--><!--MD5=[ca1dd0324e92860566c9fdd984ee196d]
@startuml unify_framework.svg
title Unify Framework packages

Package "Base Platform"
Package "Build System"
Package "Test System"
Package "Documentation framework"
Package "Packaging framework"
Package "Coding Standard"
@enduml

PlantUML version 1.2021.00(Sun Jan 10 10:25:05 UTC 2021)
(GPL source distribution)
Java Runtime: OpenJDK Runtime Environment
JVM: OpenJDK 64-Bit Server VM
Default Encoding: ANSI_X3.4-1968
Language: en
Country: US
--></g></svg>