<?xml version="1.0" encoding="UTF-8" standalone="no"?><svg xmlns="http://www.w3.org/2000/svg" xmlns:xlink="http://www.w3.org/1999/xlink" contentScriptType="application/ecmascript" contentStyleType="text/css" height="340px" preserveAspectRatio="none" style="width:405px;height:340px;background:#FFFFFF;" version="1.1" viewBox="0 0 405 340" width="405px" zoomAndPan="magnify"><defs><filter height="300%" id="fdcbnbrjw65z2" width="300%" x="-1" y="-1"><feGaussianBlur result="blurOut" stdDeviation="2.0"/><feColorMatrix in="blurOut" result="blurOut2" type="matrix" values="0 0 0 0 0 0 0 0 0 0 0 0 0 0 0 0 0 0 .4 0"/><feOffset dx="4.0" dy="4.0" in="blurOut2" result="blurOut3"/><feBlend in="SourceGraphic" in2="blurOut3" mode="normal"/></filter></defs><g><text fill="#000000" font-family="sans-serif" font-size="18" lengthAdjust="spacing" textLength="128" x="132.25" y="16.7219">Mapping engine</text><!--MD5=[6c87a04b3cc13de0abd9b1cd63fee2fd]
class ast::MapperEngine--><rect codeLine="232" fill="#FEFECE" filter="url(#fdcbnbrjw65z2)" height="48" id="ast::MapperEngine" style="stroke:#A80036;stroke-width:1.5;" width="135" x="145.5" y="153.5999"/><ellipse cx="160.5" cy="169.5999" fill="#ADD1B2" rx="11" ry="11" style="stroke:#A80036;stroke-width:1.0;"/><path d="M155.5,170.7561 C155.5,173.2561 157.6406,175.0686 160.5625,175.0686 C161.7969,175.0686 162.9688,174.7717 163.7188,174.2561 C164.3281,173.8342 164.6563,173.4124 164.6563,173.0061 C164.6563,172.5374 164.2344,172.1311 163.7344,172.1311 C163.5,172.1311 163.2813,172.2092 163.0781,172.4124 C162.6406,172.8499 162.6406,172.8499 162.4688,172.9436 C162.0156,173.178 161.375,173.3186 160.6094,173.3186 C158.6094,173.3186 157.3281,172.303 157.3281,170.7249 L157.3281,169.678 C157.3281,167.9749 158.5469,166.7717 160.25,166.7717 C160.8281,166.7717 161.4063,166.9124 161.875,167.1624 C162.3438,167.428 162.5156,167.6155 162.5781,167.9749 C162.7031,168.6467 162.9531,168.8967 163.4844,168.8967 C163.7656,168.8967 164.0469,168.7561 164.2344,168.5374 C164.3594,168.3655 164.4063,168.1936 164.4063,167.7561 L164.4063,166.3967 C164.4063,165.9749 164.3906,165.8342 164.2656,165.6624 C164.0938,165.4124 163.8125,165.2561 163.4844,165.2561 C163.1719,165.2561 162.9688,165.3655 162.75,165.6311 C161.5781,165.1311 161.1406,165.0217 160.1875,165.0217 C157.5156,165.0217 155.5,167.0374 155.5,169.6624 L155.5,170.7561 Z " fill="#000000"/><text fill="#000000" font-family="sans-serif" font-size="12" lengthAdjust="spacing" textLength="103" x="174.5" y="173.5479">ast::MapperEngine</text><line style="stroke:#A80036;stroke-width:1.5;" x1="146.5" x2="279.5" y1="185.5999" y2="185.5999"/><line style="stroke:#A80036;stroke-width:1.5;" x1="146.5" x2="279.5" y1="193.5999" y2="193.5999"/><!--MD5=[f52e2ecdf0079dcc96389dc27593ca05]
class ast::UAMGrammer--><rect codeLine="233" fill="#FEFECE" filter="url(#fdcbnbrjw65z2)" height="48" id="ast::UAMGrammer" style="stroke:#A80036;stroke-width:1.5;" width="132" x="7" y="278.5999"/><ellipse cx="22" cy="294.5999" fill="#ADD1B2" rx="11" ry="11" style="stroke:#A80036;stroke-width:1.0;"/><path d="M17,295.7561 C17,298.2561 19.1406,300.0686 22.0625,300.0686 C23.2969,300.0686 24.4688,299.7717 25.2188,299.2561 C25.8281,298.8342 26.1563,298.4124 26.1563,298.0061 C26.1563,297.5374 25.7344,297.1311 25.2344,297.1311 C25,297.1311 24.7813,297.2092 24.5781,297.4124 C24.1406,297.8499 24.1406,297.8499 23.9688,297.9436 C23.5156,298.178 22.875,298.3186 22.1094,298.3186 C20.1094,298.3186 18.8281,297.303 18.8281,295.7249 L18.8281,294.678 C18.8281,292.9749 20.0469,291.7717 21.75,291.7717 C22.3281,291.7717 22.9063,291.9124 23.375,292.1624 C23.8438,292.428 24.0156,292.6155 24.0781,292.9749 C24.2031,293.6467 24.4531,293.8967 24.9844,293.8967 C25.2656,293.8967 25.5469,293.7561 25.7344,293.5374 C25.8594,293.3655 25.9063,293.1936 25.9063,292.7561 L25.9063,291.3967 C25.9063,290.9749 25.8906,290.8342 25.7656,290.6624 C25.5938,290.4124 25.3125,290.2561 24.9844,290.2561 C24.6719,290.2561 24.4688,290.3655 24.25,290.6311 C23.0781,290.1311 22.6406,290.0217 21.6875,290.0217 C19.0156,290.0217 17,292.0374 17,294.6624 L17,295.7561 Z " fill="#000000"/><text fill="#000000" font-family="sans-serif" font-size="12" lengthAdjust="spacing" textLength="100" x="36" y="298.5479">ast::UAMGrammer</text><line style="stroke:#A80036;stroke-width:1.5;" x1="8" x2="138" y1="310.5999" y2="310.5999"/><line style="stroke:#A80036;stroke-width:1.5;" x1="8" x2="138" y1="318.5999" y2="318.5999"/><!--MD5=[6b80bb4ae39d58fc6017d732a8f04c8f]
class ast::eval--><rect codeLine="234" fill="#FEFECE" filter="url(#fdcbnbrjw65z2)" height="48" id="ast::eval" style="stroke:#A80036;stroke-width:1.5;" width="77" x="174.5" y="278.5999"/><ellipse cx="189.5" cy="294.5999" fill="#ADD1B2" rx="11" ry="11" style="stroke:#A80036;stroke-width:1.0;"/><path d="M184.5,295.7561 C184.5,298.2561 186.6406,300.0686 189.5625,300.0686 C190.7969,300.0686 191.9688,299.7717 192.7188,299.2561 C193.3281,298.8342 193.6563,298.4124 193.6563,298.0061 C193.6563,297.5374 193.2344,297.1311 192.7344,297.1311 C192.5,297.1311 192.2813,297.2092 192.0781,297.4124 C191.6406,297.8499 191.6406,297.8499 191.4688,297.9436 C191.0156,298.178 190.375,298.3186 189.6094,298.3186 C187.6094,298.3186 186.3281,297.303 186.3281,295.7249 L186.3281,294.678 C186.3281,292.9749 187.5469,291.7717 189.25,291.7717 C189.8281,291.7717 190.4063,291.9124 190.875,292.1624 C191.3438,292.428 191.5156,292.6155 191.5781,292.9749 C191.7031,293.6467 191.9531,293.8967 192.4844,293.8967 C192.7656,293.8967 193.0469,293.7561 193.2344,293.5374 C193.3594,293.3655 193.4063,293.1936 193.4063,292.7561 L193.4063,291.3967 C193.4063,290.9749 193.3906,290.8342 193.2656,290.6624 C193.0938,290.4124 192.8125,290.2561 192.4844,290.2561 C192.1719,290.2561 191.9688,290.3655 191.75,290.6311 C190.5781,290.1311 190.1406,290.0217 189.1875,290.0217 C186.5156,290.0217 184.5,292.0374 184.5,294.6624 L184.5,295.7561 Z " fill="#000000"/><text fill="#000000" font-family="sans-serif" font-size="12" lengthAdjust="spacing" textLength="45" x="203.5" y="298.5479">ast::eval</text><line style="stroke:#A80036;stroke-width:1.5;" x1="175.5" x2="250.5" y1="310.5999" y2="310.5999"/><line style="stroke:#A80036;stroke-width:1.5;" x1="175.5" x2="250.5" y1="318.5999" y2="318.5999"/><!--MD5=[6f256cbe1750f98aa4d83d0e299c34ec]
class ast::dep_eval--><rect codeLine="235" fill="#FEFECE" filter="url(#fdcbnbrjw65z2)" height="48" id="ast::dep_eval" style="stroke:#A80036;stroke-width:1.5;" width="105" x="286.5" y="278.5999"/><ellipse cx="301.5" cy="294.5999" fill="#ADD1B2" rx="11" ry="11" style="stroke:#A80036;stroke-width:1.0;"/><path d="M296.5,295.7561 C296.5,298.2561 298.6406,300.0686 301.5625,300.0686 C302.7969,300.0686 303.9688,299.7717 304.7188,299.2561 C305.3281,298.8342 305.6563,298.4124 305.6563,298.0061 C305.6563,297.5374 305.2344,297.1311 304.7344,297.1311 C304.5,297.1311 304.2813,297.2092 304.0781,297.4124 C303.6406,297.8499 303.6406,297.8499 303.4688,297.9436 C303.0156,298.178 302.375,298.3186 301.6094,298.3186 C299.6094,298.3186 298.3281,297.303 298.3281,295.7249 L298.3281,294.678 C298.3281,292.9749 299.5469,291.7717 301.25,291.7717 C301.8281,291.7717 302.4063,291.9124 302.875,292.1624 C303.3438,292.428 303.5156,292.6155 303.5781,292.9749 C303.7031,293.6467 303.9531,293.8967 304.4844,293.8967 C304.7656,293.8967 305.0469,293.7561 305.2344,293.5374 C305.3594,293.3655 305.4063,293.1936 305.4063,292.7561 L305.4063,291.3967 C305.4063,290.9749 305.3906,290.8342 305.2656,290.6624 C305.0938,290.4124 304.8125,290.2561 304.4844,290.2561 C304.1719,290.2561 303.9688,290.3655 303.75,290.6311 C302.5781,290.1311 302.1406,290.0217 301.1875,290.0217 C298.5156,290.0217 296.5,292.0374 296.5,294.6624 L296.5,295.7561 Z " fill="#000000"/><text fill="#000000" font-family="sans-serif" font-size="12" lengthAdjust="spacing" textLength="73" x="315.5" y="298.5479">ast::dep_eval</text><line style="stroke:#A80036;stroke-width:1.5;" x1="287.5" x2="390.5" y1="310.5999" y2="310.5999"/><line style="stroke:#A80036;stroke-width:1.5;" x1="287.5" x2="390.5" y1="318.5999" y2="318.5999"/><!--MD5=[d9a9ef0d97f910e9ce2a035af3295237]
class attribute_store--><rect codeLine="236" fill="#FEFECE" filter="url(#fdcbnbrjw65z2)" height="48" id="attribute_store" style="stroke:#A80036;stroke-width:1.5;" width="110" x="158" y="28.5999"/><ellipse cx="173" cy="44.5999" fill="#ADD1B2" rx="11" ry="11" style="stroke:#A80036;stroke-width:1.0;"/><path d="M168,45.7561 C168,48.2561 170.1406,50.0686 173.0625,50.0686 C174.2969,50.0686 175.4688,49.7717 176.2188,49.2561 C176.8281,48.8342 177.1563,48.4124 177.1563,48.0061 C177.1563,47.5374 176.7344,47.1311 176.2344,47.1311 C176,47.1311 175.7813,47.2092 175.5781,47.4124 C175.1406,47.8499 175.1406,47.8499 174.9688,47.9436 C174.5156,48.178 173.875,48.3186 173.1094,48.3186 C171.1094,48.3186 169.8281,47.303 169.8281,45.7249 L169.8281,44.678 C169.8281,42.9749 171.0469,41.7717 172.75,41.7717 C173.3281,41.7717 173.9063,41.9124 174.375,42.1624 C174.8438,42.428 175.0156,42.6155 175.0781,42.9749 C175.2031,43.6467 175.4531,43.8967 175.9844,43.8967 C176.2656,43.8967 176.5469,43.7561 176.7344,43.5374 C176.8594,43.3655 176.9063,43.1936 176.9063,42.7561 L176.9063,41.3967 C176.9063,40.9749 176.8906,40.8342 176.7656,40.6624 C176.5938,40.4124 176.3125,40.2561 175.9844,40.2561 C175.6719,40.2561 175.4688,40.3655 175.25,40.6311 C174.0781,40.1311 173.6406,40.0217 172.6875,40.0217 C170.0156,40.0217 168,42.0374 168,44.6624 L168,45.7561 Z " fill="#000000"/><text fill="#000000" font-family="sans-serif" font-size="12" lengthAdjust="spacing" textLength="78" x="187" y="48.5479">attribute_store</text><line style="stroke:#A80036;stroke-width:1.5;" x1="159" x2="267" y1="60.5999" y2="60.5999"/><line style="stroke:#A80036;stroke-width:1.5;" x1="159" x2="267" y1="68.5999" y2="68.5999"/><!--MD5=[7171e165f37fc7eaadbee39d21697efa]
reverse link ast::MapperEngine to ast::UAMGrammer--><path codeLine="238" d="M171.44,215.1099 C148.04,235.6699 119.52,260.7299 99.21,278.5699 " fill="none" id="ast::MapperEngine-backto-ast::UAMGrammer" style="stroke:#A80036;stroke-width:1.0;"/><polygon fill="none" points="167.02,209.6799,186.67,201.7399,176.26,220.1899,167.02,209.6799" style="stroke:#A80036;stroke-width:1.0;"/><text fill="#000000" font-family="sans-serif" font-size="13" lengthAdjust="spacing" textLength="26" x="153" y="244.6769">AST</text><!--MD5=[3ddef8f292b70a6d8a2acd914718bc64]
reverse link ast::MapperEngine to ast::eval--><path codeLine="239" d="M213,221.7699 C213,240.8899 213,262.6199 213,278.5699 " fill="none" id="ast::MapperEngine-backto-ast::eval" style="stroke:#A80036;stroke-width:1.0;"/><polygon fill="none" points="206,221.7399,213,201.7399,220,221.7399,206,221.7399" style="stroke:#A80036;stroke-width:1.0;"/><text fill="#000000" font-family="sans-serif" font-size="13" lengthAdjust="spacing" textLength="80" x="214" y="244.6769">optional value</text><!--MD5=[954928cac6b8cfcbd682f817d8f14c1b]
reverse link ast::MapperEngine to ast::dep_eval--><path codeLine="240" d="M277.96,212.8799 C285.87,218.5399 293.46,224.7999 300,231.5999 C313.02,245.1399 323.15,263.8599 329.82,278.5399 " fill="none" id="ast::MapperEngine-backto-ast::dep_eval" style="stroke:#A80036;stroke-width:1.0;"/><polygon fill="none" points="273.89,218.5799,260.93,201.8099,281.52,206.8399,273.89,218.5799" style="stroke:#A80036;stroke-width:1.0;"/><text fill="#000000" font-family="sans-serif" font-size="13" lengthAdjust="spacing" textLength="80" x="313" y="244.6769">dependencies</text><!--MD5=[4adf6ec12c9aa765e7a157e73e3164db]
link attribute_store to ast::MapperEngine--><path codeLine="241" d="M213,76.7399 C213,92.7099 213,114.4399 213,133.5499 " fill="none" id="attribute_store-to-ast::MapperEngine" style="stroke:#A80036;stroke-width:1.0;"/><polygon fill="none" points="220,133.5699,213,153.5699,206,133.5699,220,133.5699" style="stroke:#A80036;stroke-width:1.0;"/><text fill="#000000" font-family="sans-serif" font-size="13" lengthAdjust="spacing" textLength="129" x="214" y="119.6769">on_attribute_updated()</text><!--MD5=[a1064bda74635dcf31e1a7800db7da63]
@startuml inline_umlgraph_5.svg
title Relationships - Class Diagram

title Mapping engine

class ast::MapperEngine
class ast::UAMGrammer
class ast::eval
class ast::dep_eval
class attribute_store

ast::MapperEngine <|-down- ast::UAMGrammer : AST
ast::MapperEngine <|-down- ast::eval : optional value
ast::MapperEngine <|-down- ast::dep_eval : dependencies
ast::MapperEngine <|-up-   attribute_store:  on_attribute_updated()
@enduml

PlantUML version 1.2022.0(Tue Jan 11 16:16:42 UTC 2022)
(GPL source distribution)
Java Runtime: OpenJDK Runtime Environment
JVM: OpenJDK 64-Bit Server VM
Default Encoding: ANSI_X3.4-1968
Language: en
Country: US
--></g></svg>