<?xml version="1.0" encoding="UTF-8" standalone="no"?><svg xmlns="http://www.w3.org/2000/svg" xmlns:xlink="http://www.w3.org/1999/xlink" contentScriptType="application/ecmascript" contentStyleType="text/css" height="394px" preserveAspectRatio="none" style="width:975px;height:394px;background:#FFFFFF;" version="1.1" viewBox="0 0 975 394" width="975px" zoomAndPan="magnify"><defs><filter height="300%" id="flnxpuzcmr4jr" width="300%" x="-1" y="-1"><feGaussianBlur result="blurOut" stdDeviation="2.0"/><feColorMatrix in="blurOut" result="blurOut2" type="matrix" values="0 0 0 0 0 0 0 0 0 0 0 0 0 0 0 0 0 0 .4 0"/><feOffset dx="4.0" dy="4.0" in="blurOut2" result="blurOut3"/><feBlend in="SourceGraphic" in2="blurOut3" mode="normal"/></filter></defs><g><text fill="#000000" font-family="sans-serif" font-size="18" lengthAdjust="spacing" textLength="310" x="326" y="16.7219">SPAN persistence in the attribute store</text><!--MD5=[ea3d5de2a0d35296bc751d5a1b771698]
cluster Attribute Store--><path d="M6,37.5999 C6,27.5999 487,27.5999 487,27.5999 C487,27.5999 968,27.5999 968,37.5999 L968,377.5999 C968,387.5999 487,387.5999 487,387.5999 C487,387.5999 6,387.5999 6,377.5999 L6,37.5999 " fill="#FFFFFF" filter="url(#flnxpuzcmr4jr)" style="stroke:#000000;stroke-width:1.5;"/><path d="M6,37.5999 C6,47.5999 487,47.5999 487,47.5999 C487,47.5999 968,47.5999 968,37.5999 " fill="none" style="stroke:#000000;stroke-width:1.5;"/><text fill="#000000" font-family="sans-serif" font-size="14" font-weight="bold" lengthAdjust="spacing" textLength="100" x="437" y="62.6058">Attribute Store</text><!--MD5=[5191e8b062a68725aacf43ecf3806121]
cluster Other Nodes--><polygon fill="#FFFFFF" filter="url(#flnxpuzcmr4jr)" points="234,152.5999,326,152.5999,333,175.3998,944,175.3998,944,363.5999,234,363.5999,234,152.5999" style="stroke:#000000;stroke-width:1.5;"/><line style="stroke:#000000;stroke-width:1.5;" x1="234" x2="333" y1="175.3998" y2="175.3998"/><text fill="#000000" font-family="sans-serif" font-size="14" font-weight="bold" lengthAdjust="spacing" textLength="86" x="238" y="167.6058">Other Nodes</text><rect fill="#FFFAE6" filter="url(#flnxpuzcmr4jr)" height="50.4001" style="stroke:#000000;stroke-width:1.5;" width="219" x="131.5" y="77.5999"/><text fill="#000000" font-family="sans-serif" font-size="12" lengthAdjust="spacing" textLength="45" x="218.5" y="90.7479">HomeID</text><line style="stroke:#000000;stroke-width:1.5;" x1="132.5" x2="349.5" y1="96" y2="96"/><text fill="#000000" font-family="sans-serif" font-size="10" lengthAdjust="spacing" textLength="130" x="137.5" y="109.29">ID = ATTRIBUTE_HOME_ID</text><text fill="#000000" font-family="sans-serif" font-size="10" lengthAdjust="spacing" textLength="207" x="137.5" y="121.2899">value = Desired: [], Reported: [8C CE FB E6]</text><rect fill="#F2FFE6" filter="url(#flnxpuzcmr4jr)" height="50.4001" style="stroke:#000000;stroke-width:1.5;" width="196" x="22" y="187.5999"/><text fill="#000000" font-family="sans-serif" font-size="12" lengthAdjust="spacing" textLength="69" x="85.5" y="200.7479">ZPC NodeID</text><line style="stroke:#000000;stroke-width:1.5;" x1="23" x2="217" y1="206" y2="206"/><text fill="#000000" font-family="sans-serif" font-size="10" lengthAdjust="spacing" textLength="184" x="28" y="219.29">Attribute Type = ATTRIBUTE_NODE_ID</text><text fill="#000000" font-family="sans-serif" font-size="10" lengthAdjust="spacing" textLength="157" x="28" y="231.2899">value = Desired: [], Reported: [01]</text><rect fill="#F2FFE6" filter="url(#flnxpuzcmr4jr)" height="50.4001" style="stroke:#000000;stroke-width:1.5;" width="196" x="372" y="187.5999"/><text fill="#000000" font-family="sans-serif" font-size="12" lengthAdjust="spacing" textLength="42" x="449" y="200.7479">NodeID</text><line style="stroke:#000000;stroke-width:1.5;" x1="373" x2="567" y1="206" y2="206"/><text fill="#000000" font-family="sans-serif" font-size="10" lengthAdjust="spacing" textLength="184" x="378" y="219.29">Attribute Type = ATTRIBUTE_NODE_ID</text><text fill="#000000" font-family="sans-serif" font-size="10" lengthAdjust="spacing" textLength="157" x="378" y="231.2899">value = Desired: [], Reported: [03]</text><rect fill="#FEFEFE" filter="url(#flnxpuzcmr4jr)" height="50.4001" style="stroke:#000000;stroke-width:1.5;" width="678" x="250" y="297.5999"/><text fill="#000000" font-family="sans-serif" font-size="12" lengthAdjust="spacing" textLength="64" x="557" y="310.7479">SPAN Entry</text><line style="stroke:#000000;stroke-width:1.5;" x1="251" x2="927" y1="316" y2="316"/><text fill="#000000" font-family="sans-serif" font-size="10" lengthAdjust="spacing" textLength="226" x="256" y="329.29">Attribute Type = ATTRIBUTE_S2_SPAN_ENTRY</text><text fill="#000000" font-family="sans-serif" font-size="10" lengthAdjust="spacing" textLength="666" x="256" y="341.2899">value = Desired: [] - Reported: [00,3c,8c,fa,31,85,33,eb,db,70,5f,62,b4,65,95,53,91,fb,82,87,49,88,15,d5,ef,7c,dc,4e,36,ee,28,23,4b,d4,9f,01]</text><!--MD5=[1bea09fc933d9a415fa1ec313e7a7cac]
reverse link home_id to zpc_node--><path codeLine="147" d="M204.04,136.5899 C185.67,152.9899 163.86,172.4499 147.06,187.4399 " fill="none" id="home_id-backto-zpc_node" style="stroke:#A80036;stroke-width:1.0;"/><polygon fill="#A80036" points="213.85,127.8399,206.7101,128.8507,204.8971,135.8302,212.037,134.8193,213.85,127.8399" style="stroke:#A80036;stroke-width:1.0;"/><!--MD5=[4dab04efc5f9b899ccf1fd0853335eeb]
reverse link home_id to node--><path codeLine="148" d="M338.59,132.1199 C348.67,135.9499 358.64,140.1199 368,144.5999 C392.84,156.4999 418.76,173.5899 438.25,187.5299 " fill="none" id="home_id-backto-node" style="stroke:#A80036;stroke-width:1.0;"/><polygon fill="#A80036" points="326.26,127.6199,330.523,133.4359,337.5313,131.7377,333.2683,125.9217,326.26,127.6199" style="stroke:#A80036;stroke-width:1.0;"/><!--MD5=[e01f3ce942919f544f02bf52f9d83471]
reverse link node to span_entry--><path codeLine="149" d="M506.35,246.5899 C524.42,262.9899 545.86,282.4499 562.38,297.4399 " fill="none" id="node-backto-span_entry" style="stroke:#A80036;stroke-width:1.0;"/><polygon fill="#A80036" points="496.71,237.8399,498.4631,244.8346,505.5941,245.9067,503.841,238.9119,496.71,237.8399" style="stroke:#A80036;stroke-width:1.0;"/><!--MD5=[45d88a76d5012eb9a6a134a021c56a93]
@startuml attribute_store_span_persistence.svg
title SPAN persistence in the attribute store
allow_mixing
skinparam objectBorderColor black

package "Attribute Store" <<Database>> {
  object "HomeID" as home_id #fffae6
  home_id : ID = ATTRIBUTE_HOME_ID
  home_id : value = Desired: [], Reported: [8C CE FB E6]

  object "ZPC NodeID" as zpc_node #f2ffe6
  zpc_node : Attribute Type = ATTRIBUTE_NODE_ID
  zpc_node : value = Desired: [], Reported: [01]

  package "Other Nodes"{
    object "NodeID" as node #f2ffe6
    node : Attribute Type = ATTRIBUTE_NODE_ID
    node : value = Desired: [], Reported: [03]

    object "SPAN Entry" as span_entry #FEFEFE
    span_entry : Attribute Type = ATTRIBUTE_S2_SPAN_ENTRY
    span_entry : value = Desired: [] - Reported: [00,3c,8c,fa,31,85,33,eb,db,70,5f,62,b4,65,95,53,91,fb,82,87,49,88,15,d5,ef,7c,dc,4e,36,ee,28,23,4b,d4,9f,01]
  }
}
home_id *- - zpc_node
home_id *- - node
node *- - span_entry
@enduml

PlantUML version 1.2022.0(Tue Jan 11 16:16:42 UTC 2022)
(GPL source distribution)
Java Runtime: OpenJDK Runtime Environment
JVM: OpenJDK 64-Bit Server VM
Default Encoding: ANSI_X3.4-1968
Language: en
Country: US
--></g></svg>