<?xml version="1.0" encoding="UTF-8" standalone="no"?><svg xmlns="http://www.w3.org/2000/svg" xmlns:xlink="http://www.w3.org/1999/xlink" contentScriptType="application/ecmascript" contentStyleType="text/css" height="926px" preserveAspectRatio="none" style="width:1261px;height:926px;background:#FFFFFF;" version="1.1" viewBox="0 0 1261 926" width="1261px" zoomAndPan="magnify"><defs><filter height="300%" id="f9tvfaejnvtpr" width="300%" x="-1" y="-1"><feGaussianBlur result="blurOut" stdDeviation="2.0"/><feColorMatrix in="blurOut" result="blurOut2" type="matrix" values="0 0 0 0 0 0 0 0 0 0 0 0 0 0 0 0 0 0 .4 0"/><feOffset dx="4.0" dy="4.0" in="blurOut2" result="blurOut3"/><feBlend in="SourceGraphic" in2="blurOut3" mode="normal"/></filter></defs><g><rect fill="#DDDDDD" height="26.2969" rx="5" ry="5" style="stroke:#000000;stroke-width:1.0;" width="513" x="367" y="8"/><text fill="#FEFEFE" font-family="sans-serif" font-size="14" lengthAdjust="spacing" textLength="118" x="373" y="25.9951">ATTRIBUTE(type)</text><text fill="#000000" font-family="sans-serif" font-size="14" lengthAdjust="spacing" textLength="379" x="495" y="25.9951">: ATTRIBUTE_COMMAND_CLASS_CONFIGURATION_type</text><!--MD5=[ea3d5de2a0d35296bc751d5a1b771698]
cluster Attribute Store--><path d="M6,59.2969 C6,49.2969 630,49.2969 630,49.2969 C630,49.2969 1254,49.2969 1254,59.2969 L1254,909.2969 C1254,919.2969 630,919.2969 630,919.2969 C630,919.2969 6,919.2969 6,909.2969 L6,59.2969 " fill="#FFFFFF" filter="url(#f9tvfaejnvtpr)" style="stroke:#000000;stroke-width:1.5;"/><path d="M6,59.2969 C6,69.2969 630,69.2969 630,69.2969 C630,69.2969 1254,69.2969 1254,59.2969 " fill="none" style="stroke:#000000;stroke-width:1.5;"/><text fill="#000000" font-family="sans-serif" font-size="14" font-weight="bold" lengthAdjust="spacing" textLength="118" x="571" y="84.292">Attribute Store</text><!--MD5=[f1b02421b27ff65f8bf09530e1c651eb]
cluster For each Parameter--><rect fill="#FFFFFF" filter="url(#f9tvfaejnvtpr)" height="520" style="stroke:#000000;stroke-width:1.5;" width="1154" x="53" y="391.2969"/><text fill="#000000" font-family="sans-serif" font-size="14" font-weight="bold" lengthAdjust="spacing" textLength="156" x="552" y="406.292">For each Parameter</text><rect fill="#F2FFE6" filter="url(#f9tvfaejnvtpr)" height="49.25" style="stroke:#000000;stroke-width:1.5;" width="201" x="642.5" y="91.2969"/><text fill="#000000" font-family="sans-serif" font-size="12" lengthAdjust="spacing" textLength="45" x="720.5" y="104.4355">NodeID</text><line style="stroke:#000000;stroke-width:1.5;" x1="643.5" x2="842.5" y1="109.2656" y2="109.2656"/><text fill="#000000" font-family="sans-serif" font-size="10" lengthAdjust="spacing" textLength="189" x="648.5" y="122.5479">Attribute Type = ATTRIBUTE_NODE_ID</text><text fill="#000000" font-family="sans-serif" font-size="10" lengthAdjust="spacing" textLength="168" x="648.5" y="134.1885">value = Desired: [], Reported: [03]</text><rect fill="#E6FFF7" filter="url(#f9tvfaejnvtpr)" height="49.25" style="stroke:#000000;stroke-width:1.5;" width="224" x="631" y="200.2969"/><text fill="#000000" font-family="sans-serif" font-size="12" lengthAdjust="spacing" textLength="115" x="685.5" y="213.4355">Endpoint Attribute</text><line style="stroke:#000000;stroke-width:1.5;" x1="632" x2="854" y1="218.2656" y2="218.2656"/><text fill="#000000" font-family="sans-serif" font-size="10" lengthAdjust="spacing" textLength="212" x="637" y="231.5479">Attribute Type = ATTRIBUTE_ENDPOINT_ID</text><text fill="#000000" font-family="sans-serif" font-size="10" lengthAdjust="spacing" textLength="172" x="637" y="243.1885">value = Desired: [] - Reported: [04]</text><rect fill="#FEFEFE" filter="url(#f9tvfaejnvtpr)" height="49.25" style="stroke:#000000;stroke-width:1.5;" width="204" x="14" y="309.2969"/><text fill="#000000" font-family="sans-serif" font-size="12" lengthAdjust="spacing" textLength="47" x="92.5" y="322.4355">Version</text><line style="stroke:#000000;stroke-width:1.5;" x1="15" x2="217" y1="327.2656" y2="327.2656"/><text fill="#000000" font-family="sans-serif" font-size="10" lengthAdjust="spacing" textLength="192" x="20" y="340.5479">Attribute Type = ATTRIBUTE(VERSION)</text><text fill="#000000" font-family="sans-serif" font-size="10" lengthAdjust="spacing" textLength="166" x="20" y="352.1885">value = Desired: [] - Reported: [2]</text><rect fill="#FFFFFF" filter="url(#f9tvfaejnvtpr)" height="49.25" style="stroke:#000000;stroke-width:1.5;" width="336" x="253" y="309.2969"/><text fill="#000000" font-family="sans-serif" font-size="12" lengthAdjust="spacing" textLength="184" x="329" y="322.4355">Next Supported Parameter ID</text><line style="stroke:#000000;stroke-width:1.5;" x1="254" x2="588" y1="327.2656" y2="327.2656"/><text fill="#000000" font-family="sans-serif" font-size="10" lengthAdjust="spacing" textLength="324" x="259" y="340.5479">Attribute Type = ATTRIBUTE(NEXT_SUPPORTED_PARAMETER_ID)</text><text fill="#000000" font-family="sans-serif" font-size="10" lengthAdjust="spacing" textLength="166" x="259" y="352.1885">value = Desired: [] - Reported: [5]</text><rect fill="#FFFFFF" filter="url(#f9tvfaejnvtpr)" height="49.25" style="stroke:#000000;stroke-width:1.5;" width="239" x="623.5" y="309.2969"/><text fill="#000000" font-family="sans-serif" font-size="12" lengthAdjust="spacing" textLength="80" x="703" y="322.4355">Bulk Support</text><line style="stroke:#000000;stroke-width:1.5;" x1="624.5" x2="861.5" y1="327.2656" y2="327.2656"/><text fill="#000000" font-family="sans-serif" font-size="10" lengthAdjust="spacing" textLength="227" x="629.5" y="340.5479">Attribute Type = ATTRIBUTE(BULK_SUPPORT)</text><text fill="#000000" font-family="sans-serif" font-size="10" lengthAdjust="spacing" textLength="166" x="629.5" y="352.1885">value = Desired: [] - Reported: [1]</text><rect fill="#FFFFFF" filter="url(#f9tvfaejnvtpr)" height="49.25" style="stroke:#000000;stroke-width:1.5;" width="311" x="897.5" y="309.2969"/><text fill="#000000" font-family="sans-serif" font-size="12" lengthAdjust="spacing" textLength="157" x="974.5" y="322.4355">Default Reset Requested</text><line style="stroke:#000000;stroke-width:1.5;" x1="898.5" x2="1207.5" y1="327.2656" y2="327.2656"/><text fill="#000000" font-family="sans-serif" font-size="10" lengthAdjust="spacing" textLength="299" x="903.5" y="340.5479">Attribute Type = ATTRIBUTE(DEFAULT_RESET_REQUESTED)</text><text fill="#000000" font-family="sans-serif" font-size="10" lengthAdjust="spacing" textLength="172" x="903.5" y="352.1885">value = Desired: [1] - Reported: [0]</text><rect fill="#FFFFFF" filter="url(#f9tvfaejnvtpr)" height="49.25" style="stroke:#000000;stroke-width:1.5;" width="236" x="502" y="418.2969"/><text fill="#000000" font-family="sans-serif" font-size="12" lengthAdjust="spacing" textLength="82" x="579" y="431.4355">Parameter ID</text><line style="stroke:#000000;stroke-width:1.5;" x1="503" x2="737" y1="436.2656" y2="436.2656"/><text fill="#000000" font-family="sans-serif" font-size="10" lengthAdjust="spacing" textLength="224" x="508" y="449.5479">Attribute Type = ATTRIBUTE(PARAMETER_ID)</text><text fill="#000000" font-family="sans-serif" font-size="10" lengthAdjust="spacing" textLength="166" x="508" y="461.1885">value = Desired: [] - Reported: [1]</text><rect fill="#FFFFFF" filter="url(#f9tvfaejnvtpr)" height="49.25" style="stroke:#000000;stroke-width:1.5;" width="248" x="98" y="527.2969"/><text fill="#000000" font-family="sans-serif" font-size="12" lengthAdjust="spacing" textLength="24" x="210" y="540.4355">Size</text><line style="stroke:#000000;stroke-width:1.5;" x1="99" x2="345" y1="545.2656" y2="545.2656"/><text fill="#000000" font-family="sans-serif" font-size="10" lengthAdjust="spacing" textLength="236" x="104" y="558.5479">Attribute Type = ATTRIBUTE(PARAMETER_SIZE)</text><text fill="#000000" font-family="sans-serif" font-size="10" lengthAdjust="spacing" textLength="166" x="104" y="570.1885">value = Desired: [] - Reported: [2]</text><rect fill="#FFFFFF" filter="url(#f9tvfaejnvtpr)" height="49.25" style="stroke:#000000;stroke-width:1.5;" width="267" x="894.5" y="527.2969"/><text fill="#000000" font-family="sans-serif" font-size="12" lengthAdjust="spacing" textLength="44" x="1006" y="540.4355">Format</text><line style="stroke:#000000;stroke-width:1.5;" x1="895.5" x2="1160.5" y1="545.2656" y2="545.2656"/><text fill="#000000" font-family="sans-serif" font-size="10" lengthAdjust="spacing" textLength="255" x="900.5" y="558.5479">Attribute Type = ATTRIBUTE(PARAMETER_FORMAT)</text><text fill="#000000" font-family="sans-serif" font-size="10" lengthAdjust="spacing" textLength="166" x="900.5" y="570.1885">value = Desired: [] - Reported: [2]</text><rect fill="#FFFFFF" filter="url(#f9tvfaejnvtpr)" height="49.25" style="stroke:#000000;stroke-width:1.5;" width="256" x="492" y="527.2969"/><text fill="#000000" font-family="sans-serif" font-size="12" lengthAdjust="spacing" textLength="36" x="602" y="540.4355">Name</text><line style="stroke:#000000;stroke-width:1.5;" x1="493" x2="747" y1="545.2656" y2="545.2656"/><text fill="#000000" font-family="sans-serif" font-size="10" lengthAdjust="spacing" textLength="244" x="498" y="558.5479">Attribute Type = ATTRIBUTE(PARAMETER_NAME)</text><text fill="#000000" font-family="sans-serif" font-size="10" lengthAdjust="spacing" textLength="232" x="498" y="570.1885">value = Desired: [] - Reported: ["Parameter 1"]</text><rect fill="#FFFFFF" filter="url(#f9tvfaejnvtpr)" height="49.25" style="stroke:#000000;stroke-width:1.5;" width="295" x="61.5" y="636.2969"/><text fill="#000000" font-family="sans-serif" font-size="12" lengthAdjust="spacing" textLength="23" x="197.5" y="649.4355">Info</text><line style="stroke:#000000;stroke-width:1.5;" x1="62.5" x2="355.5" y1="654.2656" y2="654.2656"/><text fill="#000000" font-family="sans-serif" font-size="10" lengthAdjust="spacing" textLength="238" x="67.5" y="667.5479">Attribute Type = ATTRIBUTE(PARAMETER_INFO)</text><text fill="#000000" font-family="sans-serif" font-size="10" lengthAdjust="spacing" textLength="283" x="67.5" y="679.1885">value = Desired: [] - Reported: ["Toggles the relay mode"]</text><rect fill="#FFFFFF" filter="url(#f9tvfaejnvtpr)" height="49.25" style="stroke:#000000;stroke-width:1.5;" width="260" x="892" y="636.2969"/><text fill="#000000" font-family="sans-serif" font-size="12" lengthAdjust="spacing" textLength="35" x="1004.5" y="649.4355">Value</text><line style="stroke:#000000;stroke-width:1.5;" x1="893" x2="1151" y1="654.2656" y2="654.2656"/><text fill="#000000" font-family="sans-serif" font-size="10" lengthAdjust="spacing" textLength="248" x="898" y="667.5479">Attribute Type = ATTRIBUTE(PARAMETER_VALUE)</text><text fill="#000000" font-family="sans-serif" font-size="10" lengthAdjust="spacing" textLength="184" x="898" y="679.1885">value = Desired: [12] - Reported: [23]</text><rect fill="#FFFFFF" filter="url(#f9tvfaejnvtpr)" height="49.25" style="stroke:#000000;stroke-width:1.5;" width="285" x="466.5" y="636.2969"/><text fill="#000000" font-family="sans-serif" font-size="12" lengthAdjust="spacing" textLength="60" x="579" y="649.4355">Min Value</text><line style="stroke:#000000;stroke-width:1.5;" x1="467.5" x2="750.5" y1="654.2656" y2="654.2656"/><text fill="#000000" font-family="sans-serif" font-size="10" lengthAdjust="spacing" textLength="273" x="472.5" y="667.5479">Attribute Type = ATTRIBUTE(PARAMETER_MIN_VALUE)</text><text fill="#000000" font-family="sans-serif" font-size="10" lengthAdjust="spacing" textLength="166" x="472.5" y="679.1885">value = Desired: [] - Reported: [0]</text><rect fill="#FFFFFF" filter="url(#f9tvfaejnvtpr)" height="49.25" style="stroke:#000000;stroke-width:1.5;" width="287" x="106.5" y="745.2969"/><text fill="#000000" font-family="sans-serif" font-size="12" lengthAdjust="spacing" textLength="63" x="218.5" y="758.4355">Max Value</text><line style="stroke:#000000;stroke-width:1.5;" x1="107.5" x2="392.5" y1="763.2656" y2="763.2656"/><text fill="#000000" font-family="sans-serif" font-size="10" lengthAdjust="spacing" textLength="275" x="112.5" y="776.5479">Attribute Type = ATTRIBUTE(PARAMETER_MAX_VALUE)</text><text fill="#000000" font-family="sans-serif" font-size="10" lengthAdjust="spacing" textLength="178" x="112.5" y="788.1885">value = Desired: [] - Reported: [100]</text><rect fill="#FFFFFF" filter="url(#f9tvfaejnvtpr)" height="49.25" style="stroke:#000000;stroke-width:1.5;" width="312" x="866" y="745.2969"/><text fill="#000000" font-family="sans-serif" font-size="12" lengthAdjust="spacing" textLength="84" x="980" y="758.4355">Default Value</text><line style="stroke:#000000;stroke-width:1.5;" x1="867" x2="1177" y1="763.2656" y2="763.2656"/><text fill="#000000" font-family="sans-serif" font-size="10" lengthAdjust="spacing" textLength="300" x="872" y="776.5479">Attribute Type = ATTRIBUTE(PARAMETER_DEFAULT_VALUE)</text><text fill="#000000" font-family="sans-serif" font-size="10" lengthAdjust="spacing" textLength="166" x="872" y="788.1885">value = Desired: [] - Reported: [1]</text><rect fill="#FFFFFF" filter="url(#f9tvfaejnvtpr)" height="49.25" style="stroke:#000000;stroke-width:1.5;" width="285" x="485.5" y="745.2969"/><text fill="#000000" font-family="sans-serif" font-size="12" lengthAdjust="spacing" textLength="61" x="597.5" y="758.4355">Advanced</text><line style="stroke:#000000;stroke-width:1.5;" x1="486.5" x2="769.5" y1="763.2656" y2="763.2656"/><text fill="#000000" font-family="sans-serif" font-size="10" lengthAdjust="spacing" textLength="273" x="491.5" y="776.5479">Attribute Type = ATTRIBUTE(PARAMETER_ADVANCED)</text><text fill="#000000" font-family="sans-serif" font-size="10" lengthAdjust="spacing" textLength="166" x="491.5" y="788.1885">value = Desired: [] - Reported: [1]</text><rect fill="#FFFFFF" filter="url(#f9tvfaejnvtpr)" height="49.25" style="stroke:#000000;stroke-width:1.5;" width="288" x="196" y="854.2969"/><text fill="#000000" font-family="sans-serif" font-size="12" lengthAdjust="spacing" textLength="62" x="309" y="867.4355">Read-Only</text><line style="stroke:#000000;stroke-width:1.5;" x1="197" x2="483" y1="872.2656" y2="872.2656"/><text fill="#000000" font-family="sans-serif" font-size="10" lengthAdjust="spacing" textLength="276" x="202" y="885.5479">Attribute Type = ATTRIBUTE(PARAMETER_READ_ONLY)</text><text fill="#000000" font-family="sans-serif" font-size="10" lengthAdjust="spacing" textLength="166" x="202" y="897.1885">value = Desired: [] - Reported: [0]</text><rect fill="#FFFFFF" filter="url(#f9tvfaejnvtpr)" height="49.25" style="stroke:#000000;stroke-width:1.5;" width="351" x="747.5" y="854.2969"/><text fill="#000000" font-family="sans-serif" font-size="12" lengthAdjust="spacing" textLength="123" x="861.5" y="867.4355">Altering capabilities</text><line style="stroke:#000000;stroke-width:1.5;" x1="748.5" x2="1097.5" y1="872.2656" y2="872.2656"/><text fill="#000000" font-family="sans-serif" font-size="10" lengthAdjust="spacing" textLength="339" x="753.5" y="885.5479">Attribute Type = ATTRIBUTE(PARAMETER_ALTERING_CAPABILITIES)</text><text fill="#000000" font-family="sans-serif" font-size="10" lengthAdjust="spacing" textLength="166" x="753.5" y="897.1885">value = Desired: [] - Reported: [0]</text><!--MD5=[95477c314ce472250aabd32546a8a81f]
reverse link node to endpoint--><path codeLine="1344" d="M743,153.9265 C743,169.2695 743,186.5206 743,200.161 " fill="none" id="node-backto-endpoint" style="stroke:#A80036;stroke-width:1.0;"/><polygon fill="#A80036" points="743,140.5307,739,146.5307,743,152.5307,747,146.5307,743,140.5307" style="stroke:#A80036;stroke-width:1.0;"/><!--MD5=[c4a4e185f2beba9fb9ec0dd52638d41f]
reverse link endpoint to version--><path codeLine="1345" d="M617.6056,244.3991 C514.8653,260.7715 365.7887,285.2401 236,309.2969 C230.146,310.382 224.1371,311.5227 218.0771,312.6941 " fill="none" id="endpoint-backto-version" style="stroke:#A80036;stroke-width:1.0;"/><polygon fill="#A80036" points="630.5287,242.3435,623.9748,239.3357,618.6777,244.2287,625.2316,247.2364,630.5287,242.3435" style="stroke:#A80036;stroke-width:1.0;"/><!--MD5=[96793b32eeab749494e31151b5eec6be]
reverse link endpoint to next_parameter_id--><path codeLine="1346" d="M657.951,253.5868 C606.7209,270.9286 542.1811,292.776 493.4002,309.2887 " fill="none" id="endpoint-backto-next_parameter_id" style="stroke:#A80036;stroke-width:1.0;"/><polygon fill="#A80036" points="670.3354,249.3945,663.3696,247.5295,658.969,253.2421,665.9347,255.1071,670.3354,249.3945" style="stroke:#A80036;stroke-width:1.0;"/><!--MD5=[968b32b0af99535f4d8fe2715c81ce82]
reverse link endpoint to bulk_support--><path codeLine="1347" d="M743,262.9265 C743,278.2695 743,295.5206 743,309.161 " fill="none" id="endpoint-backto-bulk_support" style="stroke:#A80036;stroke-width:1.0;"/><polygon fill="#A80036" points="743,249.5307,739,255.5307,743,261.5307,747,255.5307,743,249.5307" style="stroke:#A80036;stroke-width:1.0;"/><!--MD5=[9869c0585812283c497ec09246fa256a]
reverse link endpoint to default_reset_requested--><path codeLine="1348" d="M825.5058,253.807 C874.7256,271.1133 936.5335,292.8458 983.2979,309.2887 " fill="none" id="endpoint-backto-default_reset_requested" style="stroke:#A80036;stroke-width:1.0;"/><polygon fill="#A80036" points="812.9566,249.3945,817.29,255.1583,824.2772,253.375,819.9437,247.6112,812.9566,249.3945" style="stroke:#A80036;stroke-width:1.0;"/><!--MD5=[2ee9020c08e9d00db3b355228af3b603]
reverse link endpoint to parameter_id--><path codeLine="1349" d="M868.5904,229.0248 C996.1646,236.276 1181.175,255.949 1226,309.2969 C1240.0096,325.9703 1240.2964,341.8687 1226,358.2969 C1194.489,394.5067 905.3759,421.7086 738.1318,434.5718 " fill="none" id="endpoint-backto-parameter_id" style="stroke:#A80036;stroke-width:1.0;"/><polygon fill="#A80036" points="855.2707,228.3007,861.0447,232.6205,867.253,228.9521,861.479,224.6323,855.2707,228.3007" style="stroke:#A80036;stroke-width:1.0;"/><!--MD5=[42cf65cd364f084011a906fb80468703]
link next_parameter_id to parameter_id--><!--MD5=[96f8e689ae89053d729b954cb2466158]
reverse link parameter_id to parameter_size--><path codeLine="1353" d="M517.279,470.929 C453.5826,488.3735 372.5477,510.5665 311.4885,527.2887 " fill="none" id="parameter_id-backto-parameter_size" style="stroke:#A80036;stroke-width:1.0;"/><polygon fill="#A80036" points="530.1848,467.3945,523.3413,465.1215,518.611,470.5643,525.4545,472.8373,530.1848,467.3945" style="stroke:#A80036;stroke-width:1.0;"/><!--MD5=[d64b3ecf38c865076a5af7dac7b033b8]
reverse link parameter_id to parameter_format--><path codeLine="1354" d="M724.6375,470.7515 C789.9954,488.2123 873.3574,510.4831 936.1503,527.2586 " fill="none" id="parameter_id-backto-parameter_format" style="stroke:#A80036;stroke-width:1.0;"/><polygon fill="#A80036" points="711.8174,467.3266,716.5816,472.7397,723.4108,470.4239,718.6465,465.0108,711.8174,467.3266" style="stroke:#A80036;stroke-width:1.0;"/><!--MD5=[cbcaf7d690dfc9df43ee2422446c98f5]
reverse link parameter_id to parameter_name--><path codeLine="1355" d="M620,480.9265 C620,496.2695 620,513.5206 620,527.161 " fill="none" id="parameter_id-backto-parameter_name" style="stroke:#A80036;stroke-width:1.0;"/><polygon fill="#A80036" points="620,467.5307,616,473.5307,620,479.5307,624,473.5307,620,467.5307" style="stroke:#A80036;stroke-width:1.0;"/><!--MD5=[721b26374fc598eb652b83c441daeafa]
link parameter_size to parameter_info--><!--MD5=[5a17129cf975b3b227af0ab6b0cdc03e]
link parameter_format to parameter_value--><!--MD5=[6ca91415e74fad095ba304632509ed3a]
link parameter_name to parameter_min_value--><!--MD5=[f373b39556c3fdd52f8db82356da54b3]
reverse link parameter_id to parameter_info--><path codeLine="1361" d="M488.9752,454.4716 C338.0276,469.2729 107.2683,496.5896 81,527.2969 C47.0822,566.9463 107.7988,610.0504 156.6749,636.2475 " fill="none" id="parameter_id-backto-parameter_info" style="stroke:#A80036;stroke-width:1.0;"/><polygon fill="#A80036" points="501.9632,453.2096,495.6044,449.8087,490.0195,454.3703,496.3782,457.7712,501.9632,453.2096" style="stroke:#A80036;stroke-width:1.0;"/><!--MD5=[d27e753e796001df686a5cc377f23bf9]
reverse link parameter_id to parameter_value--><path codeLine="1362" d="M702.362,471.8852 C751.3642,489.9692 808.1264,512.5117 830,527.2969 C855.0008,544.1959 853.2898,557.6303 877,576.2969 C906.5319,599.5468 943.1198,620.8215 972.1538,636.2081 " fill="none" id="parameter_id-backto-parameter_value" style="stroke:#A80036;stroke-width:1.0;"/><polygon fill="#A80036" points="690.097,467.391,694.3545,473.2111,701.3644,471.5196,697.1069,465.6995,690.097,467.391" style="stroke:#A80036;stroke-width:1.0;"/><!--MD5=[286b5be3a5ed2c13f5f8d8d340db9212]
reverse link parameter_id to parameter_min_value--><path codeLine="1363" d="M535.1093,473.2698 C511.4476,486.1357 488.536,503.7419 475,527.2969 C464.1493,546.179 464.4811,557.228 475,576.2969 C489.8785,603.2689 517.3867,622.8142 543.6258,636.2686 " fill="none" id="parameter_id-backto-parameter_min_value" style="stroke:#A80036;stroke-width:1.0;"/><polygon fill="#A80036" points="546.7476,467.3293,539.585,466.4944,536.0595,472.7849,543.2221,473.6198,546.7476,467.3293" style="stroke:#A80036;stroke-width:1.0;"/><!--MD5=[f0aa1eaae482d8d211ba22767716c7af]
link parameter_info to parameter_max_value--><!--MD5=[e40626f7f8c5227f57cf06ef78d3ba40]
link parameter_value to parameter_default_value--><!--MD5=[e86d3038e5e028d054b38ad02cf88f4b]
link parameter_min_value to parameter_advanced--><!--MD5=[6e55603c667d4a397b03c34c497a96b7]
reverse link parameter_id to parameter_max_value--><path codeLine="1369" d="M491.8559,472.0179 C461.2994,484.5035 431.387,502.2191 410,527.2969 C363.2653,582.0968 414.5671,625.7866 374,685.2969 C356.4651,711.0198 328.2812,731.1405 303.2109,745.2841 " fill="none" id="parameter_id-backto-parameter_max_value" style="stroke:#A80036;stroke-width:1.0;"/><polygon fill="#A80036" points="504.04,467.3172,497.0024,465.745,492.8444,471.6366,499.882,473.2088,504.04,467.3172" style="stroke:#A80036;stroke-width:1.0;"/><!--MD5=[150b790bf4a965f78ce7c2b42a72c5bf]
reverse link parameter_id to parameter_default_value--><path codeLine="1370" d="M751.0705,453.6843 C907.4563,468.0275 1151.4125,495.2258 1179,527.2969 C1196.8628,548.0629 1196.0788,644.3582 1170,685.2969 C1152.5934,712.6219 1123,732.0311 1094.8299,745.2968 " fill="none" id="parameter_id-backto-parameter_default_value" style="stroke:#A80036;stroke-width:1.0;"/><polygon fill="#A80036" points="738.0957,452.5053,743.7091,457.0319,750.0465,453.5913,744.4331,449.0647,738.0957,452.5053" style="stroke:#A80036;stroke-width:1.0;"/><!--MD5=[1cbbfefe1b82f970a38cf685bff961d4]
reverse link parameter_id to parameter_advanced--><path codeLine="1371" d="M705.0688,473.3776 C728.874,486.2487 752.0347,503.8307 766,527.2969 C790.7844,568.9427 768.3333,587.8387 769,636.2969 C769.2996,658.0726 779.7348,666.3487 769,685.2969 C753.5963,712.4863 725.5731,731.8758 698.5441,745.1636 " fill="none" id="parameter_id-backto-parameter_advanced" style="stroke:#A80036;stroke-width:1.0;"/><polygon fill="#A80036" points="693.3684,467.4323,696.9055,473.7163,704.0665,472.8682,700.5295,466.5842,693.3684,467.4323" style="stroke:#A80036;stroke-width:1.0;"/><!--MD5=[cf44dfd00116f3be3a14a538914bb5fa]
link parameter_max_value to parameter_read_only--><!--MD5=[3cdbe8ce5328b8a99d4ac4ebbd02882c]
link parameter_default_value to parameter_altering_capabilities--><!--MD5=[9c58669c13bcbc215ee83e1603ecc35d]
reverse link parameter_id to parameter_read_only--><path codeLine="1376" d="M527.9937,472.9053 C501.702,485.7525 475.4726,503.4397 458,527.2969 C386.8061,624.5057 461.9425,685.1045 411,794.2969 C400.4685,816.8707 382.324,838.3083 367.0143,853.9424 " fill="none" id="parameter_id-backto-parameter_read_only" style="stroke:#A80036;stroke-width:1.0;"/><polygon fill="#A80036" points="540.0468,467.3384,532.9225,466.2228,529.1527,472.3701,536.277,473.4856,540.0468,467.3384" style="stroke:#A80036;stroke-width:1.0;"/><!--MD5=[2c0e37603fbf1e5d1a756dd0c0842e04]
reverse link parameter_id to parameter_altering_capabilities--><path codeLine="1377" d="M707.9675,473.0841 C734.4683,486.0673 761.4176,503.7887 780,527.2969 C856.0054,623.4499 791.7429,685.9278 849,794.2969 C860.9337,816.8836 880.0314,838.481 895.8362,854.1872 " fill="none" id="parameter_id-backto-parameter_altering_capabilities" style="stroke:#A80036;stroke-width:1.0;"/><polygon fill="#A80036" points="695.8547,467.4485,699.6073,473.6062,706.7347,472.5106,702.9821,466.3529,695.8547,467.4485" style="stroke:#A80036;stroke-width:1.0;"/><!--MD5=[a893b63e4dc101df2df3dc4d4c9e9c5f]
@startuml attribute_store_configuration_command_class.svg
allow_mixing
skinparam objectBorderColor black

legend top
<font color=#FEFEFE>ATTRIBUTE(type)</font> : ATTRIBUTE_COMMAND_CLASS_CONFIGURATION_type
endlegend

package "Attribute Store" <<Database>> {
  object "NodeID" as node #f2ffe6
  node : Attribute Type = ATTRIBUTE_NODE_ID
  node : value = Desired: [], Reported: [03]

  object "Endpoint Attribute" as endpoint #e6fff7
  endpoint : Attribute Type = ATTRIBUTE_ENDPOINT_ID
  endpoint : value = Desired: [] - Reported: [04]

  object "Version" as version #FEFEFE
  version : Attribute Type = ATTRIBUTE(VERSION)
  version : value = Desired: [] - Reported: [2]

  object "Next Supported Parameter ID" as next_parameter_id #FFFFFF
  next_parameter_id : Attribute Type = ATTRIBUTE(NEXT_SUPPORTED_PARAMETER_ID)
  next_parameter_id : value = Desired: [] - Reported: [5]

  object "Bulk Support" as bulk_support #FFFFFF
  bulk_support : Attribute Type = ATTRIBUTE(BULK_SUPPORT)
  bulk_support : value = Desired: [] - Reported: [1]

  object "Default Reset Requested" as default_reset_requested #FFFFFF
  default_reset_requested : Attribute Type = ATTRIBUTE(DEFAULT_RESET_REQUESTED)
  default_reset_requested : value = Desired: [1] - Reported: [0]

  package "For each Parameter" <<Rectangle>> {

    object "Parameter ID" as parameter_id #FFFFFF
    parameter_id : Attribute Type = ATTRIBUTE(PARAMETER_ID)
    parameter_id : value = Desired: [] - Reported: [1]

    object "Size" as parameter_size #FFFFFF
    parameter_size : Attribute Type = ATTRIBUTE(PARAMETER_SIZE)
    parameter_size : value = Desired: [] - Reported: [2]

    object "Format" as parameter_format #FFFFFF
    parameter_format : Attribute Type = ATTRIBUTE(PARAMETER_FORMAT)
    parameter_format : value = Desired: [] - Reported: [2]

    object "Name" as parameter_name #FFFFFF
    parameter_name : Attribute Type = ATTRIBUTE(PARAMETER_NAME)
    parameter_name : value = Desired: [] - Reported: ["Parameter 1"]

    object "Info" as parameter_info #FFFFFF
    parameter_info : Attribute Type = ATTRIBUTE(PARAMETER_INFO)
    parameter_info : value = Desired: [] - Reported: ["Toggles the relay mode"]

    object "Value" as parameter_value #FFFFFF
    parameter_value : Attribute Type = ATTRIBUTE(PARAMETER_VALUE)
    parameter_value : value = Desired: [12] - Reported: [23]

    object "Min Value" as parameter_min_value #FFFFFF
    parameter_min_value : Attribute Type = ATTRIBUTE(PARAMETER_MIN_VALUE)
    parameter_min_value : value = Desired: [] - Reported: [0]

    object "Max Value" as parameter_max_value #FFFFFF
    parameter_max_value : Attribute Type = ATTRIBUTE(PARAMETER_MAX_VALUE)
    parameter_max_value : value = Desired: [] - Reported: [100]

    object "Default Value" as parameter_default_value #FFFFFF
    parameter_default_value : Attribute Type = ATTRIBUTE(PARAMETER_DEFAULT_VALUE)
    parameter_default_value : value = Desired: [] - Reported: [1]

    object "Advanced" as parameter_advanced #FFFFFF
    parameter_advanced : Attribute Type = ATTRIBUTE(PARAMETER_ADVANCED)
    parameter_advanced : value = Desired: [] - Reported: [1]

    object "Read-Only" as parameter_read_only #FFFFFF
    parameter_read_only : Attribute Type = ATTRIBUTE(PARAMETER_READ_ONLY)
    parameter_read_only : value = Desired: [] - Reported: [0]

    object "Altering capabilities" as parameter_altering_capabilities #FFFFFF
    parameter_altering_capabilities : Attribute Type = ATTRIBUTE(PARAMETER_ALTERING_CAPABILITIES)
    parameter_altering_capabilities : value = Desired: [] - Reported: [0]
  }

}

node *- - endpoint
endpoint *- - version
endpoint *- - next_parameter_id
endpoint *- - bulk_support
endpoint *- - default_reset_requested
endpoint *- - parameter_id

next_parameter_id -[hidden]- parameter_id

parameter_id *- - parameter_size
parameter_id *- - parameter_format
parameter_id *- - parameter_name

parameter_size -[hidden]- parameter_info
parameter_format -[hidden]- parameter_value
parameter_name -[hidden]- parameter_min_value

parameter_id *- - parameter_info
parameter_id *- - parameter_value
parameter_id *- - parameter_min_value

parameter_info -[hidden]- parameter_max_value
parameter_value -[hidden]- parameter_default_value
parameter_min_value -[hidden]- parameter_advanced

parameter_id *- - parameter_max_value
parameter_id *- - parameter_default_value
parameter_id *- - parameter_advanced

parameter_max_value -[hidden]- parameter_read_only
parameter_default_value -[hidden]- parameter_altering_capabilities

parameter_id *- - parameter_read_only
parameter_id *- - parameter_altering_capabilities
@enduml

PlantUML version 1.2022.0(Tue Jan 11 16:16:42 UTC 2022)
(GPL source distribution)
Java Runtime: OpenJDK Runtime Environment
JVM: OpenJDK 64-Bit Server VM
Default Encoding: ANSI_X3.4-1968
Language: en
Country: US
--></g></svg>