<?xml version="1.0" encoding="UTF-8" standalone="no"?><svg xmlns="http://www.w3.org/2000/svg" xmlns:xlink="http://www.w3.org/1999/xlink" contentScriptType="application/ecmascript" contentStyleType="text/css" height="695px" preserveAspectRatio="none" style="width:1506px;height:695px;background:#FFFFFF;" version="1.1" viewBox="0 0 1506 695" width="1506px" zoomAndPan="magnify"><defs><filter height="300%" id="f1s93se81fd8pn" width="300%" x="-1" y="-1"><feGaussianBlur result="blurOut" stdDeviation="2.0"/><feColorMatrix in="blurOut" result="blurOut2" type="matrix" values="0 0 0 0 0 0 0 0 0 0 0 0 0 0 0 0 0 0 .4 0"/><feOffset dx="4.0" dy="4.0" in="blurOut2" result="blurOut3"/><feBlend in="SourceGraphic" in2="blurOut3" mode="normal"/></filter></defs><g><text fill="#000000" font-family="sans-serif" font-size="18" lengthAdjust="spacing" textLength="168" x="662.5" y="16.7219">Wake Up data model</text><rect fill="#DDDDDD" height="26.7999" rx="5" ry="5" style="stroke:#000000;stroke-width:1.0;" width="462" x="515" y="29.5999"/><text fill="#FEFEFE" font-family="sans-serif" font-size="14" lengthAdjust="spacing" textLength="115" x="521" y="47.6058">ATTRIBUTE(type)</text><text fill="#000000" font-family="sans-serif" font-size="14" lengthAdjust="spacing" textLength="331" x="640" y="47.6058">: ATTRIBUTE_COMMAND_CLASS_WAKE_UP_type</text><!--MD5=[ea3d5de2a0d35296bc751d5a1b771698]
cluster Attribute Store--><path d="M6,81.3998 C6,71.3998 752.5,71.3998 752.5,71.3998 C752.5,71.3998 1499,71.3998 1499,81.3998 L1499,678.3998 C1499,688.3998 752.5,688.3998 752.5,688.3998 C752.5,688.3998 6,688.3998 6,678.3998 L6,81.3998 " fill="#FFFFFF" filter="url(#f1s93se81fd8pn)" style="stroke:#000000;stroke-width:1.5;"/><path d="M6,81.3998 C6,91.3998 752.5,91.3998 752.5,91.3998 C752.5,91.3998 1499,91.3998 1499,81.3998 " fill="none" style="stroke:#000000;stroke-width:1.5;"/><text fill="#000000" font-family="sans-serif" font-size="14" font-weight="bold" lengthAdjust="spacing" textLength="100" x="702.5" y="106.4057">Attribute Store</text><rect fill="#F2FFE6" filter="url(#f1s93se81fd8pn)" height="50.4001" style="stroke:#000000;stroke-width:1.5;" width="196" x="839" y="121.3998"/><text fill="#000000" font-family="sans-serif" font-size="12" lengthAdjust="spacing" textLength="42" x="916" y="134.5479">NodeID</text><line style="stroke:#000000;stroke-width:1.5;" x1="840" x2="1034" y1="139.7999" y2="139.7999"/><text fill="#000000" font-family="sans-serif" font-size="10" lengthAdjust="spacing" textLength="184" x="845" y="153.0899">Attribute Type = ATTRIBUTE_NODE_ID</text><text fill="#000000" font-family="sans-serif" font-size="10" lengthAdjust="spacing" textLength="157" x="845" y="165.0899">value = Desired: [], Reported: [03]</text><rect fill="#E6FFF7" filter="url(#f1s93se81fd8pn)" height="50.4001" style="stroke:#000000;stroke-width:1.5;" width="219" x="827.5" y="231.3998"/><text fill="#000000" font-family="sans-serif" font-size="12" lengthAdjust="spacing" textLength="97" x="888.5" y="244.5479">Endpoint Attribute</text><line style="stroke:#000000;stroke-width:1.5;" x1="828.5" x2="1045.5" y1="249.7999" y2="249.7999"/><text fill="#000000" font-family="sans-serif" font-size="10" lengthAdjust="spacing" textLength="207" x="833.5" y="263.0899">Attribute Type = ATTRIBUTE_ENDPOINT_ID</text><text fill="#000000" font-family="sans-serif" font-size="10" lengthAdjust="spacing" textLength="160" x="833.5" y="275.0899">value = Desired: [] - Reported: [04]</text><rect fill="#FEFEFE" filter="url(#f1s93se81fd8pn)" height="50.4001" style="stroke:#000000;stroke-width:1.5;" width="197" x="1082.5" y="341.3998"/><text fill="#000000" font-family="sans-serif" font-size="12" lengthAdjust="spacing" textLength="42" x="1160" y="354.5479">Version</text><line style="stroke:#000000;stroke-width:1.5;" x1="1083.5" x2="1278.5" y1="359.7999" y2="359.7999"/><text fill="#000000" font-family="sans-serif" font-size="10" lengthAdjust="spacing" textLength="185" x="1088.5" y="373.0899">Attribute Type = ATTRIBUTE(VERSION)</text><text fill="#000000" font-family="sans-serif" font-size="10" lengthAdjust="spacing" textLength="154" x="1088.5" y="385.0899">value = Desired: [] - Reported: [4]</text><rect fill="#FFFFFF" filter="url(#f1s93se81fd8pn)" height="50.4001" style="stroke:#000000;stroke-width:1.5;" width="195" x="291.5" y="341.3998"/><text fill="#000000" font-family="sans-serif" font-size="12" lengthAdjust="spacing" textLength="38" x="370" y="354.5479">Setting</text><line style="stroke:#000000;stroke-width:1.5;" x1="292.5" x2="485.5" y1="359.7999" y2="359.7999"/><text fill="#000000" font-family="sans-serif" font-size="10" lengthAdjust="spacing" textLength="183" x="297.5" y="373.0899">Attribute Type = ATTRIBUTE(SETTING)</text><text fill="#000000" font-family="sans-serif" font-size="10" lengthAdjust="spacing" textLength="160" x="297.5" y="385.0899">value = Desired: [0] - Reported: [1]</text><rect fill="#FFFFFF" filter="url(#f1s93se81fd8pn)" height="50.4001" style="stroke:#000000;stroke-width:1.5;" width="221" x="826.5" y="341.3998"/><text fill="#000000" font-family="sans-serif" font-size="12" lengthAdjust="spacing" textLength="65" x="904.5" y="354.5479">Capabilities</text><line style="stroke:#000000;stroke-width:1.5;" x1="827.5" x2="1046.5" y1="359.7999" y2="359.7999"/><text fill="#000000" font-family="sans-serif" font-size="10" lengthAdjust="spacing" textLength="209" x="832.5" y="373.0899">Attribute Type = ATTRIBUTE(CAPABILITIES)</text><text fill="#000000" font-family="sans-serif" font-size="10" lengthAdjust="spacing" textLength="157" x="832.5" y="385.0899">value = Desired: [], Reported: [01]</text><rect fill="#FFFFFF" filter="url(#f1s93se81fd8pn)" height="50.4001" style="stroke:#000000;stroke-width:1.5;" width="196" x="22" y="451.3998"/><text fill="#000000" font-family="sans-serif" font-size="12" lengthAdjust="spacing" textLength="95" x="72.5" y="464.5479">Wake Up NodeID</text><line style="stroke:#000000;stroke-width:1.5;" x1="23" x2="217" y1="469.7999" y2="469.7999"/><text fill="#000000" font-family="sans-serif" font-size="10" lengthAdjust="spacing" textLength="184" x="28" y="483.0899">Attribute Type = ATTRIBUTE(NODE_ID)</text><text fill="#000000" font-family="sans-serif" font-size="10" lengthAdjust="spacing" textLength="169" x="28" y="495.0899">value = Desired: [01], Reported: [10]</text><rect fill="#FFFFFF" filter="url(#f1s93se81fd8pn)" height="50.4001" style="stroke:#000000;stroke-width:1.5;" width="271" x="253.5" y="451.3998"/><text fill="#000000" font-family="sans-serif" font-size="12" lengthAdjust="spacing" textLength="93" x="342.5" y="464.5479">Wake Up Interval</text><line style="stroke:#000000;stroke-width:1.5;" x1="254.5" x2="523.5" y1="469.7999" y2="469.7999"/><text fill="#000000" font-family="sans-serif" font-size="10" lengthAdjust="spacing" textLength="189" x="259.5" y="483.0899">Attribute Type = ATTRIBUTE(INTERVAL)</text><text fill="#000000" font-family="sans-serif" font-size="10" lengthAdjust="spacing" textLength="259" x="259.5" y="495.0899">value = Desired: [80,51,01,00], Reported: [14,00,00,00]</text><rect fill="#FFFFFF" filter="url(#f1s93se81fd8pn)" height="50.4001" style="stroke:#000000;stroke-width:1.5;" width="255" x="559.5" y="451.3998"/><text fill="#000000" font-family="sans-serif" font-size="12" lengthAdjust="spacing" textLength="149" x="612.5" y="464.5479">Maximum Wake Up Interval</text><line style="stroke:#000000;stroke-width:1.5;" x1="560.5" x2="813.5" y1="469.7999" y2="469.7999"/><text fill="#000000" font-family="sans-serif" font-size="10" lengthAdjust="spacing" textLength="243" x="565.5" y="483.0899">Attribute Type = ATTRIBUTE(MAXIMUM_INTERVAL)</text><text fill="#000000" font-family="sans-serif" font-size="10" lengthAdjust="spacing" textLength="202" x="565.5" y="495.0899">value = Desired: [], Reported: [80,51,01,00]</text><rect fill="#FFFFFF" filter="url(#f1s93se81fd8pn)" height="50.4001" style="stroke:#000000;stroke-width:1.5;" width="251" x="1231.5" y="451.3998"/><text fill="#000000" font-family="sans-serif" font-size="12" lengthAdjust="spacing" textLength="146" x="1284" y="464.5479">Minimum Wake Up Interval</text><line style="stroke:#000000;stroke-width:1.5;" x1="1232.5" x2="1481.5" y1="469.7999" y2="469.7999"/><text fill="#000000" font-family="sans-serif" font-size="10" lengthAdjust="spacing" textLength="239" x="1237.5" y="483.0899">Attribute Type = ATTRIBUTE(MINIMUM_INTERVAL)</text><text fill="#000000" font-family="sans-serif" font-size="10" lengthAdjust="spacing" textLength="202" x="1237.5" y="495.0899">value = Desired: [], Reported: [14,00,00,00]</text><rect fill="#FFFFFF" filter="url(#f1s93se81fd8pn)" height="50.4001" style="stroke:#000000;stroke-width:1.5;" width="253" x="683.5" y="622.3998"/><text fill="#000000" font-family="sans-serif" font-size="12" lengthAdjust="spacing" textLength="135" x="742.5" y="635.5479">Default Wake Up Interval</text><line style="stroke:#000000;stroke-width:1.5;" x1="684.5" x2="935.5" y1="640.7999" y2="640.7999"/><text fill="#000000" font-family="sans-serif" font-size="10" lengthAdjust="spacing" textLength="241" x="689.5" y="654.0899">Attribute Type = ATTRIBUTE(DEFAULT_INTERVAL)</text><text fill="#000000" font-family="sans-serif" font-size="10" lengthAdjust="spacing" textLength="201" x="689.5" y="666.0899">value = Desired: [], Reported: [2c,01,00,00]</text><rect fill="#FFFFFF" filter="url(#f1s93se81fd8pn)" height="50.4001" style="stroke:#000000;stroke-width:1.5;" width="234" x="1128" y="622.3998"/><text fill="#000000" font-family="sans-serif" font-size="12" lengthAdjust="spacing" textLength="121" x="1184.5" y="635.5479">Wake Up Interval Step</text><line style="stroke:#000000;stroke-width:1.5;" x1="1129" x2="1361" y1="640.7999" y2="640.7999"/><text fill="#000000" font-family="sans-serif" font-size="10" lengthAdjust="spacing" textLength="222" x="1134" y="654.0899">Attribute Type = ATTRIBUTE(INTERVAL_STEP)</text><text fill="#000000" font-family="sans-serif" font-size="10" lengthAdjust="spacing" textLength="202" x="1134" y="666.0899">value = Desired: [], Reported: [14,00,00,00]</text><rect fill="#FFFFFF" filter="url(#f1s93se81fd8pn)" height="50.4001" style="stroke:#000000;stroke-width:1.5;" width="272" x="887" y="451.3998"/><text fill="#000000" font-family="sans-serif" font-size="12" lengthAdjust="spacing" textLength="110" x="968" y="464.5479">Capabilities bitmask</text><line style="stroke:#000000;stroke-width:1.5;" x1="888" x2="1158" y1="469.7999" y2="469.7999"/><text fill="#000000" font-family="sans-serif" font-size="10" lengthAdjust="spacing" textLength="260" x="893" y="483.0899">Attribute Type = ATTRIBUTE(CAPABILITIES_BITMASK)</text><text fill="#000000" font-family="sans-serif" font-size="10" lengthAdjust="spacing" textLength="157" x="893" y="495.0899">value = Desired: [], Reported: [01]</text><path d="M611,345.8998 L611,387.0998 A0,0 0 0 0 611,387.0998 L791,387.0998 A0,0 0 0 0 791,387.0998 L791,370.3998 L826.34,366.3998 L791,362.3998 L791,355.8998 L781,345.8998 L611,345.8998 A0,0 0 0 0 611,345.8998 " fill="#FFFAE3" filter="url(#f1s93se81fd8pn)" style="stroke:#FF0000;stroke-width:1.0;"/><path d="M781,345.8998 L781,355.8998 L791,355.8998 L781,345.8998 " fill="#FFFAE3" style="stroke:#FF0000;stroke-width:1.0;"/><text fill="#000000" font-family="sans-serif" font-size="13" lengthAdjust="spacing" textLength="107" x="617" y="362.9768">Resolution listener</text><text fill="#000000" font-family="sans-serif" font-size="13" lengthAdjust="spacing" textLength="159" x="617" y="378.5768">Configure Wake Up Interval</text><path d="M642.5,125.8998 L642.5,167.0998 A0,0 0 0 0 642.5,167.0998 L803.5,167.0998 A0,0 0 0 0 803.5,167.0998 L803.5,150.3998 L838.82,146.3998 L803.5,142.3998 L803.5,135.8998 L793.5,125.8998 L642.5,125.8998 A0,0 0 0 0 642.5,125.8998 " fill="#FFFAE3" filter="url(#f1s93se81fd8pn)" style="stroke:#FF0000;stroke-width:1.0;"/><path d="M793.5,125.8998 L793.5,135.8998 L803.5,135.8998 L793.5,125.8998 " fill="#FFFAE3" style="stroke:#FF0000;stroke-width:1.0;"/><text fill="#000000" font-family="sans-serif" font-size="13" lengthAdjust="spacing" textLength="107" x="648.5" y="142.9768">Resolution listener</text><text fill="#000000" font-family="sans-serif" font-size="13" lengthAdjust="spacing" textLength="140" x="648.5" y="158.5768">Send Wake Up No More</text><!--MD5=[95477c314ce472250aabd32546a8a81f]
reverse link node to endpoint--><path codeLine="2150" d="M937,185.0098 C937,200.3498 937,217.6398 937,231.2398 " fill="none" id="node-backto-endpoint" style="stroke:#A80036;stroke-width:1.0;"/><polygon fill="#A80036" points="937,171.6398,933,177.6398,937,183.6398,941,177.6398,937,171.6398" style="stroke:#A80036;stroke-width:1.0;"/><!--MD5=[c4a4e185f2beba9fb9ec0dd52638d41f]
reverse link endpoint to version--><path codeLine="2151" d="M1003.4,286.7898 C1042.1,303.9198 1090.3,325.2498 1126.71,341.3698 " fill="none" id="endpoint-backto-version" style="stroke:#A80036;stroke-width:1.0;"/><polygon fill="#A80036" points="991.45,281.4998,995.3219,287.5832,1002.4266,286.349,998.5547,280.2655,991.45,281.4998" style="stroke:#A80036;stroke-width:1.0;"/><!--MD5=[4204bd08894dcd6cc0ea342a5fa1a377]
reverse link endpoint to setting--><path codeLine="2152" d="M814.65,281.5098 C715.82,300.9898 578.55,328.0398 486.9,346.1098 " fill="none" id="endpoint-backto-setting" style="stroke:#A80036;stroke-width:1.0;"/><polygon fill="#A80036" points="827.42,278.9998,820.7592,276.2369,815.647,281.3227,822.3078,284.0856,827.42,278.9998" style="stroke:#A80036;stroke-width:1.0;"/><!--MD5=[e8818a659f63f8f3e10410eab5f7f31c]
reverse link endpoint to capabilities--><path codeLine="2153" d="M937,295.0098 C937,310.3498 937,327.6398 937,341.2398 " fill="none" id="endpoint-backto-capabilities" style="stroke:#A80036;stroke-width:1.0;"/><polygon fill="#A80036" points="937,281.6398,933,287.6398,937,293.6398,941,287.6398,937,281.6398" style="stroke:#A80036;stroke-width:1.0;"/><!--MD5=[3b7d4572eab6fcc4d799ff3a2f9821e4]
reverse link setting to wake_up_node_id--><path codeLine="2155" d="M316.63,396.4598 C273.82,413.6398 220.26,435.1498 179.85,451.3698 " fill="none" id="setting-backto-wake_up_node_id" style="stroke:#A80036;stroke-width:1.0;"/><polygon fill="#A80036" points="328.97,391.4998,321.9121,390.0214,317.8328,395.9678,324.8908,397.4462,328.97,391.4998" style="stroke:#A80036;stroke-width:1.0;"/><!--MD5=[e3ed1f49d6a7888e776c939ec6bd4600]
reverse link setting to wake_up_interval--><path codeLine="2156" d="M389,405.0098 C389,420.3498 389,437.6398 389,451.2398 " fill="none" id="setting-backto-wake_up_interval" style="stroke:#A80036;stroke-width:1.0;"/><polygon fill="#A80036" points="389,391.6398,385,397.6398,389,403.6398,393,397.6398,389,391.6398" style="stroke:#A80036;stroke-width:1.0;"/><!--MD5=[28df833d114907e8882e58a3b21397fe]
reverse link capabilities to maximum_wake_up_interval--><path codeLine="2158" d="M869.23,396.6798 C829.53,413.8298 780.02,435.2198 742.62,451.3698 " fill="none" id="capabilities-backto-maximum_wake_up_interval" style="stroke:#A80036;stroke-width:1.0;"/><polygon fill="#A80036" points="881.21,391.4998,874.1159,390.2062,870.1933,396.257,877.2874,397.5507,881.21,391.4998" style="stroke:#A80036;stroke-width:1.0;"/><!--MD5=[f31c899bcea51650f26c9b287f97c356]
reverse link capabilities to minimum_wake_up_interval--><path codeLine="2159" d="M1043.34,394.7398 C1111.16,412.1798 1198.25,434.5798 1263.44,451.3398 " fill="none" id="capabilities-backto-minimum_wake_up_interval" style="stroke:#A80036;stroke-width:1.0;"/><polygon fill="#A80036" points="1030.47,391.4398,1035.2822,396.8104,1042.0905,394.4339,1037.2783,389.0634,1030.47,391.4398" style="stroke:#A80036;stroke-width:1.0;"/><!--MD5=[bf6f17b1dc72372f03547eb42831b077]
reverse link capabilities to default_wake_up_interval--><path codeLine="2160" d="M904.81,401.6998 C892.56,416.1698 879.32,433.7498 870,451.3998 C839.65,508.8698 821.98,584.1398 814.41,622.1698 " fill="none" id="capabilities-backto-default_wake_up_interval" style="stroke:#A80036;stroke-width:1.0;"/><polygon fill="#A80036" points="913.49,391.7498,906.5322,393.6442,905.6048,400.7954,912.5626,398.901,913.49,391.7498" style="stroke:#A80036;stroke-width:1.0;"/><!--MD5=[248557c739b1d78d6e551f9f57d0dcc1]
reverse link capabilities to wake_up_interval_step--><path codeLine="2161" d="M1044.39,395.0998 C1098.74,411.0098 1157.32,431.6998 1177,451.3998 C1224.51,498.9598 1238.9,581.4598 1243.2,622.1998 " fill="none" id="capabilities-backto-wake_up_interval_step" style="stroke:#A80036;stroke-width:1.0;"/><polygon fill="#A80036" points="1031.78,391.4698,1036.4386,396.9741,1043.3113,394.7908,1038.6527,389.2865,1031.78,391.4698" style="stroke:#A80036;stroke-width:1.0;"/><!--MD5=[c382c28e4dd080fa694ab3ffedb451a3]
reverse link capabilities to capabilties_bitmask--><path codeLine="2162" d="M964.73,402.2198 C977.47,418.2198 992.27,436.8098 1003.76,451.2398 " fill="none" id="capabilities-backto-capabilties_bitmask" style="stroke:#A80036;stroke-width:1.0;"/><polygon fill="#A80036" points="956.3,391.6398,956.9087,398.8252,963.7754,401.0269,963.1668,393.8415,956.3,391.6398" style="stroke:#A80036;stroke-width:1.0;"/><!--MD5=[ab029aa9470730bdc9c1af8d467b6ff6]
link maximum_wake_up_interval to default_wake_up_interval--><!--MD5=[741aa64502cf889db78cbab9941172fa]
link minimum_wake_up_interval to wake_up_interval_step--><!--MD5=[29f13bffb15779758a5c9a395f7ea47c]
@startuml attribute_store_wake_up_command_class.svg
title Wake Up data model
allow_mixing
skinparam objectBorderColor black
skinparam NoteBackgroundColor #fffae3
skinparam NoteBorderColor red

legend top
<font color=#FEFEFE>ATTRIBUTE(type)</font> : ATTRIBUTE_COMMAND_CLASS_WAKE_UP_type
endlegend

package "Attribute Store" <<Database>> {
  object "NodeID" as node #f2ffe6
  node : Attribute Type = ATTRIBUTE_NODE_ID
  node : value = Desired: [], Reported: [03]

  object "Endpoint Attribute" as endpoint #e6fff7
  endpoint : Attribute Type = ATTRIBUTE_ENDPOINT_ID
  endpoint : value = Desired: [] - Reported: [04]

  object "Version" as version #FEFEFE
  version : Attribute Type = ATTRIBUTE(VERSION)
  version : value = Desired: [] - Reported: [4]

  object "Setting" as setting #FFFFFF
  setting : Attribute Type = ATTRIBUTE(SETTING)
  setting : value = Desired: [0] - Reported: [1]

  object "Capabilities" as capabilities #FFFFFF
  capabilities : Attribute Type = ATTRIBUTE(CAPABILITIES)
  capabilities : value = Desired: [], Reported: [01]

  object "Wake Up NodeID" as wake_up_node_id #FFFFFF
  wake_up_node_id : Attribute Type = ATTRIBUTE(NODE_ID)
  wake_up_node_id : value = Desired: [01], Reported: [10]

  object "Wake Up Interval" as wake_up_interval #FFFFFF
  wake_up_interval : Attribute Type = ATTRIBUTE(INTERVAL)
  wake_up_interval : value = Desired: [80,51,01,00], Reported: [14,00,00,00]

  object "Maximum Wake Up Interval" as maximum_wake_up_interval #FFFFFF
  maximum_wake_up_interval : Attribute Type = ATTRIBUTE(MAXIMUM_INTERVAL)
  maximum_wake_up_interval : value = Desired: [], Reported: [80,51,01,00]

  object "Minimum Wake Up Interval" as minimum_wake_up_interval #FFFFFF
  minimum_wake_up_interval : Attribute Type = ATTRIBUTE(MINIMUM_INTERVAL)
  minimum_wake_up_interval : value = Desired: [], Reported: [14,00,00,00]

  object "Default Wake Up Interval" as default_wake_up_interval #FFFFFF
  default_wake_up_interval : Attribute Type = ATTRIBUTE(DEFAULT_INTERVAL)
  default_wake_up_interval : value = Desired: [], Reported: [2c,01,00,00]

  object "Wake Up Interval Step" as wake_up_interval_step #FFFFFF
  wake_up_interval_step : Attribute Type = ATTRIBUTE(INTERVAL_STEP)
  wake_up_interval_step : value = Desired: [], Reported: [14,00,00,00]

  object "Capabilities bitmask" as capabilties_bitmask #FFFFFF
  capabilties_bitmask : Attribute Type = ATTRIBUTE(CAPABILITIES_BITMASK)
  capabilties_bitmask : value = Desired: [], Reported: [01]

  note left of capabilities
    Resolution listener
    Configure Wake Up Interval
  end note

  note left of node
    Resolution listener
    Send Wake Up No More
  end note
}

node *- - endpoint
endpoint *- - version
endpoint *- - setting
endpoint *- - capabilities

setting *- - wake_up_node_id
setting *- - wake_up_interval

capabilities *- - maximum_wake_up_interval
capabilities *- - minimum_wake_up_interval
capabilities *- - default_wake_up_interval
capabilities *- - wake_up_interval_step
capabilities *- - capabilties_bitmask

maximum_wake_up_interval -[hidden]- -> default_wake_up_interval
minimum_wake_up_interval -[hidden]- -> wake_up_interval_step
@enduml

PlantUML version 1.2022.0(Tue Jan 11 16:16:42 UTC 2022)
(GPL source distribution)
Java Runtime: OpenJDK Runtime Environment
JVM: OpenJDK 64-Bit Server VM
Default Encoding: ANSI_X3.4-1968
Language: en
Country: US
--></g></svg>