<?xml version="1.0" encoding="UTF-8" standalone="no"?><svg xmlns="http://www.w3.org/2000/svg" xmlns:xlink="http://www.w3.org/1999/xlink" contentScriptType="application/ecmascript" contentStyleType="text/css" height="658px" preserveAspectRatio="none" style="width:1867px;height:658px;background:#FFFFFF;" version="1.1" viewBox="0 0 1867 658" width="1867px" zoomAndPan="magnify"><defs><filter height="300%" id="frhqyjntuopv4" width="300%" x="-1" y="-1"><feGaussianBlur result="blurOut" stdDeviation="2.0"/><feColorMatrix in="blurOut" result="blurOut2" type="matrix" values="0 0 0 0 0 0 0 0 0 0 0 0 0 0 0 0 0 0 .4 0"/><feOffset dx="4.0" dy="4.0" in="blurOut2" result="blurOut3"/><feBlend in="SourceGraphic" in2="blurOut3" mode="normal"/></filter></defs><g><text fill="#000000" font-family="sans-serif" font-size="18" lengthAdjust="spacing" textLength="180" x="837" y="16.7219">User Code data model</text><rect fill="#DDDDDD" height="26.7999" rx="5" ry="5" style="stroke:#000000;stroke-width:1.0;" width="481" x="686" y="29.5999"/><text fill="#FEFEFE" font-family="sans-serif" font-size="14" lengthAdjust="spacing" textLength="115" x="692" y="47.6058">ATTRIBUTE(type)</text><text fill="#000000" font-family="sans-serif" font-size="14" lengthAdjust="spacing" textLength="350" x="811" y="47.6058">: ATTRIBUTE_COMMAND_CLASS_USER_CODE_type</text><!--MD5=[ea3d5de2a0d35296bc751d5a1b771698]
cluster Attribute Store--><path d="M6,81.3998 C6,71.3998 933,71.3998 933,71.3998 C933,71.3998 1860,71.3998 1860,81.3998 L1860,641.3998 C1860,651.3998 933,651.3998 933,651.3998 C933,651.3998 6,651.3998 6,641.3998 L6,81.3998 " fill="#FFFFFF" filter="url(#frhqyjntuopv4)" style="stroke:#000000;stroke-width:1.5;"/><path d="M6,81.3998 C6,91.3998 933,91.3998 933,91.3998 C933,91.3998 1860,91.3998 1860,81.3998 " fill="none" style="stroke:#000000;stroke-width:1.5;"/><text fill="#000000" font-family="sans-serif" font-size="14" font-weight="bold" lengthAdjust="spacing" textLength="100" x="883" y="106.4057">Attribute Store</text><!--MD5=[accabb02f816287b199a63b424d9a2c6]
cluster For each User ID --><rect fill="#FFFFFF" filter="url(#frhqyjntuopv4)" height="101" style="stroke:#000000;stroke-width:1.5;" width="503" x="30" y="526.3998"/><text fill="#000000" font-family="sans-serif" font-size="14" font-weight="bold" lengthAdjust="spacing" textLength="113" x="223" y="541.4057">For each User ID</text><rect fill="#F2FFE6" filter="url(#frhqyjntuopv4)" height="50.4001" style="stroke:#000000;stroke-width:1.5;" width="196" x="762" y="121.3998"/><text fill="#000000" font-family="sans-serif" font-size="12" lengthAdjust="spacing" textLength="42" x="839" y="134.5479">NodeID</text><line style="stroke:#000000;stroke-width:1.5;" x1="763" x2="957" y1="139.7999" y2="139.7999"/><text fill="#000000" font-family="sans-serif" font-size="10" lengthAdjust="spacing" textLength="184" x="768" y="153.0899">Attribute Type = ATTRIBUTE_NODE_ID</text><text fill="#000000" font-family="sans-serif" font-size="10" lengthAdjust="spacing" textLength="157" x="768" y="165.0899">value = Desired: [], Reported: [03]</text><rect fill="#E6FFF7" filter="url(#frhqyjntuopv4)" height="50.4001" style="stroke:#000000;stroke-width:1.5;" width="219" x="750.5" y="231.3998"/><text fill="#000000" font-family="sans-serif" font-size="12" lengthAdjust="spacing" textLength="97" x="811.5" y="244.5479">Endpoint Attribute</text><line style="stroke:#000000;stroke-width:1.5;" x1="751.5" x2="968.5" y1="249.7999" y2="249.7999"/><text fill="#000000" font-family="sans-serif" font-size="10" lengthAdjust="spacing" textLength="207" x="756.5" y="263.0899">Attribute Type = ATTRIBUTE_ENDPOINT_ID</text><text fill="#000000" font-family="sans-serif" font-size="10" lengthAdjust="spacing" textLength="160" x="756.5" y="275.0899">value = Desired: [] - Reported: [04]</text><rect fill="#FEFEFE" filter="url(#frhqyjntuopv4)" height="50.4001" style="stroke:#000000;stroke-width:1.5;" width="197" x="650.5" y="341.3998"/><text fill="#000000" font-family="sans-serif" font-size="12" lengthAdjust="spacing" textLength="42" x="728" y="354.5479">Version</text><line style="stroke:#000000;stroke-width:1.5;" x1="651.5" x2="846.5" y1="359.7999" y2="359.7999"/><text fill="#000000" font-family="sans-serif" font-size="10" lengthAdjust="spacing" textLength="185" x="656.5" y="373.0899">Attribute Type = ATTRIBUTE(VERSION)</text><text fill="#000000" font-family="sans-serif" font-size="10" lengthAdjust="spacing" textLength="154" x="656.5" y="385.0899">value = Desired: [] - Reported: [4]</text><rect fill="#FFFFFF" filter="url(#frhqyjntuopv4)" height="50.4001" style="stroke:#000000;stroke-width:1.5;" width="178" x="883" y="341.3998"/><text fill="#000000" font-family="sans-serif" font-size="12" lengthAdjust="spacing" textLength="88" x="928" y="354.5479">User Code Data</text><line style="stroke:#000000;stroke-width:1.5;" x1="884" x2="1060" y1="359.7999" y2="359.7999"/><text fill="#000000" font-family="sans-serif" font-size="10" lengthAdjust="spacing" textLength="166" x="889" y="373.0899">Attribute Type = ATTRIBUTE(DATA)</text><text fill="#000000" font-family="sans-serif" font-size="10" lengthAdjust="spacing" textLength="148" x="889" y="385.0899">value = Desired: [] - Reported: []</text><rect fill="#FFFFFF" filter="url(#frhqyjntuopv4)" height="50.4001" style="stroke:#000000;stroke-width:1.5;" width="255" x="22.5" y="451.3998"/><text fill="#000000" font-family="sans-serif" font-size="12" lengthAdjust="spacing" textLength="92" x="104" y="464.5479">Number of Users</text><line style="stroke:#000000;stroke-width:1.5;" x1="23.5" x2="276.5" y1="469.7999" y2="469.7999"/><text fill="#000000" font-family="sans-serif" font-size="10" lengthAdjust="spacing" textLength="243" x="28.5" y="483.0899">Attribute Type = ATTRIBUTE(NUMBER_OF_USERS)</text><text fill="#000000" font-family="sans-serif" font-size="10" lengthAdjust="spacing" textLength="160" x="28.5" y="495.0899">value = Desired: [] - Reported: [32]</text><rect fill="#FFFFFF" filter="url(#frhqyjntuopv4)" height="50.4001" style="stroke:#000000;stroke-width:1.5;" width="285" x="312.5" y="451.3998"/><text fill="#000000" font-family="sans-serif" font-size="12" lengthAdjust="spacing" textLength="150" x="380" y="464.5479">Delete All Codes requested</text><line style="stroke:#000000;stroke-width:1.5;" x1="313.5" x2="596.5" y1="469.7999" y2="469.7999"/><text fill="#000000" font-family="sans-serif" font-size="10" lengthAdjust="spacing" textLength="273" x="318.5" y="483.0899">Attribute Type = ATTRIBUTE(DELETE_ALL_REQUESTED)</text><text fill="#000000" font-family="sans-serif" font-size="10" lengthAdjust="spacing" textLength="148" x="318.5" y="495.0899">value = Desired: [] - Reported: []</text><rect fill="#FFFFFF" filter="url(#frhqyjntuopv4)" height="50.4001" style="stroke:#000000;stroke-width:1.5;" width="195" x="632.5" y="451.3998"/><text fill="#000000" font-family="sans-serif" font-size="12" lengthAdjust="spacing" textLength="41" x="709.5" y="464.5479">User ID</text><line style="stroke:#000000;stroke-width:1.5;" x1="633.5" x2="826.5" y1="469.7999" y2="469.7999"/><text fill="#000000" font-family="sans-serif" font-size="10" lengthAdjust="spacing" textLength="183" x="638.5" y="483.0899">Attribute Type = ATTRIBUTE(USER_ID)</text><text fill="#000000" font-family="sans-serif" font-size="10" lengthAdjust="spacing" textLength="154" x="638.5" y="495.0899">value = Desired: [] - Reported: [1]</text><rect fill="#FFFFFF" filter="url(#frhqyjntuopv4)" height="50.4001" style="stroke:#000000;stroke-width:1.5;" width="218" x="863" y="451.3998"/><text fill="#000000" font-family="sans-serif" font-size="12" lengthAdjust="spacing" textLength="68" x="938" y="464.5479">Admin Code</text><line style="stroke:#000000;stroke-width:1.5;" x1="864" x2="1080" y1="469.7999" y2="469.7999"/><text fill="#000000" font-family="sans-serif" font-size="10" lengthAdjust="spacing" textLength="206" x="869" y="483.0899">Attribute Type = ATTRIBUTE(ADMIN_CODE)</text><text fill="#000000" font-family="sans-serif" font-size="10" lengthAdjust="spacing" textLength="180" x="869" y="495.0899">value = Desired: [] - Reported: ["1234"]</text><rect fill="#FFFFFF" filter="url(#frhqyjntuopv4)" height="50.4001" style="stroke:#000000;stroke-width:1.5;" width="218" x="1116" y="451.3998"/><text fill="#000000" font-family="sans-serif" font-size="12" lengthAdjust="spacing" textLength="65" x="1192.5" y="464.5479">Capabilities</text><line style="stroke:#000000;stroke-width:1.5;" x1="1117" x2="1333" y1="469.7999" y2="469.7999"/><text fill="#000000" font-family="sans-serif" font-size="10" lengthAdjust="spacing" textLength="206" x="1122" y="483.0899">Attribute Type = ATTRIBUTE(CAPABILITES)</text><text fill="#000000" font-family="sans-serif" font-size="10" lengthAdjust="spacing" textLength="148" x="1122" y="495.0899">value = Desired: [] - Reported: []</text><rect fill="#FFFFFF" filter="url(#frhqyjntuopv4)" height="50.4001" style="stroke:#000000;stroke-width:1.5;" width="254" x="553" y="561.3998"/><text fill="#000000" font-family="sans-serif" font-size="12" lengthAdjust="spacing" textLength="90" x="635" y="574.5479">Supported Flags</text><line style="stroke:#000000;stroke-width:1.5;" x1="554" x2="806" y1="579.7999" y2="579.7999"/><text fill="#000000" font-family="sans-serif" font-size="10" lengthAdjust="spacing" textLength="242" x="559" y="593.0899">Attribute Type = ATTRIBUTE(SUPPORTED_FLAGS)</text><text fill="#000000" font-family="sans-serif" font-size="10" lengthAdjust="spacing" textLength="160" x="559" y="605.0899">value = Desired: [] - Reported: [59]</text><rect fill="#FFFFFF" filter="url(#frhqyjntuopv4)" height="50.4001" style="stroke:#000000;stroke-width:1.5;" width="310" x="842" y="561.3998"/><text fill="#000000" font-family="sans-serif" font-size="12" lengthAdjust="spacing" textLength="138" x="928" y="574.5479">Supported User ID Status</text><line style="stroke:#000000;stroke-width:1.5;" x1="843" x2="1151" y1="579.7999" y2="579.7999"/><text fill="#000000" font-family="sans-serif" font-size="10" lengthAdjust="spacing" textLength="298" x="848" y="593.0899">Attribute Type = ATTRIBUTE(SUPPORTED_USER_ID_STATUS)</text><text fill="#000000" font-family="sans-serif" font-size="10" lengthAdjust="spacing" textLength="160" x="848" y="605.0899">value = Desired: [] - Reported: [03]</text><rect fill="#FFFFFF" filter="url(#frhqyjntuopv4)" height="50.4001" style="stroke:#000000;stroke-width:1.5;" width="305" x="1187.5" y="561.3998"/><text fill="#000000" font-family="sans-serif" font-size="12" lengthAdjust="spacing" textLength="142" x="1269" y="574.5479">Supported Keypad Modes</text><line style="stroke:#000000;stroke-width:1.5;" x1="1188.5" x2="1491.5" y1="579.7999" y2="579.7999"/><text fill="#000000" font-family="sans-serif" font-size="10" lengthAdjust="spacing" textLength="293" x="1193.5" y="593.0899">Attribute Type = ATTRIBUTE(SUPPORTED_KEYPAD_MODES)</text><text fill="#000000" font-family="sans-serif" font-size="10" lengthAdjust="spacing" textLength="160" x="1193.5" y="605.0899">value = Desired: [] - Reported: [03]</text><rect fill="#FFFFFF" filter="url(#frhqyjntuopv4)" height="50.4001" style="stroke:#000000;stroke-width:1.5;" width="316" x="1528" y="561.3998"/><text fill="#000000" font-family="sans-serif" font-size="12" lengthAdjust="spacing" textLength="87" x="1642.5" y="574.5479">Supported Keys</text><line style="stroke:#000000;stroke-width:1.5;" x1="1529" x2="1843" y1="579.7999" y2="579.7999"/><text fill="#000000" font-family="sans-serif" font-size="10" lengthAdjust="spacing" textLength="236" x="1534" y="593.0899">Attribute Type = ATTRIBUTE(SUPPORTED_KEYS)</text><text fill="#000000" font-family="sans-serif" font-size="10" lengthAdjust="spacing" textLength="304" x="1534" y="605.0899">value = Desired: [] - Reported: [00,00,00,00,00,00,ff,03,fe,ff,ff,07]</text><rect fill="#FFFFFF" filter="url(#frhqyjntuopv4)" height="50.4001" style="stroke:#000000;stroke-width:1.5;" width="208" x="1369" y="451.3998"/><text fill="#000000" font-family="sans-serif" font-size="12" lengthAdjust="spacing" textLength="58" x="1444" y="464.5479">Checksum</text><line style="stroke:#000000;stroke-width:1.5;" x1="1370" x2="1576" y1="469.7999" y2="469.7999"/><text fill="#000000" font-family="sans-serif" font-size="10" lengthAdjust="spacing" textLength="196" x="1375" y="483.0899">Attribute Type = ATTRIBUTE(CHECKSUM)</text><text fill="#000000" font-family="sans-serif" font-size="10" lengthAdjust="spacing" textLength="178" x="1375" y="495.0899">value = Desired: [] - Reported: [32498]</text><rect fill="#FFFFFF" filter="url(#frhqyjntuopv4)" height="50.4001" style="stroke:#000000;stroke-width:1.5;" width="229" x="1612.5" y="451.3998"/><text fill="#000000" font-family="sans-serif" font-size="12" lengthAdjust="spacing" textLength="76" x="1689" y="464.5479">Keypad Mode</text><line style="stroke:#000000;stroke-width:1.5;" x1="1613.5" x2="1840.5" y1="469.7999" y2="469.7999"/><text fill="#000000" font-family="sans-serif" font-size="10" lengthAdjust="spacing" textLength="217" x="1618.5" y="483.0899">Attribute Type = ATTRIBUTE(KEYPAD_MODE)</text><text fill="#000000" font-family="sans-serif" font-size="10" lengthAdjust="spacing" textLength="160" x="1618.5" y="495.0899">value = Desired: [2] - Reported: [1]</text><rect fill="#FFFFFF" filter="url(#frhqyjntuopv4)" height="50.4001" style="stroke:#000000;stroke-width:1.5;" width="195" x="322.5" y="561.3998"/><text fill="#000000" font-family="sans-serif" font-size="12" lengthAdjust="spacing" textLength="59" x="390.5" y="574.5479">User Code</text><line style="stroke:#000000;stroke-width:1.5;" x1="323.5" x2="516.5" y1="579.7999" y2="579.7999"/><text fill="#000000" font-family="sans-serif" font-size="10" lengthAdjust="spacing" textLength="183" x="328.5" y="593.0899">Attribute Type = ATTRIBUTE(USER_ID)</text><text fill="#000000" font-family="sans-serif" font-size="10" lengthAdjust="spacing" textLength="180" x="328.5" y="605.0899">value = Desired: [] - Reported: ["1234"]</text><rect fill="#FFFFFF" filter="url(#frhqyjntuopv4)" height="50.4001" style="stroke:#000000;stroke-width:1.5;" width="241" x="46.5" y="561.3998"/><text fill="#000000" font-family="sans-serif" font-size="12" lengthAdjust="spacing" textLength="78" x="128" y="574.5479">User ID Status</text><line style="stroke:#000000;stroke-width:1.5;" x1="47.5" x2="286.5" y1="579.7999" y2="579.7999"/><text fill="#000000" font-family="sans-serif" font-size="10" lengthAdjust="spacing" textLength="229" x="52.5" y="593.0899">Attribute Type = ATTRIBUTE(USER_ID_STATUS)</text><text fill="#000000" font-family="sans-serif" font-size="10" lengthAdjust="spacing" textLength="154" x="52.5" y="605.0899">value = Desired: [] - Reported: [1]</text><!--MD5=[95477c314ce472250aabd32546a8a81f]
reverse link node to endpoint--><path codeLine="2059" d="M860,185.0098 C860,200.3498 860,217.6398 860,231.2398 " fill="none" id="node-backto-endpoint" style="stroke:#A80036;stroke-width:1.0;"/><polygon fill="#A80036" points="860,171.6398,856,177.6398,860,183.6398,864,177.6398,860,171.6398" style="stroke:#A80036;stroke-width:1.0;"/><!--MD5=[c4a4e185f2beba9fb9ec0dd52638d41f]
reverse link endpoint to version--><path codeLine="2060" d="M825.63,290.8398 C808.87,307.1498 789.09,326.3898 773.83,341.2398 " fill="none" id="endpoint-backto-version" style="stroke:#A80036;stroke-width:1.0;"/><polygon fill="#A80036" points="835.09,281.6398,827.9998,282.9549,826.4868,290.0055,833.577,288.6904,835.09,281.6398" style="stroke:#A80036;stroke-width:1.0;"/><!--MD5=[5035b3ac35bee024fc7742abcfa89010]
reverse link endpoint to user_code_data--><path codeLine="2061" d="M894.68,290.8398 C911.59,307.1498 931.55,326.3898 946.95,341.2398 " fill="none" id="endpoint-backto-user_code_data" style="stroke:#A80036;stroke-width:1.0;"/><polygon fill="#A80036" points="885.13,281.6398,886.6703,288.6845,893.7655,289.9721,892.2252,282.9274,885.13,281.6398" style="stroke:#A80036;stroke-width:1.0;"/><!--MD5=[fd5d73b40c9ca15e5d96369efc79b361]
reverse link user_code_data to number_of_codes--><path codeLine="2062" d="M869.95,390.5698 C868.29,390.8498 866.64,391.1298 865,391.3998 C613.63,432.6798 547.43,417.2498 295,451.3998 C289.31,452.1698 283.5,452.9898 277.64,453.8398 " fill="none" id="user_code_data-backto-number_of_codes" style="stroke:#A80036;stroke-width:1.0;"/><polygon fill="#A80036" points="882.82,388.2098,876.201,385.3483,871.0138,390.3576,877.6328,393.2191,882.82,388.2098" style="stroke:#A80036;stroke-width:1.0;"/><!--MD5=[4e8c0c26f202dcdda7b2898598d4cbd3]
reverse link user_code_data to delete_all--><path codeLine="2063" d="M870.27,390.2698 C868.5,390.6498 866.74,391.0298 865,391.3998 C767.67,412.2798 657.09,434.8698 575.32,451.3598 " fill="none" id="user_code_data-backto-delete_all" style="stroke:#A80036;stroke-width:1.0;"/><polygon fill="#A80036" points="882.99,387.4998,876.278,384.8638,871.2632,390.0457,877.9752,392.6817,882.99,387.4998" style="stroke:#A80036;stroke-width:1.0;"/><!--MD5=[8f20ba6f98ff792038d524fbb59f8287]
reverse link user_code_data to user_id--><path codeLine="2064" d="M905.9,396.8998 C867.56,414.0098 819.88,435.2898 783.84,451.3698 " fill="none" id="user_code_data-backto-user_id" style="stroke:#A80036;stroke-width:1.0;"/><polygon fill="#A80036" points="917.99,391.4998,910.8818,390.2861,907.0275,396.3808,914.1358,397.5945,917.99,391.4998" style="stroke:#A80036;stroke-width:1.0;"/><!--MD5=[7d65304bf5a89dddfb022e742126e4b1]
reverse link user_id to user_code--><path codeLine="2066" d="M619.58,500.4998 C618.04,500.7998 616.52,501.0998 615,501.3998 C573.76,509.4698 561.01,502.7798 522,518.3998 C495.84,528.8798 469.33,546.5498 449.9,561.1198 " fill="none" id="user_id-backto-user_code" style="stroke:#A80036;stroke-width:1.0;"/><polygon fill="#A80036" points="632.47,497.9298,625.8032,495.1813,620.702,500.2781,627.3688,503.0266,632.47,497.9298" style="stroke:#A80036;stroke-width:1.0;"/><!--MD5=[745605a6439525706235442b29150ebe]
reverse link user_id to user_id_status--><path codeLine="2067" d="M619.27,500.8198 C617.84,501.0198 616.42,501.2098 615,501.3998 C478.18,519.3198 438.58,483.8098 305,518.3998 C269.68,527.5498 232.64,546.0898 205.84,561.3598 " fill="none" id="user_id-backto-user_id_status" style="stroke:#A80036;stroke-width:1.0;"/><polygon fill="#A80036" points="632.3,498.8398,625.7659,495.7894,620.437,500.6476,626.9711,503.6981,632.3,498.8398" style="stroke:#A80036;stroke-width:1.0;"/><!--MD5=[a56b09ba7e28aa85ade403cafd44f141]
reverse link user_code_data to admin_code--><path codeLine="2069" d="M972,405.0098 C972,420.3498 972,437.6398 972,451.2398 " fill="none" id="user_code_data-backto-admin_code" style="stroke:#A80036;stroke-width:1.0;"/><polygon fill="#A80036" points="972,391.6398,968,397.6398,972,403.6398,976,397.6398,972,391.6398" style="stroke:#A80036;stroke-width:1.0;"/><!--MD5=[b0d550cb8b81f8a2f18157b874c9f6c2]
reverse link user_code_data to keypad_mode--><path codeLine="2070" d="M1074.32,379.7398 C1197.92,394.9698 1412.08,422.4498 1595,451.3998 C1600.64,452.2898 1606.4,453.2298 1612.22,454.2098 " fill="none" id="user_code_data-backto-keypad_mode" style="stroke:#A80036;stroke-width:1.0;"/><polygon fill="#A80036" points="1061.17,378.1198,1066.6372,382.8219,1073.0804,379.5839,1067.6132,374.8817,1061.17,378.1198" style="stroke:#A80036;stroke-width:1.0;"/><!--MD5=[0b5a8021aaeac7ecd1ac2e637c82ebdb]
reverse link user_code_data to checksum--><path codeLine="2071" d="M1074.22,389.4298 C1160.16,407.9598 1282.48,434.3298 1368.93,452.9698 " fill="none" id="user_code_data-backto-checksum" style="stroke:#A80036;stroke-width:1.0;"/><polygon fill="#A80036" points="1061.28,386.6498,1066.3004,391.8263,1073.0096,389.1831,1067.9892,384.0066,1061.28,386.6498" style="stroke:#A80036;stroke-width:1.0;"/><!--MD5=[9ab89f9115eecfd57e1860698ae41671]
reverse link user_code_data to capabilities--><path codeLine="2072" d="M1040.59,396.6798 C1080.76,413.8298 1130.87,435.2198 1168.71,451.3698 " fill="none" id="user_code_data-backto-capabilities" style="stroke:#A80036;stroke-width:1.0;"/><polygon fill="#A80036" points="1028.46,391.4998,1032.4035,397.537,1039.4931,396.2189,1035.5496,390.1816,1028.46,391.4998" style="stroke:#A80036;stroke-width:1.0;"/><!--MD5=[c078548f7ab28541388837a6df552d44]
reverse link capabilities to supported_flags--><path codeLine="2074" d="M1102.9,500.8998 C1101.6,501.0698 1100.29,501.2398 1099,501.3998 C977.94,516.6198 943.3,488.5198 825,518.3998 C788.3,527.6698 749.51,546.0998 721.3,561.2898 " fill="none" id="capabilities-backto-supported_flags" style="stroke:#A80036;stroke-width:1.0;"/><polygon fill="#A80036" points="1115.86,499.0598,1109.357,495.9435,1103.9793,500.7476,1110.4823,503.8639,1115.86,499.0598" style="stroke:#A80036;stroke-width:1.0;"/><!--MD5=[0d64647bc426e0dfbdeea44d17be4373]
reverse link capabilities to supported_user_id_status--><path codeLine="2075" d="M1162.25,507.1198 C1126.21,524.1998 1081.54,545.3598 1047.73,561.3698 " fill="none" id="capabilities-backto-supported_user_id_status" style="stroke:#A80036;stroke-width:1.0;"/><polygon fill="#A80036" points="1174.12,501.4998,1166.9846,500.4578,1163.2784,506.6436,1170.4138,507.6856,1174.12,501.4998" style="stroke:#A80036;stroke-width:1.0;"/><!--MD5=[9d94ac660c064efff7548ed3b09f4ff0]
reverse link capabilities to supported_keypad_modes--><path codeLine="2076" d="M1260.61,510.8398 C1277.97,527.1498 1298.46,546.3898 1314.28,561.2398 " fill="none" id="capabilities-backto-supported_keypad_modes" style="stroke:#A80036;stroke-width:1.0;"/><polygon fill="#A80036" points="1250.81,501.6398,1252.4434,508.6635,1259.555,509.8572,1257.9216,502.8335,1250.81,501.6398" style="stroke:#A80036;stroke-width:1.0;"/><!--MD5=[3a6e1dbdfcf5fd984c2362df4e856278]
reverse link capabilities to supported_keys--><path codeLine="2077" d="M1347.01,500.6498 C1348.68,500.8998 1350.35,501.1598 1352,501.3998 C1421.87,511.7398 1441.32,501.9198 1510,518.3998 C1552.76,528.6598 1599.17,546.6298 1633.59,561.3798 " fill="none" id="capabilities-backto-supported_keys" style="stroke:#A80036;stroke-width:1.0;"/><polygon fill="#A80036" points="1334.02,498.5798,1339.3171,503.4727,1345.871,500.4649,1340.5739,495.572,1334.02,498.5798" style="stroke:#A80036;stroke-width:1.0;"/><!--MD5=[c3c750a81a388d116422cbe4dc14af5e]
@startuml attribute_store_user_code_command_class.svg
title User Code data model
allow_mixing
skinparam objectBorderColor black
skinparam NoteBackgroundColor #fffae3
skinparam NoteBorderColor red

legend top
<font color=#FEFEFE>ATTRIBUTE(type)</font> : ATTRIBUTE_COMMAND_CLASS_USER_CODE_type
endlegend

package "Attribute Store" <<Database>> {
  object "NodeID" as node #f2ffe6
  node : Attribute Type = ATTRIBUTE_NODE_ID
  node : value = Desired: [], Reported: [03]

  object "Endpoint Attribute" as endpoint #e6fff7
  endpoint : Attribute Type = ATTRIBUTE_ENDPOINT_ID
  endpoint : value = Desired: [] - Reported: [04]

  object "Version" as version #FEFEFE
  version : Attribute Type = ATTRIBUTE(VERSION)
  version : value = Desired: [] - Reported: [4]

  object "User Code Data" as user_code_data #FFFFFF
  user_code_data : Attribute Type = ATTRIBUTE(DATA)
  user_code_data : value = Desired: [] - Reported: []

  Object "Number of Users" as number_of_codes #FFFFFF
  number_of_codes : Attribute Type = ATTRIBUTE(NUMBER_OF_USERS)
  number_of_codes : value = Desired: [] - Reported: [32]

  Object "Delete All Codes requested" as delete_all #FFFFFF
  delete_all : Attribute Type = ATTRIBUTE(DELETE_ALL_REQUESTED)
  delete_all : value = Desired: [] - Reported: []

  Object "User ID" as user_id #FFFFFF
  user_id : Attribute Type = ATTRIBUTE(USER_ID)
  user_id : value = Desired: [] - Reported: [1]

  package "For each User ID " <<Rectangle>> {
    Object "User Code" as user_code #FFFFFF
    user_code : Attribute Type = ATTRIBUTE(USER_ID)
    user_code : value = Desired: [] - Reported: ["1234"]

    Object "User ID Status" as user_id_status #FFFFFF
    user_id_status : Attribute Type = ATTRIBUTE(USER_ID_STATUS)
    user_id_status : value = Desired: [] - Reported: [1]
  }

  Object "Admin Code" as admin_code #FFFFFF
  admin_code : Attribute Type = ATTRIBUTE(ADMIN_CODE)
  admin_code : value = Desired: [] - Reported: ["1234"]

  Object "Capabilities" as capabilities #FFFFFF
  capabilities : Attribute Type = ATTRIBUTE(CAPABILITES)
  capabilities : value = Desired: [] - Reported: []

  Object "Supported Flags" as supported_flags #FFFFFF
  supported_flags : Attribute Type = ATTRIBUTE(SUPPORTED_FLAGS)
  supported_flags : value = Desired: [] - Reported: [59]

  Object "Supported User ID Status" as supported_user_id_status #FFFFFF
  supported_user_id_status : Attribute Type = ATTRIBUTE(SUPPORTED_USER_ID_STATUS)
  supported_user_id_status : value = Desired: [] - Reported: [03]

  Object "Supported Keypad Modes" as supported_keypad_modes #FFFFFF
  supported_keypad_modes : Attribute Type = ATTRIBUTE(SUPPORTED_KEYPAD_MODES)
  supported_keypad_modes : value = Desired: [] - Reported: [03]

  Object "Supported Keys" as supported_keys #FFFFFF
  supported_keys : Attribute Type = ATTRIBUTE(SUPPORTED_KEYS)
  supported_keys : value = Desired: [] - Reported: [00,00,00,00,00,00,ff,03,fe,ff,ff,07]

  Object "Checksum" as checksum #FFFFFF
  checksum : Attribute Type = ATTRIBUTE(CHECKSUM)
  checksum : value = Desired: [] - Reported: [32498]

  Object "Keypad Mode" as keypad_mode #FFFFFF
  keypad_mode : Attribute Type = ATTRIBUTE(KEYPAD_MODE)
  keypad_mode : value = Desired: [2] - Reported: [1]
}

node *- - endpoint
endpoint *- - version
endpoint *- - user_code_data
user_code_data *- - number_of_codes
user_code_data *- - delete_all
user_code_data *- - user_id

user_id *- - user_code
user_id *- - user_id_status

user_code_data *- - admin_code
user_code_data *- - keypad_mode
user_code_data *- - checksum
user_code_data *- - capabilities

capabilities *- - supported_flags
capabilities *- - supported_user_id_status
capabilities *- - supported_keypad_modes
capabilities *- - supported_keys
@enduml

PlantUML version 1.2022.0(Tue Jan 11 16:16:42 UTC 2022)
(GPL source distribution)
Java Runtime: OpenJDK Runtime Environment
JVM: OpenJDK 64-Bit Server VM
Default Encoding: ANSI_X3.4-1968
Language: en
Country: US
--></g></svg>