<?xml version="1.0" encoding="UTF-8" standalone="no"?><svg xmlns="http://www.w3.org/2000/svg" xmlns:xlink="http://www.w3.org/1999/xlink" contentScriptType="application/ecmascript" contentStyleType="text/css" height="966px" preserveAspectRatio="none" style="width:1257px;height:966px;background:#FFFFFF;" version="1.1" viewBox="0 0 1257 966" width="1257px" zoomAndPan="magnify"><defs><filter height="300%" id="f9tvfaejnvtpr" width="300%" x="-1" y="-1"><feGaussianBlur result="blurOut" stdDeviation="2.0"/><feColorMatrix in="blurOut" result="blurOut2" type="matrix" values="0 0 0 0 0 0 0 0 0 0 0 0 0 0 0 0 0 0 .4 0"/><feOffset dx="4.0" dy="4.0" in="blurOut2" result="blurOut3"/><feBlend in="SourceGraphic" in2="blurOut3" mode="normal"/></filter></defs><g><rect fill="#DDDDDD" height="26.7999" rx="5" ry="5" style="stroke:#000000;stroke-width:1.0;" width="513" x="365" y="8"/><text fill="#FEFEFE" font-family="sans-serif" font-size="14" lengthAdjust="spacing" textLength="115" x="371" y="26.0059">ATTRIBUTE(type)</text><text fill="#000000" font-family="sans-serif" font-size="14" lengthAdjust="spacing" textLength="382" x="490" y="26.0059">: ATTRIBUTE_COMMAND_CLASS_CONFIGURATION_type</text><!--MD5=[ea3d5de2a0d35296bc751d5a1b771698]
cluster Attribute Store--><path d="M6,59.7999 C6,49.7999 628,49.7999 628,49.7999 C628,49.7999 1250,49.7999 1250,59.7999 L1250,949.7999 C1250,959.7999 628,959.7999 628,959.7999 C628,959.7999 6,959.7999 6,949.7999 L6,59.7999 " fill="#FFFFFF" filter="url(#f9tvfaejnvtpr)" style="stroke:#000000;stroke-width:1.5;"/><path d="M6,59.7999 C6,69.7999 628,69.7999 628,69.7999 C628,69.7999 1250,69.7999 1250,59.7999 " fill="none" style="stroke:#000000;stroke-width:1.5;"/><text fill="#000000" font-family="sans-serif" font-size="14" font-weight="bold" lengthAdjust="spacing" textLength="100" x="578" y="84.8059">Attribute Store</text><!--MD5=[f1b02421b27ff65f8bf09530e1c651eb]
cluster For each Parameter--><rect fill="#FFFFFF" filter="url(#f9tvfaejnvtpr)" height="541" style="stroke:#000000;stroke-width:1.5;" width="1154" x="51" y="394.7999"/><text fill="#000000" font-family="sans-serif" font-size="14" font-weight="bold" lengthAdjust="spacing" textLength="132" x="562" y="409.8059">For each Parameter</text><rect fill="#F2FFE6" filter="url(#f9tvfaejnvtpr)" height="50.4001" style="stroke:#000000;stroke-width:1.5;" width="196" x="641" y="99.7999"/><text fill="#000000" font-family="sans-serif" font-size="12" lengthAdjust="spacing" textLength="42" x="718" y="112.948">NodeID</text><line style="stroke:#000000;stroke-width:1.5;" x1="642" x2="836" y1="118.2" y2="118.2"/><text fill="#000000" font-family="sans-serif" font-size="10" lengthAdjust="spacing" textLength="184" x="647" y="131.49">Attribute Type = ATTRIBUTE_NODE_ID</text><text fill="#000000" font-family="sans-serif" font-size="10" lengthAdjust="spacing" textLength="157" x="647" y="143.49">value = Desired: [], Reported: [03]</text><rect fill="#E6FFF7" filter="url(#f9tvfaejnvtpr)" height="50.4001" style="stroke:#000000;stroke-width:1.5;" width="219" x="629.5" y="209.7999"/><text fill="#000000" font-family="sans-serif" font-size="12" lengthAdjust="spacing" textLength="97" x="690.5" y="222.948">Endpoint Attribute</text><line style="stroke:#000000;stroke-width:1.5;" x1="630.5" x2="847.5" y1="228.2" y2="228.2"/><text fill="#000000" font-family="sans-serif" font-size="10" lengthAdjust="spacing" textLength="207" x="635.5" y="241.49">Attribute Type = ATTRIBUTE_ENDPOINT_ID</text><text fill="#000000" font-family="sans-serif" font-size="10" lengthAdjust="spacing" textLength="160" x="635.5" y="253.49">value = Desired: [] - Reported: [04]</text><rect fill="#FEFEFE" filter="url(#f9tvfaejnvtpr)" height="50.4001" style="stroke:#000000;stroke-width:1.5;" width="197" x="22.5" y="319.7999"/><text fill="#000000" font-family="sans-serif" font-size="12" lengthAdjust="spacing" textLength="42" x="100" y="332.948">Version</text><line style="stroke:#000000;stroke-width:1.5;" x1="23.5" x2="218.5" y1="338.2" y2="338.2"/><text fill="#000000" font-family="sans-serif" font-size="10" lengthAdjust="spacing" textLength="185" x="28.5" y="351.49">Attribute Type = ATTRIBUTE(VERSION)</text><text fill="#000000" font-family="sans-serif" font-size="10" lengthAdjust="spacing" textLength="154" x="28.5" y="363.49">value = Desired: [] - Reported: [2]</text><rect fill="#FFFFFF" filter="url(#f9tvfaejnvtpr)" height="50.4001" style="stroke:#000000;stroke-width:1.5;" width="332" x="255" y="319.7999"/><text fill="#000000" font-family="sans-serif" font-size="12" lengthAdjust="spacing" textLength="160" x="341" y="332.948">Next Supported Parameter ID</text><line style="stroke:#000000;stroke-width:1.5;" x1="256" x2="586" y1="338.2" y2="338.2"/><text fill="#000000" font-family="sans-serif" font-size="10" lengthAdjust="spacing" textLength="320" x="261" y="351.49">Attribute Type = ATTRIBUTE(NEXT_SUPPORTED_PARAMETER_ID)</text><text fill="#000000" font-family="sans-serif" font-size="10" lengthAdjust="spacing" textLength="154" x="261" y="363.49">value = Desired: [] - Reported: [5]</text><rect fill="#FFFFFF" filter="url(#f9tvfaejnvtpr)" height="50.4001" style="stroke:#000000;stroke-width:1.5;" width="233" x="622.5" y="319.7999"/><text fill="#000000" font-family="sans-serif" font-size="12" lengthAdjust="spacing" textLength="70" x="704" y="332.948">Bulk Support</text><line style="stroke:#000000;stroke-width:1.5;" x1="623.5" x2="854.5" y1="338.2" y2="338.2"/><text fill="#000000" font-family="sans-serif" font-size="10" lengthAdjust="spacing" textLength="221" x="628.5" y="351.49">Attribute Type = ATTRIBUTE(BULK_SUPPORT)</text><text fill="#000000" font-family="sans-serif" font-size="10" lengthAdjust="spacing" textLength="154" x="628.5" y="363.49">value = Desired: [] - Reported: [1]</text><rect fill="#FFFFFF" filter="url(#f9tvfaejnvtpr)" height="50.4001" style="stroke:#000000;stroke-width:1.5;" width="306" x="891" y="319.7999"/><text fill="#000000" font-family="sans-serif" font-size="12" lengthAdjust="spacing" textLength="137" x="975.5" y="332.948">Default Reset Requested</text><line style="stroke:#000000;stroke-width:1.5;" x1="892" x2="1196" y1="338.2" y2="338.2"/><text fill="#000000" font-family="sans-serif" font-size="10" lengthAdjust="spacing" textLength="294" x="897" y="351.49">Attribute Type = ATTRIBUTE(DEFAULT_RESET_REQUESTED)</text><text fill="#000000" font-family="sans-serif" font-size="10" lengthAdjust="spacing" textLength="160" x="897" y="363.49">value = Desired: [1] - Reported: [0]</text><rect fill="#FFFFFF" filter="url(#f9tvfaejnvtpr)" height="50.4001" style="stroke:#000000;stroke-width:1.5;" width="230" x="504" y="429.7999"/><text fill="#000000" font-family="sans-serif" font-size="12" lengthAdjust="spacing" textLength="72" x="583" y="442.948">Parameter ID</text><line style="stroke:#000000;stroke-width:1.5;" x1="505" x2="733" y1="448.2" y2="448.2"/><text fill="#000000" font-family="sans-serif" font-size="10" lengthAdjust="spacing" textLength="218" x="510" y="461.49">Attribute Type = ATTRIBUTE(PARAMETER_ID)</text><text fill="#000000" font-family="sans-serif" font-size="10" lengthAdjust="spacing" textLength="154" x="510" y="473.49">value = Desired: [] - Reported: [1]</text><rect fill="#FFFFFF" filter="url(#f9tvfaejnvtpr)" height="50.4001" style="stroke:#000000;stroke-width:1.5;" width="243" x="104.5" y="539.7999"/><text fill="#000000" font-family="sans-serif" font-size="12" lengthAdjust="spacing" textLength="24" x="214" y="552.948">Size</text><line style="stroke:#000000;stroke-width:1.5;" x1="105.5" x2="346.5" y1="558.2" y2="558.2"/><text fill="#000000" font-family="sans-serif" font-size="10" lengthAdjust="spacing" textLength="231" x="110.5" y="571.49">Attribute Type = ATTRIBUTE(PARAMETER_SIZE)</text><text fill="#000000" font-family="sans-serif" font-size="10" lengthAdjust="spacing" textLength="154" x="110.5" y="583.49">value = Desired: [] - Reported: [2]</text><rect fill="#FFFFFF" filter="url(#f9tvfaejnvtpr)" height="50.4001" style="stroke:#000000;stroke-width:1.5;" width="262" x="890" y="539.7999"/><text fill="#000000" font-family="sans-serif" font-size="12" lengthAdjust="spacing" textLength="38" x="1002" y="552.948">Format</text><line style="stroke:#000000;stroke-width:1.5;" x1="891" x2="1151" y1="558.2" y2="558.2"/><text fill="#000000" font-family="sans-serif" font-size="10" lengthAdjust="spacing" textLength="250" x="896" y="571.49">Attribute Type = ATTRIBUTE(PARAMETER_FORMAT)</text><text fill="#000000" font-family="sans-serif" font-size="10" lengthAdjust="spacing" textLength="154" x="896" y="583.49">value = Desired: [] - Reported: [2]</text><rect fill="#FFFFFF" filter="url(#f9tvfaejnvtpr)" height="50.4001" style="stroke:#000000;stroke-width:1.5;" width="249" x="494.5" y="539.7999"/><text fill="#000000" font-family="sans-serif" font-size="12" lengthAdjust="spacing" textLength="33" x="602.5" y="552.948">Name</text><line style="stroke:#000000;stroke-width:1.5;" x1="495.5" x2="742.5" y1="558.2" y2="558.2"/><text fill="#000000" font-family="sans-serif" font-size="10" lengthAdjust="spacing" textLength="237" x="500.5" y="571.49">Attribute Type = ATTRIBUTE(PARAMETER_NAME)</text><text fill="#000000" font-family="sans-serif" font-size="10" lengthAdjust="spacing" textLength="213" x="500.5" y="583.49">value = Desired: [] - Reported: ["Parameter 1"]</text><rect fill="#FFFFFF" filter="url(#f9tvfaejnvtpr)" height="50.4001" style="stroke:#000000;stroke-width:1.5;" width="277" x="70.5" y="649.7999"/><text fill="#000000" font-family="sans-serif" font-size="12" lengthAdjust="spacing" textLength="20" x="199" y="662.948">Info</text><line style="stroke:#000000;stroke-width:1.5;" x1="71.5" x2="346.5" y1="668.2" y2="668.2"/><text fill="#000000" font-family="sans-serif" font-size="10" lengthAdjust="spacing" textLength="232" x="76.5" y="681.49">Attribute Type = ATTRIBUTE(PARAMETER_INFO)</text><text fill="#000000" font-family="sans-serif" font-size="10" lengthAdjust="spacing" textLength="265" x="76.5" y="693.49">value = Desired: [] - Reported: ["Toggles the relay mode"]</text><rect fill="#FFFFFF" filter="url(#f9tvfaejnvtpr)" height="50.4001" style="stroke:#000000;stroke-width:1.5;" width="254" x="886" y="649.7999"/><text fill="#000000" font-family="sans-serif" font-size="12" lengthAdjust="spacing" textLength="32" x="997" y="662.948">Value</text><line style="stroke:#000000;stroke-width:1.5;" x1="887" x2="1139" y1="668.2" y2="668.2"/><text fill="#000000" font-family="sans-serif" font-size="10" lengthAdjust="spacing" textLength="242" x="892" y="681.49">Attribute Type = ATTRIBUTE(PARAMETER_VALUE)</text><text fill="#000000" font-family="sans-serif" font-size="10" lengthAdjust="spacing" textLength="172" x="892" y="693.49">value = Desired: [12] - Reported: [23]</text><rect fill="#FFFFFF" filter="url(#f9tvfaejnvtpr)" height="50.4001" style="stroke:#000000;stroke-width:1.5;" width="278" x="466" y="649.7999"/><text fill="#000000" font-family="sans-serif" font-size="12" lengthAdjust="spacing" textLength="55" x="577.5" y="662.948">Min Value</text><line style="stroke:#000000;stroke-width:1.5;" x1="467" x2="743" y1="668.2" y2="668.2"/><text fill="#000000" font-family="sans-serif" font-size="10" lengthAdjust="spacing" textLength="266" x="472" y="681.49">Attribute Type = ATTRIBUTE(PARAMETER_MIN_VALUE)</text><text fill="#000000" font-family="sans-serif" font-size="10" lengthAdjust="spacing" textLength="154" x="472" y="693.49">value = Desired: [] - Reported: [0]</text><rect fill="#FFFFFF" filter="url(#f9tvfaejnvtpr)" height="50.4001" style="stroke:#000000;stroke-width:1.5;" width="282" x="103" y="759.7999"/><text fill="#000000" font-family="sans-serif" font-size="12" lengthAdjust="spacing" textLength="58" x="215" y="772.948">Max Value</text><line style="stroke:#000000;stroke-width:1.5;" x1="104" x2="384" y1="778.2" y2="778.2"/><text fill="#000000" font-family="sans-serif" font-size="10" lengthAdjust="spacing" textLength="270" x="109" y="791.49">Attribute Type = ATTRIBUTE(PARAMETER_MAX_VALUE)</text><text fill="#000000" font-family="sans-serif" font-size="10" lengthAdjust="spacing" textLength="166" x="109" y="803.49">value = Desired: [] - Reported: [100]</text><rect fill="#FFFFFF" filter="url(#f9tvfaejnvtpr)" height="50.4001" style="stroke:#000000;stroke-width:1.5;" width="306" x="860" y="759.7999"/><text fill="#000000" font-family="sans-serif" font-size="12" lengthAdjust="spacing" textLength="74" x="976" y="772.948">Default Value</text><line style="stroke:#000000;stroke-width:1.5;" x1="861" x2="1165" y1="778.2" y2="778.2"/><text fill="#000000" font-family="sans-serif" font-size="10" lengthAdjust="spacing" textLength="294" x="866" y="791.49">Attribute Type = ATTRIBUTE(PARAMETER_DEFAULT_VALUE)</text><text fill="#000000" font-family="sans-serif" font-size="10" lengthAdjust="spacing" textLength="154" x="866" y="803.49">value = Desired: [] - Reported: [1]</text><rect fill="#FFFFFF" filter="url(#f9tvfaejnvtpr)" height="50.4001" style="stroke:#000000;stroke-width:1.5;" width="276" x="486" y="759.7999"/><text fill="#000000" font-family="sans-serif" font-size="12" lengthAdjust="spacing" textLength="55" x="596.5" y="772.948">Advanced</text><line style="stroke:#000000;stroke-width:1.5;" x1="487" x2="761" y1="778.2" y2="778.2"/><text fill="#000000" font-family="sans-serif" font-size="10" lengthAdjust="spacing" textLength="264" x="492" y="791.49">Attribute Type = ATTRIBUTE(PARAMETER_ADVANCED)</text><text fill="#000000" font-family="sans-serif" font-size="10" lengthAdjust="spacing" textLength="154" x="492" y="803.49">value = Desired: [] - Reported: [1]</text><rect fill="#FFFFFF" filter="url(#f9tvfaejnvtpr)" height="50.4001" style="stroke:#000000;stroke-width:1.5;" width="282" x="192" y="869.7999"/><text fill="#000000" font-family="sans-serif" font-size="12" lengthAdjust="spacing" textLength="59" x="303.5" y="882.948">Read-Only</text><line style="stroke:#000000;stroke-width:1.5;" x1="193" x2="473" y1="888.2" y2="888.2"/><text fill="#000000" font-family="sans-serif" font-size="10" lengthAdjust="spacing" textLength="270" x="198" y="901.49">Attribute Type = ATTRIBUTE(PARAMETER_READ_ONLY)</text><text fill="#000000" font-family="sans-serif" font-size="10" lengthAdjust="spacing" textLength="154" x="198" y="913.49">value = Desired: [] - Reported: [0]</text><rect fill="#FFFFFF" filter="url(#f9tvfaejnvtpr)" height="50.4001" style="stroke:#000000;stroke-width:1.5;" width="347" x="741.5" y="869.7999"/><text fill="#000000" font-family="sans-serif" font-size="12" lengthAdjust="spacing" textLength="107" x="861.5" y="882.948">Altering capabilities</text><line style="stroke:#000000;stroke-width:1.5;" x1="742.5" x2="1087.5" y1="888.2" y2="888.2"/><text fill="#000000" font-family="sans-serif" font-size="10" lengthAdjust="spacing" textLength="335" x="747.5" y="901.49">Attribute Type = ATTRIBUTE(PARAMETER_ALTERING_CAPABILITIES)</text><text fill="#000000" font-family="sans-serif" font-size="10" lengthAdjust="spacing" textLength="154" x="747.5" y="913.49">value = Desired: [] - Reported: [0]</text><!--MD5=[95477c314ce472250aabd32546a8a81f]
reverse link node to endpoint--><path codeLine="1371" d="M739,163.4099 C739,178.7499 739,196.0399 739,209.6399 " fill="none" id="node-backto-endpoint" style="stroke:#A80036;stroke-width:1.0;"/><polygon fill="#A80036" points="739,150.0399,735,156.0399,739,162.0399,743,156.0399,739,150.0399" style="stroke:#A80036;stroke-width:1.0;"/><!--MD5=[c4a4e185f2beba9fb9ec0dd52638d41f]
reverse link endpoint to version--><path codeLine="1372" d="M616.26,255.1099 C514.69,271.3899 366.74,295.8099 238,319.7999 C231.99,320.9199 225.81,322.0999 219.57,323.3099 " fill="none" id="endpoint-backto-version" style="stroke:#A80036;stroke-width:1.0;"/><polygon fill="#A80036" points="629.34,253.0099,622.7824,250.0104,617.4914,254.9099,624.049,257.9095,629.34,253.0099" style="stroke:#A80036;stroke-width:1.0;"/><!--MD5=[96793b32eeab749494e31151b5eec6be]
reverse link endpoint to next_parameter_id--><path codeLine="1373" d="M655.72,264.0899 C604.75,281.3899 540.24,303.2999 491.75,319.7699 " fill="none" id="endpoint-backto-next_parameter_id" style="stroke:#A80036;stroke-width:1.0;"/><polygon fill="#A80036" points="668.03,259.8999,661.0632,258.0389,656.6658,263.754,663.6326,265.615,668.03,259.8999" style="stroke:#A80036;stroke-width:1.0;"/><!--MD5=[968b32b0af99535f4d8fe2715c81ce82]
reverse link endpoint to bulk_support--><path codeLine="1374" d="M739,273.4099 C739,288.7499 739,306.0399 739,319.6399 " fill="none" id="endpoint-backto-bulk_support" style="stroke:#A80036;stroke-width:1.0;"/><polygon fill="#A80036" points="739,260.0399,735,266.0399,739,272.0399,743,266.0399,739,260.0399" style="stroke:#A80036;stroke-width:1.0;"/><!--MD5=[9869c0585812283c497ec09246fa256a]
reverse link endpoint to default_reset_requested--><path codeLine="1375" d="M819.5,264.2999 C868.29,281.5799 929.83,303.3699 976.14,319.7699 " fill="none" id="endpoint-backto-default_reset_requested" style="stroke:#A80036;stroke-width:1.0;"/><polygon fill="#A80036" points="807.07,259.8999,811.3896,265.6741,818.381,263.9076,814.0614,258.1334,807.07,259.8999" style="stroke:#A80036;stroke-width:1.0;"/><!--MD5=[2ee9020c08e9d00db3b355228af3b603]
reverse link endpoint to parameter_id--><path codeLine="1376" d="M861.67,240.0999 C987.44,247.3899 1170.72,267.0199 1215,319.7999 C1229.28,336.8199 1229.58,353.0299 1215,369.7999 C1183.96,405.5199 898.5,432.7399 734.17,445.6099 " fill="none" id="endpoint-backto-parameter_id" style="stroke:#A80036;stroke-width:1.0;"/><polygon fill="#A80036" points="848.54,239.3699,854.311,243.6938,860.5218,240.0297,854.7509,235.7059,848.54,239.3699" style="stroke:#A80036;stroke-width:1.0;"/><!--MD5=[42cf65cd364f084011a906fb80468703]
link next_parameter_id to parameter_id--><!--MD5=[96f8e689ae89053d729b954cb2466158]
reverse link parameter_id to parameter_size--><path codeLine="1380" d="M518.46,483.4299 C455.11,500.8399 374.12,523.0899 313.44,539.7699 " fill="none" id="parameter_id-backto-parameter_size" style="stroke:#A80036;stroke-width:1.0;"/><polygon fill="#A80036" points="531.29,479.8999,524.4452,477.6308,519.718,483.0763,526.5628,485.3454,531.29,479.8999" style="stroke:#A80036;stroke-width:1.0;"/><!--MD5=[d64b3ecf38c865076a5af7dac7b033b8]
reverse link parameter_id to parameter_format--><path codeLine="1381" d="M721.18,483.2499 C786.04,500.6799 869.18,523.0099 931.45,539.7399 " fill="none" id="parameter_id-backto-parameter_format" style="stroke:#A80036;stroke-width:1.0;"/><polygon fill="#A80036" points="708.47,479.8399,713.2276,485.2589,720.0596,482.9516,715.302,477.5326,708.47,479.8399" style="stroke:#A80036;stroke-width:1.0;"/><!--MD5=[cbcaf7d690dfc9df43ee2422446c98f5]
reverse link parameter_id to parameter_name--><path codeLine="1382" d="M619,493.4099 C619,508.7499 619,526.0399 619,539.6399 " fill="none" id="parameter_id-backto-parameter_name" style="stroke:#A80036;stroke-width:1.0;"/><polygon fill="#A80036" points="619,480.0399,615,486.0399,619,492.0399,623,486.0399,619,480.0399" style="stroke:#A80036;stroke-width:1.0;"/><!--MD5=[721b26374fc598eb652b83c441daeafa]
link parameter_size to parameter_info--><!--MD5=[5a17129cf975b3b227af0ab6b0cdc03e]
link parameter_format to parameter_value--><!--MD5=[6ca91415e74fad095ba304632509ed3a]
link parameter_name to parameter_min_value--><!--MD5=[f373b39556c3fdd52f8db82356da54b3]
reverse link parameter_id to parameter_info--><path codeLine="1388" d="M490.39,457.6299 C349.86,462.6799 137.86,480.2699 87,539.7999 C53.38,579.1499 113.34,623.2599 160.5,649.7599 " fill="none" id="parameter_id-backto-parameter_info" style="stroke:#A80036;stroke-width:1.0;"/><polygon fill="#A80036" points="503.76,457.1799,497.6273,453.3865,491.767,457.5885,497.8997,461.3819,503.76,457.1799" style="stroke:#A80036;stroke-width:1.0;"/><!--MD5=[d27e753e796001df686a5cc377f23bf9]
reverse link parameter_id to parameter_value--><path codeLine="1389" d="M713.05,484.2299 C750.06,497.8399 791.8,516.3599 826,539.7999 C851.16,557.0399 849.25,570.6599 873,589.7999 C901.8,613.0099 937.62,634.3899 965.82,649.7699 " fill="none" id="parameter_id-backto-parameter_value" style="stroke:#A80036;stroke-width:1.0;"/><polygon fill="#A80036" points="700.69,479.7999,704.9874,485.5906,711.9855,483.851,707.6881,478.0603,700.69,479.7999" style="stroke:#A80036;stroke-width:1.0;"/><!--MD5=[286b5be3a5ed2c13f5f8d8d340db9212]
reverse link parameter_id to parameter_min_value--><path codeLine="1390" d="M536.48,485.9999 C513.08,498.8399 490.35,516.3899 477,539.7999 C465.99,559.0999 466.44,570.2499 477,589.7999 C491.46,616.5799 518.59,636.2099 544.16,649.7299 " fill="none" id="parameter_id-backto-parameter_min_value" style="stroke:#A80036;stroke-width:1.0;"/><polygon fill="#A80036" points="548.35,479.8899,541.1853,479.0729,537.6755,485.3721,544.8401,486.1892,548.35,479.8899" style="stroke:#A80036;stroke-width:1.0;"/><!--MD5=[f0aa1eaae482d8d211ba22767716c7af]
link parameter_info to parameter_max_value--><!--MD5=[e40626f7f8c5227f57cf06ef78d3ba40]
link parameter_value to parameter_default_value--><!--MD5=[e86d3038e5e028d054b38ad02cf88f4b]
link parameter_min_value to parameter_advanced--><!--MD5=[6e55603c667d4a397b03c34c497a96b7]
reverse link parameter_id to parameter_max_value--><path codeLine="1396" d="M497.26,484.4999 C465.93,496.9899 434.69,514.7299 412,539.7999 C362.27,594.7599 408.36,639.6899 365,699.7999 C346.75,725.0999 318.41,745.3699 293.75,759.6499 " fill="none" id="parameter_id-backto-parameter_max_value" style="stroke:#A80036;stroke-width:1.0;"/><polygon fill="#A80036" points="509.73,479.7999,502.705,478.1722,498.5006,484.0307,505.5256,485.6585,509.73,479.7999" style="stroke:#A80036;stroke-width:1.0;"/><!--MD5=[150b790bf4a965f78ce7c2b42a72c5bf]
reverse link parameter_id to parameter_default_value--><path codeLine="1397" d="M747.64,456.7999 C893.08,460.9899 1116.65,477.6999 1170,539.7999 C1189.4,562.3799 1182.52,662.1499 1158,699.7999 C1140.3,726.9799 1110.51,746.4199 1082.52,759.7099 " fill="none" id="parameter_id-backto-parameter_default_value" style="stroke:#A80036;stroke-width:1.0;"/><polygon fill="#A80036" points="734.25,456.4499,740.1378,460.6134,746.2455,456.7798,740.3577,452.6164,734.25,456.4499" style="stroke:#A80036;stroke-width:1.0;"/><!--MD5=[1cbbfefe1b82f970a38cf685bff961d4]
reverse link parameter_id to parameter_advanced--><path codeLine="1398" d="M701.4,486.0699 C724.79,498.9099 747.54,516.4499 761,539.7999 C796.51,601.4099 796.84,637.8099 762,699.7999 C746.68,727.0599 718.52,746.5099 691.62,759.7799 " fill="none" id="parameter_id-backto-parameter_advanced" style="stroke:#A80036;stroke-width:1.0;"/><polygon fill="#A80036" points="689.53,479.9599,693.0305,486.2644,700.1964,485.4579,696.6959,479.1535,689.53,479.9599" style="stroke:#A80036;stroke-width:1.0;"/><!--MD5=[cf44dfd00116f3be3a14a538914bb5fa]
link parameter_max_value to parameter_read_only--><!--MD5=[3cdbe8ce5328b8a99d4ac4ebbd02882c]
link parameter_default_value to parameter_altering_capabilities--><!--MD5=[9c58669c13bcbc215ee83e1603ecc35d]
reverse link parameter_id to parameter_read_only--><path codeLine="1403" d="M530.96,485.4299 C504.58,498.3099 477.94,516.0299 460,539.7999 C386.13,637.6999 456.5,699.4399 403,809.7999 C392.07,832.3499 373.8,853.9799 358.67,869.6399 " fill="none" id="parameter_id-backto-parameter_read_only" style="stroke:#A80036;stroke-width:1.0;"/><polygon fill="#A80036" points="543.02,479.8499,535.8963,478.7308,532.1233,484.8761,539.2471,485.9952,543.02,479.8499" style="stroke:#A80036;stroke-width:1.0;"/><!--MD5=[2c0e37603fbf1e5d1a756dd0c0842e04]
reverse link parameter_id to parameter_altering_capabilities--><path codeLine="1404" d="M707.48,485.2699 C734.28,498.1599 761.49,515.9299 780,539.7999 C855.51,637.1799 787.31,699.8799 843,809.7999 C854.46,832.4199 873.24,854.0399 888.75,869.6899 " fill="none" id="parameter_id-backto-parameter_altering_capabilities" style="stroke:#A80036;stroke-width:1.0;"/><polygon fill="#A80036" points="695.63,479.8599,699.427,485.9904,706.5463,484.8434,702.7493,478.7129,695.63,479.8599" style="stroke:#A80036;stroke-width:1.0;"/><!--MD5=[a893b63e4dc101df2df3dc4d4c9e9c5f]
@startuml attribute_store_configuration_command_class.svg
allow_mixing
skinparam objectBorderColor black

legend top
<font color=#FEFEFE>ATTRIBUTE(type)</font> : ATTRIBUTE_COMMAND_CLASS_CONFIGURATION_type
endlegend

package "Attribute Store" <<Database>> {
  object "NodeID" as node #f2ffe6
  node : Attribute Type = ATTRIBUTE_NODE_ID
  node : value = Desired: [], Reported: [03]

  object "Endpoint Attribute" as endpoint #e6fff7
  endpoint : Attribute Type = ATTRIBUTE_ENDPOINT_ID
  endpoint : value = Desired: [] - Reported: [04]

  object "Version" as version #FEFEFE
  version : Attribute Type = ATTRIBUTE(VERSION)
  version : value = Desired: [] - Reported: [2]

  object "Next Supported Parameter ID" as next_parameter_id #FFFFFF
  next_parameter_id : Attribute Type = ATTRIBUTE(NEXT_SUPPORTED_PARAMETER_ID)
  next_parameter_id : value = Desired: [] - Reported: [5]

  object "Bulk Support" as bulk_support #FFFFFF
  bulk_support : Attribute Type = ATTRIBUTE(BULK_SUPPORT)
  bulk_support : value = Desired: [] - Reported: [1]

  object "Default Reset Requested" as default_reset_requested #FFFFFF
  default_reset_requested : Attribute Type = ATTRIBUTE(DEFAULT_RESET_REQUESTED)
  default_reset_requested : value = Desired: [1] - Reported: [0]

  package "For each Parameter" <<Rectangle>> {

    object "Parameter ID" as parameter_id #FFFFFF
    parameter_id : Attribute Type = ATTRIBUTE(PARAMETER_ID)
    parameter_id : value = Desired: [] - Reported: [1]

    object "Size" as parameter_size #FFFFFF
    parameter_size : Attribute Type = ATTRIBUTE(PARAMETER_SIZE)
    parameter_size : value = Desired: [] - Reported: [2]

    object "Format" as parameter_format #FFFFFF
    parameter_format : Attribute Type = ATTRIBUTE(PARAMETER_FORMAT)
    parameter_format : value = Desired: [] - Reported: [2]

    object "Name" as parameter_name #FFFFFF
    parameter_name : Attribute Type = ATTRIBUTE(PARAMETER_NAME)
    parameter_name : value = Desired: [] - Reported: ["Parameter 1"]

    object "Info" as parameter_info #FFFFFF
    parameter_info : Attribute Type = ATTRIBUTE(PARAMETER_INFO)
    parameter_info : value = Desired: [] - Reported: ["Toggles the relay mode"]

    object "Value" as parameter_value #FFFFFF
    parameter_value : Attribute Type = ATTRIBUTE(PARAMETER_VALUE)
    parameter_value : value = Desired: [12] - Reported: [23]

    object "Min Value" as parameter_min_value #FFFFFF
    parameter_min_value : Attribute Type = ATTRIBUTE(PARAMETER_MIN_VALUE)
    parameter_min_value : value = Desired: [] - Reported: [0]

    object "Max Value" as parameter_max_value #FFFFFF
    parameter_max_value : Attribute Type = ATTRIBUTE(PARAMETER_MAX_VALUE)
    parameter_max_value : value = Desired: [] - Reported: [100]

    object "Default Value" as parameter_default_value #FFFFFF
    parameter_default_value : Attribute Type = ATTRIBUTE(PARAMETER_DEFAULT_VALUE)
    parameter_default_value : value = Desired: [] - Reported: [1]

    object "Advanced" as parameter_advanced #FFFFFF
    parameter_advanced : Attribute Type = ATTRIBUTE(PARAMETER_ADVANCED)
    parameter_advanced : value = Desired: [] - Reported: [1]

    object "Read-Only" as parameter_read_only #FFFFFF
    parameter_read_only : Attribute Type = ATTRIBUTE(PARAMETER_READ_ONLY)
    parameter_read_only : value = Desired: [] - Reported: [0]

    object "Altering capabilities" as parameter_altering_capabilities #FFFFFF
    parameter_altering_capabilities : Attribute Type = ATTRIBUTE(PARAMETER_ALTERING_CAPABILITIES)
    parameter_altering_capabilities : value = Desired: [] - Reported: [0]
  }

}

node *- - endpoint
endpoint *- - version
endpoint *- - next_parameter_id
endpoint *- - bulk_support
endpoint *- - default_reset_requested
endpoint *- - parameter_id

next_parameter_id -[hidden]- parameter_id

parameter_id *- - parameter_size
parameter_id *- - parameter_format
parameter_id *- - parameter_name

parameter_size -[hidden]- parameter_info
parameter_format -[hidden]- parameter_value
parameter_name -[hidden]- parameter_min_value

parameter_id *- - parameter_info
parameter_id *- - parameter_value
parameter_id *- - parameter_min_value

parameter_info -[hidden]- parameter_max_value
parameter_value -[hidden]- parameter_default_value
parameter_min_value -[hidden]- parameter_advanced

parameter_id *- - parameter_max_value
parameter_id *- - parameter_default_value
parameter_id *- - parameter_advanced

parameter_max_value -[hidden]- parameter_read_only
parameter_default_value -[hidden]- parameter_altering_capabilities

parameter_id *- - parameter_read_only
parameter_id *- - parameter_altering_capabilities
@enduml

PlantUML version 1.2022.0(Tue Jan 11 16:16:42 UTC 2022)
(GPL source distribution)
Java Runtime: OpenJDK Runtime Environment
JVM: OpenJDK 64-Bit Server VM
Default Encoding: ANSI_X3.4-1968
Language: en
Country: US
--></g></svg>