<?xml version="1.0" encoding="UTF-8" standalone="no"?><svg xmlns="http://www.w3.org/2000/svg" xmlns:xlink="http://www.w3.org/1999/xlink" contentScriptType="application/ecmascript" contentStyleType="text/css" height="669px" preserveAspectRatio="none" style="width:745px;height:669px;background:#FFFFFF;" version="1.1" viewBox="0 0 745 669" width="745px" zoomAndPan="magnify"><defs><filter height="300%" id="fsty5yvuzh8ky" width="300%" x="-1" y="-1"><feGaussianBlur result="blurOut" stdDeviation="2.0"/><feColorMatrix in="blurOut" result="blurOut2" type="matrix" values="0 0 0 0 0 0 0 0 0 0 0 0 0 0 0 0 0 0 .4 0"/><feOffset dx="4.0" dy="4.0" in="blurOut2" result="blurOut3"/><feBlend in="SourceGraphic" in2="blurOut3" mode="normal"/></filter></defs><g><rect fill="#ADD8E6" height="657.4001" style="stroke:#A80036;stroke-width:1.0;" width="301" x="438.5" y="6"/><text fill="#000000" font-family="sans-serif" font-size="13" font-weight="bold" lengthAdjust="spacing" textLength="26" x="576" y="18.077">ZPC</text><line style="stroke:#A80036;stroke-width:1.0;stroke-dasharray:5.0,5.0;" x1="66" x2="66" y1="61.3999" y2="624.6002"/><line style="stroke:#A80036;stroke-width:1.0;stroke-dasharray:5.0,5.0;" x1="501.5" x2="501.5" y1="61.3999" y2="624.6002"/><line style="stroke:#A80036;stroke-width:1.0;stroke-dasharray:5.0,5.0;" x1="658.5" x2="658.5" y1="61.3999" y2="624.6002"/><rect fill="#FEFECE" filter="url(#fsty5yvuzh8ky)" height="30.7999" style="stroke:#A80036;stroke-width:1.5;" width="101" x="14" y="25.6"/><text fill="#000000" font-family="sans-serif" font-size="14" lengthAdjust="spacing" textLength="87" x="21" y="45.606">AttributeStore</text><rect fill="#FEFECE" filter="url(#fsty5yvuzh8ky)" height="30.7999" style="stroke:#A80036;stroke-width:1.5;" width="101" x="14" y="623.6002"/><text fill="#000000" font-family="sans-serif" font-size="14" lengthAdjust="spacing" textLength="87" x="21" y="643.6061">AttributeStore</text><rect fill="#FEFECE" filter="url(#fsty5yvuzh8ky)" height="30.7999" style="stroke:#A80036;stroke-width:1.5;" width="114" x="442.5" y="25.6"/><text fill="#000000" font-family="sans-serif" font-size="14" lengthAdjust="spacing" textLength="100" x="449.5" y="45.606">NetworkMonitor</text><rect fill="#FEFECE" filter="url(#fsty5yvuzh8ky)" height="30.7999" style="stroke:#A80036;stroke-width:1.5;" width="114" x="442.5" y="623.6002"/><text fill="#000000" font-family="sans-serif" font-size="14" lengthAdjust="spacing" textLength="100" x="449.5" y="643.6061">NetworkMonitor</text><rect fill="#FEFECE" filter="url(#fsty5yvuzh8ky)" height="30.7999" style="stroke:#A80036;stroke-width:1.5;" width="150" x="581.5" y="25.6"/><text fill="#000000" font-family="sans-serif" font-size="14" lengthAdjust="spacing" textLength="136" x="588.5" y="45.606">NetworkManagement</text><rect fill="#FEFECE" filter="url(#fsty5yvuzh8ky)" height="30.7999" style="stroke:#A80036;stroke-width:1.5;" width="150" x="581.5" y="623.6002"/><text fill="#000000" font-family="sans-serif" font-size="14" lengthAdjust="spacing" textLength="136" x="588.5" y="643.6061">NetworkManagement</text><path d="M5,76.3999 L5,101.3999 L721,101.3999 L721,86.3999 L711,76.3999 L5,76.3999 " fill="#FBFB77" filter="url(#fsty5yvuzh8ky)" style="stroke:#A80036;stroke-width:1.0;"/><path d="M711,76.3999 L711,86.3999 L721,86.3999 L711,76.3999 " fill="#FBFB77" style="stroke:#A80036;stroke-width:1.0;"/><text fill="#000000" font-family="sans-serif" font-size="13" lengthAdjust="spacing" textLength="18" x="347.75" y="93.477">Init</text><polygon fill="#A80036" points="77.5,128.6,67.5,132.6,77.5,136.6,73.5,132.6" style="stroke:#A80036;stroke-width:1.0;"/><line style="stroke:#A80036;stroke-width:1.0;" x1="71.5" x2="500.5" y1="132.6" y2="132.6"/><text fill="#000000" font-family="sans-serif" font-size="13" lengthAdjust="spacing" textLength="411" x="83.5" y="127.077">Create/Set the ZPC Node ID and Security keys nodes in AttributeStore</text><path d="M5,145.6 L5,170.6 L721,170.6 L721,155.6 L711,145.6 L5,145.6 " fill="#FBFB77" filter="url(#fsty5yvuzh8ky)" style="stroke:#A80036;stroke-width:1.0;"/><path d="M711,145.6 L711,155.6 L721,155.6 L711,145.6 " fill="#FBFB77" style="stroke:#A80036;stroke-width:1.0;"/><text fill="#000000" font-family="sans-serif" font-size="13" lengthAdjust="spacing" textLength="85" x="314.25" y="162.677">Node is Added</text><polygon fill="#A80036" points="512.5,197.8,502.5,201.8,512.5,205.8,508.5,201.8" style="stroke:#A80036;stroke-width:1.0;"/><line style="stroke:#A80036;stroke-width:1.0;" x1="506.5" x2="657.5" y1="201.8" y2="201.8"/><text fill="#000000" font-family="sans-serif" font-size="13" lengthAdjust="spacing" textLength="133" x="518.5" y="196.277">on_node_id_assigned()</text><polygon fill="#A80036" points="77.5,227.4,67.5,231.4,77.5,235.4,73.5,231.4" style="stroke:#A80036;stroke-width:1.0;"/><line style="stroke:#A80036;stroke-width:1.0;" x1="71.5" x2="500.5" y1="231.4" y2="231.4"/><text fill="#000000" font-family="sans-serif" font-size="13" lengthAdjust="spacing" textLength="223" x="83.5" y="225.877">Create Endpoint node in AttributeStore</text><polygon fill="#A80036" points="77.5,257,67.5,261,77.5,265,73.5,261" style="stroke:#A80036;stroke-width:1.0;"/><line style="stroke:#A80036;stroke-width:1.0;" x1="71.5" x2="500.5" y1="261" y2="261"/><text fill="#000000" font-family="sans-serif" font-size="13" lengthAdjust="spacing" textLength="257" x="83.5" y="255.477">Create NetworkStatus node in AttributeStore</text><polygon fill="#A80036" points="512.5,286.6,502.5,290.6,512.5,294.6,508.5,290.6" style="stroke:#A80036;stroke-width:1.0;"/><line style="stroke:#A80036;stroke-width:1.0;" x1="506.5" x2="657.5" y1="290.6" y2="290.6"/><text fill="#000000" font-family="sans-serif" font-size="13" lengthAdjust="spacing" textLength="99" x="518.5" y="285.077">on_node_added()</text><polygon fill="#A80036" points="77.5,316.2001,67.5,320.2001,77.5,324.2001,73.5,320.2001" style="stroke:#A80036;stroke-width:1.0;"/><line style="stroke:#A80036;stroke-width:1.0;" x1="71.5" x2="500.5" y1="320.2001" y2="320.2001"/><text fill="#000000" font-family="sans-serif" font-size="13" lengthAdjust="spacing" textLength="245" x="83.5" y="314.677">Create Security key node in AttributeStore</text><polygon fill="#A80036" points="77.5,345.8001,67.5,349.8001,77.5,353.8001,73.5,349.8001" style="stroke:#A80036;stroke-width:1.0;"/><line style="stroke:#A80036;stroke-width:1.0;" x1="71.5" x2="500.5" y1="349.8001" y2="349.8001"/><text fill="#000000" font-family="sans-serif" font-size="13" lengthAdjust="spacing" textLength="291" x="83.5" y="344.2771">Create NIF under Endpoint nodes in AttributeStore</text><path d="M5,362.8001 L5,387.8001 L721,387.8001 L721,372.8001 L711,362.8001 L5,362.8001 " fill="#FBFB77" filter="url(#fsty5yvuzh8ky)" style="stroke:#A80036;stroke-width:1.0;"/><path d="M711,362.8001 L711,372.8001 L721,372.8001 L711,362.8001 " fill="#FBFB77" style="stroke:#A80036;stroke-width:1.0;"/><text fill="#000000" font-family="sans-serif" font-size="13" lengthAdjust="spacing" textLength="103" x="305.25" y="379.8771">Node is Removed</text><polygon fill="#A80036" points="512.5,415.0001,502.5,419.0001,512.5,423.0001,508.5,419.0001" style="stroke:#A80036;stroke-width:1.0;"/><line style="stroke:#A80036;stroke-width:1.0;" x1="506.5" x2="657.5" y1="419.0001" y2="419.0001"/><text fill="#000000" font-family="sans-serif" font-size="13" lengthAdjust="spacing" textLength="106" x="518.5" y="413.4771">on_node_deleted()</text><polygon fill="#A80036" points="77.5,444.6001,67.5,448.6001,77.5,452.6001,73.5,448.6001" style="stroke:#A80036;stroke-width:1.0;"/><line style="stroke:#A80036;stroke-width:1.0;" x1="71.5" x2="500.5" y1="448.6001" y2="448.6001"/><text fill="#000000" font-family="sans-serif" font-size="13" lengthAdjust="spacing" textLength="225" x="83.5" y="443.0771">Remove NodeID node in AttributeStore</text><path d="M5,461.6001 L5,486.6001 L721,486.6001 L721,471.6001 L711,461.6001 L5,461.6001 " fill="#FBFB77" filter="url(#fsty5yvuzh8ky)" style="stroke:#A80036;stroke-width:1.0;"/><path d="M711,461.6001 L711,471.6001 L721,471.6001 L711,461.6001 " fill="#FBFB77" style="stroke:#A80036;stroke-width:1.0;"/><text fill="#000000" font-family="sans-serif" font-size="13" lengthAdjust="spacing" textLength="76" x="318.75" y="478.6771">New Network</text><polygon fill="#A80036" points="512.5,513.8001,502.5,517.8001,512.5,521.8001,508.5,517.8001" style="stroke:#A80036;stroke-width:1.0;"/><line style="stroke:#A80036;stroke-width:1.0;" x1="506.5" x2="657.5" y1="517.8001" y2="517.8001"/><text fill="#000000" font-family="sans-serif" font-size="13" lengthAdjust="spacing" textLength="83" x="518.5" y="512.2771">new_network()</text><polygon fill="#A80036" points="77.5,543.4001,67.5,547.4001,77.5,551.4001,73.5,547.4001" style="stroke:#A80036;stroke-width:1.0;"/><line style="stroke:#A80036;stroke-width:1.0;" x1="71.5" x2="500.5" y1="547.4001" y2="547.4001"/><text fill="#000000" font-family="sans-serif" font-size="13" lengthAdjust="spacing" textLength="273" x="83.5" y="541.8771">Delete the oldHomeID node from AttributeStore</text><polygon fill="#A80036" points="77.5,573.0002,67.5,577.0002,77.5,581.0002,73.5,577.0002" style="stroke:#A80036;stroke-width:1.0;"/><line style="stroke:#A80036;stroke-width:1.0;" x1="71.5" x2="500.5" y1="577.0002" y2="577.0002"/><text fill="#000000" font-family="sans-serif" font-size="13" lengthAdjust="spacing" textLength="264" x="83.5" y="571.4772">Create the newHomeID node in AttributeStore</text><polygon fill="#A80036" points="77.5,602.6002,67.5,606.6002,77.5,610.6002,73.5,606.6002" style="stroke:#A80036;stroke-width:1.0;"/><line style="stroke:#A80036;stroke-width:1.0;" x1="71.5" x2="500.5" y1="606.6002" y2="606.6002"/><text fill="#000000" font-family="sans-serif" font-size="13" lengthAdjust="spacing" textLength="411" x="83.5" y="601.0772">Create nodes in the attribute store for all nodes currently in the network</text><!--MD5=[2d5c8361389ffc47eef6cf0124967807]
@startuml inline_umlgraph_1.svg
  participant AttributeStore
  box "ZPC" #LightBlue
  participant NetworkMonitor
  participant NetworkManagement
  end box

  note over AttributeStore,NetworkManagement: Init
  NetworkMonitor        -> AttributeStore       : Create/Set the ZPC Node ID and Security keys nodes in AttributeStore
  note over AttributeStore,NetworkManagement: Node is Added
  NetworkManagement     -> NetworkMonitor       : on_node_id_assigned()
  NetworkMonitor        -> AttributeStore       : Create Endpoint node in AttributeStore
  NetworkMonitor        -> AttributeStore       : Create NetworkStatus node in AttributeStore
  NetworkManagement     -> NetworkMonitor       : on_node_added()
  NetworkMonitor        -> AttributeStore       : Create Security key node in AttributeStore
  NetworkMonitor        -> AttributeStore       : Create NIF under Endpoint nodes in AttributeStore
  note over AttributeStore,NetworkManagement: Node is Removed
  NetworkManagement     -> NetworkMonitor       : on_node_deleted()
  NetworkMonitor        -> AttributeStore       : Remove NodeID node in AttributeStore
  note over AttributeStore,NetworkManagement: New Network
  NetworkManagement     -> NetworkMonitor       : new_network()
  NetworkMonitor        -> AttributeStore       : Delete the oldHomeID node from AttributeStore
  NetworkMonitor        -> AttributeStore       : Create the newHomeID node in AttributeStore
  NetworkMonitor        -> AttributeStore       : Create nodes in the attribute store for all nodes currently in the network
@enduml

PlantUML version 1.2022.0(Tue Jan 11 16:16:42 UTC 2022)
(GPL source distribution)
Java Runtime: OpenJDK Runtime Environment
JVM: OpenJDK 64-Bit Server VM
Default Encoding: ANSI_X3.4-1968
Language: en
Country: US
--></g></svg>