<?xml version="1.0" encoding="UTF-8" standalone="no"?><svg xmlns="http://www.w3.org/2000/svg" xmlns:xlink="http://www.w3.org/1999/xlink" contentScriptType="application/ecmascript" contentStyleType="text/css" height="1160px" preserveAspectRatio="none" style="width:758px;height:1160px;background:#FFFFFF;" version="1.1" viewBox="0 0 758 1160" width="758px" zoomAndPan="magnify"><defs><filter height="300%" id="f1p07s55zactn6" width="300%" x="-1" y="-1"><feGaussianBlur result="blurOut" stdDeviation="2.0"/><feColorMatrix in="blurOut" result="blurOut2" type="matrix" values="0 0 0 0 0 0 0 0 0 0 0 0 0 0 0 0 0 0 .4 0"/><feOffset dx="4.0" dy="4.0" in="blurOut2" result="blurOut3"/><feBlend in="SourceGraphic" in2="blurOut3" mode="normal"/></filter></defs><g><rect fill="#FFFFFF" filter="url(#f1p07s55zactn6)" height="289.9001" style="stroke:#000000;stroke-width:2.0;" width="734" x="10" y="310.4999"/><rect fill="#FFFFFF" filter="url(#f1p07s55zactn6)" height="220.7001" style="stroke:#000000;stroke-width:2.0;" width="718.5" x="10" y="614.4001"/><rect fill="#FFFFFF" filter="url(#f1p07s55zactn6)" height="118.3501" style="stroke:#000000;stroke-width:2.0;" width="718.5" x="10" y="849.1002"/><rect fill="#FFFFFF" filter="url(#f1p07s55zactn6)" height="118.3501" style="stroke:#000000;stroke-width:2.0;" width="718.5" x="10" y="981.4502"/><line style="stroke:#A80036;stroke-width:1.0;" x1="49" x2="49" y1="40.7999" y2="262.3"/><line style="stroke:#A80036;stroke-width:1.0;stroke-dasharray:1.0,4.0;" x1="49" x2="49" y1="262.3" y2="303.4999"/><line style="stroke:#A80036;stroke-width:1.0;" x1="49" x2="49" y1="303.4999" y2="1116.8003"/><line style="stroke:#A80036;stroke-width:1.0;" x1="339.5" x2="339.5" y1="40.7999" y2="262.3"/><line style="stroke:#A80036;stroke-width:1.0;stroke-dasharray:1.0,4.0;" x1="339.5" x2="339.5" y1="262.3" y2="303.4999"/><line style="stroke:#A80036;stroke-width:1.0;" x1="339.5" x2="339.5" y1="303.4999" y2="1116.8003"/><line style="stroke:#A80036;stroke-width:1.0;" x1="576.5" x2="576.5" y1="40.7999" y2="262.3"/><line style="stroke:#A80036;stroke-width:1.0;stroke-dasharray:1.0,4.0;" x1="576.5" x2="576.5" y1="262.3" y2="303.4999"/><line style="stroke:#A80036;stroke-width:1.0;" x1="576.5" x2="576.5" y1="303.4999" y2="1116.8003"/><rect fill="#FEFECE" filter="url(#f1p07s55zactn6)" height="30.7999" style="stroke:#A80036;stroke-width:1.5;" width="55" x="20" y="5"/><text fill="#000000" font-family="sans-serif" font-size="14" lengthAdjust="spacing" textLength="41" x="27" y="25.0059">MQTT</text><rect fill="#FEFECE" filter="url(#f1p07s55zactn6)" height="30.7999" style="stroke:#A80036;stroke-width:1.5;" width="55" x="20" y="1115.8003"/><text fill="#000000" font-family="sans-serif" font-size="14" lengthAdjust="spacing" textLength="41" x="27" y="1135.8062">MQTT</text><rect fill="#FEFECE" filter="url(#f1p07s55zactn6)" height="30.7999" style="stroke:#A80036;stroke-width:1.5;" width="166" x="254.5" y="5"/><text fill="#000000" font-family="sans-serif" font-size="14" lengthAdjust="spacing" textLength="152" x="261.5" y="25.0059">SmartStartManagement</text><rect fill="#FEFECE" filter="url(#f1p07s55zactn6)" height="30.7999" style="stroke:#A80036;stroke-width:1.5;" width="166" x="254.5" y="1115.8003"/><text fill="#000000" font-family="sans-serif" font-size="14" lengthAdjust="spacing" textLength="152" x="261.5" y="1135.8062">SmartStartManagement</text><rect fill="#FEFECE" filter="url(#f1p07s55zactn6)" height="30.7999" style="stroke:#A80036;stroke-width:1.5;" width="280" x="434.5" y="5"/><text fill="#000000" font-family="sans-serif" font-size="14" lengthAdjust="spacing" textLength="266" x="441.5" y="25.0059">ProtocolControllerSmartStartManagement</text><rect fill="#FEFECE" filter="url(#f1p07s55zactn6)" height="30.7999" style="stroke:#A80036;stroke-width:1.5;" width="280" x="434.5" y="1115.8003"/><text fill="#000000" font-family="sans-serif" font-size="14" lengthAdjust="spacing" textLength="266" x="441.5" y="1135.8062">ProtocolControllerSmartStartManagement</text><path d="M318,55.7999 L318,80.7999 L357,80.7999 L357,65.7999 L347,55.7999 L318,55.7999 " fill="#FBFB77" filter="url(#f1p07s55zactn6)" style="stroke:#A80036;stroke-width:1.0;"/><path d="M347,55.7999 L347,65.7999 L357,65.7999 L347,55.7999 " fill="#FBFB77" style="stroke:#A80036;stroke-width:1.0;"/><text fill="#000000" font-family="sans-serif" font-size="13" lengthAdjust="spacing" textLength="18" x="324" y="72.8769">Init</text><polygon fill="#A80036" points="60.5,109.95,50.5,113.95,60.5,117.95,56.5,113.95" style="stroke:#A80036;stroke-width:1.0;"/><line style="stroke:#A80036;stroke-width:1.0;" x1="54.5" x2="338.5" y1="113.95" y2="113.95"/><text fill="#000000" font-family="sans-serif" font-size="13" lengthAdjust="spacing" textLength="73" x="66.5" y="108.427">Subscribe to</text><text fill="#000000" font-family="sans-serif" font-size="13" font-style="italic" lengthAdjust="spacing" textLength="109" x="143.5" y="108.7">ucl/SmartStart/List</text><polygon fill="#A80036" points="327.5,141.5,337.5,145.5,327.5,149.5,331.5,145.5" style="stroke:#A80036;stroke-width:1.0;"/><line style="stroke:#A80036;stroke-width:1.0;" x1="49.5" x2="333.5" y1="145.5" y2="145.5"/><text fill="#000000" font-family="sans-serif" font-size="13" lengthAdjust="spacing" textLength="87" x="56.5" y="139.977">onMqttPublish(</text><text fill="#000000" font-family="sans-serif" font-size="13" font-style="italic" lengthAdjust="spacing" textLength="109" x="143.5" y="140.25">ucl/SmartStart/List</text><text fill="#000000" font-family="sans-serif" font-size="13" lengthAdjust="spacing" textLength="4" x="252.5" y="139.977">)</text><path d="M254,158.5 L254,183.5 L421,183.5 L421,168.5 L411,158.5 L254,158.5 " fill="#FBFB77" filter="url(#f1p07s55zactn6)" style="stroke:#A80036;stroke-width:1.0;"/><path d="M411,158.5 L411,168.5 L421,168.5 L411,158.5 " fill="#FBFB77" style="stroke:#A80036;stroke-width:1.0;"/><text fill="#000000" font-family="sans-serif" font-size="13" lengthAdjust="spacing" textLength="146" x="260" y="175.577">Update smartstart_cache</text><polygon fill="#A80036" points="564.5,210.7,574.5,214.7,564.5,218.7,568.5,214.7" style="stroke:#A80036;stroke-width:1.0;"/><line style="stroke:#A80036;stroke-width:1.0;" x1="339.5" x2="570.5" y1="214.7" y2="214.7"/><text fill="#000000" font-family="sans-serif" font-size="13" lengthAdjust="spacing" textLength="180" x="346.5" y="209.177">on_smartstart_state_changed()</text><path d="M426,227.7 L426,252.7 L723,252.7 L723,237.7 L713,227.7 L426,227.7 " fill="#FBFB77" filter="url(#f1p07s55zactn6)" style="stroke:#A80036;stroke-width:1.0;"/><path d="M713,227.7 L713,237.7 L723,237.7 L713,227.7 " fill="#FBFB77" style="stroke:#A80036;stroke-width:1.0;"/><text fill="#000000" font-family="sans-serif" font-size="13" lengthAdjust="spacing" textLength="276" x="432" y="244.777">Enable/Disable Inclusion of SmartStart Devices</text><text fill="#000000" font-family="sans-serif" font-size="11" lengthAdjust="spacing" textLength="66" x="280" y="286.5189">Time goes by</text><path d="M10,310.4999 L283,310.4999 L283,317.4999 L273,327.4999 L10,327.4999 L10,310.4999 " fill="#EEEEEE" style="stroke:#000000;stroke-width:1.0;"/><rect fill="none" height="289.9001" style="stroke:#000000;stroke-width:2.0;" width="734" x="10" y="310.4999"/><text fill="#000000" font-family="sans-serif" font-size="13" font-weight="bold" lengthAdjust="spacing" textLength="228" x="25" y="323.5769">Node Added from ProtocolController</text><path d="M482,333.0999 L482,358.0999 L666,358.0999 L666,343.0999 L656,333.0999 L482,333.0999 " fill="#FBFB77" filter="url(#f1p07s55zactn6)" style="stroke:#A80036;stroke-width:1.0;"/><path d="M656,333.0999 L656,343.0999 L666,343.0999 L656,333.0999 " fill="#FBFB77" style="stroke:#A80036;stroke-width:1.0;"/><text fill="#000000" font-family="sans-serif" font-size="13" lengthAdjust="spacing" textLength="163" x="488" y="350.1769">Node added with SmartStart</text><polygon fill="#A80036" points="350.5,385.3,340.5,389.3,350.5,393.3,346.5,389.3" style="stroke:#A80036;stroke-width:1.0;"/><line style="stroke:#A80036;stroke-width:1.0;" x1="344.5" x2="575.5" y1="389.3" y2="389.3"/><text fill="#000000" font-family="sans-serif" font-size="13" lengthAdjust="spacing" textLength="128" x="356.5" y="383.777">get_cache_entry(unid)</text><path d="M419,402.3 L419,427.3 L730,427.3 L730,412.3 L720,402.3 L419,402.3 " fill="#FBFB77" filter="url(#f1p07s55zactn6)" style="stroke:#A80036;stroke-width:1.0;"/><path d="M720,402.3 L720,412.3 L730,412.3 L720,402.3 " fill="#FBFB77" style="stroke:#A80036;stroke-width:1.0;"/><text fill="#000000" font-family="sans-serif" font-size="13" lengthAdjust="spacing" textLength="290" x="425" y="419.377">If node is found in cache continue to add the node</text><polygon fill="#A80036" points="350.5,454.5,340.5,458.5,350.5,462.5,346.5,458.5" style="stroke:#A80036;stroke-width:1.0;"/><line style="stroke:#A80036;stroke-width:1.0;" x1="344.5" x2="575.5" y1="458.5" y2="458.5"/><text fill="#000000" font-family="sans-serif" font-size="13" lengthAdjust="spacing" textLength="170" x="356.5" y="452.977">notify_node_added(key, unid)</text><polygon fill="#A80036" points="60.5,517.25,50.5,521.25,60.5,525.25,56.5,521.25" style="stroke:#A80036;stroke-width:1.0;"/><line style="stroke:#A80036;stroke-width:1.0;" x1="54.5" x2="338.5" y1="521.25" y2="521.25"/><text fill="#000000" font-family="sans-serif" font-size="13" lengthAdjust="spacing" textLength="47" x="66.5" y="484.527">Publish(</text><text fill="#000000" font-family="sans-serif" font-size="13" font-style="italic" lengthAdjust="spacing" textLength="154" x="113.5" y="484.8">ucl/SmartStart/List/Update</text><text fill="#000000" font-family="sans-serif" font-size="13" lengthAdjust="spacing" textLength="37" x="267.5" y="484.527">, data)</text><text fill="#000000" font-family="sans-serif" font-size="13" lengthAdjust="spacing" textLength="266" x="66.5" y="500.127">data contains the updated    SmartStart entry,</text><text fill="#000000" font-family="sans-serif" font-size="13" lengthAdjust="spacing" textLength="118" x="66.5" y="515.727">that has been added</text><polygon fill="#A80036" points="327.5,548.8,337.5,552.8,327.5,556.8,331.5,552.8" style="stroke:#A80036;stroke-width:1.0;"/><line style="stroke:#A80036;stroke-width:1.0;" x1="49.5" x2="333.5" y1="552.8" y2="552.8"/><text fill="#000000" font-family="sans-serif" font-size="13" lengthAdjust="spacing" textLength="87" x="56.5" y="547.277">onMqttPublish(</text><text fill="#000000" font-family="sans-serif" font-size="13" font-style="italic" lengthAdjust="spacing" textLength="109" x="143.5" y="547.55">ucl/SmartStart/List</text><text fill="#000000" font-family="sans-serif" font-size="13" lengthAdjust="spacing" textLength="4" x="252.5" y="547.277">)</text><path d="M254,565.8 L254,590.8 L421,590.8 L421,575.8 L411,565.8 L254,565.8 " fill="#FBFB77" filter="url(#f1p07s55zactn6)" style="stroke:#A80036;stroke-width:1.0;"/><path d="M411,565.8 L411,575.8 L421,575.8 L411,565.8 " fill="#FBFB77" style="stroke:#A80036;stroke-width:1.0;"/><text fill="#000000" font-family="sans-serif" font-size="13" lengthAdjust="spacing" textLength="146" x="260" y="582.877">Update smartstart_cache</text><path d="M10,614.4001 L301,614.4001 L301,621.4001 L291,631.4001 L10,631.4001 L10,614.4001 " fill="#EEEEEE" style="stroke:#000000;stroke-width:1.0;"/><rect fill="none" height="220.7001" style="stroke:#000000;stroke-width:2.0;" width="718.5" x="10" y="614.4001"/><text fill="#000000" font-family="sans-serif" font-size="13" font-weight="bold" lengthAdjust="spacing" textLength="246" x="25" y="627.4771">Node Removed from ProtocolController</text><path d="M479,637.0001 L479,662.0001 L670,662.0001 L670,647.0001 L660,637.0001 L479,637.0001 " fill="#FBFB77" filter="url(#f1p07s55zactn6)" style="stroke:#A80036;stroke-width:1.0;"/><path d="M660,637.0001 L660,647.0001 L670,647.0001 L660,637.0001 " fill="#FBFB77" style="stroke:#A80036;stroke-width:1.0;"/><text fill="#000000" font-family="sans-serif" font-size="13" lengthAdjust="spacing" textLength="170" x="485" y="654.0771">Node Removed from Network</text><polygon fill="#A80036" points="350.5,689.2001,340.5,693.2001,350.5,697.2001,346.5,693.2001" style="stroke:#A80036;stroke-width:1.0;"/><line style="stroke:#A80036;stroke-width:1.0;" x1="344.5" x2="575.5" y1="693.2001" y2="693.2001"/><text fill="#000000" font-family="sans-serif" font-size="13" lengthAdjust="spacing" textLength="156" x="356.5" y="687.6771">notify_node_removed(unid)</text><polygon fill="#A80036" points="60.5,751.9501,50.5,755.9501,60.5,759.9501,56.5,755.9501" style="stroke:#A80036;stroke-width:1.0;"/><line style="stroke:#A80036;stroke-width:1.0;" x1="54.5" x2="338.5" y1="755.9501" y2="755.9501"/><text fill="#000000" font-family="sans-serif" font-size="13" lengthAdjust="spacing" textLength="47" x="66.5" y="719.2271">Publish(</text><text fill="#000000" font-family="sans-serif" font-size="13" font-style="italic" lengthAdjust="spacing" textLength="154" x="113.5" y="719.5001">ucl/SmartStart/List/Update</text><text fill="#000000" font-family="sans-serif" font-size="13" lengthAdjust="spacing" textLength="37" x="267.5" y="719.2271">, data)</text><text fill="#000000" font-family="sans-serif" font-size="13" lengthAdjust="spacing" textLength="266" x="66.5" y="734.8271">data contains the updated    SmartStart entry,</text><text fill="#000000" font-family="sans-serif" font-size="13" lengthAdjust="spacing" textLength="133" x="66.5" y="750.4271">that has been removed</text><polygon fill="#A80036" points="327.5,783.5001,337.5,787.5001,327.5,791.5001,331.5,787.5001" style="stroke:#A80036;stroke-width:1.0;"/><line style="stroke:#A80036;stroke-width:1.0;" x1="49.5" x2="333.5" y1="787.5001" y2="787.5001"/><text fill="#000000" font-family="sans-serif" font-size="13" lengthAdjust="spacing" textLength="87" x="56.5" y="781.9771">onMqttPublish(</text><text fill="#000000" font-family="sans-serif" font-size="13" font-style="italic" lengthAdjust="spacing" textLength="109" x="143.5" y="782.2501">ucl/SmartStart/List</text><text fill="#000000" font-family="sans-serif" font-size="13" lengthAdjust="spacing" textLength="4" x="252.5" y="781.9771">)</text><path d="M254,800.5001 L254,825.5001 L421,825.5001 L421,810.5001 L411,800.5001 L254,800.5001 " fill="#FBFB77" filter="url(#f1p07s55zactn6)" style="stroke:#A80036;stroke-width:1.0;"/><path d="M411,800.5001 L411,810.5001 L421,810.5001 L411,800.5001 " fill="#FBFB77" style="stroke:#A80036;stroke-width:1.0;"/><text fill="#000000" font-family="sans-serif" font-size="13" lengthAdjust="spacing" textLength="146" x="260" y="817.5772">Update smartstart_cache</text><path d="M10,849.1002 L240,849.1002 L240,856.1002 L230,866.1002 L10,866.1002 L10,849.1002 " fill="#EEEEEE" style="stroke:#000000;stroke-width:1.0;"/><rect fill="none" height="118.3501" style="stroke:#000000;stroke-width:2.0;" width="718.5" x="10" y="849.1002"/><text fill="#000000" font-family="sans-serif" font-size="13" font-weight="bold" lengthAdjust="spacing" textLength="185" x="25" y="862.1772">Node Added in SmartStartList</text><polygon fill="#A80036" points="327.5,886.2502,337.5,890.2502,327.5,894.2502,331.5,890.2502" style="stroke:#A80036;stroke-width:1.0;"/><line style="stroke:#A80036;stroke-width:1.0;" x1="49.5" x2="333.5" y1="890.2502" y2="890.2502"/><text fill="#000000" font-family="sans-serif" font-size="13" lengthAdjust="spacing" textLength="87" x="56.5" y="884.7272">onMqttPublish(</text><text fill="#000000" font-family="sans-serif" font-size="13" font-style="italic" lengthAdjust="spacing" textLength="109" x="143.5" y="885.0002">ucl/SmartStart/List</text><text fill="#000000" font-family="sans-serif" font-size="13" lengthAdjust="spacing" textLength="4" x="252.5" y="884.7272">)</text><path d="M254,903.2502 L254,928.2502 L421,928.2502 L421,913.2502 L411,903.2502 L254,903.2502 " fill="#FBFB77" filter="url(#f1p07s55zactn6)" style="stroke:#A80036;stroke-width:1.0;"/><path d="M411,903.2502 L411,913.2502 L421,913.2502 L411,903.2502 " fill="#FBFB77" style="stroke:#A80036;stroke-width:1.0;"/><text fill="#000000" font-family="sans-serif" font-size="13" lengthAdjust="spacing" textLength="146" x="260" y="920.3272">Update smartstart_cache</text><polygon fill="#A80036" points="564.5,955.4502,574.5,959.4502,564.5,963.4502,568.5,959.4502" style="stroke:#A80036;stroke-width:1.0;"/><line style="stroke:#A80036;stroke-width:1.0;" x1="339.5" x2="570.5" y1="959.4502" y2="959.4502"/><text fill="#000000" font-family="sans-serif" font-size="13" lengthAdjust="spacing" textLength="180" x="346.5" y="953.9272">on_smartstart_state_changed()</text><path d="M10,981.4502 L301,981.4502 L301,988.4502 L291,998.4502 L10,998.4502 L10,981.4502 " fill="#EEEEEE" style="stroke:#000000;stroke-width:1.0;"/><rect fill="none" height="118.3501" style="stroke:#000000;stroke-width:2.0;" width="718.5" x="10" y="981.4502"/><text fill="#000000" font-family="sans-serif" font-size="13" font-weight="bold" lengthAdjust="spacing" textLength="246" x="25" y="994.5272">Node Removed from ProtocolController</text><polygon fill="#A80036" points="327.5,1018.6002,337.5,1022.6002,327.5,1026.6002,331.5,1022.6002" style="stroke:#A80036;stroke-width:1.0;"/><line style="stroke:#A80036;stroke-width:1.0;" x1="49.5" x2="333.5" y1="1022.6002" y2="1022.6002"/><text fill="#000000" font-family="sans-serif" font-size="13" lengthAdjust="spacing" textLength="87" x="56.5" y="1017.0772">onMqttPublish(</text><text fill="#000000" font-family="sans-serif" font-size="13" font-style="italic" lengthAdjust="spacing" textLength="109" x="143.5" y="1017.3502">ucl/SmartStart/List</text><text fill="#000000" font-family="sans-serif" font-size="13" lengthAdjust="spacing" textLength="4" x="252.5" y="1017.0772">)</text><path d="M254,1035.6002 L254,1060.6002 L421,1060.6002 L421,1045.6002 L411,1035.6002 L254,1035.6002 " fill="#FBFB77" filter="url(#f1p07s55zactn6)" style="stroke:#A80036;stroke-width:1.0;"/><path d="M411,1035.6002 L411,1045.6002 L421,1045.6002 L411,1035.6002 " fill="#FBFB77" style="stroke:#A80036;stroke-width:1.0;"/><text fill="#000000" font-family="sans-serif" font-size="13" lengthAdjust="spacing" textLength="146" x="260" y="1052.6773">Update smartstart_cache</text><polygon fill="#A80036" points="564.5,1087.8003,574.5,1091.8003,564.5,1095.8003,568.5,1091.8003" style="stroke:#A80036;stroke-width:1.0;"/><line style="stroke:#A80036;stroke-width:1.0;" x1="339.5" x2="570.5" y1="1091.8003" y2="1091.8003"/><text fill="#000000" font-family="sans-serif" font-size="13" lengthAdjust="spacing" textLength="180" x="346.5" y="1086.2773">on_smartstart_state_changed()</text><!--MD5=[d1936df1769dda65f4a8428719d2ba50]
@startuml inline_umlgraph_25.svg
participant MQTT
participant SmartStartManagement as SSM
participant ProtocolControllerSmartStartManagement as PCSSM

note over SSM: Init
SSM         -> MQTT : Subscribe to <i>ucl/SmartStart/List</i>
MQTT        -> SSM  : onMqttPublish(<i>ucl/SmartStart/List</i>)
note over SSM       : Update smartstart_cache
SSM         -> PCSSM: on_smartstart_state_changed()
note over PCSSM : Enable/Disable Inclusion of SmartStart Devices
... Time goes by ...
group Node Added from ProtocolController
  note over PCSSM   : Node added with SmartStart
  PCSSM     -> SSM  : get_cache_entry(unid)
  note over PCSSM   : If node is found in cache continue to add the node
  PCSSM     -> SSM  : notify_node_added(key, unid)
  SSM       -> MQTT : Publish(<i>ucl/SmartStart/List/Update</i>, data)\ndata contains the updated    SmartStart entry,\nthat has been added
  MQTT        -> SSM  : onMqttPublish(<i>ucl/SmartStart/List</i>)
  note over SSM       : Update smartstart_cache
end
group Node Removed from ProtocolController
  note over PCSSM   : Node Removed from Network
  PCSSM     -> SSM  : notify_node_removed(unid)
  SSM       -> MQTT : Publish(<i>ucl/SmartStart/List/Update</i>, data)\ndata contains the updated    SmartStart entry,\nthat has been removed
  MQTT        -> SSM  : onMqttPublish(<i>ucl/SmartStart/List</i>)
  note over SSM       : Update smartstart_cache
end

group Node Added in SmartStartList
  MQTT      -> SSM  : onMqttPublish(<i>ucl/SmartStart/List</i>)
  note over SSM     : Update smartstart_cache
  SSM       -> PCSSM: on_smartstart_state_changed()
end
group Node Removed from ProtocolController
  MQTT      -> SSM  : onMqttPublish(<i>ucl/SmartStart/List</i>)
  note over SSM     : Update smartstart_cache
  SSM       -> PCSSM: on_smartstart_state_changed()
end
@enduml

PlantUML version 1.2022.0(Tue Jan 11 16:16:42 UTC 2022)
(GPL source distribution)
Java Runtime: OpenJDK Runtime Environment
JVM: OpenJDK 64-Bit Server VM
Default Encoding: ANSI_X3.4-1968
Language: en
Country: US
--></g></svg>