<?xml version="1.0" encoding="UTF-8" standalone="no"?><svg xmlns="http://www.w3.org/2000/svg" xmlns:xlink="http://www.w3.org/1999/xlink" contentScriptType="application/ecmascript" contentStyleType="text/css" height="502px" preserveAspectRatio="none" style="width:591px;height:502px;background:#FFFFFF;" version="1.1" viewBox="0 0 591 502" width="591px" zoomAndPan="magnify"><defs><filter height="300%" id="fosocyv226enh" width="300%" x="-1" y="-1"><feGaussianBlur result="blurOut" stdDeviation="2.0"/><feColorMatrix in="blurOut" result="blurOut2" type="matrix" values="0 0 0 0 0 0 0 0 0 0 0 0 0 0 0 0 0 0 .4 0"/><feOffset dx="4.0" dy="4.0" in="blurOut2" result="blurOut3"/><feBlend in="SourceGraphic" in2="blurOut3" mode="normal"/></filter></defs><g><text fill="#000000" font-family="sans-serif" font-size="18" lengthAdjust="spacing" textLength="386" x="100.25" y="28.7219">Z-Wave node interview detection and monitoring</text><rect fill="#ADD8E6" height="447.6001" style="stroke:#A80036;stroke-width:1.0;" width="130" x="455.5" y="41.5999"/><text fill="#000000" font-family="sans-serif" font-size="13" font-weight="bold" lengthAdjust="spacing" textLength="26" x="507.5" y="53.6769">ZPC</text><rect fill="#FFFFFF" filter="url(#fosocyv226enh)" height="79.8" style="stroke:#A80036;stroke-width:1.0;" width="10" x="515.5" y="106.9998"/><rect fill="#FFFFFF" filter="url(#fosocyv226enh)" height="90.4001" style="stroke:#A80036;stroke-width:1.0;" width="10" x="515.5" y="244.3999"/><line style="stroke:#A80036;stroke-width:1.0;" x1="70" x2="70" y1="96.9998" y2="194.7998"/><line style="stroke:#A80036;stroke-width:1.0;stroke-dasharray:1.0,4.0;" x1="70" x2="70" y1="194.7998" y2="222.7998"/><line style="stroke:#A80036;stroke-width:1.0;" x1="70" x2="70" y1="222.7998" y2="342.7999"/><line style="stroke:#A80036;stroke-width:1.0;stroke-dasharray:1.0,4.0;" x1="70" x2="70" y1="342.7999" y2="370.7999"/><line style="stroke:#A80036;stroke-width:1.0;" x1="70" x2="70" y1="370.7999" y2="495.2"/><line style="stroke:#A80036;stroke-width:1.0;" x1="200" x2="200" y1="96.9998" y2="194.7998"/><line style="stroke:#A80036;stroke-width:1.0;stroke-dasharray:1.0,4.0;" x1="200" x2="200" y1="194.7998" y2="222.7998"/><line style="stroke:#A80036;stroke-width:1.0;" x1="200" x2="200" y1="222.7998" y2="342.7999"/><line style="stroke:#A80036;stroke-width:1.0;stroke-dasharray:1.0,4.0;" x1="200" x2="200" y1="342.7999" y2="370.7999"/><line style="stroke:#A80036;stroke-width:1.0;" x1="200" x2="200" y1="370.7999" y2="495.2"/><line style="stroke:#A80036;stroke-width:1.0;" x1="520.5" x2="520.5" y1="96.9998" y2="194.7998"/><line style="stroke:#A80036;stroke-width:1.0;stroke-dasharray:1.0,4.0;" x1="520.5" x2="520.5" y1="194.7998" y2="222.7998"/><line style="stroke:#A80036;stroke-width:1.0;" x1="520.5" x2="520.5" y1="222.7998" y2="342.7999"/><line style="stroke:#A80036;stroke-width:1.0;stroke-dasharray:1.0,4.0;" x1="520.5" x2="520.5" y1="342.7999" y2="370.7999"/><line style="stroke:#A80036;stroke-width:1.0;" x1="520.5" x2="520.5" y1="370.7999" y2="495.2"/><rect fill="#FEFECE" filter="url(#fosocyv226enh)" height="30.7999" style="stroke:#A80036;stroke-width:1.5;" width="127" x="5" y="61.1999"/><text fill="#000000" font-family="sans-serif" font-size="14" lengthAdjust="spacing" textLength="113" x="12" y="81.2058">Attribute Resolver</text><rect fill="#FEFECE" filter="url(#fosocyv226enh)" height="30.7999" style="stroke:#A80036;stroke-width:1.5;" width="105" x="146" y="61.1999"/><text fill="#000000" font-family="sans-serif" font-size="14" lengthAdjust="spacing" textLength="91" x="153" y="81.2058">Attribute Store</text><rect fill="#FEFECE" filter="url(#fosocyv226enh)" height="30.7999" style="stroke:#A80036;stroke-width:1.5;" width="118" x="459.5" y="61.1999"/><text fill="#000000" font-family="sans-serif" font-size="14" lengthAdjust="spacing" textLength="104" x="466.5" y="81.2058">Network Monitor</text><rect fill="#FFFFFF" filter="url(#fosocyv226enh)" height="79.8" style="stroke:#A80036;stroke-width:1.0;" width="10" x="515.5" y="106.9998"/><rect fill="#FFFFFF" filter="url(#fosocyv226enh)" height="90.4001" style="stroke:#A80036;stroke-width:1.0;" width="10" x="515.5" y="244.3999"/><line style="stroke:#A80036;stroke-width:1.0;" x1="525.5" x2="567.5" y1="128.5998" y2="128.5998"/><line style="stroke:#A80036;stroke-width:1.0;" x1="567.5" x2="567.5" y1="128.5998" y2="141.5998"/><line style="stroke:#A80036;stroke-width:1.0;" x1="526.5" x2="567.5" y1="141.5998" y2="141.5998"/><polygon fill="#A80036" points="536.5,137.5998,526.5,141.5998,536.5,145.5998,532.5,141.5998" style="stroke:#A80036;stroke-width:1.0;"/><text fill="#000000" font-family="sans-serif" font-size="13" lengthAdjust="spacing" textLength="18" x="532.5" y="123.0768">Init</text><polygon fill="#A80036" points="211.5,182.7998,201.5,186.7998,211.5,190.7998,207.5,186.7998" style="stroke:#A80036;stroke-width:1.0;"/><line style="stroke:#A80036;stroke-width:1.0;" x1="205.5" x2="519.5" y1="186.7998" y2="186.7998"/><text fill="#000000" font-family="sans-serif" font-size="13" lengthAdjust="spacing" textLength="209" x="217.5" y="165.6768">Register callback for NIFs attributes</text><text fill="#000000" font-family="sans-serif" font-size="13" lengthAdjust="spacing" textLength="198" x="217.5" y="181.2768">network_monitor_on_nif_updated()</text><polygon fill="#A80036" points="503.5,240.3999,513.5,244.3999,503.5,248.3999,507.5,244.3999" style="stroke:#A80036;stroke-width:1.0;"/><line style="stroke:#A80036;stroke-width:1.0;" x1="200.5" x2="509.5" y1="244.3999" y2="244.3999"/><text fill="#000000" font-family="sans-serif" font-size="13" lengthAdjust="spacing" textLength="198" x="207.5" y="238.8769">network_monitor_on_nif_updated()</text><polygon fill="#A80036" points="211.5,285.5999,201.5,289.5999,211.5,293.5999,207.5,289.5999" style="stroke:#A80036;stroke-width:1.0;"/><line style="stroke:#A80036;stroke-width:1.0;" x1="205.5" x2="514.5" y1="289.5999" y2="289.5999"/><text fill="#000000" font-family="sans-serif" font-size="13" lengthAdjust="spacing" textLength="287" x="217.5" y="268.4769">Update the ATTRIBUTE_NETWORK_STATUS to</text><text fill="#000000" font-family="sans-serif" font-size="13" lengthAdjust="spacing" textLength="237" x="217.5" y="284.0769">NODE_STATE_TOPIC_INTERVIEWING</text><polygon fill="#A80036" points="81.5,330.7999,71.5,334.7999,81.5,338.7999,77.5,334.7999" style="stroke:#A80036;stroke-width:1.0;"/><line style="stroke:#A80036;stroke-width:1.0;" x1="75.5" x2="519.5" y1="334.7999" y2="334.7999"/><text fill="#000000" font-family="sans-serif" font-size="13" lengthAdjust="spacing" textLength="182" x="87.5" y="313.6769">Register listener for the NodeID</text><text fill="#000000" font-family="sans-serif" font-size="13" lengthAdjust="spacing" textLength="267" x="87.5" y="329.2769">network_monitor_node_id_resolution_listener()</text><path d="M9,375.7999 L9,400.7999 L127,400.7999 L127,385.7999 L117,375.7999 L9,375.7999 " fill="#FBFB77" filter="url(#fosocyv226enh)" style="stroke:#A80036;stroke-width:1.0;"/><path d="M117,375.7999 L117,385.7999 L127,385.7999 L117,375.7999 " fill="#FBFB77" style="stroke:#A80036;stroke-width:1.0;"/><text fill="#000000" font-family="sans-serif" font-size="13" lengthAdjust="spacing" textLength="97" x="15" y="392.8769">Node is resolved</text><polygon fill="#A80036" points="508.5,427.9999,518.5,431.9999,508.5,435.9999,512.5,431.9999" style="stroke:#A80036;stroke-width:1.0;"/><line style="stroke:#A80036;stroke-width:1.0;" x1="70.5" x2="514.5" y1="431.9999" y2="431.9999"/><text fill="#000000" font-family="sans-serif" font-size="13" lengthAdjust="spacing" textLength="267" x="77.5" y="426.4769">network_monitor_node_id_resolution_listener()</text><polygon fill="#A80036" points="211.5,473.2,201.5,477.2,211.5,481.2,207.5,477.2" style="stroke:#A80036;stroke-width:1.0;"/><line style="stroke:#A80036;stroke-width:1.0;" x1="205.5" x2="519.5" y1="477.2" y2="477.2"/><text fill="#000000" font-family="sans-serif" font-size="13" lengthAdjust="spacing" textLength="287" x="217.5" y="456.077">Update the ATTRIBUTE_NETWORK_STATUS to</text><text fill="#000000" font-family="sans-serif" font-size="13" lengthAdjust="spacing" textLength="256" x="217.5" y="471.677">NODE_STATE_TOPIC_STATE_INCLUDED</text><!--MD5=[973f65d6370ee535be858ee232a12750]
@startuml inline_umlgraph_2.svg
  hide footbox
  title Z-Wave node interview detection and monitoring
  participant "Attribute Resolver" as AttributeResolver
  participant "Attribute Store" as AttributeStore
  box "ZPC" #LightBlue
  participant "Network Monitor" as NetworkMonitor
  end box

  activate NetworkMonitor
  NetworkMonitor -> NetworkMonitor: Init
  NetworkMonitor -> AttributeStore: Register callback for NIFs attributes\nnetwork_monitor_on_nif_updated()
  deactivate NetworkMonitor
  ...
  AttributeStore        -> NetworkMonitor       : network_monitor_on_nif_updated()
  activate NetworkMonitor
  NetworkMonitor        -> AttributeStore       : Update the ATTRIBUTE_NETWORK_STATUS to \nNODE_STATE_TOPIC_INTERVIEWING
  NetworkMonitor        -> AttributeResolver    : Register listener for the NodeID\nnetwork_monitor_node_id_resolution_listener()
  deactivate NetworkMonitor
  ...
  note over AttributeResolver: Node is resolved
  AttributeResolver     -> NetworkMonitor       : network_monitor_node_id_resolution_listener()
  NetworkMonitor        -> AttributeStore       : Update the ATTRIBUTE_NETWORK_STATUS to \nNODE_STATE_TOPIC_STATE_INCLUDED
@enduml

PlantUML version 1.2022.0(Tue Jan 11 16:16:42 UTC 2022)
(GPL source distribution)
Java Runtime: OpenJDK Runtime Environment
JVM: OpenJDK 64-Bit Server VM
Default Encoding: ANSI_X3.4-1968
Language: en
Country: US
--></g></svg>