<?xml version="1.0" encoding="UTF-8" standalone="no"?><svg xmlns="http://www.w3.org/2000/svg" xmlns:xlink="http://www.w3.org/1999/xlink" contentScriptType="application/ecmascript" contentStyleType="text/css" height="572px" preserveAspectRatio="none" style="width:1162px;height:572px;background:#FFFFFF;" version="1.1" viewBox="0 0 1162 572" width="1162px" zoomAndPan="magnify"><defs><filter height="300%" id="f4fl4c2hed670" width="300%" x="-1" y="-1"><feGaussianBlur result="blurOut" stdDeviation="2.0"/><feColorMatrix in="blurOut" result="blurOut2" type="matrix" values="0 0 0 0 0 0 0 0 0 0 0 0 0 0 0 0 0 0 .4 0"/><feOffset dx="4.0" dy="4.0" in="blurOut2" result="blurOut3"/><feBlend in="SourceGraphic" in2="blurOut3" mode="normal"/></filter></defs><g><text fill="#000000" font-family="sans-serif" font-size="18" lengthAdjust="spacing" textLength="352" x="398.5" y="16.7219">The anatomy of a Node (Endpoint) interview</text><rect fill="#DDDDDD" height="60.3998" rx="5" ry="5" style="stroke:#000000;stroke-width:1.0;" width="156" x="496" y="29.5999"/><text fill="#118648" font-family="sans-serif" font-size="14" lengthAdjust="spacing" textLength="18" x="502" y="47.6058">--&gt;</text><text fill="#000000" font-family="sans-serif" font-size="14" lengthAdjust="spacing" textLength="116" x="524" y="47.6058">Listens to updates</text><text fill="#7D2508" font-family="sans-serif" font-size="14" lengthAdjust="spacing" textLength="26" x="502" y="64.4057">&lt;--&gt;</text><text fill="#000000" font-family="sans-serif" font-size="14" lengthAdjust="spacing" textLength="114" x="532" y="64.4057">Resolves attribute</text><text fill="#7E770A" font-family="sans-serif" font-size="14" lengthAdjust="spacing" textLength="18" x="502" y="81.2057">&lt;--</text><text fill="#000000" font-family="sans-serif" font-size="14" lengthAdjust="spacing" textLength="106" x="524" y="81.2057">Creates attribute</text><!--MD5=[b65261aef118fb2a779de7bafa1033ab]
cluster Another Component--><polygon fill="#FFFFFF" filter="url(#f4fl4c2hed670)" points="16,470.9996,161,470.9996,168,493.7996,182,493.7996,182,559.9996,16,559.9996,16,470.9996" style="stroke:#000000;stroke-width:1.5;"/><line style="stroke:#000000;stroke-width:1.5;" x1="16" x2="168" y1="493.7996" y2="493.7996"/><text fill="#000000" font-family="sans-serif" font-size="14" font-weight="bold" lengthAdjust="spacing" textLength="139" x="20" y="486.0056">Another Component</text><!--MD5=[ea3d5de2a0d35296bc751d5a1b771698]
cluster Attribute Store--><path d="M212,114.9996 C212,104.9996 647.5,104.9996 647.5,104.9996 C647.5,104.9996 1083,104.9996 1083,114.9996 L1083,430.9996 C1083,440.9996 647.5,440.9996 647.5,440.9996 C647.5,440.9996 212,440.9996 212,430.9996 L212,114.9996 " fill="#FFFFFF" filter="url(#f4fl4c2hed670)" style="stroke:#000000;stroke-width:1.5;"/><path d="M212,114.9996 C212,124.9996 647.5,124.9996 647.5,124.9996 C647.5,124.9996 1083,124.9996 1083,114.9996 " fill="none" style="stroke:#000000;stroke-width:1.5;"/><text fill="#000000" font-family="sans-serif" font-size="14" font-weight="bold" lengthAdjust="spacing" textLength="100" x="597.5" y="140.0056">Attribute Store</text><!--MD5=[fc38b25e0dadf8f7ce1177fb49ab4991]
cluster Z-Wave NIF Resolver--><polygon fill="#FFFFFF" filter="url(#f4fl4c2hed670)" points="206,464.9996,354,464.9996,361,487.7996,610,487.7996,610,565.9996,206,565.9996,206,464.9996" style="stroke:#000000;stroke-width:1.5;"/><line style="stroke:#000000;stroke-width:1.5;" x1="206" x2="361" y1="487.7996" y2="487.7996"/><text fill="#000000" font-family="sans-serif" font-size="14" font-weight="bold" lengthAdjust="spacing" textLength="142" x="210" y="480.0056">Z-Wave NIF Resolver</text><!--MD5=[f19fed1edcd566d25c8408c335b03061]
cluster Version Command Class handler--><polygon fill="#FFFFFF" filter="url(#f4fl4c2hed670)" points="634,464.9996,863,464.9996,870,487.7996,1145,487.7996,1145,565.9996,634,565.9996,634,464.9996" style="stroke:#000000;stroke-width:1.5;"/><line style="stroke:#000000;stroke-width:1.5;" x1="634" x2="870" y1="487.7996" y2="487.7996"/><text fill="#000000" font-family="sans-serif" font-size="14" font-weight="bold" lengthAdjust="spacing" textLength="223" x="638" y="480.0056">Version Command Class handler</text><rect fill="#FEFECE" filter="url(#f4fl4c2hed670)" height="38.4001" style="stroke:#000000;stroke-width:1.5;" width="134" x="32" y="505.9996"/><text fill="#000000" font-family="sans-serif" font-size="12" lengthAdjust="spacing" textLength="107" x="45.5" y="519.1477">Another component</text><line style="stroke:#000000;stroke-width:1.5;" x1="33" x2="165" y1="524.3997" y2="524.3997"/><text fill="#000000" font-family="sans-serif" font-size="10" lengthAdjust="spacing" textLength="122" x="38" y="537.6897">Wants an interview to start</text><rect fill="#F2FFE6" filter="url(#f4fl4c2hed670)" height="50.4001" style="stroke:#000000;stroke-width:1.5;" width="196" x="530" y="154.9996"/><text fill="#000000" font-family="sans-serif" font-size="12" lengthAdjust="spacing" textLength="42" x="607" y="168.1477">NodeID</text><line style="stroke:#000000;stroke-width:1.5;" x1="531" x2="725" y1="173.3997" y2="173.3997"/><text fill="#000000" font-family="sans-serif" font-size="10" lengthAdjust="spacing" textLength="184" x="536" y="186.6897">Attribute Type = ATTRIBUTE_NODE_ID</text><text fill="#000000" font-family="sans-serif" font-size="10" lengthAdjust="spacing" textLength="157" x="536" y="198.6897">value = Desired: [], Reported: [03]</text><rect fill="#E6FFF7" filter="url(#f4fl4c2hed670)" height="50.4001" style="stroke:#000000;stroke-width:1.5;" width="219" x="228.5" y="264.9996"/><text fill="#000000" font-family="sans-serif" font-size="12" lengthAdjust="spacing" textLength="97" x="289.5" y="278.1477">Endpoint Attribute</text><line style="stroke:#000000;stroke-width:1.5;" x1="229.5" x2="446.5" y1="283.3997" y2="283.3997"/><text fill="#000000" font-family="sans-serif" font-size="10" lengthAdjust="spacing" textLength="207" x="234.5" y="296.6897">Attribute Type = ATTRIBUTE_ENDPOINT_ID</text><text fill="#000000" font-family="sans-serif" font-size="10" lengthAdjust="spacing" textLength="160" x="234.5" y="308.6897">value = Desired: [] - Reported: [04]</text><rect fill="#E8EAF6" filter="url(#f4fl4c2hed670)" height="50.4001" style="stroke:#000000;stroke-width:1.5;" width="291" x="482.5" y="264.9996"/><text fill="#000000" font-family="sans-serif" font-size="12" lengthAdjust="spacing" textLength="72" x="592" y="278.1477">Granted keys</text><line style="stroke:#000000;stroke-width:1.5;" x1="483.5" x2="772.5" y1="283.3997" y2="283.3997"/><text fill="#000000" font-family="sans-serif" font-size="10" lengthAdjust="spacing" textLength="279" x="488.5" y="296.6897">Attribute Type = ATTRIBUTE_GRANTED_SECURITY_KEYS</text><text fill="#000000" font-family="sans-serif" font-size="10" lengthAdjust="spacing" textLength="160" x="488.5" y="308.6897">value = Desired: [] - Reported: [83]</text><rect fill="#FFFFFF" filter="url(#f4fl4c2hed670)" height="50.4001" style="stroke:#000000;stroke-width:1.5;" width="209" x="231.5" y="374.9996"/><text fill="#000000" font-family="sans-serif" font-size="12" lengthAdjust="spacing" textLength="19" x="326.5" y="388.1477">NIF</text><line style="stroke:#000000;stroke-width:1.5;" x1="232.5" x2="439.5" y1="393.3997" y2="393.3997"/><text fill="#000000" font-family="sans-serif" font-size="10" lengthAdjust="spacing" textLength="197" x="237.5" y="406.6897">Attribute Type = ATTRIBUTE_ZWAVE_NIF</text><text fill="#000000" font-family="sans-serif" font-size="10" lengthAdjust="spacing" textLength="145" x="237.5" y="418.6897">value = Desired: [], Reported: []</text><rect fill="#FFFFFF" filter="url(#f4fl4c2hed670)" height="50.4001" style="stroke:#000000;stroke-width:1.5;" width="257" x="475.5" y="374.9996"/><text fill="#000000" font-family="sans-serif" font-size="12" lengthAdjust="spacing" textLength="61" x="573.5" y="388.1477">Secure NIF</text><line style="stroke:#000000;stroke-width:1.5;" x1="476.5" x2="731.5" y1="393.3997" y2="393.3997"/><text fill="#000000" font-family="sans-serif" font-size="10" lengthAdjust="spacing" textLength="245" x="481.5" y="406.6897">Attribute Type = ATTRIBUTE_SECURE_ZWAVE_NIF</text><text fill="#000000" font-family="sans-serif" font-size="10" lengthAdjust="spacing" textLength="145" x="481.5" y="418.6897">value = Desired: [], Reported: []</text><rect fill="#FFFFFF" filter="url(#f4fl4c2hed670)" height="50.4001" style="stroke:#000000;stroke-width:1.5;" width="258" x="809" y="264.9996"/><text fill="#000000" font-family="sans-serif" font-size="12" lengthAdjust="spacing" textLength="101" x="887.5" y="278.1477">Version CC Found</text><line style="stroke:#000000;stroke-width:1.5;" x1="810" x2="1066" y1="283.3997" y2="283.3997"/><text fill="#000000" font-family="sans-serif" font-size="10" lengthAdjust="spacing" textLength="246" x="815" y="296.6897">Attribute Type = ATTRIBUTE_CC_VERSION_FOUND</text><text fill="#000000" font-family="sans-serif" font-size="10" lengthAdjust="spacing" textLength="145" x="815" y="308.6897">value = Desired: [], Reported: []</text><rect fill="#FEFECE" filter="url(#f4fl4c2hed670)" height="38.4001" style="stroke:#000000;stroke-width:1.5;" width="227" x="222.5" y="505.9996"/><text fill="#000000" font-family="sans-serif" font-size="12" lengthAdjust="spacing" textLength="81" x="295.5" y="519.1477">NIF Resolution</text><line style="stroke:#000000;stroke-width:1.5;" x1="223.5" x2="448.5" y1="524.3997" y2="524.3997"/><text fill="#000000" font-family="sans-serif" font-size="10" lengthAdjust="spacing" textLength="215" x="228.5" y="537.6897">Finds the right command for resolving the NIFs</text><rect fill="#FEFECE" filter="url(#f4fl4c2hed670)" height="50.4001" style="stroke:#000000;stroke-width:1.5;" width="109" x="484.5" y="499.9996"/><text fill="#000000" font-family="sans-serif" font-size="12" lengthAdjust="spacing" textLength="68" x="505" y="513.1477">NIF Updates</text><line style="stroke:#000000;stroke-width:1.5;" x1="485.5" x2="592.5" y1="518.3997" y2="518.3997"/><text fill="#000000" font-family="sans-serif" font-size="10" lengthAdjust="spacing" textLength="97" x="490.5" y="531.6897">Verifies granted keys</text><text fill="#000000" font-family="sans-serif" font-size="10" lengthAdjust="spacing" textLength="86" x="490.5" y="543.6897">Create Secure NIF</text><rect fill="#FEFECE" filter="url(#f4fl4c2hed670)" height="50.4001" style="stroke:#000000;stroke-width:1.5;" width="192" x="650" y="499.9996"/><text fill="#000000" font-family="sans-serif" font-size="12" lengthAdjust="spacing" textLength="68" x="712" y="513.1477">NIF Updates</text><line style="stroke:#000000;stroke-width:1.5;" x1="651" x2="841" y1="518.3997" y2="518.3997"/><text fill="#000000" font-family="sans-serif" font-size="10" lengthAdjust="spacing" textLength="103" x="656" y="531.6897">Search for Version CC</text><text fill="#000000" font-family="sans-serif" font-size="10" lengthAdjust="spacing" textLength="180" x="656" y="543.6897">Create supported CC version attributes</text><rect fill="#FEFECE" filter="url(#f4fl4c2hed670)" height="50.4001" style="stroke:#000000;stroke-width:1.5;" width="252" x="877" y="499.9996"/><text fill="#000000" font-family="sans-serif" font-size="12" lengthAdjust="spacing" textLength="117" x="944.5" y="513.1477">Version found update</text><line style="stroke:#000000;stroke-width:1.5;" x1="878" x2="1128" y1="518.3997" y2="518.3997"/><text fill="#000000" font-family="sans-serif" font-size="10" lengthAdjust="spacing" textLength="210" x="883" y="531.6897">unresolve CC Versions attribute, when added</text><text fill="#000000" font-family="sans-serif" font-size="10" lengthAdjust="spacing" textLength="240" x="883" y="543.6897">set back CC Versions attributes to 1, when removed</text><!--MD5=[95477c314ce472250aabd32546a8a81f]
reverse link node to endpoint--><path codeLine="1754" d="M550.87,209.7296 C504.58,226.9696 446.37,248.6396 402.52,264.9696 " fill="none" id="node-backto-endpoint" style="stroke:#A80036;stroke-width:1.0;"/><polygon fill="#A80036" points="563.28,205.0996,556.2618,203.443,552.0332,209.2842,559.0515,210.9408,563.28,205.0996" style="stroke:#A80036;stroke-width:1.0;"/><!--MD5=[00f2dfa714d7ddd67086c78805db2e60]
reverse link node to granted_keys--><path codeLine="1755" d="M628,218.6096 C628,233.9496 628,251.2396 628,264.8396 " fill="none" id="node-backto-granted_keys" style="stroke:#A80036;stroke-width:1.0;"/><polygon fill="#A80036" points="628,205.2396,624,211.2396,628,217.2396,632,211.2396,628,205.2396" style="stroke:#A80036;stroke-width:1.0;"/><!--MD5=[17251201e8ce9d7773083da4aa1f0f81]
reverse link endpoint to nif--><path codeLine="1756" d="M337.3,328.6096 C337.02,343.9496 336.7,361.2396 336.45,374.8396 " fill="none" id="endpoint-backto-nif" style="stroke:#A80036;stroke-width:1.0;"/><polygon fill="#A80036" points="337.55,315.2396,333.4386,321.1639,337.3259,327.2376,341.4372,321.3133,337.55,315.2396" style="stroke:#A80036;stroke-width:1.0;"/><!--MD5=[707220feda4d310dda61e6ef1139c3bb]
reverse link endpoint to snif--><path codeLine="1757" d="M409.57,320.0596 C451.89,337.2396 504.86,358.7496 544.82,374.9696 " fill="none" id="endpoint-backto-snif" style="stroke:#A80036;stroke-width:1.0;"/><polygon fill="#A80036" points="397.36,315.0996,401.4161,321.0618,408.4798,319.6109,404.4236,313.6487,397.36,315.0996" style="stroke:#A80036;stroke-width:1.0;"/><!--MD5=[b06a32206999eb529e450288589a193a]
reverse link node to version_found--><path codeLine="1758" d="M709.5,209.3996 C759.14,226.6896 821.86,248.5396 869.03,264.9696 " fill="none" id="node-backto-version_found" style="stroke:#A80036;stroke-width:1.0;"/><polygon fill="#A80036" points="697.18,205.0996,701.5277,210.8527,708.5104,209.0521,704.1627,203.2991,697.18,205.0996" style="stroke:#A80036;stroke-width:1.0;"/><!--MD5=[45b3c66052b4f371dafbd4c4b589b969]
reverse link nif to other_component--><path codeLine="1760" d="M270.22,427.0296 C249.37,435.8896 226.43,446.2796 206,456.9996 C177.66,471.8596 146.84,491.5696 125.59,505.7496 " fill="none" id="nif-backto-other_component" style="stroke:#7E770A;stroke-width:1.0;"/><polygon fill="#7E770A" points="274.91,425.0496,265.0626,424.8815,270.3069,427.002,268.1864,432.2464,274.91,425.0496" style="stroke:#7E770A;stroke-width:1.0;"/><!--MD5=[b9468bba2558b67651b0ba69d4d37840]
link nif to nif_resolution--><path codeLine="1762" d="M336,430.1596 C336,451.6496 336,480.4996 336,500.5196 " fill="none" id="nif-nif_resolution" style="stroke:#7D2508;stroke-width:1.0;"/><polygon fill="#7D2508" points="336,505.6596,340,496.6596,336,500.6596,332,496.6596,336,505.6596" style="stroke:#7D2508;stroke-width:1.0;"/><polygon fill="#7D2508" points="336,425.0096,332,434.0096,336,430.0096,340,434.0096,336,425.0096" style="stroke:#7D2508;stroke-width:1.0;"/><!--MD5=[b56a44d80cb3bb4fe8cff757eb42cd53]
link snif to nif_resolution--><path codeLine="1763" d="M537.06,427.0396 C514.61,436.1196 489.56,446.6396 467,456.9996 C435.2,471.5996 399.93,489.7596 374,503.4896 " fill="none" id="snif-nif_resolution" style="stroke:#7D2508;stroke-width:1.0;"/><polygon fill="#7D2508" points="369.27,505.9996,379.0949,505.3136,373.6865,503.6556,375.3445,498.2472,369.27,505.9996" style="stroke:#7D2508;stroke-width:1.0;"/><polygon fill="#7D2508" points="541.8,425.1296,531.9568,424.7949,537.1646,427.0039,534.9556,432.2116,541.8,425.1296" style="stroke:#7D2508;stroke-width:1.0;"/><!--MD5=[9518322d1804e0be46ca7c0ac4760085]
link nif to nif_updates--><path codeLine="1765" d="M404.58,425.0796 C425.4,433.7496 447.82,444.5196 467,456.9996 C483.88,467.9796 500.48,483.0596 513.49,496.1296 " fill="none" id="nif-to-nif_updates" style="stroke:#118648;stroke-width:1.0;"/><polygon fill="#118648" points="517.05,499.7596,513.6075,490.532,513.5504,496.1886,507.8938,496.1314,517.05,499.7596" style="stroke:#118648;stroke-width:1.0;"/><!--MD5=[ef154293f29dbfefd3179e5d453b01f3]
link nif_updates to snif--><path codeLine="1766" d="M551.88,499.6296 C562.51,479.5096 577.62,450.9096 588.84,429.6896 " fill="none" id="nif_updates-to-snif" style="stroke:#7E770A;stroke-width:1.0;"/><polygon fill="#7E770A" points="591.31,425.0096,583.5575,431.0841,588.966,429.4261,590.6239,434.8346,591.31,425.0096" style="stroke:#7E770A;stroke-width:1.0;"/><!--MD5=[f9a9398180196a3891cee59cd0f1ae71]
link nif to version_nif_updates--><path codeLine="1768" d="M386.5,425.0996 C408.04,434.2596 433.75,443.7396 458,448.9996 C524.11,463.3496 544.54,439.9296 610,456.9996 C642.98,465.5996 677.4,482.6496 703.36,497.3896 " fill="none" id="nif-to-version_nif_updates" style="stroke:#118648;stroke-width:1.0;"/><polygon fill="#118648" points="707.78,499.9296,701.956,491.9873,703.4405,497.4459,697.982,498.9304,707.78,499.9296" style="stroke:#118648;stroke-width:1.0;"/><!--MD5=[a82ebae51b3e20f3bf87e3bf31587ece]
link snif to version_nif_updates--><path codeLine="1769" d="M631.72,425.0096 C655.31,445.4496 689.22,474.8196 713.98,496.2596 " fill="none" id="snif-to-version_nif_updates" style="stroke:#118648;stroke-width:1.0;"/><polygon fill="#118648" points="717.87,499.6296,713.6924,490.7107,714.093,496.3534,708.4503,496.754,717.87,499.6296" style="stroke:#118648;stroke-width:1.0;"/><!--MD5=[5df2b56f04156e00ec9cf56155aa6b0e]
link version_nif_updates to version_found--><path codeLine="1770" d="M766,499.7196 C801.85,456.2196 876.82,365.2396 914.84,319.1096 " fill="none" id="version_nif_updates-to-version_found" style="stroke:#7E770A;stroke-width:1.0;"/><polygon fill="#7E770A" points="918.18,315.0596,909.3646,319.4516,914.996,318.9148,915.5328,324.5461,918.18,315.0596" style="stroke:#7E770A;stroke-width:1.0;"/><!--MD5=[35dbcd194b3c354417d83993f9ade053]
link version_found to version_found_update--><path codeLine="1771" d="M944.71,315.0596 C956.73,358.1396 981.88,448.2796 994.86,494.8196 " fill="none" id="version_found-to-version_found_update" style="stroke:#118648;stroke-width:1.0;"/><polygon fill="#118648" points="996.23,499.7196,997.6648,489.9759,994.8866,494.9035,989.959,492.1253,996.23,499.7196" style="stroke:#118648;stroke-width:1.0;"/><!--MD5=[1259d44e7d42849580fa4f558d896a79]
@startuml node_interview_anatomy.svg
title The anatomy of a Node (Endpoint) interview
allow_mixing
skinparam objectBorderColor black

legend top
<font color=#118648>- -></font> Listens to updates
<font color=#7d2508><- -></font> Resolves attribute
<font color=#7e770a><- -</font> Creates attribute
endlegend

package "Another Component" {
  object "Another component" as other_component
  other_component : Wants an interview to start
}

package "Attribute Store" <<Database>> {
  object "NodeID" as node #f2ffe6
  node : Attribute Type = ATTRIBUTE_NODE_ID
  node : value = Desired: [], Reported: [03]

  object "Endpoint Attribute" as endpoint #e6fff7
  endpoint : Attribute Type = ATTRIBUTE_ENDPOINT_ID
  endpoint : value = Desired: [] - Reported: [04]

  object "Granted keys" as granted_keys #E8EAF6
  granted_keys : Attribute Type = ATTRIBUTE_GRANTED_SECURITY_KEYS
  granted_keys : value = Desired: [] - Reported: [83]

  object "NIF" as nif #FFFFFF
  nif : Attribute Type = ATTRIBUTE_ZWAVE_NIF
  nif : value = Desired: [], Reported: []

  object "Secure NIF" as snif #FFFFFF
  snif : Attribute Type = ATTRIBUTE_SECURE_ZWAVE_NIF
  snif : value = Desired: [], Reported: []

  object "Version CC Found" as version_found #FFFFFF
  version_found : Attribute Type = ATTRIBUTE_CC_VERSION_FOUND
  version_found : value = Desired: [], Reported: []
}

package "Z-Wave NIF Resolver" {
  object "NIF Resolution" as nif_resolution
  nif_resolution : Finds the right command for resolving the NIFs

  object "NIF Updates" as nif_updates
  nif_updates : Verifies granted keys
  nif_updates : Create Secure NIF
}


package "Version Command Class handler" {
  object "NIF Updates" as version_nif_updates
  version_nif_updates : Search for Version CC
  version_nif_updates : Create supported CC version attributes

  object "Version found update" as version_found_update
  version_found_update : unresolve CC Versions attribute, when added
  version_found_update : set back CC Versions attributes to 1, when removed
}

node *- - endpoint
node *- - granted_keys
endpoint *- - nif
endpoint *- - snif
node *- - version_found

nif <-[#7e770a]- other_component

nif <-[#7d2508]-> nif_resolution
snif <-[#7d2508]-> nif_resolution

nif -[#118648]-> nif_updates
nif_updates -[#7e770a]-> snif

nif -[#118648]-> version_nif_updates
snif -[#118648]-> version_nif_updates
version_nif_updates -[#7e770a]-> version_found
version_found -[#118648]-> version_found_update
@enduml

PlantUML version 1.2022.0(Tue Jan 11 16:16:42 UTC 2022)
(GPL source distribution)
Java Runtime: OpenJDK Runtime Environment
JVM: OpenJDK 64-Bit Server VM
Default Encoding: ANSI_X3.4-1968
Language: en
Country: US
--></g></svg>