<?xml version="1.0" encoding="UTF-8" standalone="no"?><svg xmlns="http://www.w3.org/2000/svg" xmlns:xlink="http://www.w3.org/1999/xlink" contentScriptType="application/ecmascript" contentStyleType="text/css" height="673px" preserveAspectRatio="none" style="width:1533px;height:673px;background:#FFFFFF;" version="1.1" viewBox="0 0 1533 673" width="1533px" zoomAndPan="magnify"><defs><filter height="300%" id="f1s93se81fd8pn" width="300%" x="-1" y="-1"><feGaussianBlur result="blurOut" stdDeviation="2.0"/><feColorMatrix in="blurOut" result="blurOut2" type="matrix" values="0 0 0 0 0 0 0 0 0 0 0 0 0 0 0 0 0 0 .4 0"/><feOffset dx="4.0" dy="4.0" in="blurOut2" result="blurOut3"/><feBlend in="SourceGraphic" in2="blurOut3" mode="normal"/></filter></defs><g><text fill="#000000" font-family="sans-serif" font-size="18" lengthAdjust="spacing" textLength="186" x="667" y="16.708">Wake Up data model</text><rect fill="#DDDDDD" height="26.2969" rx="5" ry="5" style="stroke:#000000;stroke-width:1.0;" width="464" x="527.5" y="28.9531"/><text fill="#FEFEFE" font-family="sans-serif" font-size="14" lengthAdjust="spacing" textLength="118" x="533.5" y="46.9482">ATTRIBUTE(type)</text><text fill="#000000" font-family="sans-serif" font-size="14" lengthAdjust="spacing" textLength="330" x="655.5" y="46.9482">: ATTRIBUTE_COMMAND_CLASS_WAKE_UP_type</text><!--MD5=[ea3d5de2a0d35296bc751d5a1b771698]
cluster Attribute Store--><path d="M6,80.25 C6,70.25 766,70.25 766,70.25 C766,70.25 1526,70.25 1526,80.25 L1526,656.25 C1526,666.25 766,666.25 766,666.25 C766,666.25 6,666.25 6,656.25 L6,80.25 " fill="#FFFFFF" filter="url(#f1s93se81fd8pn)" style="stroke:#000000;stroke-width:1.5;"/><path d="M6,80.25 C6,90.25 766,90.25 766,90.25 C766,90.25 1526,90.25 1526,80.25 " fill="none" style="stroke:#000000;stroke-width:1.5;"/><text fill="#000000" font-family="sans-serif" font-size="14" font-weight="bold" lengthAdjust="spacing" textLength="118" x="707" y="105.2451">Attribute Store</text><rect fill="#F2FFE6" filter="url(#f1s93se81fd8pn)" height="49.25" style="stroke:#000000;stroke-width:1.5;" width="201" x="857.5" y="112.25"/><text fill="#000000" font-family="sans-serif" font-size="12" lengthAdjust="spacing" textLength="45" x="935.5" y="125.3887">NodeID</text><line style="stroke:#000000;stroke-width:1.5;" x1="858.5" x2="1057.5" y1="130.2188" y2="130.2188"/><text fill="#000000" font-family="sans-serif" font-size="10" lengthAdjust="spacing" textLength="189" x="863.5" y="143.501">Attribute Type = ATTRIBUTE_NODE_ID</text><text fill="#000000" font-family="sans-serif" font-size="10" lengthAdjust="spacing" textLength="168" x="863.5" y="155.1416">value = Desired: [], Reported: [03]</text><rect fill="#E6FFF7" filter="url(#f1s93se81fd8pn)" height="49.25" style="stroke:#000000;stroke-width:1.5;" width="224" x="846" y="221.25"/><text fill="#000000" font-family="sans-serif" font-size="12" lengthAdjust="spacing" textLength="115" x="900.5" y="234.3887">Endpoint Attribute</text><line style="stroke:#000000;stroke-width:1.5;" x1="847" x2="1069" y1="239.2188" y2="239.2188"/><text fill="#000000" font-family="sans-serif" font-size="10" lengthAdjust="spacing" textLength="212" x="852" y="252.501">Attribute Type = ATTRIBUTE_ENDPOINT_ID</text><text fill="#000000" font-family="sans-serif" font-size="10" lengthAdjust="spacing" textLength="172" x="852" y="264.1416">value = Desired: [] - Reported: [04]</text><rect fill="#FEFEFE" filter="url(#f1s93se81fd8pn)" height="49.25" style="stroke:#000000;stroke-width:1.5;" width="204" x="1107" y="330.25"/><text fill="#000000" font-family="sans-serif" font-size="12" lengthAdjust="spacing" textLength="47" x="1185.5" y="343.3887">Version</text><line style="stroke:#000000;stroke-width:1.5;" x1="1108" x2="1310" y1="348.2188" y2="348.2188"/><text fill="#000000" font-family="sans-serif" font-size="10" lengthAdjust="spacing" textLength="192" x="1113" y="361.501">Attribute Type = ATTRIBUTE(VERSION)</text><text fill="#000000" font-family="sans-serif" font-size="10" lengthAdjust="spacing" textLength="166" x="1113" y="373.1416">value = Desired: [] - Reported: [4]</text><rect fill="#FFFFFF" filter="url(#f1s93se81fd8pn)" height="49.25" style="stroke:#000000;stroke-width:1.5;" width="200" x="294" y="330.25"/><text fill="#000000" font-family="sans-serif" font-size="12" lengthAdjust="spacing" textLength="45" x="371.5" y="343.3887">Setting</text><line style="stroke:#000000;stroke-width:1.5;" x1="295" x2="493" y1="348.2188" y2="348.2188"/><text fill="#000000" font-family="sans-serif" font-size="10" lengthAdjust="spacing" textLength="188" x="300" y="361.501">Attribute Type = ATTRIBUTE(SETTING)</text><text fill="#000000" font-family="sans-serif" font-size="10" lengthAdjust="spacing" textLength="172" x="300" y="373.1416">value = Desired: [0] - Reported: [1]</text><rect fill="#FFFFFF" filter="url(#f1s93se81fd8pn)" height="49.25" style="stroke:#000000;stroke-width:1.5;" width="227" x="844.5" y="330.25"/><text fill="#000000" font-family="sans-serif" font-size="12" lengthAdjust="spacing" textLength="72" x="922" y="343.3887">Capabilities</text><line style="stroke:#000000;stroke-width:1.5;" x1="845.5" x2="1070.5" y1="348.2188" y2="348.2188"/><text fill="#000000" font-family="sans-serif" font-size="10" lengthAdjust="spacing" textLength="215" x="850.5" y="361.501">Attribute Type = ATTRIBUTE(CAPABILITIES)</text><text fill="#000000" font-family="sans-serif" font-size="10" lengthAdjust="spacing" textLength="168" x="850.5" y="373.1416">value = Desired: [], Reported: [01]</text><rect fill="#FFFFFF" filter="url(#f1s93se81fd8pn)" height="49.25" style="stroke:#000000;stroke-width:1.5;" width="204" x="14" y="439.25"/><text fill="#000000" font-family="sans-serif" font-size="12" lengthAdjust="spacing" textLength="104" x="64" y="452.3887">Wake Up NodeID</text><line style="stroke:#000000;stroke-width:1.5;" x1="15" x2="217" y1="457.2188" y2="457.2188"/><text fill="#000000" font-family="sans-serif" font-size="10" lengthAdjust="spacing" textLength="192" x="20" y="470.501">Attribute Type = ATTRIBUTE(NODE_ID)</text><text fill="#000000" font-family="sans-serif" font-size="10" lengthAdjust="spacing" textLength="180" x="20" y="482.1416">value = Desired: [01], Reported: [10]</text><rect fill="#FFFFFF" filter="url(#f1s93se81fd8pn)" height="49.25" style="stroke:#000000;stroke-width:1.5;" width="282" x="253" y="439.25"/><text fill="#000000" font-family="sans-serif" font-size="12" lengthAdjust="spacing" textLength="105" x="341.5" y="452.3887">Wake Up Interval</text><line style="stroke:#000000;stroke-width:1.5;" x1="254" x2="534" y1="457.2188" y2="457.2188"/><text fill="#000000" font-family="sans-serif" font-size="10" lengthAdjust="spacing" textLength="195" x="259" y="470.501">Attribute Type = ATTRIBUTE(INTERVAL)</text><text fill="#000000" font-family="sans-serif" font-size="10" lengthAdjust="spacing" textLength="270" x="259" y="482.1416">value = Desired: [80,51,01,00], Reported: [14,00,00,00]</text><rect fill="#FFFFFF" filter="url(#f1s93se81fd8pn)" height="49.25" style="stroke:#000000;stroke-width:1.5;" width="263" x="570.5" y="439.25"/><text fill="#000000" font-family="sans-serif" font-size="12" lengthAdjust="spacing" textLength="166" x="619" y="452.3887">Maximum Wake Up Interval</text><line style="stroke:#000000;stroke-width:1.5;" x1="571.5" x2="832.5" y1="457.2188" y2="457.2188"/><text fill="#000000" font-family="sans-serif" font-size="10" lengthAdjust="spacing" textLength="251" x="576.5" y="470.501">Attribute Type = ATTRIBUTE(MAXIMUM_INTERVAL)</text><text fill="#000000" font-family="sans-serif" font-size="10" lengthAdjust="spacing" textLength="213" x="576.5" y="482.1416">value = Desired: [], Reported: [80,51,01,00]</text><rect fill="#FFFFFF" filter="url(#f1s93se81fd8pn)" height="49.25" style="stroke:#000000;stroke-width:1.5;" width="261" x="1256.5" y="439.25"/><text fill="#000000" font-family="sans-serif" font-size="12" lengthAdjust="spacing" textLength="163" x="1305.5" y="452.3887">Minimum Wake Up Interval</text><line style="stroke:#000000;stroke-width:1.5;" x1="1257.5" x2="1516.5" y1="457.2188" y2="457.2188"/><text fill="#000000" font-family="sans-serif" font-size="10" lengthAdjust="spacing" textLength="249" x="1262.5" y="470.501">Attribute Type = ATTRIBUTE(MINIMUM_INTERVAL)</text><text fill="#000000" font-family="sans-serif" font-size="10" lengthAdjust="spacing" textLength="213" x="1262.5" y="482.1416">value = Desired: [], Reported: [14,00,00,00]</text><rect fill="#FFFFFF" filter="url(#f1s93se81fd8pn)" height="49.25" style="stroke:#000000;stroke-width:1.5;" width="259" x="698.5" y="609.25"/><text fill="#000000" font-family="sans-serif" font-size="12" lengthAdjust="spacing" textLength="154" x="751" y="622.3887">Default Wake Up Interval</text><line style="stroke:#000000;stroke-width:1.5;" x1="699.5" x2="956.5" y1="627.2188" y2="627.2188"/><text fill="#000000" font-family="sans-serif" font-size="10" lengthAdjust="spacing" textLength="247" x="704.5" y="640.501">Attribute Type = ATTRIBUTE(DEFAULT_INTERVAL)</text><text fill="#000000" font-family="sans-serif" font-size="10" lengthAdjust="spacing" textLength="212" x="704.5" y="652.1416">value = Desired: [], Reported: [2c,01,00,00]</text><rect fill="#FFFFFF" filter="url(#f1s93se81fd8pn)" height="49.25" style="stroke:#000000;stroke-width:1.5;" width="238" x="1152" y="609.25"/><text fill="#000000" font-family="sans-serif" font-size="12" lengthAdjust="spacing" textLength="138" x="1202" y="622.3887">Wake Up Interval Step</text><line style="stroke:#000000;stroke-width:1.5;" x1="1153" x2="1389" y1="627.2188" y2="627.2188"/><text fill="#000000" font-family="sans-serif" font-size="10" lengthAdjust="spacing" textLength="226" x="1158" y="640.501">Attribute Type = ATTRIBUTE(INTERVAL_STEP)</text><text fill="#000000" font-family="sans-serif" font-size="10" lengthAdjust="spacing" textLength="213" x="1158" y="652.1416">value = Desired: [], Reported: [14,00,00,00]</text><rect fill="#FFFFFF" filter="url(#f1s93se81fd8pn)" height="49.25" style="stroke:#000000;stroke-width:1.5;" width="277" x="906.5" y="439.25"/><text fill="#000000" font-family="sans-serif" font-size="12" lengthAdjust="spacing" textLength="125" x="982.5" y="452.3887">Capabilities bitmask</text><line style="stroke:#000000;stroke-width:1.5;" x1="907.5" x2="1182.5" y1="457.2188" y2="457.2188"/><text fill="#000000" font-family="sans-serif" font-size="10" lengthAdjust="spacing" textLength="265" x="912.5" y="470.501">Attribute Type = ATTRIBUTE(CAPABILITIES_BITMASK)</text><text fill="#000000" font-family="sans-serif" font-size="10" lengthAdjust="spacing" textLength="168" x="912.5" y="482.1416">value = Desired: [], Reported: [01]</text><path d="M616.5,334.75 L616.5,375.0156 A0,0 0 0 0 616.5,375.0156 L809.5,375.0156 A0,0 0 0 0 809.5,375.0156 L809.5,358.75 L844.4273,354.75 L809.5,350.75 L809.5,344.75 L799.5,334.75 L616.5,334.75 A0,0 0 0 0 616.5,334.75 " fill="#FFFAE3" filter="url(#f1s93se81fd8pn)" style="stroke:#FF0000;stroke-width:1.0;"/><path d="M799.5,334.75 L799.5,344.75 L809.5,344.75 L799.5,334.75 " fill="#FFFAE3" style="stroke:#FF0000;stroke-width:1.0;"/><text fill="#000000" font-family="sans-serif" font-size="13" lengthAdjust="spacing" textLength="117" x="622.5" y="351.8169">Resolution listener</text><text fill="#000000" font-family="sans-serif" font-size="13" lengthAdjust="spacing" textLength="172" x="622.5" y="366.9497">Configure Wake Up Interval</text><path d="M650,116.75 L650,157.0156 A0,0 0 0 0 650,157.0156 L822,157.0156 A0,0 0 0 0 822,157.0156 L822,140.75 L857.2741,136.75 L822,132.75 L822,126.75 L812,116.75 L650,116.75 A0,0 0 0 0 650,116.75 " fill="#FFFAE3" filter="url(#f1s93se81fd8pn)" style="stroke:#FF0000;stroke-width:1.0;"/><path d="M812,116.75 L812,126.75 L822,126.75 L812,116.75 " fill="#FFFAE3" style="stroke:#FF0000;stroke-width:1.0;"/><text fill="#000000" font-family="sans-serif" font-size="13" lengthAdjust="spacing" textLength="117" x="656" y="133.8169">Resolution listener</text><text fill="#000000" font-family="sans-serif" font-size="13" lengthAdjust="spacing" textLength="151" x="656" y="148.9497">Send Wake Up No More</text><!--MD5=[95477c314ce472250aabd32546a8a81f]
reverse link node to endpoint--><path codeLine="1560" d="M958,174.8796 C958,190.2226 958,207.4737 958,221.1141 " fill="none" id="node-backto-endpoint" style="stroke:#A80036;stroke-width:1.0;"/><polygon fill="#A80036" points="958,161.4838,954,167.4838,958,173.4838,962,167.4838,958,161.4838" style="stroke:#A80036;stroke-width:1.0;"/><!--MD5=[c4a4e185f2beba9fb9ec0dd52638d41f]
reverse link endpoint to version--><path codeLine="1561" d="M1026.5866,275.5346 C1066.14,292.7112 1115.2625,314.0433 1152.5638,330.2418 " fill="none" id="endpoint-backto-version" style="stroke:#A80036;stroke-width:1.0;"/><polygon fill="#A80036" points="1014.6423,270.3476,1018.5524,276.4066,1025.6492,275.1277,1021.7391,269.0687,1014.6423,270.3476" style="stroke:#A80036;stroke-width:1.0;"/><!--MD5=[4204bd08894dcd6cc0ea342a5fa1a377]
reverse link endpoint to setting--><path codeLine="1562" d="M833.0333,269.9014 C730.9989,289.6208 588.6995,317.1219 494.0774,335.4088 " fill="none" id="endpoint-backto-setting" style="stroke:#A80036;stroke-width:1.0;"/><polygon fill="#A80036" points="845.8974,267.4152,839.2474,264.6264,834.1154,269.6923,840.7654,272.4811,845.8974,267.4152" style="stroke:#A80036;stroke-width:1.0;"/><!--MD5=[e8818a659f63f8f3e10410eab5f7f31c]
reverse link endpoint to capabilities--><path codeLine="1563" d="M958,283.8796 C958,299.2226 958,316.4737 958,330.1141 " fill="none" id="endpoint-backto-capabilities" style="stroke:#A80036;stroke-width:1.0;"/><polygon fill="#A80036" points="958,270.4838,954,276.4838,958,282.4838,962,276.4838,958,270.4838" style="stroke:#A80036;stroke-width:1.0;"/><!--MD5=[3b7d4572eab6fcc4d799ff3a2f9821e4]
reverse link setting to wake_up_node_id--><path codeLine="1565" d="M318.884,384.202 C274.9314,401.4352 220.088,422.9385 178.507,439.2418 " fill="none" id="setting-backto-wake_up_node_id" style="stroke:#A80036;stroke-width:1.0;"/><polygon fill="#A80036" points="331.2647,379.3476,324.2186,377.8138,320.0928,383.728,327.1389,385.2618,331.2647,379.3476" style="stroke:#A80036;stroke-width:1.0;"/><!--MD5=[e3ed1f49d6a7888e776c939ec6bd4600]
reverse link setting to wake_up_interval--><path codeLine="1566" d="M394,392.8796 C394,408.2226 394,425.4737 394,439.1141 " fill="none" id="setting-backto-wake_up_interval" style="stroke:#A80036;stroke-width:1.0;"/><polygon fill="#A80036" points="394,379.4838,390,385.4838,394,391.4838,398,385.4838,394,379.4838" style="stroke:#A80036;stroke-width:1.0;"/><!--MD5=[28df833d114907e8882e58a3b21397fe]
reverse link capabilities to maximum_wake_up_interval--><path codeLine="1568" d="M888.0471,384.5346 C847.7058,401.7112 797.6048,423.0433 759.5604,439.2418 " fill="none" id="capabilities-backto-maximum_wake_up_interval" style="stroke:#A80036;stroke-width:1.0;"/><polygon fill="#A80036" points="900.2294,379.3476,893.142,378.0178,889.1885,384.0485,896.2759,385.3784,900.2294,379.3476" style="stroke:#A80036;stroke-width:1.0;"/><!--MD5=[f31c899bcea51650f26c9b287f97c356]
reverse link capabilities to minimum_wake_up_interval--><path codeLine="1569" d="M1067.1652,382.4866 C1136.0143,399.9797 1224.1227,422.3663 1290.4227,439.2117 " fill="none" id="capabilities-backto-minimum_wake_up_interval" style="stroke:#A80036;stroke-width:1.0;"/><polygon fill="#A80036" points="1054.5433,379.2797,1059.3735,384.6341,1066.1737,382.2349,1061.3436,376.8805,1054.5433,379.2797" style="stroke:#A80036;stroke-width:1.0;"/><!--MD5=[bf6f17b1dc72372f03547eb42831b077]
reverse link capabilities to default_wake_up_interval--><path codeLine="1570" d="M924.581,389.4935 C912.0477,403.9802 898.5447,421.5408 889,439.25 C858.2738,496.259 840.3054,571.1528 832.5562,609.23 " fill="none" id="capabilities-backto-default_wake_up_interval" style="stroke:#A80036;stroke-width:1.0;"/><polygon fill="#A80036" points="933.4654,379.53,926.4867,381.3461,925.479,388.4864,932.4577,386.6703,933.4654,379.53" style="stroke:#A80036;stroke-width:1.0;"/><!--MD5=[248557c739b1d78d6e551f9f57d0dcc1]
reverse link capabilities to wake_up_interval_step--><path codeLine="1571" d="M1067.8607,382.969 C1122.525,398.9304 1181.1154,419.5791 1201,439.25 C1248.5821,486.3206 1263.987,568.0358 1268.8445,608.9354 " fill="none" id="capabilities-backto-wake_up_interval_step" style="stroke:#A80036;stroke-width:1.0;"/><polygon fill="#A80036" points="1055.1781,379.327,1059.841,384.8277,1066.712,382.6391,1062.0491,377.1384,1055.1781,379.327" style="stroke:#A80036;stroke-width:1.0;"/><!--MD5=[c382c28e4dd080fa694ab3ffedb451a3]
reverse link capabilities to capabilties_bitmask--><path codeLine="1572" d="M986.2025,390.0842 C998.9831,406.0967 1013.7826,424.6386 1025.3365,439.1141 " fill="none" id="capabilities-backto-capabilties_bitmask" style="stroke:#A80036;stroke-width:1.0;"/><polygon fill="#A80036" points="977.7416,379.4838,978.3583,386.6685,985.2275,388.8626,984.6108,381.6779,977.7416,379.4838" style="stroke:#A80036;stroke-width:1.0;"/><!--MD5=[ab029aa9470730bdc9c1af8d467b6ff6]
link maximum_wake_up_interval to default_wake_up_interval--><!--MD5=[741aa64502cf889db78cbab9941172fa]
link minimum_wake_up_interval to wake_up_interval_step--><!--MD5=[29f13bffb15779758a5c9a395f7ea47c]
@startuml attribute_store_wake_up_command_class.svg
title Wake Up data model
allow_mixing
skinparam objectBorderColor black
skinparam NoteBackgroundColor #fffae3
skinparam NoteBorderColor red

legend top
<font color=#FEFEFE>ATTRIBUTE(type)</font> : ATTRIBUTE_COMMAND_CLASS_WAKE_UP_type
endlegend

package "Attribute Store" <<Database>> {
  object "NodeID" as node #f2ffe6
  node : Attribute Type = ATTRIBUTE_NODE_ID
  node : value = Desired: [], Reported: [03]

  object "Endpoint Attribute" as endpoint #e6fff7
  endpoint : Attribute Type = ATTRIBUTE_ENDPOINT_ID
  endpoint : value = Desired: [] - Reported: [04]

  object "Version" as version #FEFEFE
  version : Attribute Type = ATTRIBUTE(VERSION)
  version : value = Desired: [] - Reported: [4]

  object "Setting" as setting #FFFFFF
  setting : Attribute Type = ATTRIBUTE(SETTING)
  setting : value = Desired: [0] - Reported: [1]

  object "Capabilities" as capabilities #FFFFFF
  capabilities : Attribute Type = ATTRIBUTE(CAPABILITIES)
  capabilities : value = Desired: [], Reported: [01]

  object "Wake Up NodeID" as wake_up_node_id #FFFFFF
  wake_up_node_id : Attribute Type = ATTRIBUTE(NODE_ID)
  wake_up_node_id : value = Desired: [01], Reported: [10]

  object "Wake Up Interval" as wake_up_interval #FFFFFF
  wake_up_interval : Attribute Type = ATTRIBUTE(INTERVAL)
  wake_up_interval : value = Desired: [80,51,01,00], Reported: [14,00,00,00]

  object "Maximum Wake Up Interval" as maximum_wake_up_interval #FFFFFF
  maximum_wake_up_interval : Attribute Type = ATTRIBUTE(MAXIMUM_INTERVAL)
  maximum_wake_up_interval : value = Desired: [], Reported: [80,51,01,00]

  object "Minimum Wake Up Interval" as minimum_wake_up_interval #FFFFFF
  minimum_wake_up_interval : Attribute Type = ATTRIBUTE(MINIMUM_INTERVAL)
  minimum_wake_up_interval : value = Desired: [], Reported: [14,00,00,00]

  object "Default Wake Up Interval" as default_wake_up_interval #FFFFFF
  default_wake_up_interval : Attribute Type = ATTRIBUTE(DEFAULT_INTERVAL)
  default_wake_up_interval : value = Desired: [], Reported: [2c,01,00,00]

  object "Wake Up Interval Step" as wake_up_interval_step #FFFFFF
  wake_up_interval_step : Attribute Type = ATTRIBUTE(INTERVAL_STEP)
  wake_up_interval_step : value = Desired: [], Reported: [14,00,00,00]

  object "Capabilities bitmask" as capabilties_bitmask #FFFFFF
  capabilties_bitmask : Attribute Type = ATTRIBUTE(CAPABILITIES_BITMASK)
  capabilties_bitmask : value = Desired: [], Reported: [01]

  note left of capabilities
    Resolution listener
    Configure Wake Up Interval
  end note

  note left of node
    Resolution listener
    Send Wake Up No More
  end note
}

node *- - endpoint
endpoint *- - version
endpoint *- - setting
endpoint *- - capabilities

setting *- - wake_up_node_id
setting *- - wake_up_interval

capabilities *- - maximum_wake_up_interval
capabilities *- - minimum_wake_up_interval
capabilities *- - default_wake_up_interval
capabilities *- - wake_up_interval_step
capabilities *- - capabilties_bitmask

maximum_wake_up_interval -[hidden]- -> default_wake_up_interval
minimum_wake_up_interval -[hidden]- -> wake_up_interval_step
@enduml

PlantUML version 1.2022.0(Tue Jan 11 16:16:42 UTC 2022)
(GPL source distribution)
Java Runtime: OpenJDK Runtime Environment
JVM: OpenJDK 64-Bit Server VM
Default Encoding: ANSI_X3.4-1968
Language: en
Country: US
--></g></svg>