<?xml version="1.0" encoding="UTF-8" standalone="no"?><svg xmlns="http://www.w3.org/2000/svg" xmlns:xlink="http://www.w3.org/1999/xlink" contentScriptType="application/ecmascript" contentStyleType="text/css" height="659px" preserveAspectRatio="none" style="width:818px;height:659px;" version="1.1" viewBox="0 0 818 659" width="818px" zoomAndPan="magnify"><defs><filter height="300%" id="f6m0q2j8cgp3f" width="300%" x="-1" y="-1"><feGaussianBlur result="blurOut" stdDeviation="2.0"/><feColorMatrix in="blurOut" result="blurOut2" type="matrix" values="0 0 0 0 0 0 0 0 0 0 0 0 0 0 0 0 0 0 .4 0"/><feOffset dx="4.0" dy="4.0" in="blurOut2" result="blurOut3"/><feBlend in="SourceGraphic" in2="blurOut3" mode="normal"/></filter></defs><g><rect fill="#ADD8E6" height="647.9844" style="stroke:#A80036;stroke-width:1.0;" width="325.5" x="486.5" y="6"/><text fill="#000000" font-family="sans-serif" font-size="13" font-weight="bold" lengthAdjust="spacing" textLength="30" x="634.25" y="18.0669">ZPC</text><line style="stroke:#A80036;stroke-width:1.0;stroke-dasharray:5.0,5.0;" x1="72" x2="72" y1="60.4297" y2="615.6875"/><line style="stroke:#A80036;stroke-width:1.0;stroke-dasharray:5.0,5.0;" x1="553.5" x2="553.5" y1="60.4297" y2="615.6875"/><line style="stroke:#A80036;stroke-width:1.0;stroke-dasharray:5.0,5.0;" x1="725" x2="725" y1="60.4297" y2="615.6875"/><rect fill="#FEFECE" filter="url(#f6m0q2j8cgp3f)" height="30.2969" style="stroke:#A80036;stroke-width:1.5;" width="110" x="15" y="25.1328"/><text fill="#000000" font-family="sans-serif" font-size="14" lengthAdjust="spacing" textLength="96" x="22" y="45.1279">AttributeStore</text><rect fill="#FEFECE" filter="url(#f6m0q2j8cgp3f)" height="30.2969" style="stroke:#A80036;stroke-width:1.5;" width="110" x="15" y="614.6875"/><text fill="#000000" font-family="sans-serif" font-size="14" lengthAdjust="spacing" textLength="96" x="22" y="634.6826">AttributeStore</text><rect fill="#FEFECE" filter="url(#f6m0q2j8cgp3f)" height="30.2969" style="stroke:#A80036;stroke-width:1.5;" width="123" x="490.5" y="25.1328"/><text fill="#000000" font-family="sans-serif" font-size="14" lengthAdjust="spacing" textLength="109" x="497.5" y="45.1279">NetworkMonitor</text><rect fill="#FEFECE" filter="url(#f6m0q2j8cgp3f)" height="30.2969" style="stroke:#A80036;stroke-width:1.5;" width="123" x="490.5" y="614.6875"/><text fill="#000000" font-family="sans-serif" font-size="14" lengthAdjust="spacing" textLength="109" x="497.5" y="634.6826">NetworkMonitor</text><rect fill="#FEFECE" filter="url(#f6m0q2j8cgp3f)" height="30.2969" style="stroke:#A80036;stroke-width:1.5;" width="162" x="642" y="25.1328"/><text fill="#000000" font-family="sans-serif" font-size="14" lengthAdjust="spacing" textLength="148" x="649" y="45.1279">NetworkManagement</text><rect fill="#FEFECE" filter="url(#f6m0q2j8cgp3f)" height="30.2969" style="stroke:#A80036;stroke-width:1.5;" width="162" x="642" y="614.6875"/><text fill="#000000" font-family="sans-serif" font-size="14" lengthAdjust="spacing" textLength="148" x="649" y="634.6826">NetworkManagement</text><path d="M5,75.4297 L5,100.4297 L793,100.4297 L793,85.4297 L783,75.4297 L5,75.4297 " fill="#FBFB77" filter="url(#f6m0q2j8cgp3f)" style="stroke:#A80036;stroke-width:1.0;"/><path d="M783,75.4297 L783,85.4297 L793,85.4297 L783,75.4297 " fill="#FBFB77" style="stroke:#A80036;stroke-width:1.0;"/><text fill="#000000" font-family="sans-serif" font-size="13" lengthAdjust="spacing" textLength="19" x="383" y="92.4966">Init</text><polygon fill="#A80036" points="83,126.6953,73,130.6953,83,134.6953,79,130.6953" style="stroke:#A80036;stroke-width:1.0;"/><line style="stroke:#A80036;stroke-width:1.0;" x1="77" x2="553" y1="130.6953" y2="130.6953"/><text fill="#000000" font-family="sans-serif" font-size="13" lengthAdjust="spacing" textLength="450" x="89" y="125.6294">Create/Set the ZPC Node ID and Security keys nodes in AttributeStore</text><path d="M5,143.6953 L5,168.6953 L793,168.6953 L793,153.6953 L783,143.6953 L5,143.6953 " fill="#FBFB77" filter="url(#f6m0q2j8cgp3f)" style="stroke:#A80036;stroke-width:1.0;"/><path d="M783,143.6953 L783,153.6953 L793,153.6953 L783,143.6953 " fill="#FBFB77" style="stroke:#A80036;stroke-width:1.0;"/><text fill="#000000" font-family="sans-serif" font-size="13" lengthAdjust="spacing" textLength="93" x="346" y="160.7622">Node is Added</text><polygon fill="#A80036" points="565,194.9609,555,198.9609,565,202.9609,561,198.9609" style="stroke:#A80036;stroke-width:1.0;"/><line style="stroke:#A80036;stroke-width:1.0;" x1="559" x2="724" y1="198.9609" y2="198.9609"/><text fill="#000000" font-family="sans-serif" font-size="13" lengthAdjust="spacing" textLength="147" x="571" y="193.895">on_node_id_assigned()</text><polygon fill="#A80036" points="83,224.0938,73,228.0938,83,232.0938,79,228.0938" style="stroke:#A80036;stroke-width:1.0;"/><line style="stroke:#A80036;stroke-width:1.0;" x1="77" x2="553" y1="228.0938" y2="228.0938"/><text fill="#000000" font-family="sans-serif" font-size="13" lengthAdjust="spacing" textLength="249" x="89" y="223.0278">Create Endpoint node in AttributeStore</text><polygon fill="#A80036" points="83,253.2266,73,257.2266,83,261.2266,79,257.2266" style="stroke:#A80036;stroke-width:1.0;"/><line style="stroke:#A80036;stroke-width:1.0;" x1="77" x2="553" y1="257.2266" y2="257.2266"/><text fill="#000000" font-family="sans-serif" font-size="13" lengthAdjust="spacing" textLength="287" x="89" y="252.1606">Create NetworkStatus node in AttributeStore</text><polygon fill="#A80036" points="565,282.3594,555,286.3594,565,290.3594,561,286.3594" style="stroke:#A80036;stroke-width:1.0;"/><line style="stroke:#A80036;stroke-width:1.0;" x1="559" x2="724" y1="286.3594" y2="286.3594"/><text fill="#000000" font-family="sans-serif" font-size="13" lengthAdjust="spacing" textLength="112" x="571" y="281.2935">on_node_added()</text><polygon fill="#A80036" points="83,311.4922,73,315.4922,83,319.4922,79,315.4922" style="stroke:#A80036;stroke-width:1.0;"/><line style="stroke:#A80036;stroke-width:1.0;" x1="77" x2="553" y1="315.4922" y2="315.4922"/><text fill="#000000" font-family="sans-serif" font-size="13" lengthAdjust="spacing" textLength="271" x="89" y="310.4263">Create Security key node in AttributeStore</text><polygon fill="#A80036" points="83,340.625,73,344.625,83,348.625,79,344.625" style="stroke:#A80036;stroke-width:1.0;"/><line style="stroke:#A80036;stroke-width:1.0;" x1="77" x2="553" y1="344.625" y2="344.625"/><text fill="#000000" font-family="sans-serif" font-size="13" lengthAdjust="spacing" textLength="321" x="89" y="339.5591">Create NIF under Endpoint nodes in AttributeStore</text><path d="M5,357.625 L5,382.625 L793,382.625 L793,367.625 L783,357.625 L5,357.625 " fill="#FBFB77" filter="url(#f6m0q2j8cgp3f)" style="stroke:#A80036;stroke-width:1.0;"/><path d="M783,357.625 L783,367.625 L793,367.625 L783,357.625 " fill="#FBFB77" style="stroke:#A80036;stroke-width:1.0;"/><text fill="#000000" font-family="sans-serif" font-size="13" lengthAdjust="spacing" textLength="112" x="336.5" y="374.6919">Node is Removed</text><polygon fill="#A80036" points="565,408.8906,555,412.8906,565,416.8906,561,412.8906" style="stroke:#A80036;stroke-width:1.0;"/><line style="stroke:#A80036;stroke-width:1.0;" x1="559" x2="724" y1="412.8906" y2="412.8906"/><text fill="#000000" font-family="sans-serif" font-size="13" lengthAdjust="spacing" textLength="120" x="571" y="407.8247">on_node_deleted()</text><polygon fill="#A80036" points="83,438.0234,73,442.0234,83,446.0234,79,442.0234" style="stroke:#A80036;stroke-width:1.0;"/><line style="stroke:#A80036;stroke-width:1.0;" x1="77" x2="553" y1="442.0234" y2="442.0234"/><text fill="#000000" font-family="sans-serif" font-size="13" lengthAdjust="spacing" textLength="249" x="89" y="436.9575">Remove NodeID node in AttributeStore</text><path d="M5,455.0234 L5,480.0234 L793,480.0234 L793,465.0234 L783,455.0234 L5,455.0234 " fill="#FBFB77" filter="url(#f6m0q2j8cgp3f)" style="stroke:#A80036;stroke-width:1.0;"/><path d="M783,455.0234 L783,465.0234 L793,465.0234 L783,455.0234 " fill="#FBFB77" style="stroke:#A80036;stroke-width:1.0;"/><text fill="#000000" font-family="sans-serif" font-size="13" lengthAdjust="spacing" textLength="83" x="351" y="472.0903">New Network</text><polygon fill="#A80036" points="565,506.2891,555,510.2891,565,514.2891,561,510.2891" style="stroke:#A80036;stroke-width:1.0;"/><line style="stroke:#A80036;stroke-width:1.0;" x1="559" x2="724" y1="510.2891" y2="510.2891"/><text fill="#000000" font-family="sans-serif" font-size="13" lengthAdjust="spacing" textLength="92" x="571" y="505.2231">new_network()</text><polygon fill="#A80036" points="83,535.4219,73,539.4219,83,543.4219,79,539.4219" style="stroke:#A80036;stroke-width:1.0;"/><line style="stroke:#A80036;stroke-width:1.0;" x1="77" x2="553" y1="539.4219" y2="539.4219"/><text fill="#000000" font-family="sans-serif" font-size="13" lengthAdjust="spacing" textLength="307" x="89" y="534.356">Delete the oldHomeID node from AttributeStore</text><polygon fill="#A80036" points="83,564.5547,73,568.5547,83,572.5547,79,568.5547" style="stroke:#A80036;stroke-width:1.0;"/><line style="stroke:#A80036;stroke-width:1.0;" x1="77" x2="553" y1="568.5547" y2="568.5547"/><text fill="#000000" font-family="sans-serif" font-size="13" lengthAdjust="spacing" textLength="295" x="89" y="563.4888">Create the newHomeID node in AttributeStore</text><polygon fill="#A80036" points="83,593.6875,73,597.6875,83,601.6875,79,597.6875" style="stroke:#A80036;stroke-width:1.0;"/><line style="stroke:#A80036;stroke-width:1.0;" x1="77" x2="553" y1="597.6875" y2="597.6875"/><text fill="#000000" font-family="sans-serif" font-size="13" lengthAdjust="spacing" textLength="458" x="89" y="592.6216">Create nodes in the attribute store for all nodes currently in the network</text><!--MD5=[26988e9ebc40e42a4e49a323f3d927d9]
@startuml inline_umlgraph_17.svg
  participant AttributeStore
  box "ZPC" #LightBlue
  participant NetworkMonitor
  participant NetworkManagement
  end box

  note over AttributeStore,NetworkManagement: Init
  NetworkMonitor        -> AttributeStore       : Create/Set the ZPC Node ID and Security keys nodes in AttributeStore
  note over AttributeStore,NetworkManagement: Node is Added
  NetworkManagement     -> NetworkMonitor       : on_node_id_assigned()
  NetworkMonitor        -> AttributeStore       : Create Endpoint node in AttributeStore
  NetworkMonitor        -> AttributeStore       : Create NetworkStatus node in AttributeStore
  NetworkManagement     -> NetworkMonitor       : on_node_added()
  NetworkMonitor        -> AttributeStore       : Create Security key node in AttributeStore
  NetworkMonitor        -> AttributeStore       : Create NIF under Endpoint nodes in AttributeStore
  note over AttributeStore,NetworkManagement: Node is Removed
  NetworkManagement     -> NetworkMonitor       : on_node_deleted()
  NetworkMonitor        -> AttributeStore       : Remove NodeID node in AttributeStore
  note over AttributeStore,NetworkManagement: New Network
  NetworkManagement     -> NetworkMonitor       : new_network()
  NetworkMonitor        -> AttributeStore       : Delete the oldHomeID node from AttributeStore
  NetworkMonitor        -> AttributeStore       : Create the newHomeID node in AttributeStore
  NetworkMonitor        -> AttributeStore       : Create nodes in the attribute store for all nodes currently in the network
@enduml

PlantUML version 1.2021.00(Sun Jan 10 10:25:05 UTC 2021)
(GPL source distribution)
Java Runtime: OpenJDK Runtime Environment
JVM: OpenJDK 64-Bit Server VM
Default Encoding: ANSI_X3.4-1968
Language: en
Country: US
--></g></svg>