<?xml version="1.0" encoding="UTF-8" standalone="no"?><svg xmlns="http://www.w3.org/2000/svg" xmlns:xlink="http://www.w3.org/1999/xlink" contentScriptType="application/ecmascript" contentStyleType="text/css" height="1574.5792px" preserveAspectRatio="none" style="width:2203px;height:1574px;background:#FFFFFF;" version="1.1" viewBox="0 0 2203 1574" width="2203.274px" zoomAndPan="magnify"><defs><filter height="300%" id="f12h0frg1900ym" width="300%" x="-1" y="-1"><feGaussianBlur result="blurOut" stdDeviation="2.2737605653643636"/><feColorMatrix in="blurOut" result="blurOut2" type="matrix" values="0 0 0 0 0 0 0 0 0 0 0 0 0 0 0 0 0 0 .4 0"/><feOffset dx="4.547521130728727" dy="4.547521130728727" in="blurOut2" result="blurOut3"/><feBlend in="SourceGraphic" in2="blurOut3" mode="normal"/></filter></defs><g><!--MD5=[a5878460733a88f4391fd7505e1acc62]
entity S0_AWAITING_SCHEME_REPORT--><rect fill="#F0F8FF" filter="url(#f12h0frg1900ym)" height="41.2652" style="stroke:#0000FF;stroke-width:2.2737605653643636;" width="276.2619" x="475.9211" y="7.9582"/><text fill="#0000FF" font-family="sans-serif" font-size="15.9163" lengthAdjust="spacing" textLength="253.5243" x="487.2899" y="34.1009">S0_AWAITING_SCHEME_REPORT</text><!--MD5=[1c945eb52f21069c8a673c209a429e15]
entity S0_HANDLE_SCHEME_REPORT--><rect fill="#F0F8FF" filter="url(#f12h0frg1900ym)" height="41.2652" style="stroke:#0000FF;stroke-width:2.2737605653643636;" width="263.7562" x="385.5391" y="266.03"/><text fill="#0000FF" font-family="sans-serif" font-size="15.9163" lengthAdjust="spacing" textLength="241.0186" x="396.9079" y="292.1727">S0_HANDLE_SCHEME_REPORT</text><!--MD5=[86993a22c4e1330c4a839ace9d8102af]
entity S0_AWAITING_KEY_VERIFY--><rect fill="#F0F8FF" filter="url(#f12h0frg1900ym)" height="41.2652" style="stroke:#0000FF;stroke-width:2.2737605653643636;" width="228.5129" x="461.1416" y="524.1018"/><text fill="#0000FF" font-family="sans-serif" font-size="15.9163" lengthAdjust="spacing" textLength="205.7753" x="472.5104" y="550.2445">S0_AWAITING_KEY_VERIFY</text><!--MD5=[a784defeb11d4364a4d6e0dbaa1f701e]
entity S0_HANDLE_NET_KEY_VERIFY--><rect fill="#F0F8FF" filter="url(#f12h0frg1900ym)" height="41.2652" style="stroke:#0000FF;stroke-width:2.2737605653643636;" width="255.7981" x="386.1075" y="936.7894"/><text fill="#0000FF" font-family="sans-serif" font-size="15.9163" lengthAdjust="spacing" textLength="233.0605" x="397.4763" y="962.932">S0_HANDLE_NET_KEY_VERIFY</text><!--MD5=[d76b8e327c288a3e64e47d01f1ee8067]
entity S0_AWAITING_2SCHEME_REPORT--><rect fill="#F0F8FF" filter="url(#f12h0frg1900ym)" height="41.2652" style="stroke:#0000FF;stroke-width:2.2737605653643636;" width="286.4938" x="385.5391" y="1332.4237"/><text fill="#0000FF" font-family="sans-serif" font-size="15.9163" lengthAdjust="spacing" textLength="263.7562" x="396.9079" y="1358.5664">S0_AWAITING_2SCHEME_REPORT</text><!--MD5=[46eb83ae4af0597a44b1c8d7d3cc2555]
entity S0_INC_IDLE--><rect fill="#F0F8FF" filter="url(#f12h0frg1900ym)" height="41.2652" style="stroke:#0000FF;stroke-width:2.2737605653643636;" width="119.3724" x="1031.8555" y="1520.0089"/><text fill="#0000FF" font-family="sans-serif" font-size="15.9163" lengthAdjust="spacing" textLength="96.6348" x="1043.2243" y="1546.1516">S0_INC_IDLE</text><!--MD5=[e9cf402e0ddf1b39cb804b07054a419c]
link S0_INC_IDLE to S0_AWAITING_SCHEME_REPORT--><path d="M1151.3993,1527.1791 C1268.2906,1499.4801 1515.5981,1431.5786 1515.5981,1352.8875 C1515.5981,957.2532 1515.5981,957.2532 1515.5981,957.2532 C1515.5981,897.0994 1523.1144,874.8388 1490.5867,824.2382 C1429.412,729.0739 1334.6173,778.0112 1282.5376,677.5806 C1255.3139,625.0824 1285.9483,603.7029 1285.9483,544.5657 C1285.9483,157.4579 1285.9483,157.4579 1285.9483,157.4579 C1285.9483,104.1612 955.6895,62.1711 758.2566,41.8307 " fill="none" id="S0_INC_IDLE-to-S0_AWAITING_SCHEME_REPORT" style="stroke:#A80036;stroke-width:1.1368802826821818;"/><polygon fill="#A80036" points="752.4547,41.2353,762.1689,46.8036,758.1094,41.8156,763.0974,37.7561,752.4547,41.2353" style="stroke:#A80036;stroke-width:1.1368802826821818;"/><path d="M1288.222,604.8203 L1288.222,667.3487 L1550.8414,667.3487 L1550.8414,616.1891 L1539.4726,604.8203 L1288.222,604.8203 " fill="#FBFB77" filter="url(#f12h0frg1900ym)" style="stroke:#A80036;stroke-width:1.1368802826821818;"/><path d="M1539.4726,604.8203 L1539.4726,616.1891 L1550.8414,616.1891 L1539.4726,604.8203 " fill="#FBFB77" style="stroke:#A80036;stroke-width:1.1368802826821818;"/><text fill="#000000" font-family="sans-serif" font-size="14.7794" lengthAdjust="spacing" textLength="230.7867" x="1295.0433" y="624.2233">EV_S0_BOOTSTRAPPING_START</text><text fill="#000000" font-family="sans-serif" font-size="14.7794" lengthAdjust="spacing" textLength="238.7449" x="1295.0433" y="641.4275">S0_SEND_SCHEME_GET_ACTION</text><text fill="#000000" font-family="sans-serif" font-size="14.7794" lengthAdjust="spacing" textLength="169.3952" x="1295.0433" y="658.6317">s0_send_scheme_get()</text><!--MD5=[9f683091ff865f2b243612629572d9ed]
link S0_AWAITING_SCHEME_REPORT to S0_INC_IDLE--><path d="M752.5286,32.2856 C1026.1767,41.7744 1609.9591,72.0285 1609.9591,157.4579 C1609.9591,157.4579 1609.9591,157.4579 1609.9591,1352.8875 C1609.9591,1457.1628 1513.3498,1446.786 1416.6895,1485.9025 C1370.7682,1504.486 1238.2939,1522.8875 1157.3075,1532.8572 " fill="none" id="S0_AWAITING_SCHEME_REPORT-to-S0_INC_IDLE" style="stroke:#A80036;stroke-width:1.1368802826821818;"/><polygon fill="#A80036" points="1151.5674,1533.5603,1162.2764,1536.8299,1157.2096,1532.8691,1161.1704,1527.8024,1151.5674,1533.5603" style="stroke:#A80036;stroke-width:1.1368802826821818;"/><path d="M1615.6435,604.8203 L1615.6435,667.3487 L1873.7154,667.3487 L1873.7154,616.1891 L1862.3466,604.8203 L1615.6435,604.8203 " fill="#FBFB77" filter="url(#f12h0frg1900ym)" style="stroke:#A80036;stroke-width:1.1368802826821818;"/><path d="M1862.3466,604.8203 L1862.3466,616.1891 L1873.7154,616.1891 L1862.3466,604.8203 " fill="#FBFB77" style="stroke:#A80036;stroke-width:1.1368802826821818;"/><text fill="#000000" font-family="sans-serif" font-size="14.7794" lengthAdjust="spacing" textLength="198.954" x="1622.4648" y="624.2233">EV_S0_BOOTSTRAP_ABORT</text><text fill="#000000" font-family="sans-serif" font-size="14.7794" lengthAdjust="spacing" textLength="234.1973" x="1622.4648" y="641.4275">S0_BOOTSTRAP_ABORT_ACTION</text><text fill="#000000" font-family="sans-serif" font-size="14.7794" lengthAdjust="spacing" textLength="153.4788" x="1622.4648" y="658.6317">s0_abort_bootstrap()</text><!--MD5=[9f683091ff865f2b243612629572d9ed]
link S0_AWAITING_SCHEME_REPORT to S0_INC_IDLE--><path d="M752.3336,34.8658 C1090.0499,51.517 1929.4225,98.8024 1929.4225,157.4579 C1929.4225,157.4579 1929.4225,157.4579 1929.4225,1352.8875 C1929.4225,1537.9181 1715.3397,1444.8316 1534.925,1485.9025 C1402.9182,1515.9536 1244.7824,1530.3951 1157.5284,1536.5424 " fill="none" id="S0_AWAITING_SCHEME_REPORT-to-S0_INC_IDLE-1" style="stroke:#A80036;stroke-width:1.1368802826821818;"/><polygon fill="#A80036" points="1151.3699,1536.9707,1161.8928,1540.7972,1157.0406,1536.5762,1161.2616,1531.7241,1151.3699,1536.9707" style="stroke:#A80036;stroke-width:1.1368802826821818;"/><path d="M1935.1069,604.8203 L1935.1069,667.3487 L2193.1787,667.3487 L2193.1787,616.1891 L2181.8099,604.8203 L1935.1069,604.8203 " fill="#FBFB77" filter="url(#f12h0frg1900ym)" style="stroke:#A80036;stroke-width:1.1368802826821818;"/><path d="M2181.8099,604.8203 L2181.8099,616.1891 L2193.1787,616.1891 L2181.8099,604.8203 " fill="#FBFB77" style="stroke:#A80036;stroke-width:1.1368802826821818;"/><text fill="#000000" font-family="sans-serif" font-size="14.7794" lengthAdjust="spacing" textLength="118.2355" x="1941.9282" y="624.2233">EV_S0_TIMEOUT</text><text fill="#000000" font-family="sans-serif" font-size="14.7794" lengthAdjust="spacing" textLength="234.1973" x="1941.9282" y="641.4275">S0_BOOTSTRAP_ABORT_ACTION</text><text fill="#000000" font-family="sans-serif" font-size="14.7794" lengthAdjust="spacing" textLength="153.4788" x="1941.9282" y="658.6317">s0_abort_bootstrap()</text><!--MD5=[302e2777fbbe6f37d9bf0389bfb0c374]
link S0_AWAITING_SCHEME_REPORT to S0_HANDLE_SCHEME_REPORT--><path d="M606.3073,49.1048 C588.8494,95.7278 546.452,208.9539 527.2078,260.3471 " fill="none" id="S0_AWAITING_SCHEME_REPORT-to-S0_HANDLE_SCHEME_REPORT" style="stroke:#A80036;stroke-width:1.1368802826821818;"/><polygon fill="#A80036" points="525.1987,265.7125,533.0456,257.7251,527.1921,260.3891,524.5282,254.5356,525.1987,265.7125" style="stroke:#A80036;stroke-width:1.1368802826821818;"/><path d="M585.63,123.92 L585.63,186.4484 L872.1238,186.4484 L872.1238,135.2888 L860.755,123.92 L585.63,123.92 " fill="#FBFB77" filter="url(#f12h0frg1900ym)" style="stroke:#A80036;stroke-width:1.1368802826821818;"/><path d="M860.755,123.92 L860.755,135.2888 L872.1238,135.2888 L860.755,123.92 " fill="#FBFB77" style="stroke:#A80036;stroke-width:1.1368802826821818;"/><text fill="#000000" font-family="sans-serif" font-size="14.7794" lengthAdjust="spacing" textLength="260.3456" x="592.4513" y="143.323">EV_S0_SCHEME_REPORT_RECEIVED</text><text fill="#000000" font-family="sans-serif" font-size="14.7794" lengthAdjust="spacing" textLength="262.6193" x="592.4513" y="160.5272">S0_SCHEME_REPORT_RECV_ACTION</text><text fill="#000000" font-family="sans-serif" font-size="14.7794" lengthAdjust="spacing" textLength="196.6803" x="592.4513" y="177.7314">s0_handle_net_key_verify()</text><!--MD5=[15c88129d1759b3b90304614e9730799]
link S0_HANDLE_SCHEME_REPORT to S0_INC_IDLE--><path d="M649.6273,298.0715 C849.4217,317.3754 1205.2298,359.604 1205.2298,415.5297 C1205.2298,415.5297 1205.2298,415.5297 1205.2298,750.9094 C1205.2298,818.3813 1167.6596,844.4972 1201.8191,902.6829 C1252.2083,988.5135 1346.9734,925.9929 1397.3625,1011.8235 C1415.0135,1041.8894 1407.197,1056.8197 1397.3625,1090.2682 C1342.9633,1275.2887 1180.9134,1451.4551 1117.445,1515.2787 " fill="none" id="S0_HANDLE_SCHEME_REPORT-to-S0_INC_IDLE" style="stroke:#A80036;stroke-width:1.1368802826821818;"/><polygon fill="#A80036" points="1113.0484,1519.6784,1123.4976,1515.6552,1117.0664,1515.6575,1117.0641,1509.2263,1113.0484,1519.6784" style="stroke:#A80036;stroke-width:1.1368802826821818;"/><path d="M1207.5035,829.9226 L1207.5035,892.451 L1475.8073,892.451 L1475.8073,841.2914 L1464.4385,829.9226 L1207.5035,829.9226 " fill="#FBFB77" filter="url(#f12h0frg1900ym)" style="stroke:#A80036;stroke-width:1.1368802826821818;"/><path d="M1464.4385,829.9226 L1464.4385,841.2914 L1475.8073,841.2914 L1464.4385,829.9226 " fill="#FBFB77" style="stroke:#A80036;stroke-width:1.1368802826821818;"/><text fill="#000000" font-family="sans-serif" font-size="14.7794" lengthAdjust="spacing" textLength="244.4293" x="1214.3248" y="849.3256">EV_S0_WRONG_SCHEME_REPORT</text><text fill="#000000" font-family="sans-serif" font-size="14.7794" lengthAdjust="spacing" textLength="234.1973" x="1214.3248" y="866.5298">S0_BOOTSTRAP_ABORT_ACTION</text><text fill="#000000" font-family="sans-serif" font-size="14.7794" lengthAdjust="spacing" textLength="153.4788" x="1214.3248" y="883.734">s0_abort_bootstrap()</text><!--MD5=[f88b3bdac1c427253889e16e2ead8c7d]
link S0_HANDLE_SCHEME_REPORT to S0_AWAITING_KEY_VERIFY--><path d="M522.064,307.1766 C532.5176,353.7053 557.8743,466.5676 569.4534,518.106 " fill="none" id="S0_HANDLE_SCHEME_REPORT-to-S0_AWAITING_KEY_VERIFY" style="stroke:#A80036;stroke-width:1.1368802826821818;"/><polygon fill="#A80036" points="570.7291,523.7843,572.9229,512.8043,569.483,518.2382,564.0491,514.7982,570.7291,523.7843" style="stroke:#A80036;stroke-width:1.1368802826821818;"/><path d="M560.6186,381.9918 L560.6186,444.5202 L785.7209,444.5202 L785.7209,393.3606 L774.3521,381.9918 L560.6186,381.9918 " fill="#FBFB77" filter="url(#f12h0frg1900ym)" style="stroke:#A80036;stroke-width:1.1368802826821818;"/><path d="M774.3521,381.9918 L774.3521,393.3606 L785.7209,393.3606 L774.3521,381.9918 " fill="#FBFB77" style="stroke:#A80036;stroke-width:1.1368802826821818;"/><text fill="#000000" font-family="sans-serif" font-size="14.7794" lengthAdjust="spacing" textLength="165.9845" x="567.4399" y="401.3948">EV_S0_SEND_KEY_SET</text><text fill="#000000" font-family="sans-serif" font-size="14.7794" lengthAdjust="spacing" textLength="201.2278" x="567.4399" y="418.599">S0_SEND_KEY_SET_ACTION</text><text fill="#000000" font-family="sans-serif" font-size="14.7794" lengthAdjust="spacing" textLength="135.2888" x="567.4399" y="435.8032">s0_send_key_set()</text><!--MD5=[506feb4b7686178e34f82e1b0439792f]
link S0_AWAITING_KEY_VERIFY to S0_INC_IDLE--><path d="M620.1074,565.2092 C670.8814,591.3385 751.409,641.5484 787.9947,711.6871 C865.9377,861.1122 722.2481,946.1381 809.5954,1090.2682 C867.8461,1186.3865 961.7965,1128.1431 1026.7395,1219.8725 C1092.2469,1312.3991 1094.9927,1455.5925 1093.0269,1514.1543 " fill="none" id="S0_AWAITING_KEY_VERIFY-to-S0_INC_IDLE" style="stroke:#A80036;stroke-width:1.1368802826821818;"/><polygon fill="#A80036" points="1092.8101,1519.8831,1097.7418,1509.8307,1093.0253,1514.2028,1088.6532,1509.4863,1092.8101,1519.8831" style="stroke:#A80036;stroke-width:1.1368802826821818;"/><path d="M815.2798,1017.5079 L815.2798,1080.0363 L1073.3516,1080.0363 L1073.3516,1028.8767 L1061.9828,1017.5079 L815.2798,1017.5079 " fill="#FBFB77" filter="url(#f12h0frg1900ym)" style="stroke:#A80036;stroke-width:1.1368802826821818;"/><path d="M1061.9828,1017.5079 L1061.9828,1028.8767 L1073.3516,1028.8767 L1061.9828,1017.5079 " fill="#FBFB77" style="stroke:#A80036;stroke-width:1.1368802826821818;"/><text fill="#000000" font-family="sans-serif" font-size="14.7794" lengthAdjust="spacing" textLength="118.2355" x="822.1011" y="1036.9109">EV_S0_TIMEOUT</text><text fill="#000000" font-family="sans-serif" font-size="14.7794" lengthAdjust="spacing" textLength="234.1973" x="822.1011" y="1054.1151">S0_BOOTSTRAP_ABORT_ACTION</text><text fill="#000000" font-family="sans-serif" font-size="14.7794" lengthAdjust="spacing" textLength="153.4788" x="822.1011" y="1071.3193">s0_abort_bootstrap()</text><!--MD5=[506feb4b7686178e34f82e1b0439792f]
link S0_AWAITING_KEY_VERIFY to S0_INC_IDLE--><path d="M676.2756,565.1069 C701.8381,573.159 728.3088,584.1766 750.4776,599.1359 C946.9218,731.6947 1001.7775,791.1309 1088.1311,1011.8235 C1164.971,1208.2024 1137.2805,1277.1452 1107.458,1485.9025 C1106.1427,1495.1104 1103.6385,1504.9349 1100.9991,1513.674 " fill="none" id="S0_AWAITING_KEY_VERIFY-to-S0_INC_IDLE-1" style="stroke:#A80036;stroke-width:1.1368802826821818;"/><polygon fill="#A80036" points="1099.1631,1519.5299,1106.5635,1511.127,1100.8638,1514.1058,1097.885,1508.4061,1099.1631,1519.5299" style="stroke:#A80036;stroke-width:1.1368802826821818;"/><path d="M1119.9637,1017.5079 L1119.9637,1080.0363 L1378.0356,1080.0363 L1378.0356,1028.8767 L1366.6668,1017.5079 L1119.9637,1017.5079 " fill="#FBFB77" filter="url(#f12h0frg1900ym)" style="stroke:#A80036;stroke-width:1.1368802826821818;"/><path d="M1366.6668,1017.5079 L1366.6668,1028.8767 L1378.0356,1028.8767 L1366.6668,1017.5079 " fill="#FBFB77" style="stroke:#A80036;stroke-width:1.1368802826821818;"/><text fill="#000000" font-family="sans-serif" font-size="14.7794" lengthAdjust="spacing" textLength="198.954" x="1126.785" y="1036.9109">EV_S0_BOOTSTRAP_ABORT</text><text fill="#000000" font-family="sans-serif" font-size="14.7794" lengthAdjust="spacing" textLength="234.1973" x="1126.785" y="1054.1151">S0_BOOTSTRAP_ABORT_ACTION</text><text fill="#000000" font-family="sans-serif" font-size="14.7794" lengthAdjust="spacing" textLength="153.4788" x="1126.785" y="1071.3193">s0_abort_bootstrap()</text><!--MD5=[1c2947fd64541d149900f3c1d02a739c]
link S0_AWAITING_KEY_VERIFY to S0_HANDLE_NET_KEY_VERIFY--><path d="M553.8129,565.3182 C524.9777,594.7031 475.2855,651.5874 456.0256,711.6871 C430.8472,790.2557 474.1011,886.1359 498.7222,931.3271 " fill="none" id="S0_AWAITING_KEY_VERIFY-to-S0_HANDLE_NET_KEY_VERIFY" style="stroke:#A80036;stroke-width:1.1368802826821818;"/><polygon fill="#A80036" points="501.6266,936.5823,500.6574,925.4274,498.877,931.6072,492.6972,929.8268,501.6266,936.5823" style="stroke:#A80036;stroke-width:1.1368802826821818;"/><path d="M461.71,717.3715 L461.71,779.8999 L773.2152,779.8999 L773.2152,728.7403 L761.8464,717.3715 L461.71,717.3715 " fill="#FBFB77" filter="url(#f12h0frg1900ym)" style="stroke:#A80036;stroke-width:1.1368802826821818;"/><path d="M761.8464,717.3715 L761.8464,728.7403 L773.2152,728.7403 L761.8464,717.3715 " fill="#FBFB77" style="stroke:#A80036;stroke-width:1.1368802826821818;"/><text fill="#000000" font-family="sans-serif" font-size="14.7794" lengthAdjust="spacing" textLength="214.8704" x="468.5313" y="736.7745">S0_HANDLE_NET_KEY_VERIFY</text><text fill="#000000" font-family="sans-serif" font-size="14.7794" lengthAdjust="spacing" textLength="287.6307" x="468.5313" y="753.9787">S0_NET_KEY_VERIFY_RECEIVED_ACTION</text><text fill="#000000" font-family="sans-serif" font-size="14.7794" lengthAdjust="spacing" textLength="196.6803" x="468.5313" y="771.1829">s0_handle_net_key_verify()</text><!--MD5=[cacdc678a3c1415bf786d91f6b7f6273]
link S0_HANDLE_NET_KEY_VERIFY to S0_INC_IDLE--><path d="M558.3757,977.8542 C609.4046,1004.0996 691.2598,1054.5742 731.1507,1124.3746 C769.8043,1192.0101 707.2716,1235.0697 752.7514,1298.3173 C818.1934,1389.3259 896.2488,1333.0965 980.1275,1407.4578 C1011.0688,1434.8883 1003.3255,1454.4345 1030.1502,1485.9025 C1039.2971,1496.6329 1050.5364,1507.2148 1060.8873,1516.1624 " fill="none" id="S0_HANDLE_NET_KEY_VERIFY-to-S0_INC_IDLE" style="stroke:#A80036;stroke-width:1.1368802826821818;"/><polygon fill="#A80036" points="1065.2603,1519.8927,1060.4273,1509.7926,1060.9357,1516.2036,1054.5247,1516.712,1065.2603,1519.8927" style="stroke:#A80036;stroke-width:1.1368802826821818;"/><path d="M758.4358,1225.5569 L758.4358,1288.0854 L1011.9601,1288.0854 L1011.9601,1236.9257 L1000.5913,1225.5569 L758.4358,1225.5569 " fill="#FBFB77" filter="url(#f12h0frg1900ym)" style="stroke:#A80036;stroke-width:1.1368802826821818;"/><path d="M1000.5913,1225.5569 L1000.5913,1236.9257 L1011.9601,1236.9257 L1000.5913,1225.5569 " fill="#FBFB77" style="stroke:#A80036;stroke-width:1.1368802826821818;"/><text fill="#000000" font-family="sans-serif" font-size="14.7794" lengthAdjust="spacing" textLength="229.6498" x="765.2571" y="1244.96">EV_S0_WAS_NOT_CONTROLLER</text><text fill="#000000" font-family="sans-serif" font-size="14.7794" lengthAdjust="spacing" textLength="112.5511" x="765.2571" y="1262.1642">S0_NO_ACTION</text><text fill="#000000" font-family="sans-serif" font-size="14.7794" lengthAdjust="spacing" textLength="153.4788" x="765.2571" y="1279.3684">s0_abort_bootstrap()</text><!--MD5=[3c25914b918318eb2370bccb61c73eb7]
link S0_HANDLE_NET_KEY_VERIFY to S0_AWAITING_2SCHEME_REPORT--><path d="M502.2745,977.9087 C481.054,1017.822 439.9209,1108.4312 456.0256,1185.7661 C467.0032,1238.4807 495.5326,1294.9519 513.4316,1326.8972 " fill="none" id="S0_HANDLE_NET_KEY_VERIFY-to-S0_AWAITING_2SCHEME_REPORT" style="stroke:#A80036;stroke-width:1.1368802826821818;"/><polygon fill="#A80036" points="516.4258,1332.1897,515.3452,1321.045,513.6266,1327.2423,507.4294,1325.5237,516.4258,1332.1897" style="stroke:#A80036;stroke-width:1.1368802826821818;"/><path d="M461.71,1130.059 L461.71,1175.5342 L716.3712,1175.5342 L716.3712,1141.4278 L705.0024,1130.059 L461.71,1130.059 " fill="#FBFB77" filter="url(#f12h0frg1900ym)" style="stroke:#A80036;stroke-width:1.1368802826821818;"/><path d="M705.0024,1130.059 L705.0024,1141.4278 L716.3712,1141.4278 L705.0024,1130.059 " fill="#FBFB77" style="stroke:#A80036;stroke-width:1.1368802826821818;"/><text fill="#000000" font-family="sans-serif" font-size="14.7794" lengthAdjust="spacing" textLength="230.7867" x="468.5313" y="1149.462">EV_S0_SEND_SCHEME_INHERIT</text><text fill="#000000" font-family="sans-serif" font-size="14.7794" lengthAdjust="spacing" textLength="190.9959" x="468.5313" y="1166.6662">s0_send_scheme_inherit()</text><!--MD5=[aef6c262098217463fda2273bd1cdac1]
link S0_AWAITING_2SCHEME_REPORT to S0_INC_IDLE--><path d="M385.2231,1359 C246.6106,1366.4135 54.288,1381.2912 30.8324,1407.4578 C7.5612,1433.4187 6.8213,1460.6243 30.8324,1485.9025 C65.1928,1522.0761 799.7711,1536.0914 1025.8918,1539.5582 " fill="none" id="S0_AWAITING_2SCHEME_REPORT-to-S0_INC_IDLE" style="stroke:#A80036;stroke-width:1.1368802826821818;"/><polygon fill="#A80036" points="1031.786,1539.6479,1021.6247,1534.9448,1026.1023,1539.5611,1021.4859,1544.0387,1031.786,1539.6479" style="stroke:#A80036;stroke-width:1.1368802826821818;"/><path d="M36.5168,1413.1422 L36.5168,1475.6706 L326.4213,1475.6706 L326.4213,1424.511 L315.0525,1413.1422 L36.5168,1413.1422 " fill="#FBFB77" filter="url(#f12h0frg1900ym)" style="stroke:#A80036;stroke-width:1.1368802826821818;"/><path d="M315.0525,1413.1422 L315.0525,1424.511 L326.4213,1424.511 L315.0525,1413.1422 " fill="#FBFB77" style="stroke:#A80036;stroke-width:1.1368802826821818;"/><text fill="#000000" font-family="sans-serif" font-size="14.7794" lengthAdjust="spacing" textLength="260.3456" x="43.3381" y="1432.5452">EV_S0_SCHEME_REPORT_RECEIVED</text><text fill="#000000" font-family="sans-serif" font-size="14.7794" lengthAdjust="spacing" textLength="266.03" x="43.3381" y="1449.7494">S0_SEND_SCHEME_INHERIT_ACTION</text><text fill="#000000" font-family="sans-serif" font-size="14.7794" lengthAdjust="spacing" textLength="105.7299" x="43.3381" y="1466.9536">callback to NM</text><!--MD5=[aef6c262098217463fda2273bd1cdac1]
link S0_AWAITING_2SCHEME_REPORT to S0_INC_IDLE--><path d="M450.0202,1373.4031 C419.9662,1382.9578 390.8099,1394.9645 382.1284,1407.4578 C362.2334,1436.0883 358.4398,1460.3218 382.1284,1485.9025 C403.8369,1509.3451 853.9311,1530.5433 1025.7114,1537.8096 " fill="none" id="S0_AWAITING_2SCHEME_REPORT-to-S0_INC_IDLE-1" style="stroke:#A80036;stroke-width:1.1368802826821818;"/><polygon fill="#A80036" points="1031.7035,1538.0623,1021.6722,1533.0879,1026.0242,1537.8229,1021.2891,1542.1748,1031.7035,1538.0623" style="stroke:#A80036;stroke-width:1.1368802826821818;"/><path d="M387.8128,1413.1422 L387.8128,1475.6706 L645.8847,1475.6706 L645.8847,1424.511 L634.5159,1413.1422 L387.8128,1413.1422 " fill="#FBFB77" filter="url(#f12h0frg1900ym)" style="stroke:#A80036;stroke-width:1.1368802826821818;"/><path d="M634.5159,1413.1422 L634.5159,1424.511 L645.8847,1424.511 L634.5159,1413.1422 " fill="#FBFB77" style="stroke:#A80036;stroke-width:1.1368802826821818;"/><text fill="#000000" font-family="sans-serif" font-size="14.7794" lengthAdjust="spacing" textLength="118.2355" x="394.6341" y="1432.5452">EV_S0_TIMEOUT</text><text fill="#000000" font-family="sans-serif" font-size="14.7794" lengthAdjust="spacing" textLength="234.1973" x="394.6341" y="1449.7494">S0_BOOTSTRAP_ABORT_ACTION</text><text fill="#000000" font-family="sans-serif" font-size="14.7794" lengthAdjust="spacing" textLength="153.4788" x="394.6341" y="1466.9536">s0_abort_bootstrap()</text><!--MD5=[aef6c262098217463fda2273bd1cdac1]
link S0_AWAITING_2SCHEME_REPORT to S0_INC_IDLE--><path d="M603.5023,1373.3882 C623.734,1381.563 644.4871,1392.6533 660.6641,1407.4578 C689.674,1434.0063 669.4608,1463.231 701.5918,1485.9025 C752.5222,1521.839 928.7791,1534.2681 1025.9586,1538.4452 " fill="none" id="S0_AWAITING_2SCHEME_REPORT-to-S0_INC_IDLE-2" style="stroke:#A80036;stroke-width:1.1368802826821818;"/><polygon fill="#A80036" points="1031.6703,1538.685,1021.6383,1533.7121,1025.9909,1538.4465,1021.2565,1542.7991,1031.6703,1538.685" style="stroke:#A80036;stroke-width:1.1368802826821818;"/><path d="M707.2762,1413.1422 L707.2762,1475.6706 L965.348,1475.6706 L965.348,1424.511 L953.9792,1413.1422 L707.2762,1413.1422 " fill="#FBFB77" filter="url(#f12h0frg1900ym)" style="stroke:#A80036;stroke-width:1.1368802826821818;"/><path d="M953.9792,1413.1422 L953.9792,1424.511 L965.348,1424.511 L953.9792,1413.1422 " fill="#FBFB77" style="stroke:#A80036;stroke-width:1.1368802826821818;"/><text fill="#000000" font-family="sans-serif" font-size="14.7794" lengthAdjust="spacing" textLength="198.954" x="714.0975" y="1432.5452">EV_S0_BOOTSTRAP_ABORT</text><text fill="#000000" font-family="sans-serif" font-size="14.7794" lengthAdjust="spacing" textLength="234.1973" x="714.0975" y="1449.7494">S0_BOOTSTRAP_ABORT_ACTION</text><text fill="#000000" font-family="sans-serif" font-size="14.7794" lengthAdjust="spacing" textLength="153.4788" x="714.0975" y="1466.9536">s0_abort_bootstrap()</text><!--MD5=[b7e1fa7f976cae69d5204312b5025d46]
@startuml inline_umlgraph_15.svg
 top to bottom direction
 scale 2200 width

 rectangle  S0_INC_IDLE #aliceblue;line:blue;line.bold;text:blue
 together {
 rectangle  S0_AWAITING_SCHEME_REPORT #aliceblue;line:blue;line.bold;text:blue
 rectangle  S0_HANDLE_SCHEME_REPORT #aliceblue;line:blue;line.bold;text:blue
 rectangle  S0_AWAITING_KEY_VERIFY #aliceblue;line:blue;line.bold;text:blue
 rectangle  S0_HANDLE_NET_KEY_VERIFY #aliceblue;line:blue;line.bold;text:blue
 rectangle  S0_AWAITING_2SCHEME_REPORT #aliceblue;line:blue;line.bold;text:blue
 }

   S0_INC_IDLE -down-> S0_AWAITING_SCHEME_REPORT
 note on link
 EV_S0_BOOTSTRAPPING_START
 S0_SEND_SCHEME_GET_ACTION
 s0_send_scheme_get()
 end note

   S0_AWAITING_SCHEME_REPORT - -> S0_INC_IDLE
 note on link
 EV_S0_BOOTSTRAP_ABORT
 S0_BOOTSTRAP_ABORT_ACTION
 s0_abort_bootstrap()
 end note

   S0_AWAITING_SCHEME_REPORT - -> S0_INC_IDLE
 note on link
 EV_S0_TIMEOUT
 S0_BOOTSTRAP_ABORT_ACTION
 s0_abort_bootstrap()
 end note

   S0_AWAITING_SCHEME_REPORT - -> S0_HANDLE_SCHEME_REPORT
 note on link
 EV_S0_SCHEME_REPORT_RECEIVED
 S0_SCHEME_REPORT_RECV_ACTION
 s0_handle_net_key_verify()
 end note

   S0_HANDLE_SCHEME_REPORT - -> S0_INC_IDLE
 note on link
 EV_S0_WRONG_SCHEME_REPORT
 S0_BOOTSTRAP_ABORT_ACTION
 s0_abort_bootstrap()
 end note

   S0_HANDLE_SCHEME_REPORT - -> S0_AWAITING_KEY_VERIFY
 note on link
 EV_S0_SEND_KEY_SET
 S0_SEND_KEY_SET_ACTION
 s0_send_key_set()
 end note

   S0_AWAITING_KEY_VERIFY - -> S0_INC_IDLE
 note on link
 EV_S0_TIMEOUT
 S0_BOOTSTRAP_ABORT_ACTION
 s0_abort_bootstrap()
 end note

   S0_AWAITING_KEY_VERIFY - -> S0_HANDLE_NET_KEY_VERIFY
 note on link
 S0_HANDLE_NET_KEY_VERIFY
 S0_NET_KEY_VERIFY_RECEIVED_ACTION
 s0_handle_net_key_verify()
 end note

   S0_AWAITING_KEY_VERIFY - -> S0_INC_IDLE
 note on link
 EV_S0_BOOTSTRAP_ABORT
 S0_BOOTSTRAP_ABORT_ACTION
 s0_abort_bootstrap()
 end note

   S0_HANDLE_NET_KEY_VERIFY - -> S0_INC_IDLE
 note on link
 EV_S0_WAS_NOT_CONTROLLER
 S0_NO_ACTION
 s0_abort_bootstrap()
 end note

   S0_HANDLE_NET_KEY_VERIFY - -> S0_AWAITING_2SCHEME_REPORT
 note on link
 EV_S0_SEND_SCHEME_INHERIT
 s0_send_scheme_inherit()
 end note

   S0_AWAITING_2SCHEME_REPORT - -> S0_INC_IDLE
 note on link
 EV_S0_SCHEME_REPORT_RECEIVED
 S0_SEND_SCHEME_INHERIT_ACTION
 callback to NM
 end note

   S0_AWAITING_2SCHEME_REPORT - -> S0_INC_IDLE
 note on link
 EV_S0_TIMEOUT
 S0_BOOTSTRAP_ABORT_ACTION
 s0_abort_bootstrap()
 end note


   S0_AWAITING_2SCHEME_REPORT - -> S0_INC_IDLE
 note on link
 EV_S0_BOOTSTRAP_ABORT
 S0_BOOTSTRAP_ABORT_ACTION
 s0_abort_bootstrap()
 end note
@enduml

PlantUML version 1.2022.0(Tue Jan 11 16:16:42 UTC 2022)
(GPL source distribution)
Java Runtime: OpenJDK Runtime Environment
JVM: OpenJDK 64-Bit Server VM
Default Encoding: ANSI_X3.4-1968
Language: en
Country: US
--></g></svg>