<?xml version="1.0" encoding="UTF-8" standalone="no"?><svg xmlns="http://www.w3.org/2000/svg" xmlns:xlink="http://www.w3.org/1999/xlink" contentScriptType="application/ecmascript" contentStyleType="text/css" height="535px" preserveAspectRatio="none" style="width:1169px;height:535px;" version="1.1" viewBox="0 0 1169 535" width="1169px" zoomAndPan="magnify"><defs><filter height="300%" id="f4fl4c2hed670" width="300%" x="-1" y="-1"><feGaussianBlur result="blurOut" stdDeviation="2.0"/><feColorMatrix in="blurOut" result="blurOut2" type="matrix" values="0 0 0 0 0 0 0 0 0 0 0 0 0 0 0 0 0 0 .4 0"/><feOffset dx="4.0" dy="4.0" in="blurOut2" result="blurOut3"/><feBlend in="SourceGraphic" in2="blurOut3" mode="normal"/></filter></defs><g><text fill="#000000" font-family="sans-serif" font-size="18" lengthAdjust="spacing" textLength="398" x="379" y="16.708">The anatomy of a Node (Endpoint) interview</text><rect fill="#DDDDDD" height="58.8906" rx="5" ry="5" style="stroke:#000000;stroke-width:1.0;" width="175" x="490" y="28.9531"/><text fill="#118648" font-family="sans-serif" font-size="14" lengthAdjust="spacing" textLength="22" x="496" y="46.9482">--&gt;</text><text fill="#000000" font-family="sans-serif" font-size="14" lengthAdjust="spacing" textLength="128" x="522" y="46.9482">Listens to updates</text><text fill="#7D2508" font-family="sans-serif" font-size="14" lengthAdjust="spacing" textLength="34" x="496" y="63.2451">&lt;--&gt;</text><text fill="#000000" font-family="sans-serif" font-size="14" lengthAdjust="spacing" textLength="125" x="534" y="63.2451">Resolves attribute</text><text fill="#7E770A" font-family="sans-serif" font-size="14" lengthAdjust="spacing" textLength="22" x="496" y="79.542">&lt;--</text><text fill="#000000" font-family="sans-serif" font-size="14" lengthAdjust="spacing" textLength="116" x="522" y="79.542">Creates attribute</text><!--MD5=[b65261aef118fb2a779de7bafa1033ab]
cluster Another Component--><polygon fill="#FFFFFF" filter="url(#f4fl4c2hed670)" points="16,450.3438,182,450.3438,189,472.6406,192,472.6406,192,523.3438,16,523.3438,16,450.3438" style="stroke:#000000;stroke-width:1.5;"/><line style="stroke:#000000;stroke-width:1.5;" x1="16" x2="189" y1="472.6406" y2="472.6406"/><text fill="#000000" font-family="sans-serif" font-size="14" font-weight="bold" lengthAdjust="spacing" textLength="160" x="20" y="465.3389">Another Component</text><!--MD5=[ea3d5de2a0d35296bc751d5a1b771698]
cluster Attribute Store--><path d="M216,112.8438 C216,102.8438 651,102.8438 651,102.8438 C651,102.8438 1086,102.8438 1086,112.8438 L1086,409.8438 C1086,419.8438 651,419.8438 651,419.8438 C651,419.8438 216,419.8438 216,409.8438 L216,112.8438 " fill="#FFFFFF" filter="url(#f4fl4c2hed670)" style="stroke:#000000;stroke-width:1.5;"/><path d="M216,112.8438 C216,122.8438 651,122.8438 651,122.8438 C651,122.8438 1086,122.8438 1086,112.8438 " fill="none" style="stroke:#000000;stroke-width:1.5;"/><text fill="#000000" font-family="sans-serif" font-size="14" font-weight="bold" lengthAdjust="spacing" textLength="118" x="592" y="137.8389">Attribute Store</text><!--MD5=[fc38b25e0dadf8f7ce1177fb49ab4991]
cluster Z-Wave NIF Resolver--><polygon fill="#FFFFFF" filter="url(#f4fl4c2hed670)" points="205,444.8438,374,444.8438,381,467.1406,610,467.1406,610,528.8438,205,528.8438,205,444.8438" style="stroke:#000000;stroke-width:1.5;"/><line style="stroke:#000000;stroke-width:1.5;" x1="205" x2="381" y1="467.1406" y2="467.1406"/><text fill="#000000" font-family="sans-serif" font-size="14" font-weight="bold" lengthAdjust="spacing" textLength="163" x="209" y="459.8389">Z-Wave NIF Resolver</text><!--MD5=[f19fed1edcd566d25c8408c335b03061]
cluster Version Command Class handler--><polygon fill="#FFFFFF" filter="url(#f4fl4c2hed670)" points="630,444.8438,892,444.8438,899,467.1406,1152,467.1406,1152,528.8438,630,528.8438,630,444.8438" style="stroke:#000000;stroke-width:1.5;"/><line style="stroke:#000000;stroke-width:1.5;" x1="630" x2="899" y1="467.1406" y2="467.1406"/><text fill="#000000" font-family="sans-serif" font-size="14" font-weight="bold" lengthAdjust="spacing" textLength="256" x="634" y="459.8389">Version Command Class handler</text><rect fill="#FEFECE" filter="url(#f4fl4c2hed670)" height="37.6094" style="stroke:#000000;stroke-width:1.5;" width="143" x="34.5" y="477.3438"/><text fill="#000000" font-family="sans-serif" font-size="12" lengthAdjust="spacing" textLength="125" x="43.5" y="490.4824">Another component</text><line style="stroke:#000000;stroke-width:1.5;" x1="35.5" x2="176.5" y1="495.3125" y2="495.3125"/><text fill="#000000" font-family="sans-serif" font-size="10" lengthAdjust="spacing" textLength="131" x="40.5" y="508.5947">Wants an interview to start</text><rect fill="#F2FFE6" filter="url(#f4fl4c2hed670)" height="49.25" style="stroke:#000000;stroke-width:1.5;" width="201" x="529.5" y="144.8438"/><text fill="#000000" font-family="sans-serif" font-size="12" lengthAdjust="spacing" textLength="45" x="607.5" y="157.9824">NodeID</text><line style="stroke:#000000;stroke-width:1.5;" x1="530.5" x2="729.5" y1="162.8125" y2="162.8125"/><text fill="#000000" font-family="sans-serif" font-size="10" lengthAdjust="spacing" textLength="189" x="535.5" y="176.0947">Attribute Type = ATTRIBUTE_NODE_ID</text><text fill="#000000" font-family="sans-serif" font-size="10" lengthAdjust="spacing" textLength="168" x="535.5" y="187.7354">value = Desired: [], Reported: [03]</text><rect fill="#E6FFF7" filter="url(#f4fl4c2hed670)" height="49.25" style="stroke:#000000;stroke-width:1.5;" width="224" x="224" y="253.8438"/><text fill="#000000" font-family="sans-serif" font-size="12" lengthAdjust="spacing" textLength="115" x="278.5" y="266.9824">Endpoint Attribute</text><line style="stroke:#000000;stroke-width:1.5;" x1="225" x2="447" y1="271.8125" y2="271.8125"/><text fill="#000000" font-family="sans-serif" font-size="10" lengthAdjust="spacing" textLength="212" x="230" y="285.0947">Attribute Type = ATTRIBUTE_ENDPOINT_ID</text><text fill="#000000" font-family="sans-serif" font-size="10" lengthAdjust="spacing" textLength="172" x="230" y="296.7354">value = Desired: [] - Reported: [04]</text><rect fill="#E8EAF6" filter="url(#f4fl4c2hed670)" height="49.25" style="stroke:#000000;stroke-width:1.5;" width="294" x="483" y="253.8438"/><text fill="#000000" font-family="sans-serif" font-size="12" lengthAdjust="spacing" textLength="83" x="588.5" y="266.9824">Granted keys</text><line style="stroke:#000000;stroke-width:1.5;" x1="484" x2="776" y1="271.8125" y2="271.8125"/><text fill="#000000" font-family="sans-serif" font-size="10" lengthAdjust="spacing" textLength="282" x="489" y="285.0947">Attribute Type = ATTRIBUTE_GRANTED_SECURITY_KEYS</text><text fill="#000000" font-family="sans-serif" font-size="10" lengthAdjust="spacing" textLength="172" x="489" y="296.7354">value = Desired: [] - Reported: [83]</text><rect fill="#FFFFFF" filter="url(#f4fl4c2hed670)" height="49.25" style="stroke:#000000;stroke-width:1.5;" width="212" x="227" y="362.8438"/><text fill="#000000" font-family="sans-serif" font-size="12" lengthAdjust="spacing" textLength="19" x="323.5" y="375.9824">NIF</text><line style="stroke:#000000;stroke-width:1.5;" x1="228" x2="438" y1="380.8125" y2="380.8125"/><text fill="#000000" font-family="sans-serif" font-size="10" lengthAdjust="spacing" textLength="200" x="233" y="394.0947">Attribute Type = ATTRIBUTE_ZWAVE_NIF</text><text fill="#000000" font-family="sans-serif" font-size="10" lengthAdjust="spacing" textLength="156" x="233" y="405.7354">value = Desired: [], Reported: []</text><rect fill="#FFFFFF" filter="url(#f4fl4c2hed670)" height="49.25" style="stroke:#000000;stroke-width:1.5;" width="261" x="474.5" y="362.8438"/><text fill="#000000" font-family="sans-serif" font-size="12" lengthAdjust="spacing" textLength="67" x="571.5" y="375.9824">Secure NIF</text><line style="stroke:#000000;stroke-width:1.5;" x1="475.5" x2="734.5" y1="380.8125" y2="380.8125"/><text fill="#000000" font-family="sans-serif" font-size="10" lengthAdjust="spacing" textLength="249" x="480.5" y="394.0947">Attribute Type = ATTRIBUTE_SECURE_ZWAVE_NIF</text><text fill="#000000" font-family="sans-serif" font-size="10" lengthAdjust="spacing" textLength="156" x="480.5" y="405.7354">value = Desired: [], Reported: []</text><rect fill="#FFFFFF" filter="url(#f4fl4c2hed670)" height="49.25" style="stroke:#000000;stroke-width:1.5;" width="265" x="812.5" y="253.8438"/><text fill="#000000" font-family="sans-serif" font-size="12" lengthAdjust="spacing" textLength="110" x="890" y="266.9824">Version CC Found</text><line style="stroke:#000000;stroke-width:1.5;" x1="813.5" x2="1076.5" y1="271.8125" y2="271.8125"/><text fill="#000000" font-family="sans-serif" font-size="10" lengthAdjust="spacing" textLength="253" x="818.5" y="285.0947">Attribute Type = ATTRIBUTE_CC_VERSION_FOUND</text><text fill="#000000" font-family="sans-serif" font-size="10" lengthAdjust="spacing" textLength="156" x="818.5" y="296.7354">value = Desired: [], Reported: []</text><rect fill="#FEFECE" filter="url(#f4fl4c2hed670)" height="37.6094" style="stroke:#000000;stroke-width:1.5;" width="240" x="213" y="477.3438"/><text fill="#000000" font-family="sans-serif" font-size="12" lengthAdjust="spacing" textLength="89" x="288.5" y="490.4824">NIF Resolution</text><line style="stroke:#000000;stroke-width:1.5;" x1="214" x2="452" y1="495.3125" y2="495.3125"/><text fill="#000000" font-family="sans-serif" font-size="10" lengthAdjust="spacing" textLength="228" x="219" y="508.5947">Finds the right command for resolving the NIFs</text><rect fill="#FEFECE" filter="url(#f4fl4c2hed670)" height="49.25" style="stroke:#000000;stroke-width:1.5;" width="114" x="488" y="471.8438"/><text fill="#000000" font-family="sans-serif" font-size="12" lengthAdjust="spacing" textLength="76" x="507" y="484.9824">NIF Updates</text><line style="stroke:#000000;stroke-width:1.5;" x1="489" x2="601" y1="489.8125" y2="489.8125"/><text fill="#000000" font-family="sans-serif" font-size="10" lengthAdjust="spacing" textLength="102" x="494" y="503.0947">Verifies granted keys</text><text fill="#000000" font-family="sans-serif" font-size="10" lengthAdjust="spacing" textLength="91" x="494" y="514.7354">Create Secure NIF</text><rect fill="#FEFECE" filter="url(#f4fl4c2hed670)" height="49.25" style="stroke:#000000;stroke-width:1.5;" width="205" x="637.5" y="471.8438"/><text fill="#000000" font-family="sans-serif" font-size="12" lengthAdjust="spacing" textLength="76" x="702" y="484.9824">NIF Updates</text><line style="stroke:#000000;stroke-width:1.5;" x1="638.5" x2="841.5" y1="489.8125" y2="489.8125"/><text fill="#000000" font-family="sans-serif" font-size="10" lengthAdjust="spacing" textLength="109" x="643.5" y="503.0947">Search for Version CC</text><text fill="#000000" font-family="sans-serif" font-size="10" lengthAdjust="spacing" textLength="193" x="643.5" y="514.7354">Create supported CC version attributes</text><rect fill="#FEFECE" filter="url(#f4fl4c2hed670)" height="49.25" style="stroke:#000000;stroke-width:1.5;" width="266" x="878" y="471.8438"/><text fill="#000000" font-family="sans-serif" font-size="12" lengthAdjust="spacing" textLength="136" x="943" y="484.9824">Version found update</text><line style="stroke:#000000;stroke-width:1.5;" x1="879" x2="1143" y1="489.8125" y2="489.8125"/><text fill="#000000" font-family="sans-serif" font-size="10" lengthAdjust="spacing" textLength="220" x="884" y="503.0947">unresolve CC Versions attribute, when added</text><text fill="#000000" font-family="sans-serif" font-size="10" lengthAdjust="spacing" textLength="254" x="884" y="514.7354">set back CC Versions attributes to 1, when removed</text><!--MD5=[95477c314ce472250aabd32546a8a81f]
reverse link node to endpoint--><path codeLine="1058" d="M551.4551,198.4642 C504.8243,215.7525 446.3611,237.4276 402.1046,253.8356 " fill="none" id="node-backto-endpoint" style="stroke:#A80036;stroke-width:1.0;"/><polygon fill="#A80036" points="563.6541,193.9414,556.6378,192.2766,552.4025,198.113,559.4189,199.7777,563.6541,193.9414" style="stroke:#A80036;stroke-width:1.0;"/><!--MD5=[00f2dfa714d7ddd67086c78805db2e60]
reverse link node to granted_keys--><path codeLine="1059" d="M630,207.4733 C630,222.8164 630,240.0675 630,253.7079 " fill="none" id="node-backto-granted_keys" style="stroke:#A80036;stroke-width:1.0;"/><polygon fill="#A80036" points="630,194.0775,626,200.0775,630,206.0775,634,200.0775,630,194.0775" style="stroke:#A80036;stroke-width:1.0;"/><!--MD5=[17251201e8ce9d7773083da4aa1f0f81]
reverse link endpoint to nif--><path codeLine="1060" d="M334.9506,316.4734 C334.5283,331.8164 334.0535,349.0675 333.6781,362.7079 " fill="none" id="endpoint-backto-nif" style="stroke:#A80036;stroke-width:1.0;"/><polygon fill="#A80036" points="335.3193,303.0776,331.1557,308.9652,334.9891,315.073,339.1527,309.1853,335.3193,303.0776" style="stroke:#A80036;stroke-width:1.0;"/><!--MD5=[707220feda4d310dda61e6ef1139c3bb]
reverse link endpoint to snif--><path codeLine="1061" d="M408.9576,307.9065 C451.441,325.121 504.3679,346.5671 544.5166,362.8356 " fill="none" id="endpoint-backto-snif" style="stroke:#A80036;stroke-width:1.0;"/><polygon fill="#A80036" points="396.7043,302.9414,400.7629,308.9019,407.8259,307.4479,403.7673,301.4874,396.7043,302.9414" style="stroke:#A80036;stroke-width:1.0;"/><!--MD5=[b06a32206999eb529e450288589a193a]
reverse link node to version_found--><path codeLine="1062" d="M713.5181,198.2437 C763.5834,215.5679 826.5541,237.3578 874.1737,253.8356 " fill="none" id="node-backto-version_found" style="stroke:#A80036;stroke-width:1.0;"/><polygon fill="#A80036" points="701.0849,193.9414,705.447,199.6835,712.4251,197.8655,708.0631,192.1233,701.0849,193.9414" style="stroke:#A80036;stroke-width:1.0;"/><!--MD5=[45b3c66052b4f371dafbd4c4b589b969]
reverse link nif to other_component--><path codeLine="1064" d="M266.0155,413.8658 C243.8054,423.1343 219.1153,433.9556 197,444.8438 C176.805,454.7865 154.8236,467.1801 137.5244,477.3176 " fill="none" id="nif-backto-other_component" style="stroke:#7E770A;stroke-width:1.0;"/><polygon fill="#7E770A" points="270.7154,411.9121,260.8694,411.6732,266.0984,413.8313,263.9403,419.0603,270.7154,411.9121" style="stroke:#7E770A;stroke-width:1.0;"/><!--MD5=[b9468bba2558b67651b0ba69d4d37840]
link nif to nif_resolution--><path codeLine="1066" d="M333,417.318 C333,434.4732 333,455.7247 333,471.8677 " fill="none" id="nif-nif_resolution" style="stroke:#7D2508;stroke-width:1.0;"/><polygon fill="#7D2508" points="333,477.1331,337,468.1331,333,472.1331,329,468.1331,333,477.1331" style="stroke:#7D2508;stroke-width:1.0;"/><polygon fill="#7D2508" points="333,412.0776,329,421.0776,333,417.0776,337,421.0776,333,412.0776" style="stroke:#7D2508;stroke-width:1.0;"/><!--MD5=[b56a44d80cb3bb4fe8cff757eb42cd53]
link snif to nif_resolution--><path codeLine="1067" d="M538.9372,413.8175 C491.7333,432.7338 429.0861,457.8387 385.3332,475.3721 " fill="none" id="snif-nif_resolution" style="stroke:#7D2508;stroke-width:1.0;"/><polygon fill="#7D2508" points="380.6274,477.2578,390.4695,477.6227,385.2686,475.3977,387.4935,470.1968,380.6274,477.2578" style="stroke:#7D2508;stroke-width:1.0;"/><polygon fill="#7D2508" points="543.6187,411.9414,533.7766,411.5764,538.9775,413.8014,536.7526,419.0023,543.6187,411.9414" style="stroke:#7D2508;stroke-width:1.0;"/><!--MD5=[9518322d1804e0be46ca7c0ac4760085]
link nif to nif_updates--><path codeLine="1069" d="M399.088,411.8941 C422.0167,421.2401 447.5839,432.6109 470,444.8438 C482.8423,451.8521 496.2098,460.5309 508.0413,468.7539 " fill="none" id="nif-to-nif_updates" style="stroke:#118648;stroke-width:1.0;"/><polygon fill="#118648" points="512.327,471.7588,507.2545,463.3166,508.2331,468.8882,502.6616,469.8668,512.327,471.7588" style="stroke:#118648;stroke-width:1.0;"/><!--MD5=[ef154293f29dbfefd3179e5d453b01f3]
link nif_updates to snif--><path codeLine="1070" d="M558.561,471.7079 C567.5252,455.423 579.3224,433.9914 588.783,416.8047 " fill="none" id="nif_updates-to-snif" style="stroke:#7E770A;stroke-width:1.0;"/><polygon fill="#7E770A" points="591.3851,412.0776,583.5409,418.0331,588.974,416.4578,590.5493,421.8909,591.3851,412.0776" style="stroke:#7E770A;stroke-width:1.0;"/><!--MD5=[f9a9398180196a3891cee59cd0f1ae71]
link nif to version_nif_updates--><path codeLine="1072" d="M422.1462,411.8738 C433.8269,414.7449 445.6702,417.4859 457,419.8438 C527.894,434.5982 548.3422,425.0588 618,444.8438 C640.5138,451.2385 664.4142,460.6912 685.0382,469.7586 " fill="none" id="nif-to-version_nif_updates" style="stroke:#118648;stroke-width:1.0;"/><polygon fill="#118648" points="689.6594,471.8078,683.0535,464.5029,685.0886,469.7809,679.8105,471.8161,689.6594,471.8078" style="stroke:#118648;stroke-width:1.0;"/><!--MD5=[a82ebae51b3e20f3bf87e3bf31587ece]
link snif to version_nif_updates--><path codeLine="1073" d="M635.6336,412.0776 C656.4326,428.8709 683.9682,451.1033 705.5334,468.5152 " fill="none" id="snif-to-version_nif_updates" style="stroke:#118648;stroke-width:1.0;"/><polygon fill="#118648" points="709.4876,471.7079,704.9979,462.9419,705.5973,468.5669,699.9723,469.1663,709.4876,471.7079" style="stroke:#118648;stroke-width:1.0;"/><!--MD5=[5df2b56f04156e00ec9cf56155aa6b0e]
link version_nif_updates to version_found--><path codeLine="1074" d="M763.3477,471.5156 C801.7177,430.7123 877.8789,349.7214 918.3203,306.7154 " fill="none" id="version_nif_updates-to-version_found" style="stroke:#7E770A;stroke-width:1.0;"/><polygon fill="#7E770A" points="921.8824,302.9274,912.803,306.7437,918.4572,306.5699,918.631,312.224,921.8824,302.9274" style="stroke:#7E770A;stroke-width:1.0;"/><!--MD5=[35dbcd194b3c354417d83993f9ade053]
link version_found to version_found_update--><path codeLine="1075" d="M952.4427,302.9274 C964.6482,343.2423 988.8721,423.2546 1002.0144,466.6641 " fill="none" id="version_found-to-version_found_update" style="stroke:#118648;stroke-width:1.0;"/><polygon fill="#118648" points="1003.4832,471.5156,1004.7036,461.7426,1002.0343,466.7301,997.0469,464.0608,1003.4832,471.5156" style="stroke:#118648;stroke-width:1.0;"/><!--MD5=[1e063b61931112c2ff7b08728ab46500]
@startuml node_interview_anatomy.svg
title The anatomy of a Node (Endpoint) interview
allow_mixing
skinparam objectBorderColor black

legend top
<font color=#118648>- -></font> Listens to updates
<font color=#7d2508><- -></font> Resolves attribute
<font color=#7e770a><- -</font> Creates attribute
endlegend

package "Another Component" {
  object "Another component" as other_component
  other_component : Wants an interview to start
}

package "Attribute Store" <<Database>> {
  object "NodeID" as node #f2ffe6
  node : Attribute Type = ATTRIBUTE_NODE_ID
  node : value = Desired: [], Reported: [03]

  object "Endpoint Attribute" as endpoint #e6fff7
  endpoint : Attribute Type = ATTRIBUTE_ENDPOINT_ID
  endpoint : value = Desired: [] - Reported: [04]

  object "Granted keys" as granted_keys #E8EAF6
  granted_keys : Attribute Type = ATTRIBUTE_GRANTED_SECURITY_KEYS
  granted_keys : value = Desired: [] - Reported: [83]

  object "NIF" as nif #FFFFFF
  nif : Attribute Type = ATTRIBUTE_ZWAVE_NIF
  nif : value = Desired: [], Reported: []

  object "Secure NIF" as snif #FFFFFF
  snif : Attribute Type = ATTRIBUTE_SECURE_ZWAVE_NIF
  snif : value = Desired: [], Reported: []

  object "Version CC Found" as version_found #FFFFFF
  version_found : Attribute Type = ATTRIBUTE_CC_VERSION_FOUND
  version_found : value = Desired: [], Reported: []
}

package "Z-Wave NIF Resolver" {
  object "NIF Resolution" as nif_resolution
  nif_resolution : Finds the right command for resolving the NIFs

  object "NIF Updates" as nif_updates
  nif_updates : Verifies granted keys
  nif_updates : Create Secure NIF
}


package "Version Command Class handler" {
  object "NIF Updates" as version_nif_updates
  version_nif_updates : Search for Version CC
  version_nif_updates : Create supported CC version attributes

  object "Version found update" as version_found_update
  version_found_update : unresolve CC Versions attribute, when added
  version_found_update : set back CC Versions attributes to 1, when removed
}

node *- - endpoint
node *- - granted_keys
endpoint *- - nif
endpoint *- - snif
node *- - version_found

nif <-[#7e770a]- other_component

nif <-[#7d2508]-> nif_resolution
snif <-[#7d2508]-> nif_resolution

nif -[#118648]-> nif_updates
nif_updates -[#7e770a]-> snif

nif -[#118648]-> version_nif_updates
snif -[#118648]-> version_nif_updates
version_nif_updates -[#7e770a]-> version_found
version_found -[#118648]-> version_found_update
@enduml

PlantUML version 1.2021.00(Sun Jan 10 10:25:05 UTC 2021)
(GPL source distribution)
Java Runtime: OpenJDK Runtime Environment
JVM: OpenJDK 64-Bit Server VM
Default Encoding: ANSI_X3.4-1968
Language: en
Country: US
--></g></svg>