<?xml version="1.0" encoding="UTF-8" standalone="no"?><svg xmlns="http://www.w3.org/2000/svg" xmlns:xlink="http://www.w3.org/1999/xlink" contentScriptType="application/ecmascript" contentStyleType="text/css" height="1128px" preserveAspectRatio="none" style="width:820px;height:1128px;background:#FFFFFF;" version="1.1" viewBox="0 0 820 1128" width="820px" zoomAndPan="magnify"><defs><filter height="300%" id="fd465vmig1bc0" width="300%" x="-1" y="-1"><feGaussianBlur result="blurOut" stdDeviation="2.0"/><feColorMatrix in="blurOut" result="blurOut2" type="matrix" values="0 0 0 0 0 0 0 0 0 0 0 0 0 0 0 0 0 0 .4 0"/><feOffset dx="4.0" dy="4.0" in="blurOut2" result="blurOut3"/><feBlend in="SourceGraphic" in2="blurOut3" mode="normal"/></filter></defs><g><rect fill="#FFFFFF" filter="url(#fd465vmig1bc0)" height="281.3281" style="stroke:#000000;stroke-width:2.0;" width="796" x="10" y="302.8984"/><rect fill="#FFFFFF" filter="url(#fd465vmig1bc0)" height="213.0625" style="stroke:#000000;stroke-width:2.0;" width="777" x="10" y="598.2266"/><rect fill="#FFFFFF" filter="url(#fd465vmig1bc0)" height="114.5313" style="stroke:#000000;stroke-width:2.0;" width="777" x="10" y="825.2891"/><rect fill="#FFFFFF" filter="url(#fd465vmig1bc0)" height="114.5313" style="stroke:#000000;stroke-width:2.0;" width="777" x="10" y="953.8203"/><line style="stroke:#A80036;stroke-width:1.0;" x1="49" x2="49" y1="40.2969" y2="255.0938"/><line style="stroke:#A80036;stroke-width:1.0;stroke-dasharray:1.0,4.0;" x1="49" x2="49" y1="255.0938" y2="295.8984"/><line style="stroke:#A80036;stroke-width:1.0;" x1="49" x2="49" y1="295.8984" y2="1085.3516"/><line style="stroke:#A80036;stroke-width:1.0;" x1="371" x2="371" y1="40.2969" y2="255.0938"/><line style="stroke:#A80036;stroke-width:1.0;stroke-dasharray:1.0,4.0;" x1="371" x2="371" y1="255.0938" y2="295.8984"/><line style="stroke:#A80036;stroke-width:1.0;" x1="371" x2="371" y1="295.8984" y2="1085.3516"/><line style="stroke:#A80036;stroke-width:1.0;" x1="624" x2="624" y1="40.2969" y2="255.0938"/><line style="stroke:#A80036;stroke-width:1.0;stroke-dasharray:1.0,4.0;" x1="624" x2="624" y1="255.0938" y2="295.8984"/><line style="stroke:#A80036;stroke-width:1.0;" x1="624" x2="624" y1="295.8984" y2="1085.3516"/><rect fill="#FEFECE" filter="url(#fd465vmig1bc0)" height="30.2969" style="stroke:#A80036;stroke-width:1.5;" width="55" x="20" y="5"/><text fill="#000000" font-family="sans-serif" font-size="14" lengthAdjust="spacing" textLength="41" x="27" y="24.9951">MQTT</text><rect fill="#FEFECE" filter="url(#fd465vmig1bc0)" height="30.2969" style="stroke:#A80036;stroke-width:1.5;" width="55" x="20" y="1084.3516"/><text fill="#000000" font-family="sans-serif" font-size="14" lengthAdjust="spacing" textLength="41" x="27" y="1104.3467">MQTT</text><rect fill="#FEFECE" filter="url(#fd465vmig1bc0)" height="30.2969" style="stroke:#A80036;stroke-width:1.5;" width="177" x="281" y="5"/><text fill="#000000" font-family="sans-serif" font-size="14" lengthAdjust="spacing" textLength="163" x="288" y="24.9951">SmartStartManagement</text><rect fill="#FEFECE" filter="url(#fd465vmig1bc0)" height="30.2969" style="stroke:#A80036;stroke-width:1.5;" width="177" x="281" y="1084.3516"/><text fill="#000000" font-family="sans-serif" font-size="14" lengthAdjust="spacing" textLength="163" x="288" y="1104.3467">SmartStartManagement</text><rect fill="#FEFECE" filter="url(#fd465vmig1bc0)" height="30.2969" style="stroke:#A80036;stroke-width:1.5;" width="301" x="472" y="5"/><text fill="#000000" font-family="sans-serif" font-size="14" lengthAdjust="spacing" textLength="287" x="479" y="24.9951">ProtocolControllerSmartStartManagement</text><rect fill="#FEFECE" filter="url(#fd465vmig1bc0)" height="30.2969" style="stroke:#A80036;stroke-width:1.5;" width="301" x="472" y="1084.3516"/><text fill="#000000" font-family="sans-serif" font-size="14" lengthAdjust="spacing" textLength="287" x="479" y="1104.3467">ProtocolControllerSmartStartManagement</text><path d="M349,55.2969 L349,80.2969 L389,80.2969 L389,65.2969 L379,55.2969 L349,55.2969 " fill="#FBFB77" filter="url(#fd465vmig1bc0)" style="stroke:#A80036;stroke-width:1.0;"/><path d="M379,55.2969 L379,65.2969 L389,65.2969 L379,55.2969 " fill="#FBFB77" style="stroke:#A80036;stroke-width:1.0;"/><text fill="#000000" font-family="sans-serif" font-size="13" lengthAdjust="spacing" textLength="19" x="355" y="72.3638">Init</text><polygon fill="#A80036" points="60.5,106.5625,50.5,110.5625,60.5,114.5625,56.5,110.5625" style="stroke:#A80036;stroke-width:1.0;"/><line style="stroke:#A80036;stroke-width:1.0;" x1="54.5" x2="370.5" y1="110.5625" y2="110.5625"/><text fill="#000000" font-family="sans-serif" font-size="13" lengthAdjust="spacing" textLength="80" x="66.5" y="105.4966">Subscribe to</text><text fill="#000000" font-family="sans-serif" font-size="13" font-style="italic" lengthAdjust="spacing" textLength="120" x="150.5" y="105.4966">ucl/SmartStart/List</text><polygon fill="#A80036" points="359.5,135.6953,369.5,139.6953,359.5,143.6953,363.5,139.6953" style="stroke:#A80036;stroke-width:1.0;"/><line style="stroke:#A80036;stroke-width:1.0;" x1="49.5" x2="365.5" y1="139.6953" y2="139.6953"/><text fill="#000000" font-family="sans-serif" font-size="13" lengthAdjust="spacing" textLength="95" x="56.5" y="134.6294">onMqttPublish(</text><text fill="#000000" font-family="sans-serif" font-size="13" font-style="italic" lengthAdjust="spacing" textLength="120" x="151.5" y="134.6294">ucl/SmartStart/List</text><text fill="#000000" font-family="sans-serif" font-size="13" lengthAdjust="spacing" textLength="5" x="271.5" y="134.6294">)</text><path d="M277,152.6953 L277,177.6953 L462,177.6953 L462,162.6953 L452,152.6953 L277,152.6953 " fill="#FBFB77" filter="url(#fd465vmig1bc0)" style="stroke:#A80036;stroke-width:1.0;"/><path d="M452,152.6953 L452,162.6953 L462,162.6953 L452,152.6953 " fill="#FBFB77" style="stroke:#A80036;stroke-width:1.0;"/><text fill="#000000" font-family="sans-serif" font-size="13" lengthAdjust="spacing" textLength="164" x="283" y="169.7622">Update smartstart_cache</text><polygon fill="#A80036" points="612.5,203.9609,622.5,207.9609,612.5,211.9609,616.5,207.9609" style="stroke:#A80036;stroke-width:1.0;"/><line style="stroke:#A80036;stroke-width:1.0;" x1="371.5" x2="618.5" y1="207.9609" y2="207.9609"/><text fill="#000000" font-family="sans-serif" font-size="13" lengthAdjust="spacing" textLength="203" x="378.5" y="202.895">on_smartstart_state_changed()</text><path d="M462,220.9609 L462,245.9609 L782,245.9609 L782,230.9609 L772,220.9609 L462,220.9609 " fill="#FBFB77" filter="url(#fd465vmig1bc0)" style="stroke:#A80036;stroke-width:1.0;"/><path d="M772,220.9609 L772,230.9609 L782,230.9609 L772,220.9609 " fill="#FBFB77" style="stroke:#A80036;stroke-width:1.0;"/><text fill="#000000" font-family="sans-serif" font-size="13" lengthAdjust="spacing" textLength="299" x="468" y="238.0278">Enable/Disable Inclusion of SmartStart Devices</text><text fill="#000000" font-family="sans-serif" font-size="11" lengthAdjust="spacing" textLength="77" x="298.5" y="279.3042">Time goes by</text><path d="M10,302.8984 L326,302.8984 L326,309.8984 L316,319.8984 L10,319.8984 L10,302.8984 " fill="#EEEEEE" style="stroke:#000000;stroke-width:1.0;"/><rect fill="none" height="281.3281" style="stroke:#000000;stroke-width:2.0;" width="796" x="10" y="302.8984"/><text fill="#000000" font-family="sans-serif" font-size="13" font-weight="bold" lengthAdjust="spacing" textLength="271" x="25" y="315.9653">Node Added from ProtocolController</text><path d="M520,325.0313 L520,350.0313 L724,350.0313 L724,335.0313 L714,325.0313 L520,325.0313 " fill="#FBFB77" filter="url(#fd465vmig1bc0)" style="stroke:#A80036;stroke-width:1.0;"/><path d="M714,325.0313 L714,335.0313 L724,335.0313 L714,325.0313 " fill="#FBFB77" style="stroke:#A80036;stroke-width:1.0;"/><text fill="#000000" font-family="sans-serif" font-size="13" lengthAdjust="spacing" textLength="183" x="526" y="342.0981">Node added with SmartStart</text><polygon fill="#A80036" points="382.5,376.2969,372.5,380.2969,382.5,384.2969,378.5,380.2969" style="stroke:#A80036;stroke-width:1.0;"/><line style="stroke:#A80036;stroke-width:1.0;" x1="376.5" x2="623.5" y1="380.2969" y2="380.2969"/><text fill="#000000" font-family="sans-serif" font-size="13" lengthAdjust="spacing" textLength="143" x="388.5" y="375.231">get_cache_entry(unid)</text><path d="M452,393.2969 L452,418.2969 L792,418.2969 L792,403.2969 L782,393.2969 L452,393.2969 " fill="#FBFB77" filter="url(#fd465vmig1bc0)" style="stroke:#A80036;stroke-width:1.0;"/><path d="M782,393.2969 L782,403.2969 L792,403.2969 L782,393.2969 " fill="#FBFB77" style="stroke:#A80036;stroke-width:1.0;"/><text fill="#000000" font-family="sans-serif" font-size="13" lengthAdjust="spacing" textLength="319" x="458" y="410.3638">If node is found in cache continue to add the node</text><polygon fill="#A80036" points="382.5,444.5625,372.5,448.5625,382.5,452.5625,378.5,448.5625" style="stroke:#A80036;stroke-width:1.0;"/><line style="stroke:#A80036;stroke-width:1.0;" x1="376.5" x2="623.5" y1="448.5625" y2="448.5625"/><text fill="#000000" font-family="sans-serif" font-size="13" lengthAdjust="spacing" textLength="188" x="388.5" y="443.4966">notify_node_added(key, unid)</text><polygon fill="#A80036" points="60.5,503.9609,50.5,507.9609,60.5,511.9609,56.5,507.9609" style="stroke:#A80036;stroke-width:1.0;"/><line style="stroke:#A80036;stroke-width:1.0;" x1="54.5" x2="370.5" y1="507.9609" y2="507.9609"/><text fill="#000000" font-family="sans-serif" font-size="13" lengthAdjust="spacing" textLength="50" x="66.5" y="472.6294">Publish(</text><text fill="#000000" font-family="sans-serif" font-size="13" font-style="italic" lengthAdjust="spacing" textLength="171" x="116.5" y="472.6294">ucl/SmartStart/List/Update</text><text fill="#000000" font-family="sans-serif" font-size="13" lengthAdjust="spacing" textLength="42" x="287.5" y="472.6294">, data)</text><text fill="#000000" font-family="sans-serif" font-size="13" lengthAdjust="spacing" textLength="298" x="66.5" y="487.7622">data contains the updated    SmartStart entry,</text><text fill="#000000" font-family="sans-serif" font-size="13" lengthAdjust="spacing" textLength="133" x="66.5" y="502.895">that has been added</text><polygon fill="#A80036" points="359.5,533.0938,369.5,537.0938,359.5,541.0938,363.5,537.0938" style="stroke:#A80036;stroke-width:1.0;"/><line style="stroke:#A80036;stroke-width:1.0;" x1="49.5" x2="365.5" y1="537.0938" y2="537.0938"/><text fill="#000000" font-family="sans-serif" font-size="13" lengthAdjust="spacing" textLength="95" x="56.5" y="532.0278">onMqttPublish(</text><text fill="#000000" font-family="sans-serif" font-size="13" font-style="italic" lengthAdjust="spacing" textLength="120" x="151.5" y="532.0278">ucl/SmartStart/List</text><text fill="#000000" font-family="sans-serif" font-size="13" lengthAdjust="spacing" textLength="5" x="271.5" y="532.0278">)</text><path d="M277,550.0938 L277,575.0938 L462,575.0938 L462,560.0938 L452,550.0938 L277,550.0938 " fill="#FBFB77" filter="url(#fd465vmig1bc0)" style="stroke:#A80036;stroke-width:1.0;"/><path d="M452,550.0938 L452,560.0938 L462,560.0938 L452,550.0938 " fill="#FBFB77" style="stroke:#A80036;stroke-width:1.0;"/><text fill="#000000" font-family="sans-serif" font-size="13" lengthAdjust="spacing" textLength="164" x="283" y="567.1606">Update smartstart_cache</text><path d="M10,598.2266 L346,598.2266 L346,605.2266 L336,615.2266 L10,615.2266 L10,598.2266 " fill="#EEEEEE" style="stroke:#000000;stroke-width:1.0;"/><rect fill="none" height="213.0625" style="stroke:#000000;stroke-width:2.0;" width="777" x="10" y="598.2266"/><text fill="#000000" font-family="sans-serif" font-size="13" font-weight="bold" lengthAdjust="spacing" textLength="291" x="25" y="611.2935">Node Removed from ProtocolController</text><path d="M518,620.3594 L518,645.3594 L727,645.3594 L727,630.3594 L717,620.3594 L518,620.3594 " fill="#FBFB77" filter="url(#fd465vmig1bc0)" style="stroke:#A80036;stroke-width:1.0;"/><path d="M717,620.3594 L717,630.3594 L727,630.3594 L717,620.3594 " fill="#FBFB77" style="stroke:#A80036;stroke-width:1.0;"/><text fill="#000000" font-family="sans-serif" font-size="13" lengthAdjust="spacing" textLength="188" x="524" y="637.4263">Node Removed from Network</text><polygon fill="#A80036" points="382.5,671.625,372.5,675.625,382.5,679.625,378.5,675.625" style="stroke:#A80036;stroke-width:1.0;"/><line style="stroke:#A80036;stroke-width:1.0;" x1="376.5" x2="623.5" y1="675.625" y2="675.625"/><text fill="#000000" font-family="sans-serif" font-size="13" lengthAdjust="spacing" textLength="175" x="388.5" y="670.5591">notify_node_removed(unid)</text><polygon fill="#A80036" points="60.5,731.0234,50.5,735.0234,60.5,739.0234,56.5,735.0234" style="stroke:#A80036;stroke-width:1.0;"/><line style="stroke:#A80036;stroke-width:1.0;" x1="54.5" x2="370.5" y1="735.0234" y2="735.0234"/><text fill="#000000" font-family="sans-serif" font-size="13" lengthAdjust="spacing" textLength="50" x="66.5" y="699.6919">Publish(</text><text fill="#000000" font-family="sans-serif" font-size="13" font-style="italic" lengthAdjust="spacing" textLength="171" x="116.5" y="699.6919">ucl/SmartStart/List/Update</text><text fill="#000000" font-family="sans-serif" font-size="13" lengthAdjust="spacing" textLength="42" x="287.5" y="699.6919">, data)</text><text fill="#000000" font-family="sans-serif" font-size="13" lengthAdjust="spacing" textLength="298" x="66.5" y="714.8247">data contains the updated    SmartStart entry,</text><text fill="#000000" font-family="sans-serif" font-size="13" lengthAdjust="spacing" textLength="150" x="66.5" y="729.9575">that has been removed</text><polygon fill="#A80036" points="359.5,760.1563,369.5,764.1563,359.5,768.1563,363.5,764.1563" style="stroke:#A80036;stroke-width:1.0;"/><line style="stroke:#A80036;stroke-width:1.0;" x1="49.5" x2="365.5" y1="764.1563" y2="764.1563"/><text fill="#000000" font-family="sans-serif" font-size="13" lengthAdjust="spacing" textLength="95" x="56.5" y="759.0903">onMqttPublish(</text><text fill="#000000" font-family="sans-serif" font-size="13" font-style="italic" lengthAdjust="spacing" textLength="120" x="151.5" y="759.0903">ucl/SmartStart/List</text><text fill="#000000" font-family="sans-serif" font-size="13" lengthAdjust="spacing" textLength="5" x="271.5" y="759.0903">)</text><path d="M277,777.1563 L277,802.1563 L462,802.1563 L462,787.1563 L452,777.1563 L277,777.1563 " fill="#FBFB77" filter="url(#fd465vmig1bc0)" style="stroke:#A80036;stroke-width:1.0;"/><path d="M452,777.1563 L452,787.1563 L462,787.1563 L452,777.1563 " fill="#FBFB77" style="stroke:#A80036;stroke-width:1.0;"/><text fill="#000000" font-family="sans-serif" font-size="13" lengthAdjust="spacing" textLength="164" x="283" y="794.2231">Update smartstart_cache</text><path d="M10,825.2891 L277,825.2891 L277,832.2891 L267,842.2891 L10,842.2891 L10,825.2891 " fill="#EEEEEE" style="stroke:#000000;stroke-width:1.0;"/><rect fill="none" height="114.5313" style="stroke:#000000;stroke-width:2.0;" width="777" x="10" y="825.2891"/><text fill="#000000" font-family="sans-serif" font-size="13" font-weight="bold" lengthAdjust="spacing" textLength="222" x="25" y="838.356">Node Added in SmartStartList</text><polygon fill="#A80036" points="359.5,859.5547,369.5,863.5547,359.5,867.5547,363.5,863.5547" style="stroke:#A80036;stroke-width:1.0;"/><line style="stroke:#A80036;stroke-width:1.0;" x1="49.5" x2="365.5" y1="863.5547" y2="863.5547"/><text fill="#000000" font-family="sans-serif" font-size="13" lengthAdjust="spacing" textLength="95" x="56.5" y="858.4888">onMqttPublish(</text><text fill="#000000" font-family="sans-serif" font-size="13" font-style="italic" lengthAdjust="spacing" textLength="120" x="151.5" y="858.4888">ucl/SmartStart/List</text><text fill="#000000" font-family="sans-serif" font-size="13" lengthAdjust="spacing" textLength="5" x="271.5" y="858.4888">)</text><path d="M277,876.5547 L277,901.5547 L462,901.5547 L462,886.5547 L452,876.5547 L277,876.5547 " fill="#FBFB77" filter="url(#fd465vmig1bc0)" style="stroke:#A80036;stroke-width:1.0;"/><path d="M452,876.5547 L452,886.5547 L462,886.5547 L452,876.5547 " fill="#FBFB77" style="stroke:#A80036;stroke-width:1.0;"/><text fill="#000000" font-family="sans-serif" font-size="13" lengthAdjust="spacing" textLength="164" x="283" y="893.6216">Update smartstart_cache</text><polygon fill="#A80036" points="612.5,927.8203,622.5,931.8203,612.5,935.8203,616.5,931.8203" style="stroke:#A80036;stroke-width:1.0;"/><line style="stroke:#A80036;stroke-width:1.0;" x1="371.5" x2="618.5" y1="931.8203" y2="931.8203"/><text fill="#000000" font-family="sans-serif" font-size="13" lengthAdjust="spacing" textLength="203" x="378.5" y="926.7544">on_smartstart_state_changed()</text><path d="M10,953.8203 L346,953.8203 L346,960.8203 L336,970.8203 L10,970.8203 L10,953.8203 " fill="#EEEEEE" style="stroke:#000000;stroke-width:1.0;"/><rect fill="none" height="114.5313" style="stroke:#000000;stroke-width:2.0;" width="777" x="10" y="953.8203"/><text fill="#000000" font-family="sans-serif" font-size="13" font-weight="bold" lengthAdjust="spacing" textLength="291" x="25" y="966.8872">Node Removed from ProtocolController</text><polygon fill="#A80036" points="359.5,988.0859,369.5,992.0859,359.5,996.0859,363.5,992.0859" style="stroke:#A80036;stroke-width:1.0;"/><line style="stroke:#A80036;stroke-width:1.0;" x1="49.5" x2="365.5" y1="992.0859" y2="992.0859"/><text fill="#000000" font-family="sans-serif" font-size="13" lengthAdjust="spacing" textLength="95" x="56.5" y="987.02">onMqttPublish(</text><text fill="#000000" font-family="sans-serif" font-size="13" font-style="italic" lengthAdjust="spacing" textLength="120" x="151.5" y="987.02">ucl/SmartStart/List</text><text fill="#000000" font-family="sans-serif" font-size="13" lengthAdjust="spacing" textLength="5" x="271.5" y="987.02">)</text><path d="M277,1005.0859 L277,1030.0859 L462,1030.0859 L462,1015.0859 L452,1005.0859 L277,1005.0859 " fill="#FBFB77" filter="url(#fd465vmig1bc0)" style="stroke:#A80036;stroke-width:1.0;"/><path d="M452,1005.0859 L452,1015.0859 L462,1015.0859 L452,1005.0859 " fill="#FBFB77" style="stroke:#A80036;stroke-width:1.0;"/><text fill="#000000" font-family="sans-serif" font-size="13" lengthAdjust="spacing" textLength="164" x="283" y="1022.1528">Update smartstart_cache</text><polygon fill="#A80036" points="612.5,1056.3516,622.5,1060.3516,612.5,1064.3516,616.5,1060.3516" style="stroke:#A80036;stroke-width:1.0;"/><line style="stroke:#A80036;stroke-width:1.0;" x1="371.5" x2="618.5" y1="1060.3516" y2="1060.3516"/><text fill="#000000" font-family="sans-serif" font-size="13" lengthAdjust="spacing" textLength="203" x="378.5" y="1055.2856">on_smartstart_state_changed()</text><!--MD5=[4c909366b6d2c4926263467b9b8de3bf]
@startuml inline_umlgraph_5.svg
participant MQTT
participant SmartStartManagement as SSM
participant ProtocolControllerSmartStartManagement as PCSSM

note over SSM: Init
SSM         -> MQTT : Subscribe to <i>ucl/SmartStart/List</i>
MQTT        -> SSM  : onMqttPublish(<i>ucl/SmartStart/List</i>)
note over SSM       : Update smartstart_cache
SSM         -> PCSSM: on_smartstart_state_changed()
note over PCSSM : Enable/Disable Inclusion of SmartStart Devices
... Time goes by ...
group Node Added from ProtocolController
  note over PCSSM   : Node added with SmartStart
  PCSSM     -> SSM  : get_cache_entry(unid)
  note over PCSSM   : If node is found in cache continue to add the node
  PCSSM     -> SSM  : notify_node_added(key, unid)
  SSM       -> MQTT : Publish(<i>ucl/SmartStart/List/Update</i>, data)\ndata contains the updated    SmartStart entry,\nthat has been added
  MQTT        -> SSM  : onMqttPublish(<i>ucl/SmartStart/List</i>)
  note over SSM       : Update smartstart_cache
end
group Node Removed from ProtocolController
  note over PCSSM   : Node Removed from Network
  PCSSM     -> SSM  : notify_node_removed(unid)
  SSM       -> MQTT : Publish(<i>ucl/SmartStart/List/Update</i>, data)\ndata contains the updated    SmartStart entry,\nthat has been removed
  MQTT        -> SSM  : onMqttPublish(<i>ucl/SmartStart/List</i>)
  note over SSM       : Update smartstart_cache
end

group Node Added in SmartStartList
  MQTT      -> SSM  : onMqttPublish(<i>ucl/SmartStart/List</i>)
  note over SSM     : Update smartstart_cache
  SSM       -> PCSSM: on_smartstart_state_changed()
end
group Node Removed from ProtocolController
  MQTT      -> SSM  : onMqttPublish(<i>ucl/SmartStart/List</i>)
  note over SSM     : Update smartstart_cache
  SSM       -> PCSSM: on_smartstart_state_changed()
end
@enduml

PlantUML version 1.2022.0(Tue Jan 11 16:16:42 UTC 2022)
(GPL source distribution)
Java Runtime: OpenJDK Runtime Environment
JVM: OpenJDK 64-Bit Server VM
Default Encoding: ANSI_X3.4-1968
Language: en
Country: US
--></g></svg>