<?xml version="1.0" encoding="UTF-8" standalone="no"?><svg xmlns="http://www.w3.org/2000/svg" xmlns:xlink="http://www.w3.org/1999/xlink" contentScriptType="application/ecmascript" contentStyleType="text/css" height="656px" preserveAspectRatio="none" style="width:1246px;height:656px;background:#FFFFFF;" version="1.1" viewBox="0 0 1246 656" width="1246px" zoomAndPan="magnify"><defs><filter height="300%" id="f1psngixv77gb8" width="300%" x="-1" y="-1"><feGaussianBlur result="blurOut" stdDeviation="2.0"/><feColorMatrix in="blurOut" result="blurOut2" type="matrix" values="0 0 0 0 0 0 0 0 0 0 0 0 0 0 0 0 0 0 .4 0"/><feOffset dx="4.0" dy="4.0" in="blurOut2" result="blurOut3"/><feBlend in="SourceGraphic" in2="blurOut3" mode="normal"/></filter></defs><g><!--MD5=[f2e3e05f1cd67ac9bd3fa4f68fc5e177]
class AttributeStoreRoot--><rect codeLine="75" fill="#FEFECE" filter="url(#f1psngixv77gb8)" height="48" id="AttributeStoreRoot" style="stroke:#A80036;stroke-width:1.5;" width="132" x="448.5" y="7"/><ellipse cx="463.5" cy="23" fill="#ADD1B2" rx="11" ry="11" style="stroke:#A80036;stroke-width:1.0;"/><path d="M458.5,24.1563 C458.5,26.6563 460.6406,28.4688 463.5625,28.4688 C464.7969,28.4688 465.9688,28.1719 466.7188,27.6563 C467.3281,27.2344 467.6563,26.8125 467.6563,26.4063 C467.6563,25.9375 467.2344,25.5313 466.7344,25.5313 C466.5,25.5313 466.2813,25.6094 466.0781,25.8125 C465.6406,26.25 465.6406,26.25 465.4688,26.3438 C465.0156,26.5781 464.375,26.7188 463.6094,26.7188 C461.6094,26.7188 460.3281,25.7031 460.3281,24.125 L460.3281,23.0781 C460.3281,21.375 461.5469,20.1719 463.25,20.1719 C463.8281,20.1719 464.4063,20.3125 464.875,20.5625 C465.3438,20.8281 465.5156,21.0156 465.5781,21.375 C465.7031,22.0469 465.9531,22.2969 466.4844,22.2969 C466.7656,22.2969 467.0469,22.1563 467.2344,21.9375 C467.3594,21.7656 467.4063,21.5938 467.4063,21.1563 L467.4063,19.7969 C467.4063,19.375 467.3906,19.2344 467.2656,19.0625 C467.0938,18.8125 466.8125,18.6563 466.4844,18.6563 C466.1719,18.6563 465.9688,18.7656 465.75,19.0313 C464.5781,18.5313 464.1406,18.4219 463.1875,18.4219 C460.5156,18.4219 458.5,20.4375 458.5,23.0625 L458.5,24.1563 Z " fill="#000000"/><text fill="#000000" font-family="sans-serif" font-size="12" lengthAdjust="spacing" textLength="100" x="477.5" y="26.948">AttributeStoreRoot</text><line style="stroke:#A80036;stroke-width:1.5;" x1="449.5" x2="579.5" y1="39" y2="39"/><line style="stroke:#A80036;stroke-width:1.5;" x1="449.5" x2="579.5" y1="47" y2="47"/><!--MD5=[ec81f511f4d20a18ef555a8be4cd58b8]
class Network--><rect codeLine="76" fill="#FEFECE" filter="url(#f1psngixv77gb8)" height="81.6" id="Network" style="stroke:#A80036;stroke-width:1.5;" width="105" x="462" y="132"/><ellipse cx="484.65" cy="152.3001" fill="#ADD1B2" rx="11" ry="11" style="stroke:#A80036;stroke-width:1.0;"/><path d="M483.5094,153.3626 L484.8219,153.3626 L484.8219,153.4095 C484.8219,153.8157 484.8375,153.972 484.9469,154.1282 C485.1188,154.3782 485.4156,154.5501 485.7281,154.5501 C486.0094,154.5501 486.3063,154.4095 486.4781,154.1907 C486.6031,154.0032 486.65,153.8626 486.65,153.4095 L486.65,151.5657 C486.65,151.2376 486.6344,151.1282 486.5719,150.9564 C486.4625,150.6595 486.1031,150.4095 485.7281,150.4095 C485.4313,150.4095 485.1656,150.5501 484.9938,150.7689 C484.8531,150.9564 484.8219,151.1282 484.8219,151.5657 L484.8219,151.6282 L483.5094,151.6282 L483.5094,149.4564 L487.3531,149.4564 L487.3531,150.2064 C487.3531,150.597 487.3844,150.7845 487.4938,150.9407 C487.6656,151.1907 487.9625,151.3626 488.275,151.3626 C488.5719,151.3626 488.8375,151.2376 489.025,151.0032 C489.1656,150.8157 489.1969,150.6751 489.1969,150.2064 L489.1969,147.7064 L481.4938,147.7064 C481.0406,147.7064 480.9156,147.722 480.7438,147.8314 C480.4781,148.0032 480.3063,148.2689 480.3063,148.5814 C480.3063,148.8626 480.4313,149.1282 480.6813,149.3001 C480.8688,149.4251 481.0563,149.4564 481.4938,149.4564 L481.6813,149.4564 L481.6813,155.5501 L481.4938,155.5501 C481.0719,155.5501 480.9156,155.5814 480.7438,155.6751 C480.4781,155.8314 480.3063,156.1126 480.3063,156.4095 C480.3063,156.9876 480.7125,157.3001 481.4938,157.3001 L489.5719,157.3001 L489.5719,154.7689 C489.5719,154.3626 489.5406,154.1907 489.4313,154.0345 C489.2594,153.7689 488.9781,153.6126 488.65,153.6126 C488.3688,153.6126 488.0875,153.7532 487.9,153.972 C487.7594,154.1595 487.7281,154.3157 487.7281,154.7689 L487.7281,155.5501 L483.5094,155.5501 L483.5094,153.3626 Z " fill="#000000"/><text fill="#000000" font-family="sans-serif" font-size="12" font-style="italic" lengthAdjust="spacing" textLength="60" x="498.35" y="150.2001">«instance»</text><text fill="#000000" font-family="sans-serif" font-size="12" lengthAdjust="spacing" textLength="45" x="505.85" y="164.3482">Network</text><line style="stroke:#A80036;stroke-width:1.5;" x1="463" x2="566" y1="172.6002" y2="172.6002"/><text fill="#000000" font-family="sans-serif" font-size="11" lengthAdjust="spacing" textLength="93" x="468" y="186.8191">uint8_t search_key</text><line style="stroke:#A80036;stroke-width:1.0;stroke-dasharray:1.0,2.0;" x1="463" x2="480" y1="200.4001" y2="200.4001"/><text fill="#000000" font-family="sans-serif" font-size="11" lengthAdjust="spacing" textLength="69" x="480" y="203.519">.network data.</text><line style="stroke:#A80036;stroke-width:1.0;stroke-dasharray:1.0,2.0;" x1="549" x2="566" y1="200.4001" y2="200.4001"/><!--MD5=[473bf179a3ddcb8f3a1737de73d410bd]
class Device_1--><rect codeLine="80" fill="#FEFECE" filter="url(#f1psngixv77gb8)" height="81.6" id="Device_1" style="stroke:#A80036;stroke-width:1.5;" width="146" x="231.5" y="275"/><ellipse cx="272.6" cy="295.3001" fill="#ADD1B2" rx="11" ry="11" style="stroke:#A80036;stroke-width:1.0;"/><path d="M271.4594,296.3626 L272.7719,296.3626 L272.7719,296.4095 C272.7719,296.8157 272.7875,296.972 272.8969,297.1282 C273.0688,297.3782 273.3656,297.5501 273.6781,297.5501 C273.9594,297.5501 274.2563,297.4095 274.4281,297.1907 C274.5531,297.0032 274.6,296.8626 274.6,296.4095 L274.6,294.5657 C274.6,294.2376 274.5844,294.1282 274.5219,293.9564 C274.4125,293.6595 274.0531,293.4095 273.6781,293.4095 C273.3813,293.4095 273.1156,293.5501 272.9438,293.7689 C272.8031,293.9564 272.7719,294.1282 272.7719,294.5657 L272.7719,294.6282 L271.4594,294.6282 L271.4594,292.4564 L275.3031,292.4564 L275.3031,293.2064 C275.3031,293.597 275.3344,293.7845 275.4438,293.9407 C275.6156,294.1907 275.9125,294.3626 276.225,294.3626 C276.5219,294.3626 276.7875,294.2376 276.975,294.0032 C277.1156,293.8157 277.1469,293.6751 277.1469,293.2064 L277.1469,290.7064 L269.4438,290.7064 C268.9906,290.7064 268.8656,290.722 268.6938,290.8314 C268.4281,291.0032 268.2563,291.2689 268.2563,291.5814 C268.2563,291.8626 268.3813,292.1282 268.6313,292.3001 C268.8188,292.4251 269.0063,292.4564 269.4438,292.4564 L269.6313,292.4564 L269.6313,298.5501 L269.4438,298.5501 C269.0219,298.5501 268.8656,298.5814 268.6938,298.6751 C268.4281,298.8314 268.2563,299.1126 268.2563,299.4095 C268.2563,299.9876 268.6625,300.3001 269.4438,300.3001 L277.5219,300.3001 L277.5219,297.7689 C277.5219,297.3626 277.4906,297.1907 277.3813,297.0345 C277.2094,296.7689 276.9281,296.6126 276.6,296.6126 C276.3188,296.6126 276.0375,296.7532 275.85,296.972 C275.7094,297.1595 275.6781,297.3157 275.6781,297.7689 L275.6781,298.5501 L271.4594,298.5501 L271.4594,296.3626 Z " fill="#000000"/><text fill="#000000" font-family="sans-serif" font-size="12" font-style="italic" lengthAdjust="spacing" textLength="60" x="290.4" y="293.2001">«instance»</text><text fill="#000000" font-family="sans-serif" font-size="12" lengthAdjust="spacing" textLength="52" x="294.4" y="307.3482">Device_1</text><line style="stroke:#A80036;stroke-width:1.5;" x1="232.5" x2="376.5" y1="315.6002" y2="315.6002"/><text fill="#000000" font-family="sans-serif" font-size="11" lengthAdjust="spacing" textLength="134" x="237.5" y="329.8191">zigbee_eui64_t search_key</text><line style="stroke:#A80036;stroke-width:1.0;stroke-dasharray:1.0,2.0;" x1="232.5" x2="273.5" y1="343.4001" y2="343.4001"/><text fill="#000000" font-family="sans-serif" font-size="11" lengthAdjust="spacing" textLength="62" x="273.5" y="346.519">.device data.</text><line style="stroke:#A80036;stroke-width:1.0;stroke-dasharray:1.0,2.0;" x1="335.5" x2="376.5" y1="343.4001" y2="343.4001"/><!--MD5=[ee087e50cea9ae90f445cb025459ddda]
class Device_2--><rect codeLine="84" fill="#FEFECE" filter="url(#f1psngixv77gb8)" height="81.6" id="Device_2" style="stroke:#A80036;stroke-width:1.5;" width="146" x="441.5" y="275"/><ellipse cx="482.6" cy="295.3001" fill="#ADD1B2" rx="11" ry="11" style="stroke:#A80036;stroke-width:1.0;"/><path d="M481.4594,296.3626 L482.7719,296.3626 L482.7719,296.4095 C482.7719,296.8157 482.7875,296.972 482.8969,297.1282 C483.0688,297.3782 483.3656,297.5501 483.6781,297.5501 C483.9594,297.5501 484.2563,297.4095 484.4281,297.1907 C484.5531,297.0032 484.6,296.8626 484.6,296.4095 L484.6,294.5657 C484.6,294.2376 484.5844,294.1282 484.5219,293.9564 C484.4125,293.6595 484.0531,293.4095 483.6781,293.4095 C483.3813,293.4095 483.1156,293.5501 482.9438,293.7689 C482.8031,293.9564 482.7719,294.1282 482.7719,294.5657 L482.7719,294.6282 L481.4594,294.6282 L481.4594,292.4564 L485.3031,292.4564 L485.3031,293.2064 C485.3031,293.597 485.3344,293.7845 485.4438,293.9407 C485.6156,294.1907 485.9125,294.3626 486.225,294.3626 C486.5219,294.3626 486.7875,294.2376 486.975,294.0032 C487.1156,293.8157 487.1469,293.6751 487.1469,293.2064 L487.1469,290.7064 L479.4438,290.7064 C478.9906,290.7064 478.8656,290.722 478.6938,290.8314 C478.4281,291.0032 478.2563,291.2689 478.2563,291.5814 C478.2563,291.8626 478.3813,292.1282 478.6313,292.3001 C478.8188,292.4251 479.0063,292.4564 479.4438,292.4564 L479.6313,292.4564 L479.6313,298.5501 L479.4438,298.5501 C479.0219,298.5501 478.8656,298.5814 478.6938,298.6751 C478.4281,298.8314 478.2563,299.1126 478.2563,299.4095 C478.2563,299.9876 478.6625,300.3001 479.4438,300.3001 L487.5219,300.3001 L487.5219,297.7689 C487.5219,297.3626 487.4906,297.1907 487.3813,297.0345 C487.2094,296.7689 486.9281,296.6126 486.6,296.6126 C486.3188,296.6126 486.0375,296.7532 485.85,296.972 C485.7094,297.1595 485.6781,297.3157 485.6781,297.7689 L485.6781,298.5501 L481.4594,298.5501 L481.4594,296.3626 Z " fill="#000000"/><text fill="#000000" font-family="sans-serif" font-size="12" font-style="italic" lengthAdjust="spacing" textLength="60" x="500.4" y="293.2001">«instance»</text><text fill="#000000" font-family="sans-serif" font-size="12" lengthAdjust="spacing" textLength="52" x="504.4" y="307.3482">Device_2</text><line style="stroke:#A80036;stroke-width:1.5;" x1="442.5" x2="586.5" y1="315.6002" y2="315.6002"/><text fill="#000000" font-family="sans-serif" font-size="11" lengthAdjust="spacing" textLength="134" x="447.5" y="329.8191">zigbee_eui64_t search_key</text><line style="stroke:#A80036;stroke-width:1.0;stroke-dasharray:1.0,2.0;" x1="442.5" x2="483.5" y1="343.4001" y2="343.4001"/><text fill="#000000" font-family="sans-serif" font-size="11" lengthAdjust="spacing" textLength="62" x="483.5" y="346.519">.device data.</text><line style="stroke:#A80036;stroke-width:1.0;stroke-dasharray:1.0,2.0;" x1="545.5" x2="586.5" y1="343.4001" y2="343.4001"/><!--MD5=[c19ac7e0c4a836e0b21bf9042ad5d402]
class Device_3--><rect codeLine="88" fill="#FEFECE" filter="url(#f1psngixv77gb8)" height="81.6" id="Device_3" style="stroke:#A80036;stroke-width:1.5;" width="146" x="756.5" y="275"/><ellipse cx="797.6" cy="295.3001" fill="#ADD1B2" rx="11" ry="11" style="stroke:#A80036;stroke-width:1.0;"/><path d="M796.4594,296.3626 L797.7719,296.3626 L797.7719,296.4095 C797.7719,296.8157 797.7875,296.972 797.8969,297.1282 C798.0688,297.3782 798.3656,297.5501 798.6781,297.5501 C798.9594,297.5501 799.2563,297.4095 799.4281,297.1907 C799.5531,297.0032 799.6,296.8626 799.6,296.4095 L799.6,294.5657 C799.6,294.2376 799.5844,294.1282 799.5219,293.9564 C799.4125,293.6595 799.0531,293.4095 798.6781,293.4095 C798.3813,293.4095 798.1156,293.5501 797.9438,293.7689 C797.8031,293.9564 797.7719,294.1282 797.7719,294.5657 L797.7719,294.6282 L796.4594,294.6282 L796.4594,292.4564 L800.3031,292.4564 L800.3031,293.2064 C800.3031,293.597 800.3344,293.7845 800.4438,293.9407 C800.6156,294.1907 800.9125,294.3626 801.225,294.3626 C801.5219,294.3626 801.7875,294.2376 801.975,294.0032 C802.1156,293.8157 802.1469,293.6751 802.1469,293.2064 L802.1469,290.7064 L794.4438,290.7064 C793.9906,290.7064 793.8656,290.722 793.6938,290.8314 C793.4281,291.0032 793.2563,291.2689 793.2563,291.5814 C793.2563,291.8626 793.3813,292.1282 793.6313,292.3001 C793.8188,292.4251 794.0063,292.4564 794.4438,292.4564 L794.6313,292.4564 L794.6313,298.5501 L794.4438,298.5501 C794.0219,298.5501 793.8656,298.5814 793.6938,298.6751 C793.4281,298.8314 793.2563,299.1126 793.2563,299.4095 C793.2563,299.9876 793.6625,300.3001 794.4438,300.3001 L802.5219,300.3001 L802.5219,297.7689 C802.5219,297.3626 802.4906,297.1907 802.3813,297.0345 C802.2094,296.7689 801.9281,296.6126 801.6,296.6126 C801.3188,296.6126 801.0375,296.7532 800.85,296.972 C800.7094,297.1595 800.6781,297.3157 800.6781,297.7689 L800.6781,298.5501 L796.4594,298.5501 L796.4594,296.3626 Z " fill="#000000"/><text fill="#000000" font-family="sans-serif" font-size="12" font-style="italic" lengthAdjust="spacing" textLength="60" x="815.4" y="293.2001">«instance»</text><text fill="#000000" font-family="sans-serif" font-size="12" lengthAdjust="spacing" textLength="52" x="819.4" y="307.3482">Device_3</text><line style="stroke:#A80036;stroke-width:1.5;" x1="757.5" x2="901.5" y1="315.6002" y2="315.6002"/><text fill="#000000" font-family="sans-serif" font-size="11" lengthAdjust="spacing" textLength="134" x="762.5" y="329.8191">zigbee_eui64_t search_key</text><line style="stroke:#A80036;stroke-width:1.0;stroke-dasharray:1.0,2.0;" x1="757.5" x2="798.5" y1="343.4001" y2="343.4001"/><text fill="#000000" font-family="sans-serif" font-size="11" lengthAdjust="spacing" textLength="62" x="798.5" y="346.519">.device data.</text><line style="stroke:#A80036;stroke-width:1.0;stroke-dasharray:1.0,2.0;" x1="860.5" x2="901.5" y1="343.4001" y2="343.4001"/><!--MD5=[78187d4f6b92f56226e9b58dd541f4a0]
class Endpoint_1_1--><rect codeLine="92" fill="#FEFECE" filter="url(#f1psngixv77gb8)" height="81.6" id="Endpoint_1_1" style="stroke:#A80036;stroke-width:1.5;" width="175" x="7" y="418"/><ellipse cx="51.75" cy="438.3001" fill="#ADD1B2" rx="11" ry="11" style="stroke:#A80036;stroke-width:1.0;"/><path d="M50.6094,439.3626 L51.9219,439.3626 L51.9219,439.4095 C51.9219,439.8157 51.9375,439.972 52.0469,440.1282 C52.2188,440.3782 52.5156,440.5501 52.8281,440.5501 C53.1094,440.5501 53.4063,440.4095 53.5781,440.1907 C53.7031,440.0032 53.75,439.8626 53.75,439.4095 L53.75,437.5657 C53.75,437.2376 53.7344,437.1282 53.6719,436.9564 C53.5625,436.6595 53.2031,436.4095 52.8281,436.4095 C52.5313,436.4095 52.2656,436.5501 52.0938,436.7689 C51.9531,436.9564 51.9219,437.1282 51.9219,437.5657 L51.9219,437.6282 L50.6094,437.6282 L50.6094,435.4564 L54.4531,435.4564 L54.4531,436.2064 C54.4531,436.597 54.4844,436.7845 54.5938,436.9407 C54.7656,437.1907 55.0625,437.3626 55.375,437.3626 C55.6719,437.3626 55.9375,437.2376 56.125,437.0032 C56.2656,436.8157 56.2969,436.6751 56.2969,436.2064 L56.2969,433.7064 L48.5938,433.7064 C48.1406,433.7064 48.0156,433.722 47.8438,433.8314 C47.5781,434.0032 47.4063,434.2689 47.4063,434.5814 C47.4063,434.8626 47.5313,435.1282 47.7813,435.3001 C47.9688,435.4251 48.1563,435.4564 48.5938,435.4564 L48.7813,435.4564 L48.7813,441.5501 L48.5938,441.5501 C48.1719,441.5501 48.0156,441.5814 47.8438,441.6751 C47.5781,441.8314 47.4063,442.1126 47.4063,442.4095 C47.4063,442.9876 47.8125,443.3001 48.5938,443.3001 L56.6719,443.3001 L56.6719,440.7689 C56.6719,440.3626 56.6406,440.1907 56.5313,440.0345 C56.3594,439.7689 56.0781,439.6126 55.75,439.6126 C55.4688,439.6126 55.1875,439.7532 55,439.972 C54.8594,440.1595 54.8281,440.3157 54.8281,440.7689 L54.8281,441.5501 L50.6094,441.5501 L50.6094,439.3626 Z " fill="#000000"/><text fill="#000000" font-family="sans-serif" font-size="12" font-style="italic" lengthAdjust="spacing" textLength="60" x="80.75" y="436.2001">«instance»</text><text fill="#000000" font-family="sans-serif" font-size="12" lengthAdjust="spacing" textLength="77" x="72.25" y="450.3482">Endpoint_1_1</text><line style="stroke:#A80036;stroke-width:1.5;" x1="8" x2="181" y1="458.6002" y2="458.6002"/><text fill="#000000" font-family="sans-serif" font-size="11" lengthAdjust="spacing" textLength="163" x="13" y="472.8191">zigbee_endpoint_id_t search_key</text><line style="stroke:#A80036;stroke-width:1.0;stroke-dasharray:1.0,2.0;" x1="8" x2="59" y1="486.4001" y2="486.4001"/><text fill="#000000" font-family="sans-serif" font-size="11" lengthAdjust="spacing" textLength="71" x="59" y="489.519">.endpoint data.</text><line style="stroke:#A80036;stroke-width:1.0;stroke-dasharray:1.0,2.0;" x1="130" x2="181" y1="486.4001" y2="486.4001"/><!--MD5=[7580494746872b6435953b94fc996e49]
class Endpoint_1_2--><rect codeLine="96" fill="#FEFECE" filter="url(#f1psngixv77gb8)" height="81.6" id="Endpoint_1_2" style="stroke:#A80036;stroke-width:1.5;" width="175" x="217" y="418"/><ellipse cx="261.75" cy="438.3001" fill="#ADD1B2" rx="11" ry="11" style="stroke:#A80036;stroke-width:1.0;"/><path d="M260.6094,439.3626 L261.9219,439.3626 L261.9219,439.4095 C261.9219,439.8157 261.9375,439.972 262.0469,440.1282 C262.2188,440.3782 262.5156,440.5501 262.8281,440.5501 C263.1094,440.5501 263.4063,440.4095 263.5781,440.1907 C263.7031,440.0032 263.75,439.8626 263.75,439.4095 L263.75,437.5657 C263.75,437.2376 263.7344,437.1282 263.6719,436.9564 C263.5625,436.6595 263.2031,436.4095 262.8281,436.4095 C262.5313,436.4095 262.2656,436.5501 262.0938,436.7689 C261.9531,436.9564 261.9219,437.1282 261.9219,437.5657 L261.9219,437.6282 L260.6094,437.6282 L260.6094,435.4564 L264.4531,435.4564 L264.4531,436.2064 C264.4531,436.597 264.4844,436.7845 264.5938,436.9407 C264.7656,437.1907 265.0625,437.3626 265.375,437.3626 C265.6719,437.3626 265.9375,437.2376 266.125,437.0032 C266.2656,436.8157 266.2969,436.6751 266.2969,436.2064 L266.2969,433.7064 L258.5938,433.7064 C258.1406,433.7064 258.0156,433.722 257.8438,433.8314 C257.5781,434.0032 257.4063,434.2689 257.4063,434.5814 C257.4063,434.8626 257.5313,435.1282 257.7813,435.3001 C257.9688,435.4251 258.1563,435.4564 258.5938,435.4564 L258.7813,435.4564 L258.7813,441.5501 L258.5938,441.5501 C258.1719,441.5501 258.0156,441.5814 257.8438,441.6751 C257.5781,441.8314 257.4063,442.1126 257.4063,442.4095 C257.4063,442.9876 257.8125,443.3001 258.5938,443.3001 L266.6719,443.3001 L266.6719,440.7689 C266.6719,440.3626 266.6406,440.1907 266.5313,440.0345 C266.3594,439.7689 266.0781,439.6126 265.75,439.6126 C265.4688,439.6126 265.1875,439.7532 265,439.972 C264.8594,440.1595 264.8281,440.3157 264.8281,440.7689 L264.8281,441.5501 L260.6094,441.5501 L260.6094,439.3626 Z " fill="#000000"/><text fill="#000000" font-family="sans-serif" font-size="12" font-style="italic" lengthAdjust="spacing" textLength="60" x="290.75" y="436.2001">«instance»</text><text fill="#000000" font-family="sans-serif" font-size="12" lengthAdjust="spacing" textLength="77" x="282.25" y="450.3482">Endpoint_1_2</text><line style="stroke:#A80036;stroke-width:1.5;" x1="218" x2="391" y1="458.6002" y2="458.6002"/><text fill="#000000" font-family="sans-serif" font-size="11" lengthAdjust="spacing" textLength="163" x="223" y="472.8191">zigbee_endpoint_id_t search_key</text><line style="stroke:#A80036;stroke-width:1.0;stroke-dasharray:1.0,2.0;" x1="218" x2="269" y1="486.4001" y2="486.4001"/><text fill="#000000" font-family="sans-serif" font-size="11" lengthAdjust="spacing" textLength="71" x="269" y="489.519">.endpoint data.</text><line style="stroke:#A80036;stroke-width:1.0;stroke-dasharray:1.0,2.0;" x1="340" x2="391" y1="486.4001" y2="486.4001"/><!--MD5=[4cd29f9591bbe4fc2c1a295e508ba2db]
class Endpoint_2_1--><rect codeLine="100" fill="#FEFECE" filter="url(#f1psngixv77gb8)" height="81.6" id="Endpoint_2_1" style="stroke:#A80036;stroke-width:1.5;" width="175" x="427" y="418"/><ellipse cx="471.75" cy="438.3001" fill="#ADD1B2" rx="11" ry="11" style="stroke:#A80036;stroke-width:1.0;"/><path d="M470.6094,439.3626 L471.9219,439.3626 L471.9219,439.4095 C471.9219,439.8157 471.9375,439.972 472.0469,440.1282 C472.2188,440.3782 472.5156,440.5501 472.8281,440.5501 C473.1094,440.5501 473.4063,440.4095 473.5781,440.1907 C473.7031,440.0032 473.75,439.8626 473.75,439.4095 L473.75,437.5657 C473.75,437.2376 473.7344,437.1282 473.6719,436.9564 C473.5625,436.6595 473.2031,436.4095 472.8281,436.4095 C472.5313,436.4095 472.2656,436.5501 472.0938,436.7689 C471.9531,436.9564 471.9219,437.1282 471.9219,437.5657 L471.9219,437.6282 L470.6094,437.6282 L470.6094,435.4564 L474.4531,435.4564 L474.4531,436.2064 C474.4531,436.597 474.4844,436.7845 474.5938,436.9407 C474.7656,437.1907 475.0625,437.3626 475.375,437.3626 C475.6719,437.3626 475.9375,437.2376 476.125,437.0032 C476.2656,436.8157 476.2969,436.6751 476.2969,436.2064 L476.2969,433.7064 L468.5938,433.7064 C468.1406,433.7064 468.0156,433.722 467.8438,433.8314 C467.5781,434.0032 467.4063,434.2689 467.4063,434.5814 C467.4063,434.8626 467.5313,435.1282 467.7813,435.3001 C467.9688,435.4251 468.1563,435.4564 468.5938,435.4564 L468.7813,435.4564 L468.7813,441.5501 L468.5938,441.5501 C468.1719,441.5501 468.0156,441.5814 467.8438,441.6751 C467.5781,441.8314 467.4063,442.1126 467.4063,442.4095 C467.4063,442.9876 467.8125,443.3001 468.5938,443.3001 L476.6719,443.3001 L476.6719,440.7689 C476.6719,440.3626 476.6406,440.1907 476.5313,440.0345 C476.3594,439.7689 476.0781,439.6126 475.75,439.6126 C475.4688,439.6126 475.1875,439.7532 475,439.972 C474.8594,440.1595 474.8281,440.3157 474.8281,440.7689 L474.8281,441.5501 L470.6094,441.5501 L470.6094,439.3626 Z " fill="#000000"/><text fill="#000000" font-family="sans-serif" font-size="12" font-style="italic" lengthAdjust="spacing" textLength="60" x="500.75" y="436.2001">«instance»</text><text fill="#000000" font-family="sans-serif" font-size="12" lengthAdjust="spacing" textLength="77" x="492.25" y="450.3482">Endpoint_2_1</text><line style="stroke:#A80036;stroke-width:1.5;" x1="428" x2="601" y1="458.6002" y2="458.6002"/><text fill="#000000" font-family="sans-serif" font-size="11" lengthAdjust="spacing" textLength="163" x="433" y="472.8191">zigbee_endpoint_id_t search_key</text><line style="stroke:#A80036;stroke-width:1.0;stroke-dasharray:1.0,2.0;" x1="428" x2="479" y1="486.4001" y2="486.4001"/><text fill="#000000" font-family="sans-serif" font-size="11" lengthAdjust="spacing" textLength="71" x="479" y="489.519">.endpoint data.</text><line style="stroke:#A80036;stroke-width:1.0;stroke-dasharray:1.0,2.0;" x1="550" x2="601" y1="486.4001" y2="486.4001"/><!--MD5=[ba090b03b1bfe91a65e516ffa99414f8]
class Endpoint_3_1--><rect codeLine="104" fill="#FEFECE" filter="url(#f1psngixv77gb8)" height="81.6" id="Endpoint_3_1" style="stroke:#A80036;stroke-width:1.5;" width="175" x="637" y="418"/><ellipse cx="681.75" cy="438.3001" fill="#ADD1B2" rx="11" ry="11" style="stroke:#A80036;stroke-width:1.0;"/><path d="M680.6094,439.3626 L681.9219,439.3626 L681.9219,439.4095 C681.9219,439.8157 681.9375,439.972 682.0469,440.1282 C682.2188,440.3782 682.5156,440.5501 682.8281,440.5501 C683.1094,440.5501 683.4063,440.4095 683.5781,440.1907 C683.7031,440.0032 683.75,439.8626 683.75,439.4095 L683.75,437.5657 C683.75,437.2376 683.7344,437.1282 683.6719,436.9564 C683.5625,436.6595 683.2031,436.4095 682.8281,436.4095 C682.5313,436.4095 682.2656,436.5501 682.0938,436.7689 C681.9531,436.9564 681.9219,437.1282 681.9219,437.5657 L681.9219,437.6282 L680.6094,437.6282 L680.6094,435.4564 L684.4531,435.4564 L684.4531,436.2064 C684.4531,436.597 684.4844,436.7845 684.5938,436.9407 C684.7656,437.1907 685.0625,437.3626 685.375,437.3626 C685.6719,437.3626 685.9375,437.2376 686.125,437.0032 C686.2656,436.8157 686.2969,436.6751 686.2969,436.2064 L686.2969,433.7064 L678.5938,433.7064 C678.1406,433.7064 678.0156,433.722 677.8438,433.8314 C677.5781,434.0032 677.4063,434.2689 677.4063,434.5814 C677.4063,434.8626 677.5313,435.1282 677.7813,435.3001 C677.9688,435.4251 678.1563,435.4564 678.5938,435.4564 L678.7813,435.4564 L678.7813,441.5501 L678.5938,441.5501 C678.1719,441.5501 678.0156,441.5814 677.8438,441.6751 C677.5781,441.8314 677.4063,442.1126 677.4063,442.4095 C677.4063,442.9876 677.8125,443.3001 678.5938,443.3001 L686.6719,443.3001 L686.6719,440.7689 C686.6719,440.3626 686.6406,440.1907 686.5313,440.0345 C686.3594,439.7689 686.0781,439.6126 685.75,439.6126 C685.4688,439.6126 685.1875,439.7532 685,439.972 C684.8594,440.1595 684.8281,440.3157 684.8281,440.7689 L684.8281,441.5501 L680.6094,441.5501 L680.6094,439.3626 Z " fill="#000000"/><text fill="#000000" font-family="sans-serif" font-size="12" font-style="italic" lengthAdjust="spacing" textLength="60" x="710.75" y="436.2001">«instance»</text><text fill="#000000" font-family="sans-serif" font-size="12" lengthAdjust="spacing" textLength="77" x="702.25" y="450.3482">Endpoint_3_1</text><line style="stroke:#A80036;stroke-width:1.5;" x1="638" x2="811" y1="458.6002" y2="458.6002"/><text fill="#000000" font-family="sans-serif" font-size="11" lengthAdjust="spacing" textLength="163" x="643" y="472.8191">zigbee_endpoint_id_t search_key</text><line style="stroke:#A80036;stroke-width:1.0;stroke-dasharray:1.0,2.0;" x1="638" x2="689" y1="486.4001" y2="486.4001"/><text fill="#000000" font-family="sans-serif" font-size="11" lengthAdjust="spacing" textLength="71" x="689" y="489.519">.endpoint data.</text><line style="stroke:#A80036;stroke-width:1.0;stroke-dasharray:1.0,2.0;" x1="760" x2="811" y1="486.4001" y2="486.4001"/><!--MD5=[f37b0ffdb3aa5498d553a7a5c7d6f3fd]
class Endpoint_3_2--><rect codeLine="108" fill="#FEFECE" filter="url(#f1psngixv77gb8)" height="81.6" id="Endpoint_3_2" style="stroke:#A80036;stroke-width:1.5;" width="175" x="847" y="418"/><ellipse cx="891.75" cy="438.3001" fill="#ADD1B2" rx="11" ry="11" style="stroke:#A80036;stroke-width:1.0;"/><path d="M890.6094,439.3626 L891.9219,439.3626 L891.9219,439.4095 C891.9219,439.8157 891.9375,439.972 892.0469,440.1282 C892.2188,440.3782 892.5156,440.5501 892.8281,440.5501 C893.1094,440.5501 893.4063,440.4095 893.5781,440.1907 C893.7031,440.0032 893.75,439.8626 893.75,439.4095 L893.75,437.5657 C893.75,437.2376 893.7344,437.1282 893.6719,436.9564 C893.5625,436.6595 893.2031,436.4095 892.8281,436.4095 C892.5313,436.4095 892.2656,436.5501 892.0938,436.7689 C891.9531,436.9564 891.9219,437.1282 891.9219,437.5657 L891.9219,437.6282 L890.6094,437.6282 L890.6094,435.4564 L894.4531,435.4564 L894.4531,436.2064 C894.4531,436.597 894.4844,436.7845 894.5938,436.9407 C894.7656,437.1907 895.0625,437.3626 895.375,437.3626 C895.6719,437.3626 895.9375,437.2376 896.125,437.0032 C896.2656,436.8157 896.2969,436.6751 896.2969,436.2064 L896.2969,433.7064 L888.5938,433.7064 C888.1406,433.7064 888.0156,433.722 887.8438,433.8314 C887.5781,434.0032 887.4063,434.2689 887.4063,434.5814 C887.4063,434.8626 887.5313,435.1282 887.7813,435.3001 C887.9688,435.4251 888.1563,435.4564 888.5938,435.4564 L888.7813,435.4564 L888.7813,441.5501 L888.5938,441.5501 C888.1719,441.5501 888.0156,441.5814 887.8438,441.6751 C887.5781,441.8314 887.4063,442.1126 887.4063,442.4095 C887.4063,442.9876 887.8125,443.3001 888.5938,443.3001 L896.6719,443.3001 L896.6719,440.7689 C896.6719,440.3626 896.6406,440.1907 896.5313,440.0345 C896.3594,439.7689 896.0781,439.6126 895.75,439.6126 C895.4688,439.6126 895.1875,439.7532 895,439.972 C894.8594,440.1595 894.8281,440.3157 894.8281,440.7689 L894.8281,441.5501 L890.6094,441.5501 L890.6094,439.3626 Z " fill="#000000"/><text fill="#000000" font-family="sans-serif" font-size="12" font-style="italic" lengthAdjust="spacing" textLength="60" x="920.75" y="436.2001">«instance»</text><text fill="#000000" font-family="sans-serif" font-size="12" lengthAdjust="spacing" textLength="77" x="912.25" y="450.3482">Endpoint_3_2</text><line style="stroke:#A80036;stroke-width:1.5;" x1="848" x2="1021" y1="458.6002" y2="458.6002"/><text fill="#000000" font-family="sans-serif" font-size="11" lengthAdjust="spacing" textLength="163" x="853" y="472.8191">zigbee_endpoint_id_t search_key</text><line style="stroke:#A80036;stroke-width:1.0;stroke-dasharray:1.0,2.0;" x1="848" x2="899" y1="486.4001" y2="486.4001"/><text fill="#000000" font-family="sans-serif" font-size="11" lengthAdjust="spacing" textLength="71" x="899" y="489.519">.endpoint data.</text><line style="stroke:#A80036;stroke-width:1.0;stroke-dasharray:1.0,2.0;" x1="970" x2="1021" y1="486.4001" y2="486.4001"/><!--MD5=[305c0e0881aaac55b27c44350cf2cf96]
class Endpoint_3_3--><rect codeLine="112" fill="#FEFECE" filter="url(#f1psngixv77gb8)" height="81.6" id="Endpoint_3_3" style="stroke:#A80036;stroke-width:1.5;" width="175" x="1057" y="418"/><ellipse cx="1101.75" cy="438.3001" fill="#ADD1B2" rx="11" ry="11" style="stroke:#A80036;stroke-width:1.0;"/><path d="M1100.6094,439.3626 L1101.9219,439.3626 L1101.9219,439.4095 C1101.9219,439.8157 1101.9375,439.972 1102.0469,440.1282 C1102.2188,440.3782 1102.5156,440.5501 1102.8281,440.5501 C1103.1094,440.5501 1103.4063,440.4095 1103.5781,440.1907 C1103.7031,440.0032 1103.75,439.8626 1103.75,439.4095 L1103.75,437.5657 C1103.75,437.2376 1103.7344,437.1282 1103.6719,436.9564 C1103.5625,436.6595 1103.2031,436.4095 1102.8281,436.4095 C1102.5313,436.4095 1102.2656,436.5501 1102.0938,436.7689 C1101.9531,436.9564 1101.9219,437.1282 1101.9219,437.5657 L1101.9219,437.6282 L1100.6094,437.6282 L1100.6094,435.4564 L1104.4531,435.4564 L1104.4531,436.2064 C1104.4531,436.597 1104.4844,436.7845 1104.5938,436.9407 C1104.7656,437.1907 1105.0625,437.3626 1105.375,437.3626 C1105.6719,437.3626 1105.9375,437.2376 1106.125,437.0032 C1106.2656,436.8157 1106.2969,436.6751 1106.2969,436.2064 L1106.2969,433.7064 L1098.5938,433.7064 C1098.1406,433.7064 1098.0156,433.722 1097.8438,433.8314 C1097.5781,434.0032 1097.4063,434.2689 1097.4063,434.5814 C1097.4063,434.8626 1097.5313,435.1282 1097.7813,435.3001 C1097.9688,435.4251 1098.1563,435.4564 1098.5938,435.4564 L1098.7813,435.4564 L1098.7813,441.5501 L1098.5938,441.5501 C1098.1719,441.5501 1098.0156,441.5814 1097.8438,441.6751 C1097.5781,441.8314 1097.4063,442.1126 1097.4063,442.4095 C1097.4063,442.9876 1097.8125,443.3001 1098.5938,443.3001 L1106.6719,443.3001 L1106.6719,440.7689 C1106.6719,440.3626 1106.6406,440.1907 1106.5313,440.0345 C1106.3594,439.7689 1106.0781,439.6126 1105.75,439.6126 C1105.4688,439.6126 1105.1875,439.7532 1105,439.972 C1104.8594,440.1595 1104.8281,440.3157 1104.8281,440.7689 L1104.8281,441.5501 L1100.6094,441.5501 L1100.6094,439.3626 Z " fill="#000000"/><text fill="#000000" font-family="sans-serif" font-size="12" font-style="italic" lengthAdjust="spacing" textLength="60" x="1130.75" y="436.2001">«instance»</text><text fill="#000000" font-family="sans-serif" font-size="12" lengthAdjust="spacing" textLength="77" x="1122.25" y="450.3482">Endpoint_3_3</text><line style="stroke:#A80036;stroke-width:1.5;" x1="1058" x2="1231" y1="458.6002" y2="458.6002"/><text fill="#000000" font-family="sans-serif" font-size="11" lengthAdjust="spacing" textLength="163" x="1063" y="472.8191">zigbee_endpoint_id_t search_key</text><line style="stroke:#A80036;stroke-width:1.0;stroke-dasharray:1.0,2.0;" x1="1058" x2="1109" y1="486.4001" y2="486.4001"/><text fill="#000000" font-family="sans-serif" font-size="11" lengthAdjust="spacing" textLength="71" x="1109" y="489.519">.endpoint data.</text><line style="stroke:#A80036;stroke-width:1.0;stroke-dasharray:1.0,2.0;" x1="1180" x2="1231" y1="486.4001" y2="486.4001"/><!--MD5=[e1102a29ade4f5bac5ab9cc04e8860f0]
class Cluster_1_1_x--><rect codeLine="116" fill="#FEFECE" filter="url(#f1psngixv77gb8)" height="81.6" id="Cluster_1_1_x" style="stroke:#A80036;stroke-width:1.5;" width="149" x="20" y="561"/><ellipse cx="51.65" cy="581.3001" fill="#ADD1B2" rx="11" ry="11" style="stroke:#A80036;stroke-width:1.0;"/><path d="M50.5094,582.3626 L51.8219,582.3626 L51.8219,582.4095 C51.8219,582.8157 51.8375,582.972 51.9469,583.1282 C52.1188,583.3782 52.4156,583.5501 52.7281,583.5501 C53.0094,583.5501 53.3063,583.4095 53.4781,583.1907 C53.6031,583.0032 53.65,582.8626 53.65,582.4095 L53.65,580.5657 C53.65,580.2376 53.6344,580.1282 53.5719,579.9564 C53.4625,579.6595 53.1031,579.4095 52.7281,579.4095 C52.4313,579.4095 52.1656,579.5501 51.9938,579.7689 C51.8531,579.9564 51.8219,580.1282 51.8219,580.5657 L51.8219,580.6282 L50.5094,580.6282 L50.5094,578.4564 L54.3531,578.4564 L54.3531,579.2064 C54.3531,579.597 54.3844,579.7845 54.4938,579.9407 C54.6656,580.1907 54.9625,580.3626 55.275,580.3626 C55.5719,580.3626 55.8375,580.2376 56.025,580.0032 C56.1656,579.8157 56.1969,579.6751 56.1969,579.2064 L56.1969,576.7064 L48.4938,576.7064 C48.0406,576.7064 47.9156,576.722 47.7438,576.8314 C47.4781,577.0032 47.3063,577.2689 47.3063,577.5814 C47.3063,577.8626 47.4313,578.1282 47.6813,578.3001 C47.8688,578.4251 48.0563,578.4564 48.4938,578.4564 L48.6813,578.4564 L48.6813,584.5501 L48.4938,584.5501 C48.0719,584.5501 47.9156,584.5814 47.7438,584.6751 C47.4781,584.8314 47.3063,585.1126 47.3063,585.4095 C47.3063,585.9876 47.7125,586.3001 48.4938,586.3001 L56.5719,586.3001 L56.5719,583.7689 C56.5719,583.3626 56.5406,583.1907 56.4313,583.0345 C56.2594,582.7689 55.9781,582.6126 55.65,582.6126 C55.3688,582.6126 55.0875,582.7532 54.9,582.972 C54.7594,583.1595 54.7281,583.3157 54.7281,583.7689 L54.7281,584.5501 L50.5094,584.5501 L50.5094,582.3626 Z " fill="#000000"/><text fill="#000000" font-family="sans-serif" font-size="12" font-style="italic" lengthAdjust="spacing" textLength="60" x="79.35" y="579.2001">«instance»</text><text fill="#000000" font-family="sans-serif" font-size="12" lengthAdjust="spacing" textLength="80" x="69.35" y="593.3482">Cluster_1_1_x</text><line style="stroke:#A80036;stroke-width:1.5;" x1="21" x2="168" y1="601.6002" y2="601.6002"/><text fill="#000000" font-family="sans-serif" font-size="11" lengthAdjust="spacing" textLength="137" x="26" y="615.8191">zcl_cluster_id_t search_key</text><line style="stroke:#A80036;stroke-width:1.0;stroke-dasharray:1.0,2.0;" x1="21" x2="63" y1="629.4001" y2="629.4001"/><text fill="#000000" font-family="sans-serif" font-size="11" lengthAdjust="spacing" textLength="63" x="63" y="632.519">.cluster data.</text><line style="stroke:#A80036;stroke-width:1.0;stroke-dasharray:1.0,2.0;" x1="126" x2="168" y1="629.4001" y2="629.4001"/><!--MD5=[f7a3cd2dddb3f3c20ff493c2f2131906]
class Cluster_1_2_x--><rect codeLine="120" fill="#FEFECE" filter="url(#f1psngixv77gb8)" height="81.6" id="Cluster_1_2_x" style="stroke:#A80036;stroke-width:1.5;" width="149" x="230" y="561"/><ellipse cx="261.65" cy="581.3001" fill="#ADD1B2" rx="11" ry="11" style="stroke:#A80036;stroke-width:1.0;"/><path d="M260.5094,582.3626 L261.8219,582.3626 L261.8219,582.4095 C261.8219,582.8157 261.8375,582.972 261.9469,583.1282 C262.1188,583.3782 262.4156,583.5501 262.7281,583.5501 C263.0094,583.5501 263.3063,583.4095 263.4781,583.1907 C263.6031,583.0032 263.65,582.8626 263.65,582.4095 L263.65,580.5657 C263.65,580.2376 263.6344,580.1282 263.5719,579.9564 C263.4625,579.6595 263.1031,579.4095 262.7281,579.4095 C262.4313,579.4095 262.1656,579.5501 261.9938,579.7689 C261.8531,579.9564 261.8219,580.1282 261.8219,580.5657 L261.8219,580.6282 L260.5094,580.6282 L260.5094,578.4564 L264.3531,578.4564 L264.3531,579.2064 C264.3531,579.597 264.3844,579.7845 264.4938,579.9407 C264.6656,580.1907 264.9625,580.3626 265.275,580.3626 C265.5719,580.3626 265.8375,580.2376 266.025,580.0032 C266.1656,579.8157 266.1969,579.6751 266.1969,579.2064 L266.1969,576.7064 L258.4938,576.7064 C258.0406,576.7064 257.9156,576.722 257.7438,576.8314 C257.4781,577.0032 257.3063,577.2689 257.3063,577.5814 C257.3063,577.8626 257.4313,578.1282 257.6813,578.3001 C257.8688,578.4251 258.0563,578.4564 258.4938,578.4564 L258.6813,578.4564 L258.6813,584.5501 L258.4938,584.5501 C258.0719,584.5501 257.9156,584.5814 257.7438,584.6751 C257.4781,584.8314 257.3063,585.1126 257.3063,585.4095 C257.3063,585.9876 257.7125,586.3001 258.4938,586.3001 L266.5719,586.3001 L266.5719,583.7689 C266.5719,583.3626 266.5406,583.1907 266.4313,583.0345 C266.2594,582.7689 265.9781,582.6126 265.65,582.6126 C265.3688,582.6126 265.0875,582.7532 264.9,582.972 C264.7594,583.1595 264.7281,583.3157 264.7281,583.7689 L264.7281,584.5501 L260.5094,584.5501 L260.5094,582.3626 Z " fill="#000000"/><text fill="#000000" font-family="sans-serif" font-size="12" font-style="italic" lengthAdjust="spacing" textLength="60" x="289.35" y="579.2001">«instance»</text><text fill="#000000" font-family="sans-serif" font-size="12" lengthAdjust="spacing" textLength="80" x="279.35" y="593.3482">Cluster_1_2_x</text><line style="stroke:#A80036;stroke-width:1.5;" x1="231" x2="378" y1="601.6002" y2="601.6002"/><text fill="#000000" font-family="sans-serif" font-size="11" lengthAdjust="spacing" textLength="137" x="236" y="615.8191">zcl_cluster_id_t search_key</text><line style="stroke:#A80036;stroke-width:1.0;stroke-dasharray:1.0,2.0;" x1="231" x2="273" y1="629.4001" y2="629.4001"/><text fill="#000000" font-family="sans-serif" font-size="11" lengthAdjust="spacing" textLength="63" x="273" y="632.519">.cluster data.</text><line style="stroke:#A80036;stroke-width:1.0;stroke-dasharray:1.0,2.0;" x1="336" x2="378" y1="629.4001" y2="629.4001"/><!--MD5=[556ba9323a8c4242a507981e6623453c]
class Cluster_2_1_x--><rect codeLine="124" fill="#FEFECE" filter="url(#f1psngixv77gb8)" height="81.6" id="Cluster_2_1_x" style="stroke:#A80036;stroke-width:1.5;" width="149" x="440" y="561"/><ellipse cx="471.65" cy="581.3001" fill="#ADD1B2" rx="11" ry="11" style="stroke:#A80036;stroke-width:1.0;"/><path d="M470.5094,582.3626 L471.8219,582.3626 L471.8219,582.4095 C471.8219,582.8157 471.8375,582.972 471.9469,583.1282 C472.1188,583.3782 472.4156,583.5501 472.7281,583.5501 C473.0094,583.5501 473.3063,583.4095 473.4781,583.1907 C473.6031,583.0032 473.65,582.8626 473.65,582.4095 L473.65,580.5657 C473.65,580.2376 473.6344,580.1282 473.5719,579.9564 C473.4625,579.6595 473.1031,579.4095 472.7281,579.4095 C472.4313,579.4095 472.1656,579.5501 471.9938,579.7689 C471.8531,579.9564 471.8219,580.1282 471.8219,580.5657 L471.8219,580.6282 L470.5094,580.6282 L470.5094,578.4564 L474.3531,578.4564 L474.3531,579.2064 C474.3531,579.597 474.3844,579.7845 474.4938,579.9407 C474.6656,580.1907 474.9625,580.3626 475.275,580.3626 C475.5719,580.3626 475.8375,580.2376 476.025,580.0032 C476.1656,579.8157 476.1969,579.6751 476.1969,579.2064 L476.1969,576.7064 L468.4938,576.7064 C468.0406,576.7064 467.9156,576.722 467.7438,576.8314 C467.4781,577.0032 467.3063,577.2689 467.3063,577.5814 C467.3063,577.8626 467.4313,578.1282 467.6813,578.3001 C467.8688,578.4251 468.0563,578.4564 468.4938,578.4564 L468.6813,578.4564 L468.6813,584.5501 L468.4938,584.5501 C468.0719,584.5501 467.9156,584.5814 467.7438,584.6751 C467.4781,584.8314 467.3063,585.1126 467.3063,585.4095 C467.3063,585.9876 467.7125,586.3001 468.4938,586.3001 L476.5719,586.3001 L476.5719,583.7689 C476.5719,583.3626 476.5406,583.1907 476.4313,583.0345 C476.2594,582.7689 475.9781,582.6126 475.65,582.6126 C475.3688,582.6126 475.0875,582.7532 474.9,582.972 C474.7594,583.1595 474.7281,583.3157 474.7281,583.7689 L474.7281,584.5501 L470.5094,584.5501 L470.5094,582.3626 Z " fill="#000000"/><text fill="#000000" font-family="sans-serif" font-size="12" font-style="italic" lengthAdjust="spacing" textLength="60" x="499.35" y="579.2001">«instance»</text><text fill="#000000" font-family="sans-serif" font-size="12" lengthAdjust="spacing" textLength="80" x="489.35" y="593.3482">Cluster_2_1_x</text><line style="stroke:#A80036;stroke-width:1.5;" x1="441" x2="588" y1="601.6002" y2="601.6002"/><text fill="#000000" font-family="sans-serif" font-size="11" lengthAdjust="spacing" textLength="137" x="446" y="615.8191">zcl_cluster_id_t search_key</text><line style="stroke:#A80036;stroke-width:1.0;stroke-dasharray:1.0,2.0;" x1="441" x2="483" y1="629.4001" y2="629.4001"/><text fill="#000000" font-family="sans-serif" font-size="11" lengthAdjust="spacing" textLength="63" x="483" y="632.519">.cluster data.</text><line style="stroke:#A80036;stroke-width:1.0;stroke-dasharray:1.0,2.0;" x1="546" x2="588" y1="629.4001" y2="629.4001"/><!--MD5=[60b2dd97a4742c1844bd09bd21b5b400]
class Cluster_3_1_x--><rect codeLine="128" fill="#FEFECE" filter="url(#f1psngixv77gb8)" height="81.6" id="Cluster_3_1_x" style="stroke:#A80036;stroke-width:1.5;" width="149" x="650" y="561"/><ellipse cx="681.65" cy="581.3001" fill="#ADD1B2" rx="11" ry="11" style="stroke:#A80036;stroke-width:1.0;"/><path d="M680.5094,582.3626 L681.8219,582.3626 L681.8219,582.4095 C681.8219,582.8157 681.8375,582.972 681.9469,583.1282 C682.1188,583.3782 682.4156,583.5501 682.7281,583.5501 C683.0094,583.5501 683.3063,583.4095 683.4781,583.1907 C683.6031,583.0032 683.65,582.8626 683.65,582.4095 L683.65,580.5657 C683.65,580.2376 683.6344,580.1282 683.5719,579.9564 C683.4625,579.6595 683.1031,579.4095 682.7281,579.4095 C682.4313,579.4095 682.1656,579.5501 681.9938,579.7689 C681.8531,579.9564 681.8219,580.1282 681.8219,580.5657 L681.8219,580.6282 L680.5094,580.6282 L680.5094,578.4564 L684.3531,578.4564 L684.3531,579.2064 C684.3531,579.597 684.3844,579.7845 684.4938,579.9407 C684.6656,580.1907 684.9625,580.3626 685.275,580.3626 C685.5719,580.3626 685.8375,580.2376 686.025,580.0032 C686.1656,579.8157 686.1969,579.6751 686.1969,579.2064 L686.1969,576.7064 L678.4938,576.7064 C678.0406,576.7064 677.9156,576.722 677.7438,576.8314 C677.4781,577.0032 677.3063,577.2689 677.3063,577.5814 C677.3063,577.8626 677.4313,578.1282 677.6813,578.3001 C677.8688,578.4251 678.0563,578.4564 678.4938,578.4564 L678.6813,578.4564 L678.6813,584.5501 L678.4938,584.5501 C678.0719,584.5501 677.9156,584.5814 677.7438,584.6751 C677.4781,584.8314 677.3063,585.1126 677.3063,585.4095 C677.3063,585.9876 677.7125,586.3001 678.4938,586.3001 L686.5719,586.3001 L686.5719,583.7689 C686.5719,583.3626 686.5406,583.1907 686.4313,583.0345 C686.2594,582.7689 685.9781,582.6126 685.65,582.6126 C685.3688,582.6126 685.0875,582.7532 684.9,582.972 C684.7594,583.1595 684.7281,583.3157 684.7281,583.7689 L684.7281,584.5501 L680.5094,584.5501 L680.5094,582.3626 Z " fill="#000000"/><text fill="#000000" font-family="sans-serif" font-size="12" font-style="italic" lengthAdjust="spacing" textLength="60" x="709.35" y="579.2001">«instance»</text><text fill="#000000" font-family="sans-serif" font-size="12" lengthAdjust="spacing" textLength="80" x="699.35" y="593.3482">Cluster_3_1_x</text><line style="stroke:#A80036;stroke-width:1.5;" x1="651" x2="798" y1="601.6002" y2="601.6002"/><text fill="#000000" font-family="sans-serif" font-size="11" lengthAdjust="spacing" textLength="137" x="656" y="615.8191">zcl_cluster_id_t search_key</text><line style="stroke:#A80036;stroke-width:1.0;stroke-dasharray:1.0,2.0;" x1="651" x2="693" y1="629.4001" y2="629.4001"/><text fill="#000000" font-family="sans-serif" font-size="11" lengthAdjust="spacing" textLength="63" x="693" y="632.519">.cluster data.</text><line style="stroke:#A80036;stroke-width:1.0;stroke-dasharray:1.0,2.0;" x1="756" x2="798" y1="629.4001" y2="629.4001"/><!--MD5=[e56380bd207a97f1a1d75b00865af34d]
class Cluster_3_2_x--><rect codeLine="132" fill="#FEFECE" filter="url(#f1psngixv77gb8)" height="81.6" id="Cluster_3_2_x" style="stroke:#A80036;stroke-width:1.5;" width="149" x="860" y="561"/><ellipse cx="891.65" cy="581.3001" fill="#ADD1B2" rx="11" ry="11" style="stroke:#A80036;stroke-width:1.0;"/><path d="M890.5094,582.3626 L891.8219,582.3626 L891.8219,582.4095 C891.8219,582.8157 891.8375,582.972 891.9469,583.1282 C892.1188,583.3782 892.4156,583.5501 892.7281,583.5501 C893.0094,583.5501 893.3063,583.4095 893.4781,583.1907 C893.6031,583.0032 893.65,582.8626 893.65,582.4095 L893.65,580.5657 C893.65,580.2376 893.6344,580.1282 893.5719,579.9564 C893.4625,579.6595 893.1031,579.4095 892.7281,579.4095 C892.4313,579.4095 892.1656,579.5501 891.9938,579.7689 C891.8531,579.9564 891.8219,580.1282 891.8219,580.5657 L891.8219,580.6282 L890.5094,580.6282 L890.5094,578.4564 L894.3531,578.4564 L894.3531,579.2064 C894.3531,579.597 894.3844,579.7845 894.4938,579.9407 C894.6656,580.1907 894.9625,580.3626 895.275,580.3626 C895.5719,580.3626 895.8375,580.2376 896.025,580.0032 C896.1656,579.8157 896.1969,579.6751 896.1969,579.2064 L896.1969,576.7064 L888.4938,576.7064 C888.0406,576.7064 887.9156,576.722 887.7438,576.8314 C887.4781,577.0032 887.3063,577.2689 887.3063,577.5814 C887.3063,577.8626 887.4313,578.1282 887.6813,578.3001 C887.8688,578.4251 888.0563,578.4564 888.4938,578.4564 L888.6813,578.4564 L888.6813,584.5501 L888.4938,584.5501 C888.0719,584.5501 887.9156,584.5814 887.7438,584.6751 C887.4781,584.8314 887.3063,585.1126 887.3063,585.4095 C887.3063,585.9876 887.7125,586.3001 888.4938,586.3001 L896.5719,586.3001 L896.5719,583.7689 C896.5719,583.3626 896.5406,583.1907 896.4313,583.0345 C896.2594,582.7689 895.9781,582.6126 895.65,582.6126 C895.3688,582.6126 895.0875,582.7532 894.9,582.972 C894.7594,583.1595 894.7281,583.3157 894.7281,583.7689 L894.7281,584.5501 L890.5094,584.5501 L890.5094,582.3626 Z " fill="#000000"/><text fill="#000000" font-family="sans-serif" font-size="12" font-style="italic" lengthAdjust="spacing" textLength="60" x="919.35" y="579.2001">«instance»</text><text fill="#000000" font-family="sans-serif" font-size="12" lengthAdjust="spacing" textLength="80" x="909.35" y="593.3482">Cluster_3_2_x</text><line style="stroke:#A80036;stroke-width:1.5;" x1="861" x2="1008" y1="601.6002" y2="601.6002"/><text fill="#000000" font-family="sans-serif" font-size="11" lengthAdjust="spacing" textLength="137" x="866" y="615.8191">zcl_cluster_id_t search_key</text><line style="stroke:#A80036;stroke-width:1.0;stroke-dasharray:1.0,2.0;" x1="861" x2="903" y1="629.4001" y2="629.4001"/><text fill="#000000" font-family="sans-serif" font-size="11" lengthAdjust="spacing" textLength="63" x="903" y="632.519">.cluster data.</text><line style="stroke:#A80036;stroke-width:1.0;stroke-dasharray:1.0,2.0;" x1="966" x2="1008" y1="629.4001" y2="629.4001"/><!--MD5=[9e7cdadaee8ddd7ca9cdeb93cf0ac46f]
class Cluster_3_3_x--><rect codeLine="136" fill="#FEFECE" filter="url(#f1psngixv77gb8)" height="81.6" id="Cluster_3_3_x" style="stroke:#A80036;stroke-width:1.5;" width="149" x="1070" y="561"/><ellipse cx="1101.65" cy="581.3001" fill="#ADD1B2" rx="11" ry="11" style="stroke:#A80036;stroke-width:1.0;"/><path d="M1100.5094,582.3626 L1101.8219,582.3626 L1101.8219,582.4095 C1101.8219,582.8157 1101.8375,582.972 1101.9469,583.1282 C1102.1188,583.3782 1102.4156,583.5501 1102.7281,583.5501 C1103.0094,583.5501 1103.3063,583.4095 1103.4781,583.1907 C1103.6031,583.0032 1103.65,582.8626 1103.65,582.4095 L1103.65,580.5657 C1103.65,580.2376 1103.6344,580.1282 1103.5719,579.9564 C1103.4625,579.6595 1103.1031,579.4095 1102.7281,579.4095 C1102.4313,579.4095 1102.1656,579.5501 1101.9938,579.7689 C1101.8531,579.9564 1101.8219,580.1282 1101.8219,580.5657 L1101.8219,580.6282 L1100.5094,580.6282 L1100.5094,578.4564 L1104.3531,578.4564 L1104.3531,579.2064 C1104.3531,579.597 1104.3844,579.7845 1104.4938,579.9407 C1104.6656,580.1907 1104.9625,580.3626 1105.275,580.3626 C1105.5719,580.3626 1105.8375,580.2376 1106.025,580.0032 C1106.1656,579.8157 1106.1969,579.6751 1106.1969,579.2064 L1106.1969,576.7064 L1098.4938,576.7064 C1098.0406,576.7064 1097.9156,576.722 1097.7438,576.8314 C1097.4781,577.0032 1097.3063,577.2689 1097.3063,577.5814 C1097.3063,577.8626 1097.4313,578.1282 1097.6813,578.3001 C1097.8688,578.4251 1098.0563,578.4564 1098.4938,578.4564 L1098.6813,578.4564 L1098.6813,584.5501 L1098.4938,584.5501 C1098.0719,584.5501 1097.9156,584.5814 1097.7438,584.6751 C1097.4781,584.8314 1097.3063,585.1126 1097.3063,585.4095 C1097.3063,585.9876 1097.7125,586.3001 1098.4938,586.3001 L1106.5719,586.3001 L1106.5719,583.7689 C1106.5719,583.3626 1106.5406,583.1907 1106.4313,583.0345 C1106.2594,582.7689 1105.9781,582.6126 1105.65,582.6126 C1105.3688,582.6126 1105.0875,582.7532 1104.9,582.972 C1104.7594,583.1595 1104.7281,583.3157 1104.7281,583.7689 L1104.7281,584.5501 L1100.5094,584.5501 L1100.5094,582.3626 Z " fill="#000000"/><text fill="#000000" font-family="sans-serif" font-size="12" font-style="italic" lengthAdjust="spacing" textLength="60" x="1129.35" y="579.2001">«instance»</text><text fill="#000000" font-family="sans-serif" font-size="12" lengthAdjust="spacing" textLength="80" x="1119.35" y="593.3482">Cluster_3_3_x</text><line style="stroke:#A80036;stroke-width:1.5;" x1="1071" x2="1218" y1="601.6002" y2="601.6002"/><text fill="#000000" font-family="sans-serif" font-size="11" lengthAdjust="spacing" textLength="137" x="1076" y="615.8191">zcl_cluster_id_t search_key</text><line style="stroke:#A80036;stroke-width:1.0;stroke-dasharray:1.0,2.0;" x1="1071" x2="1113" y1="629.4001" y2="629.4001"/><text fill="#000000" font-family="sans-serif" font-size="11" lengthAdjust="spacing" textLength="63" x="1113" y="632.519">.cluster data.</text><line style="stroke:#A80036;stroke-width:1.0;stroke-dasharray:1.0,2.0;" x1="1176" x2="1218" y1="629.4001" y2="629.4001"/><!--MD5=[c6749e31d4553acaaa5dc8fbe264526e]
reverse link AttributeStoreRoot to Network--><path codeLine="141" d="M514.5,68.36 C514.5,87.82 514.5,111.84 514.5,131.85 " fill="none" id="AttributeStoreRoot-backto-Network" style="stroke:#A80036;stroke-width:1.0;"/><polygon fill="#FFFFFF" points="514.5,55.12,510.5,61.12,514.5,67.12,518.5,61.12,514.5,55.12" style="stroke:#A80036;stroke-width:1.0;"/><text fill="#000000" font-family="sans-serif" font-size="13" lengthAdjust="spacing" textLength="22" x="515.5" y="98.077">1..1</text><!--MD5=[dbbf5e30c508f7b16b3d7c19039262e8]
reverse link Network to Device_1--><path codeLine="142" d="M450.71,216.83 C423.24,235.27 391.3,256.72 364.3,274.85 " fill="none" id="Network-backto-Device_1" style="stroke:#A80036;stroke-width:1.0;"/><polygon fill="#FFFFFF" points="461.78,209.4,454.5689,209.4242,451.8178,216.0899,459.0288,216.0657,461.78,209.4" style="stroke:#A80036;stroke-width:1.0;"/><!--MD5=[7a8c9b74feddc8f8ece329b4b8e3b634]
reverse link Network to Device_2--><path codeLine="143" d="M514.5,227.46 C514.5,243.19 514.5,260.13 514.5,274.87 " fill="none" id="Network-backto-Device_2" style="stroke:#A80036;stroke-width:1.0;"/><polygon fill="#FFFFFF" points="514.5,214.03,510.5,220.03,514.5,226.03,518.5,220.03,514.5,214.03" style="stroke:#A80036;stroke-width:1.0;"/><!--MD5=[9b2056af392de5f985d5eb58201431c1]
reverse link Network to Device_3--><path codeLine="144" d="M579.18,202.95 C630.64,225.99 702.65,258.22 756.23,282.2 " fill="none" id="Network-backto-Device_3" style="stroke:#A80036;stroke-width:1.0;"/><polygon fill="#FFFFFF" points="567.22,197.6,571.0593,203.7041,578.1705,202.5079,574.3312,196.4038,567.22,197.6" style="stroke:#A80036;stroke-width:1.0;"/><!--MD5=[d4d3ccba1e33684996541f85a9788d8a]
reverse link Device_1 to Endpoint_1_1--><path codeLine="145" d="M234.01,364.33 C208.13,381.7 179.11,401.19 154.26,417.87 " fill="none" id="Device_1-backto-Endpoint_1_1" style="stroke:#A80036;stroke-width:1.0;"/><polygon fill="#FFFFFF" points="244.88,357.03,237.669,357.0608,234.9239,363.7289,242.1349,363.6982,244.88,357.03" style="stroke:#A80036;stroke-width:1.0;"/><!--MD5=[6be2c1ffe47c04447809f41758ed5439]
reverse link Device_1 to Endpoint_1_2--><path codeLine="146" d="M304.5,370.46 C304.5,386.19 304.5,403.13 304.5,417.87 " fill="none" id="Device_1-backto-Endpoint_1_2" style="stroke:#A80036;stroke-width:1.0;"/><polygon fill="#FFFFFF" points="304.5,357.03,300.5,363.03,304.5,369.03,308.5,363.03,304.5,357.03" style="stroke:#A80036;stroke-width:1.0;"/><!--MD5=[4acd866f425f5a2e6f59b12d6a180734]
reverse link Device_2 to Endpoint_2_1--><path codeLine="147" d="M514.5,370.46 C514.5,386.19 514.5,403.13 514.5,417.87 " fill="none" id="Device_2-backto-Endpoint_2_1" style="stroke:#A80036;stroke-width:1.0;"/><polygon fill="#FFFFFF" points="514.5,357.03,510.5,363.03,514.5,369.03,518.5,363.03,514.5,357.03" style="stroke:#A80036;stroke-width:1.0;"/><!--MD5=[6540d262b11b76c84cd62840168a42b2]
reverse link Device_3 to Endpoint_3_1--><path codeLine="148" d="M791.81,367.61 C779.51,384.13 766.03,402.23 754.38,417.87 " fill="none" id="Device_3-backto-Endpoint_3_1" style="stroke:#A80036;stroke-width:1.0;"/><polygon fill="#FFFFFF" points="799.69,357.03,792.8995,359.4569,792.528,366.6584,799.3185,364.2315,799.69,357.03" style="stroke:#A80036;stroke-width:1.0;"/><!--MD5=[85b1586418b11d5d091611f22cbdddf3]
reverse link Device_3 to Endpoint_3_2--><path codeLine="149" d="M867.19,367.61 C879.49,384.13 892.97,402.23 904.62,417.87 " fill="none" id="Device_3-backto-Endpoint_3_2" style="stroke:#A80036;stroke-width:1.0;"/><polygon fill="#FFFFFF" points="859.31,357.03,859.6815,364.2315,866.472,366.6584,866.1005,359.4569,859.31,357.03" style="stroke:#A80036;stroke-width:1.0;"/><!--MD5=[51b7aec60a2e282b856cb68206b0565e]
reverse link Device_3 to Endpoint_3_3--><path codeLine="150" d="M914.44,355.02 C958.59,374.78 1012.47,398.9 1056.99,418.83 " fill="none" id="Device_3-backto-Endpoint_3_3" style="stroke:#A80036;stroke-width:1.0;"/><polygon fill="#FFFFFF" points="902.56,349.7,906.4081,355.7985,913.5176,354.592,909.6695,348.4935,902.56,349.7" style="stroke:#A80036;stroke-width:1.0;"/><!--MD5=[1c7d6497ba10ad97f704412b70bc5c4b]
reverse link Endpoint_1_1 to Cluster_1_1_x--><path codeLine="151" d="M94.5,513.46 C94.5,529.19 94.5,546.13 94.5,560.87 " fill="none" id="Endpoint_1_1-backto-Cluster_1_1_x" style="stroke:#A80036;stroke-width:1.0;"/><polygon fill="#FFFFFF" points="94.5,500.03,90.5,506.03,94.5,512.03,98.5,506.03,94.5,500.03" style="stroke:#A80036;stroke-width:1.0;"/><!--MD5=[2529e3befb393b2233967a45ef74d65b]
reverse link Endpoint_1_2 to Cluster_1_2_x--><path codeLine="152" d="M304.5,513.46 C304.5,529.19 304.5,546.13 304.5,560.87 " fill="none" id="Endpoint_1_2-backto-Cluster_1_2_x" style="stroke:#A80036;stroke-width:1.0;"/><polygon fill="#FFFFFF" points="304.5,500.03,300.5,506.03,304.5,512.03,308.5,506.03,304.5,500.03" style="stroke:#A80036;stroke-width:1.0;"/><!--MD5=[3f06c63aa3823d1497db102fb277d2a6]
reverse link Endpoint_2_1 to Cluster_2_1_x--><path codeLine="153" d="M514.5,513.46 C514.5,529.19 514.5,546.13 514.5,560.87 " fill="none" id="Endpoint_2_1-backto-Cluster_2_1_x" style="stroke:#A80036;stroke-width:1.0;"/><polygon fill="#FFFFFF" points="514.5,500.03,510.5,506.03,514.5,512.03,518.5,506.03,514.5,500.03" style="stroke:#A80036;stroke-width:1.0;"/><!--MD5=[7b0e1afe309ed9e8d8a73159d054d54b]
reverse link Endpoint_3_1 to Cluster_3_1_x--><path codeLine="154" d="M724.5,513.46 C724.5,529.19 724.5,546.13 724.5,560.87 " fill="none" id="Endpoint_3_1-backto-Cluster_3_1_x" style="stroke:#A80036;stroke-width:1.0;"/><polygon fill="#FFFFFF" points="724.5,500.03,720.5,506.03,724.5,512.03,728.5,506.03,724.5,500.03" style="stroke:#A80036;stroke-width:1.0;"/><!--MD5=[4b294a62121558d6b17856a9440ebb87]
reverse link Endpoint_3_2 to Cluster_3_2_x--><path codeLine="155" d="M934.5,513.46 C934.5,529.19 934.5,546.13 934.5,560.87 " fill="none" id="Endpoint_3_2-backto-Cluster_3_2_x" style="stroke:#A80036;stroke-width:1.0;"/><polygon fill="#FFFFFF" points="934.5,500.03,930.5,506.03,934.5,512.03,938.5,506.03,934.5,500.03" style="stroke:#A80036;stroke-width:1.0;"/><!--MD5=[63e8dea6022eb8d0a3c189c798602217]
reverse link Endpoint_3_3 to Cluster_3_3_x--><path codeLine="156" d="M1144.5,513.46 C1144.5,529.19 1144.5,546.13 1144.5,560.87 " fill="none" id="Endpoint_3_3-backto-Cluster_3_3_x" style="stroke:#A80036;stroke-width:1.0;"/><polygon fill="#FFFFFF" points="1144.5,500.03,1140.5,506.03,1144.5,512.03,1148.5,506.03,1144.5,500.03" style="stroke:#A80036;stroke-width:1.0;"/><!--MD5=[a2c06ff72c2c77359c3f853ee4c2abda]
@startuml inline_umlgraph_1.svg
class AttributeStoreRoot
entity Network <<instance>> {
  uint8_t search_key
  ...network data...
}
entity Device_1 <<instance>> {
  zigbee_eui64_t search_key
  ...device data...
}
entity Device_2 <<instance>> {
  zigbee_eui64_t search_key
  ...device data...
}
entity Device_3 <<instance>> {
  zigbee_eui64_t search_key
  ...device data...
}
entity Endpoint_1_1 <<instance>> {
  zigbee_endpoint_id_t search_key
  ...endpoint data...
}
entity Endpoint_1_2 <<instance>> {
  zigbee_endpoint_id_t search_key
  ...endpoint data...
}
entity Endpoint_2_1 <<instance>> {
  zigbee_endpoint_id_t search_key
  ...endpoint data...
}
entity Endpoint_3_1 <<instance>> {
  zigbee_endpoint_id_t search_key
  ...endpoint data...
}
entity Endpoint_3_2 <<instance>> {
  zigbee_endpoint_id_t search_key
  ...endpoint data...
}
entity Endpoint_3_3 <<instance>> {
  zigbee_endpoint_id_t search_key
  ...endpoint data...
}
entity Cluster_1_1_x <<instance>> {
  zcl_cluster_id_t search_key
  ...cluster data...
}
entity Cluster_1_2_x <<instance>> {
  zcl_cluster_id_t search_key
  ...cluster data...
}
entity Cluster_2_1_x <<instance>> {
  zcl_cluster_id_t search_key
  ...cluster data...
}
entity Cluster_3_1_x <<instance>> {
  zcl_cluster_id_t search_key
  ...cluster data...
}
entity Cluster_3_2_x <<instance>> {
  zcl_cluster_id_t search_key
  ...cluster data...
}
entity Cluster_3_3_x <<instance>> {
  zcl_cluster_id_t search_key
  ...cluster data...
}

AttributeStoreRoot o-down- Network: 1..1
Network o-down- Device_1
Network o-down- Device_2
Network o-down- Device_3
Device_1 o-down- Endpoint_1_1
Device_1 o-down- Endpoint_1_2
Device_2 o-down- Endpoint_2_1
Device_3 o-down- Endpoint_3_1
Device_3 o-down- Endpoint_3_2
Device_3 o-down- Endpoint_3_3
Endpoint_1_1 o-down- Cluster_1_1_x
Endpoint_1_2 o-down- Cluster_1_2_x
Endpoint_2_1 o-down- Cluster_2_1_x
Endpoint_3_1 o-down- Cluster_3_1_x
Endpoint_3_2 o-down- Cluster_3_2_x
Endpoint_3_3 o-down- Cluster_3_3_x
@enduml

PlantUML version 1.2022.0(Tue Jan 11 16:16:42 UTC 2022)
(GPL source distribution)
Java Runtime: OpenJDK Runtime Environment
JVM: OpenJDK 64-Bit Server VM
Default Encoding: ANSI_X3.4-1968
Language: en
Country: US
--></g></svg>