<?xml version="1.0" standalone="no"?>
<!DOCTYPE svg PUBLIC "-//W3C//DTD SVG 20010904//EN"
 "http://www.w3.org/TR/2001/REC-SVG-20010904/DTD/svg10.dtd">
<svg version="1.0" xmlns="http://www.w3.org/2000/svg"
 width="340.000000pt" height="340.000000pt" viewBox="0 0 340.000000 340.000000"
 preserveAspectRatio="xMidYMid meet">

<g transform="translate(0.000000,340.000000) scale(0.100000,-0.100000)"
fill="#000000" stroke="none">
<path d="M3268 2360 c-27 -28 -30 -36 -25 -76 6 -56 30 -84 73 -84 70 0 99
101 45 159 -36 39 -55 39 -93 1z m86 -22 c18 -25 21 -83 6 -93 -11 -7 -25 39
-16 54 12 19 -6 41 -35 41 -28 0 -29 -2 -29 -50 0 -50 16 -70 22 -27 3 21 4
21 22 -6 16 -23 17 -30 6 -37 -23 -14 -59 11 -70 48 -13 49 10 92 50 92 19 0
34 -8 44 -22z m-29 -19 c10 -15 -1 -23 -20 -15 -9 3 -13 10 -10 16 8 13 22 13
30 -1z"/>
<path d="M3000 2308 c0 -2 22 -27 49 -55 90 -94 89 -175 -4 -269 -40 -40 -70
-58 -144 -88 l-95 -37 -95 16 c-146 24 -201 36 -201 43 1 4 19 20 41 35 78 54
84 130 16 194 -41 39 -58 48 -148 73 -350 97 -806 -16 -1052 -261 -159 -159
-121 -311 97 -384 67 -23 100 -27 235 -31 251 -7 401 -33 401 -69 0 -7 -15
-15 -32 -18 -18 -3 -93 -17 -167 -31 -197 -39 -350 -51 -600 -49 -239 1 -288
7 -436 55 -108 35 -161 65 -205 114 -68 78 -76 139 -30 231 41 82 123 162 255
247 94 61 231 136 248 136 3 0 34 13 69 29 35 15 84 34 111 41 26 7 50 16 52
21 11 16 -279 -79 -405 -133 -310 -135 -531 -272 -704 -436 -189 -181 -259
-386 -184 -539 37 -77 142 -174 239 -222 82 -40 265 -102 298 -100 9 0 3 5
-14 11 -40 15 -125 70 -152 99 -66 72 -51 135 55 240 42 41 103 93 134 113 48
32 62 37 90 31 40 -9 241 -66 247 -71 2 -2 -13 -22 -33 -44 -21 -23 -36 -50
-36 -65 0 -58 107 -132 240 -166 80 -20 340 -17 460 5 284 52 508 165 614 308
27 37 31 50 31 106 l0 64 -51 47 c-83 76 -171 101 -404 112 -102 5 -212 14
-245 20 -57 10 -145 52 -145 69 0 10 152 47 245 60 186 26 308 40 409 46 110
6 322 -7 424 -26 28 -6 78 -15 110 -21 135 -26 264 -106 298 -186 33 -75 -2
-193 -80 -275 -45 -47 -146 -126 -208 -162 -84 -49 -57 -43 62 13 151 70 350
198 455 292 178 159 254 287 263 440 4 78 2 91 -23 147 -42 93 -164 199 -285
246 -25 10 -51 22 -57 28 -7 6 -13 9 -13 6z"/>
<path d="M1398 2263 c7 -3 16 -2 19 1 4 3 -2 6 -13 5 -11 0 -14 -3 -6 -6z"/>
</g>
</svg>
